<svg width="120" height="120" xmlns="http://www.w3.org/2000/svg"><g fill-rule="nonzero" fill="none"><path d="M103.6 87L98 73.25a.75.75 0 00-.7-.46h-54l-.14-.44a.76.76 0 00-.68-.52l-25-1a.74.74 0 00-.74.52l-.66 2a.77.77 0 000 .45l4.7 15.69a.74.74 0 00.72.54h80.85a.75.75 0 00.71-.52l.66-2a.72.72 0 00-.12-.51z" fill="#777576"/><path stroke="#777576" stroke-width="1.5" fill="#BAB9BA" stroke-linecap="round" stroke-linejoin="round" d="M49.01 87.25H22.06l-4.7-15.7h26.95z"/><path stroke="#777576" stroke-width="1.5" fill="#DCDCDC" stroke-linecap="round" stroke-linejoin="round" d="M75.96 87.25H49.01l-4.7-15.7h26.95z"/><path stroke="#777576" stroke-width="1.5" fill="#BAB9BA" stroke-linecap="round" stroke-linejoin="round" d="M102.91 87.25H75.96l-4.7-15.7h26.95z"/><path d="M21.93 86.69v.07h.33a.45.45 0 00-.26-.08l-.07.01zM23.13 83.67a.45.45 0 00.45-.38.46.46 0 00-.45-.58.46.46 0 00-.42.58.44.44 0 00.42.38zM21.4 83.77a.46.46 0 00-.32.11l.26.84h.06a.48.48 0 000-.95zM26 85.62a.5.5 0 100 1 .5.5 0 000-1zM27.51 86.76H28a.4.4 0 00-.26-.08.45.45 0 00-.23.08zM24 86.76h.53a.45.45 0 00-.26-.08.46.46 0 00-.27.08zM28.89 83.67a.45.45 0 00.46-.38.46.46 0 00-.46-.58.5.5 0 100 1v-.04zM27.15 83.77a.5.5 0 100 1 .5.5 0 000-1zM24.89 83.77a.5.5 0 100 1 .5.5 0 000-1zM23.16 84.83a.5.5 0 100 1 .5.5 0 100-1zM31.79 85.62a.5.5 0 100 1 .5.5 0 000-1zM33.26 86.76h.53a.45.45 0 00-.26-.08.46.46 0 00-.27.08zM29.77 86.76h.52a.46.46 0 00-.52 0zM34.64 83.67a.45.45 0 00.45-.38.46.46 0 00-.45-.58.46.46 0 00-.42.58.44.44 0 00.42.38zM32.91 83.77a.5.5 0 100 1 .5.5 0 000-1zM30.65 83.77a.5.5 0 100 1 .5.5 0 000-1zM28.91 84.83a.5.5 0 100 1 .5.5 0 100-1zM37.55 85.62a.5.5 0 100 1 .5.5 0 000-1zM39 86.76h.52a.4.4 0 00-.26-.08.45.45 0 00-.26.08zM35.52 86.76h.53a.45.45 0 00-.26-.08.46.46 0 00-.27.08zM40.4 83.67a.45.45 0 00.46-.38.46.46 0 00-.46-.58.5.5 0 100 1v-.04zM38.66 83.77a.5.5 0 100 1 .5.5 0 000-1zM36.4 83.77a.5.5 0 100 1 .5.5 0 000-1zM34.67 84.83a.5.5 0 100 1 .5.5 0 100-1zM43.3 85.62a.5.5 0 100 1 .5.5 0 000-1zM44.77 86.76h.53a.45.45 0 00-.26-.08.46.46 0 00-.27.08zM41.28 86.76h.52a.46.46 0 00-.52 0zM46.15 83.67a.45.45 0 00.45-.38.46.46 0 00-.45-.58.46.46 0 00-.42.58.45.45 0 00.42.38zM44.42 83.77a.5.5 0 100 1 .5.5 0 000-1zM42.16 83.77a.5.5 0 100 1 .5.5 0 000-1zM40.42 84.83a.5.5 0 100 1 .5.5 0 100-1zM49.06 85.62a.5.5 0 100 1 .5.5 0 000-1zM50.53 86.76h.52a.4.4 0 00-.26-.08.45.45 0 00-.26.08zM47 86.76h.53a.45.45 0 00-.26-.08.46.46 0 00-.27.08zM51.91 83.67a.45.45 0 00.46-.38.46.46 0 00-.46-.58.5.5 0 100 1v-.04zM50.17 83.77a.5.5 0 100 1 .5.5 0 000-1zM47.91 83.77a.5.5 0 100 1 .5.5 0 000-1zM46.18 84.83a.5.5 0 100 1 .5.5 0 100-1zM54.81 85.62a.5.5 0 100 1 .5.5 0 000-1zM56.28 86.76h.53a.45.45 0 00-.26-.08.46.46 0 00-.27.08zM52.79 86.76h.52a.46.46 0 00-.52 0zM57.66 83.67a.45.45 0 00.45-.38.46.46 0 00-.45-.58.46.46 0 00-.42.58.45.45 0 00.42.38zM55.93 83.77a.5.5 0 100 1 .5.5 0 000-1zM53.67 83.77a.5.5 0 100 1 .5.5 0 000-1zM51.93 84.83a.5.5 0 100 1 .5.5 0 100-1zM60.57 85.62a.5.5 0 100 1 .5.5 0 000-1zM62 86.76h.52a.4.4 0 00-.26-.08.45.45 0 00-.26.08zM58.54 86.76h.53a.45.45 0 00-.26-.08.46.46 0 00-.27.08zM63.42 83.67a.45.45 0 00.46-.38.46.46 0 00-.46-.58.5.5 0 100 1v-.04zM61.68 83.77a.5.5 0 100 1 .5.5 0 000-1zM59.42 83.77a.5.5 0 100 1 .5.5 0 000-1zM57.69 84.83a.5.5 0 100 1 .5.5 0 100-1zM66.32 85.62a.5.5 0 100 1 .5.5 0 000-1zM67.79 86.76h.53a.45.45 0 00-.26-.08.46.46 0 00-.27.08zM64.3 86.76h.52a.46.46 0 00-.52 0zM69.17 83.67a.45.45 0 00.45-.38.46.46 0 00-.45-.58.46.46 0 00-.42.58.45.45 0 00.42.38zM67.44 83.77a.5.5 0 100 1 .5.5 0 000-1zM65.18 83.77a.5.5 0 100 1 .5.5 0 000-1zM63.44 84.83a.5.5 0 100 1 .5.5 0 100-1zM72.08 85.62a.5.5 0 100 1 .5.5 0 000-1zM73.55 86.76h.53a.46.46 0 00-.27-.08.45.45 0 00-.26.08zM70.05 86.76h.53a.45.45 0 00-.26-.08.46.46 0 00-.27.08zM74.93 83.67a.45.45 0 00.46-.38.46.46 0 00-.46-.58.5.5 0 100 1v-.04zM73.19 83.77a.5.5 0 100 1 .5.5 0 000-1zM70.93 83.77a.5.5 0 100 1 .5.5 0 000-1zM69.2 84.83a.5.5 0 100 1 .5.5 0 100-1zM77.83 85.62a.5.5 0 100 1 .5.5 0 000-1zM79.3 86.76h.53a.45.45 0 00-.26-.08.46.46 0 00-.27.08zM75.81 86.76h.52a.46.46 0 00-.52 0zM80.68 83.67a.45.45 0 00.45-.38.46.46 0 00-.45-.58.46.46 0 00-.42.58.45.45 0 00.42.38zM79 83.77a.5.5 0 100 1 .5.5 0 000-1zM76.69 83.77a.5.5 0 100 1 .5.5 0 000-1zM75 84.83a.5.5 0 100 1 .5.5 0 100-1zM83.59 85.62a.5.5 0 100 1 .5.5 0 000-1zM85.06 86.76h.52a.4.4 0 00-.26-.08.45.45 0 00-.26.08zM81.56 86.76h.53a.45.45 0 00-.26-.08.46.46 0 00-.27.08zM86.44 83.67a.45.45 0 00.46-.38.46.46 0 00-.46-.58.5.5 0 100 1v-.04zM84.7 83.77a.5.5 0 100 1 .5.5 0 000-1zM82.44 83.77a.5.5 0 100 1 .5.5 0 000-1zM80.71 84.83a.5.5 0 100 1 .5.5 0 100-1zM89.34 85.62a.5.5 0 100 1 .5.5 0 000-1zM90.81 86.76h.53a.45.45 0 00-.26-.08.46.46 0 00-.27.08zM87.32 86.76h.52a.46.46 0 00-.52 0zM92.19 83.67a.45.45 0 00.45-.38.46.46 0 00-.45-.58.46.46 0 00-.42.58.45.45 0 00.42.38zM90.46 83.77a.5.5 0 100 1 .5.5 0 000-1zM88.2 83.77a.5.5 0 100 1 .5.5 0 000-1zM86.46 84.83a.5.5 0 100 1 .5.5 0 100-1zM95.1 85.62a.5.5 0 100 1 .5.5 0 000-1zM96.57 86.76h.53a.46.46 0 00-.27-.08.45.45 0 00-.26.08zM93.07 86.76h.53a.45.45 0 00-.26-.08.46.46 0 00-.27.08zM98 83.67a.45.45 0 00.46-.38.46.46 0 00-.46-.58.5.5 0 100 1v-.04zM96.21 83.77a.5.5 0 100 1 .5.5 0 000-1zM94 83.77a.5.5 0 100 1 .5.5 0 000-1zM92.22 84.83a.5.5 0 100 1 .5.5 0 100-1zM100.85 85.62a.5.5 0 100 1 .5.5 0 000-1zM102.79 86.72a.65.65 0 00-.2 0 .46.46 0 00-.27.08h.48l-.01-.08zM98.83 86.76h.52a.46.46 0 00-.52 0zM102 84.73a.42.42 0 00.2 0l-.27-.91a.48.48 0 00.07.91zM99.71 83.77a.5.5 0 100 1 .5.5 0 000-1zM98 84.83a.5.5 0 100 1 .5.5 0 100-1zM21.4 81.65a.5.5 0 100 1 .5.5 0 000-1zM20.28 75.55a.5.5 0 100 1 .5.5 0 000-1zM22 78.73a.5.5 0 100 1 .5.5 0 000-1zM20.28 79.79a.43.43 0 00-.37.19l.22.75h.15a.48.48 0 000-.94zM20.28 77.67a.5.5 0 100 1 .5.5 0 000-1zM22 76.61a.5.5 0 100 1 .5.5 0 000-1zM23.13 73.59a.44.44 0 00.45-.37.46.46 0 00-.45-.58.46.46 0 00-.42.58.42.42 0 00.42.37zM21.4 74.66a.5.5 0 100-1 .5.5 0 000 1zM19.14 73.7a.5.5 0 100 1 .5.5 0 000-1zM27.15 82.61a.5.5 0 100-1 .5.5 0 000 1zM23.16 80.59a.5.5 0 100 1 .5.5 0 100-1zM24.89 81.65a.5.5 0 100 1 .5.5 0 000-1zM26 75.55a.5.5 0 100 1 .5.5 0 000-1zM27.77 78.73a.5.5 0 100 1 .5.5 0 000-1zM26 79.79a.5.5 0 100 1 .5.5 0 000-1zM26 77.67a.5.5 0 100 1 .5.5 0 000-1zM27.77 76.61a.5.5 0 100 1 .5.5 0 000-1zM24.28 78.73a.5.5 0 100 1 .5.5 0 000-1zM24.28 77.57a.5.5 0 100-1 .5.5 0 000 1zM28.89 73.59a.44.44 0 00.46-.37.46.46 0 00-.46-.58.46.46 0 00-.43.58.44.44 0 00.43.37zM27.15 74.66a.5.5 0 100-1 .5.5 0 000 1zM24.89 73.7a.5.5 0 100 1 .5.5 0 000-1zM23.16 74.76a.5.5 0 100 1 .5.5 0 100-1zM32.91 82.61a.5.5 0 100-1 .5.5 0 000 1zM28.91 80.59a.5.5 0 100 1 .5.5 0 100-1zM30.65 81.65a.5.5 0 100 1 .5.5 0 000-1zM31.79 75.55a.5.5 0 100 1 .5.5 0 000-1zM33.53 78.73a.5.5 0 100 1 .5.5 0 000-1zM31.79 79.79a.5.5 0 100 1 .5.5 0 000-1zM31.79 77.67a.5.5 0 100 1 .5.5 0 000-1zM33.53 76.61a.5.5 0 100 1 .5.5 0 000-1zM30 78.73a.5.5 0 100 1 .5.5 0 000-1zM30 77.57a.5.5 0 100-1 .5.5 0 000 1zM34.64 73.59a.44.44 0 00.45-.37.46.46 0 00-.45-.58.46.46 0 00-.42.58.42.42 0 00.42.37zM32.91 74.66a.5.5 0 100-1 .5.5 0 000 1zM30.65 73.7a.5.5 0 100 1 .5.5 0 000-1zM28.91 74.76a.5.5 0 100 1 .5.5 0 100-1zM38.66 82.61a.5.5 0 100-1 .5.5 0 000 1zM34.67 80.59a.5.5 0 100 1 .5.5 0 100-1zM36.4 81.65a.5.5 0 100 1 .5.5 0 000-1zM37.55 75.55a.5.5 0 100 1 .5.5 0 000-1zM39.28 78.73a.5.5 0 100 1 .5.5 0 000-1zM37.55 79.79a.5.5 0 100 1 .5.5 0 000-1zM37.55 77.67a.5.5 0 100 1 .5.5 0 000-1zM39.28 76.61a.5.5 0 100 1 .5.5 0 000-1zM35.79 78.73a.5.5 0 100 1 .5.5 0 000-1zM35.79 77.57a.5.5 0 100-1 .5.5 0 000 1zM40.4 73.59a.44.44 0 00.46-.37.46.46 0 00-.46-.58.46.46 0 00-.43.58.44.44 0 00.43.37zM38.66 74.66a.5.5 0 100-1 .5.5 0 000 1zM36.4 73.7a.5.5 0 100 1 .5.5 0 000-1zM34.67 74.76a.5.5 0 100 1 .5.5 0 100-1zM44.42 82.61a.5.5 0 100-1 .5.5 0 000 1zM40.42 80.59a.5.5 0 100 1 .5.5 0 100-1zM42.16 81.65a.5.5 0 100 1 .5.5 0 000-1zM43.3 75.55a.5.5 0 100 1 .5.5 0 000-1zM45 78.73a.5.5 0 100 1 .5.5 0 000-1zM43.3 79.79a.5.5 0 100 1 .5.5 0 000-1zM43.3 77.67a.5.5 0 100 1 .5.5 0 000-1zM45 76.61a.5.5 0 100 1 .5.5 0 000-1zM41.54 78.73a.5.5 0 100 1 .5.5 0 000-1zM41.54 77.57a.5.5 0 100-1 .5.5 0 000 1zM46.15 73.59a.44.44 0 00.45-.37.46.46 0 00-.45-.58.46.46 0 00-.42.58.43.43 0 00.42.37zM44.42 74.66a.5.5 0 100-1 .5.5 0 000 1zM42.16 73.7a.5.5 0 100 1 .5.5 0 000-1zM40.42 74.76a.5.5 0 100 1 .5.5 0 100-1zM50.17 82.61a.5.5 0 100-1 .5.5 0 000 1zM46.18 80.59a.5.5 0 100 1 .5.5 0 100-1zM47.91 81.65a.5.5 0 100 1 .5.5 0 000-1zM49.06 75.55a.5.5 0 100 1 .5.5 0 000-1zM50.79 78.73a.5.5 0 100 1 .5.5 0 000-1zM49.06 79.79a.5.5 0 100 1 .5.5 0 000-1zM49.06 77.67a.5.5 0 100 1 .5.5 0 000-1zM50.79 76.61a.5.5 0 100 1 .5.5 0 000-1zM47.3 78.73a.5.5 0 100 1 .5.5 0 000-1zM47.3 77.57a.5.5 0 100-1 .5.5 0 000 1zM51.91 73.59a.44.44 0 00.46-.37.46.46 0 00-.46-.58.46.46 0 00-.43.58.44.44 0 00.43.37zM50.17 74.66a.5.5 0 100-1 .5.5 0 000 1zM47.91 73.7a.5.5 0 100 1 .5.5 0 000-1zM46.18 74.76a.5.5 0 100 1 .5.5 0 100-1zM55.93 82.61a.5.5 0 100-1 .5.5 0 000 1zM51.93 80.59a.5.5 0 100 1 .5.5 0 100-1zM53.67 81.65a.5.5 0 100 1 .5.5 0 000-1zM54.81 75.55a.5.5 0 100 1 .5.5 0 000-1zM56.55 78.73a.5.5 0 100 1 .5.5 0 000-1zM54.81 79.79a.5.5 0 100 1 .5.5 0 000-1zM54.81 77.67a.5.5 0 100 1 .5.5 0 000-1zM56.55 76.61a.5.5 0 100 1 .5.5 0 000-1zM53.05 78.73a.5.5 0 100 1 .5.5 0 000-1zM53.05 77.57a.5.5 0 100-1 .5.5 0 000 1zM57.66 73.59a.44.44 0 00.45-.37.46.46 0 00-.45-.58.46.46 0 00-.42.58.43.43 0 00.42.37zM55.93 74.66a.5.5 0 100-1 .5.5 0 000 1zM53.67 73.7a.5.5 0 100 1 .5.5 0 000-1zM51.93 74.76a.5.5 0 100 1 .5.5 0 100-1zM61.68 82.61a.5.5 0 100-1 .5.5 0 000 1zM57.69 80.59a.5.5 0 100 1 .5.5 0 100-1zM59.42 81.65a.5.5 0 100 1 .5.5 0 000-1zM60.57 75.55a.5.5 0 100 1 .5.5 0 000-1zM62.3 78.73a.5.5 0 100 1 .5.5 0 000-1zM60.57 79.79a.5.5 0 100 1 .5.5 0 000-1zM60.57 77.67a.5.5 0 100 1 .5.5 0 000-1zM62.3 76.61a.5.5 0 100 1 .5.5 0 000-1zM58.81 78.73a.5.5 0 100 1 .5.5 0 000-1zM58.81 77.57a.5.5 0 100-1 .5.5 0 000 1zM63.42 73.59a.44.44 0 00.46-.37.46.46 0 00-.46-.58.46.46 0 00-.43.58.44.44 0 00.43.37zM61.68 74.66a.5.5 0 100-1 .5.5 0 000 1zM59.42 73.7a.5.5 0 100 1 .5.5 0 000-1zM57.69 74.76a.5.5 0 100 1 .5.5 0 100-1zM67.44 82.61a.5.5 0 100-1 .5.5 0 000 1zM63.44 80.59a.5.5 0 100 1 .5.5 0 100-1zM65.18 81.65a.5.5 0 100 1 .5.5 0 000-1zM66.32 75.55a.5.5 0 100 1 .5.5 0 000-1zM68.06 78.73a.5.5 0 100 1 .5.5 0 000-1zM66.32 79.79a.5.5 0 100 1 .5.5 0 000-1zM66.32 77.67a.5.5 0 100 1 .5.5 0 000-1zM68.06 76.61a.5.5 0 100 1 .5.5 0 000-1zM64.56 78.73a.5.5 0 100 1 .5.5 0 000-1zM64.56 77.57a.5.5 0 100-1 .5.5 0 000 1zM69.17 73.59a.44.44 0 00.45-.37.46.46 0 00-.45-.58.46.46 0 00-.42.58.43.43 0 00.42.37zM67.44 74.66a.5.5 0 100-1 .5.5 0 000 1zM65.18 73.7a.5.5 0 100 1 .5.5 0 000-1zM63.44 74.76a.5.5 0 100 1 .5.5 0 100-1zM73.19 82.61a.5.5 0 100-1 .5.5 0 000 1zM69.2 80.59a.5.5 0 100 1 .5.5 0 100-1zM70.93 81.65a.5.5 0 100 1 .5.5 0 000-1zM72.08 75.55a.5.5 0 100 1 .5.5 0 000-1zM73.81 78.73a.5.5 0 100 1 .5.5 0 000-1zM72.08 79.79a.5.5 0 100 1 .5.5 0 000-1zM72.08 77.67a.5.5 0 100 1 .5.5 0 000-1zM73.81 76.61a.5.5 0 100 1 .5.5 0 000-1zM70.32 78.73a.5.5 0 100 1 .5.5 0 000-1zM70.32 77.57a.5.5 0 100-1 .5.5 0 000 1zM74.93 73.59a.44.44 0 00.46-.37.46.46 0 00-.46-.58.46.46 0 00-.43.58.44.44 0 00.43.37zM73.19 74.66a.5.5 0 100-1 .5.5 0 000 1zM70.93 73.7a.5.5 0 100 1 .5.5 0 000-1zM69.2 74.76a.5.5 0 100 1 .5.5 0 100-1zM79 82.61a.5.5 0 100-1 .5.5 0 000 1zM75 80.59a.5.5 0 100 1 .5.5 0 100-1zM76.69 81.65a.5.5 0 100 1 .5.5 0 000-1zM77.83 75.55a.5.5 0 100 1 .5.5 0 000-1zM79.57 78.73a.5.5 0 100 1 .5.5 0 000-1zM77.83 79.79a.5.5 0 100 1 .5.5 0 000-1zM77.83 77.67a.5.5 0 100 1 .5.5 0 000-1zM79.57 76.61a.5.5 0 100 1 .5.5 0 000-1zM76.07 78.73a.5.5 0 100 1 .5.5 0 000-1zM76.07 77.57a.5.5 0 100-1 .5.5 0 000 1zM80.68 73.59a.44.44 0 00.45-.37.46.46 0 00-.45-.58.46.46 0 00-.42.58.43.43 0 00.42.37zM79 74.66a.5.5 0 100-1 .5.5 0 000 1zM76.69 73.7a.5.5 0 100 1 .5.5 0 000-1zM75 74.76a.5.5 0 100 1 .5.5 0 100-1zM84.7 82.61a.5.5 0 100-1 .5.5 0 000 1zM80.71 80.59a.5.5 0 100 1 .5.5 0 100-1zM82.44 81.65a.5.5 0 100 1 .5.5 0 000-1zM83.59 75.55a.5.5 0 100 1 .5.5 0 000-1zM85.32 78.73a.5.5 0 100 1 .5.5 0 000-1zM83.59 79.79a.5.5 0 100 1 .5.5 0 000-1zM83.59 77.67a.5.5 0 100 1 .5.5 0 000-1zM85.32 76.61a.5.5 0 100 1 .5.5 0 000-1zM81.83 78.73a.5.5 0 100 1 .5.5 0 000-1zM81.83 77.57a.5.5 0 100-1 .5.5 0 000 1zM86.44 73.59a.44.44 0 00.46-.37.46.46 0 00-.46-.58.46.46 0 00-.43.58.44.44 0 00.43.37zM84.7 74.66a.5.5 0 100-1 .5.5 0 000 1zM82.44 73.7a.5.5 0 100 1 .5.5 0 000-1zM80.71 74.76a.5.5 0 100 1 .5.5 0 100-1zM90.46 82.61a.5.5 0 100-1 .5.5 0 000 1zM86.46 80.59a.5.5 0 100 1 .5.5 0 100-1zM88.2 81.65a.5.5 0 100 1 .5.5 0 000-1zM89.34 75.55a.5.5 0 100 1 .5.5 0 000-1zM91.08 78.73a.5.5 0 100 1 .5.5 0 000-1zM89.34 79.79a.5.5 0 100 1 .5.5 0 000-1zM89.34 77.67a.5.5 0 100 1 .5.5 0 000-1zM91.08 76.61a.5.5 0 100 1 .5.5 0 000-1zM87.58 78.73a.5.5 0 100 1 .5.5 0 000-1zM87.58 77.57a.5.5 0 100-1 .5.5 0 000 1zM92.19 73.59a.44.44 0 00.45-.37.46.46 0 00-.45-.58.46.46 0 00-.42.58.43.43 0 00.42.37zM90.46 74.66a.5.5 0 100-1 .5.5 0 000 1zM88.2 73.7a.5.5 0 100 1 .5.5 0 000-1zM86.46 74.76a.5.5 0 100 1 .5.5 0 100-1zM96.21 82.61a.5.5 0 100-1 .5.5 0 000 1zM92.22 80.59a.5.5 0 100 1 .5.5 0 100-1zM94 81.65a.5.5 0 100 1 .5.5 0 000-1zM95.1 75.55a.5.5 0 100 1 .5.5 0 000-1zM96.83 78.73a.5.5 0 100 1 .5.5 0 000-1zM95.1 79.79a.5.5 0 100 1 .5.5 0 000-1zM95.1 77.67a.5.5 0 100 1 .5.5 0 000-1zM96.83 76.61a.5.5 0 100 1 .5.5 0 000-1zM93.34 78.73a.5.5 0 100 1 .5.5 0 000-1zM93.34 77.57a.5.5 0 100-1 .5.5 0 000 1zM98 73.59a.44.44 0 00.46-.37.46.46 0 00-.46-.58.46.46 0 00-.43.58.44.44 0 00.43.37zM96.21 74.66a.5.5 0 100-1 .5.5 0 000 1zM94 73.7a.5.5 0 100 1 .5.5 0 000-1zM92.22 74.76a.5.5 0 100 1 .5.5 0 100-1zM98 80.59a.5.5 0 100 1 .5.5 0 100-1zM99.71 81.65a.5.5 0 100 1 .5.5 0 000-1zM100.85 80.75h.15l-.27-.93a.48.48 0 00.12.93zM99.09 78.73a.5.5 0 100 1 .5.5 0 000-1zM99.09 77.57a.5.5 0 100-1 .5.5 0 000 1zM98 74.76a.5.5 0 100 1 .5.5 0 100-1zM21.4 72.53a.5.5 0 100-1 .5.5 0 000 1zM17.38 71.33h-.07v.14a.42.42 0 00.34-.14h-.27zM17.86 73.18a.52.52 0 00-.12-.41l.12.41zM19.14 71.57a.5.5 0 100 1 .5.5 0 000-1zM27.15 72.53a.5.5 0 100-1 .5.5 0 000 1zM23.16 71.47a.43.43 0 00.34-.14h-.68a.4.4 0 00.31.14h.03zM24.89 71.57a.5.5 0 100 1 .5.5 0 000-1zM32.91 72.53a.5.5 0 100-1 .5.5 0 000 1zM28.91 71.47a.42.42 0 00.34-.14h-.68a.44.44 0 00.32.14h.02zM30.65 71.57a.5.5 0 100 1 .5.5 0 000-1zM38.66 72.53a.5.5 0 100-1 .5.5 0 000 1zM34.67 71.47a.43.43 0 00.34-.14h-.68a.4.4 0 00.31.14h.03zM36.4 71.57a.5.5 0 100 1 .5.5 0 000-1zM44.42 72.53a.5.5 0 100-1 .5.5 0 000 1zM40.42 71.47a.42.42 0 00.34-.14h-.68a.44.44 0 00.32.14h.02zM42.16 71.57a.5.5 0 100 1 .5.5 0 000-1zM50.17 72.53a.5.5 0 100-1 .5.5 0 000 1zM46.18 71.47a.43.43 0 00.34-.14h-.68a.41.41 0 00.31.14h.03zM47.91 71.57a.5.5 0 100 1 .5.5 0 000-1zM55.93 72.53a.5.5 0 100-1 .5.5 0 000 1zM51.93 71.47a.42.42 0 00.34-.14h-.68a.44.44 0 00.32.14h.02zM53.67 71.57a.5.5 0 100 1 .5.5 0 000-1zM61.68 72.53a.5.5 0 100-1 .5.5 0 000 1zM57.69 71.47a.43.43 0 00.34-.14h-.68a.4.4 0 00.31.14h.03zM59.42 71.57a.5.5 0 100 1 .5.5 0 000-1zM67.44 72.53a.5.5 0 100-1 .5.5 0 000 1zM63.44 71.47a.42.42 0 00.34-.14h-.68a.44.44 0 00.32.14h.02zM65.18 71.57a.5.5 0 100 1 .5.5 0 000-1zM73.19 72.53a.5.5 0 100-1 .5.5 0 000 1zM69.2 71.47a.43.43 0 00.34-.14h-.68a.41.41 0 00.31.14h.03zM70.93 71.57a.5.5 0 100 1 .5.5 0 000-1zM79 72.53a.5.5 0 100-1 .5.5 0 000 1zM75 71.47a.42.42 0 00.34-.14h-.68a.44.44 0 00.32.14H75zM76.69 71.57a.5.5 0 100 1 .5.5 0 000-1zM84.7 72.53a.5.5 0 100-1 .5.5 0 000 1zM80.71 71.47a.43.43 0 00.34-.14h-.68a.41.41 0 00.31.14h.03zM82.44 71.57a.5.5 0 100 1 .5.5 0 000-1zM90.46 72.53a.5.5 0 100-1 .5.5 0 000 1zM86.46 71.47a.42.42 0 00.34-.14h-.68a.44.44 0 00.32.14h.02zM88.2 71.57a.5.5 0 100 1 .5.5 0 000-1zM96.21 72.53a.5.5 0 100-1 .5.5 0 000 1zM92.22 71.47a.43.43 0 00.34-.14h-.68a.41.41 0 00.31.14h.03zM94 71.57a.5.5 0 100 1 .5.5 0 000-1zM98 71.47a.46.46 0 00.21 0v-.1h-.52a.44.44 0 00.32.14l-.01-.04z" fill="#777576" opacity=".35"/><path d="M101.14 80.8l-2.58-8.51a.74.74 0 00-.71-.53L31 71.68a.75.75 0 00-.72.96l2.59 8.59a.74.74 0 00.71.54h66.83a.75.75 0 00.6-.31.71.71 0 00.13-.66z" fill="#777576" opacity=".25"/><path stroke="#777576" stroke-width="1.5" fill="#DCDCDC" stroke-linecap="round" stroke-linejoin="round" d="M68.95 66.04H42l-4.87-15.7h26.95z"/><path d="M117.27 76.09l-5.59-13.43a.76.76 0 00-.7-.47H57.11l-26.62-1c-.31-.06-.62.24-.75.52a.81.81 0 000 .51l4.65 16.39a.74.74 0 00.72.54h80.85a.74.74 0 00.71-.51l.66-2a.74.74 0 00-.06-.55z" fill="#777576"/><path stroke="#777576" stroke-width="1.5" fill="#DCDCDC" stroke-linecap="round" stroke-linejoin="round" d="M62.68 76.38H35.73l-4.64-15.42h26.95z"/><path stroke="#777576" stroke-width="1.5" fill="#BAB9BA" stroke-linecap="round" stroke-linejoin="round" d="M89.63 76.38H62.68l-4.64-15.42h26.95z"/><path stroke="#777576" stroke-width="1.5" fill="#DCDCDC" stroke-linecap="round" stroke-linejoin="round" d="M116.58 76.38H89.63l-4.64-15.42h26.95z"/><path d="M35.85 76.32v.07h.33a.42.42 0 00-.26-.08l-.07.01zM37.05 73.3a.44.44 0 00.46-.37.47.47 0 00-.46-.59.47.47 0 00-.42.59.44.44 0 00.42.37zM35.32 73.4a.44.44 0 00-.31.12l.25.84h.06a.48.48 0 100-.96zM40 75.25a.5.5 0 100 1 .5.5 0 000-1zM41.43 76.39H42a.45.45 0 00-.26-.08.46.46 0 00-.31.08zM37.94 76.39h.52a.46.46 0 00-.52 0zM42.81 73.3a.44.44 0 00.45-.37.47.47 0 00-.45-.59.46.46 0 00-.42.59.42.42 0 00.42.37zM41.08 73.4a.5.5 0 100 1 .5.5 0 000-1zM38.82 73.4a.5.5 0 100 1 .5.5 0 000-1zM37.08 74.46a.5.5 0 100 1 .5.5 0 100-1zM45.72 75.25a.5.5 0 100 1 .5.5 0 000-1zM47.19 76.39h.52a.46.46 0 00-.52 0zM43.69 76.39h.53a.46.46 0 00-.27-.08.45.45 0 00-.26.08zM48.56 73.3a.44.44 0 00.46-.37.47.47 0 00-.46-.59.47.47 0 00-.42.59.44.44 0 00.42.37zM46.83 73.4a.5.5 0 100 1 .5.5 0 000-1zM44.57 73.4a.5.5 0 100 1 .5.5 0 000-1zM42.84 74.46a.5.5 0 100 1 .5.5 0 100-1zM51.47 75.25a.5.5 0 100 1 .5.5 0 000-1zM52.94 76.39h.53a.45.45 0 00-.26-.08.46.46 0 00-.27.08zM49.45 76.39H50a.46.46 0 00-.52 0h-.03zM54.32 73.3a.44.44 0 00.45-.37.47.47 0 00-.45-.59.46.46 0 00-.42.59.42.42 0 00.42.37zM52.59 73.4a.5.5 0 100 1 .5.5 0 000-1zM50.33 73.4a.5.5 0 100 1 .5.5 0 000-1zM48.59 74.46a.5.5 0 100 1 .5.5 0 100-1zM57.23 75.25a.5.5 0 100 1 .5.5 0 000-1zM58.7 76.39h.52a.46.46 0 00-.52 0zM55.2 76.39h.53a.46.46 0 00-.27-.08.45.45 0 00-.26.08zM60.07 73.3a.44.44 0 00.46-.37.47.47 0 00-.46-.59.47.47 0 00-.42.59.44.44 0 00.42.37zM58.34 73.4a.5.5 0 100 1 .5.5 0 000-1zM56.08 73.4a.5.5 0 100 1 .5.5 0 000-1zM54.35 74.46a.5.5 0 100 1 .5.5 0 100-1zM63 75.25a.5.5 0 100 1 .5.5 0 000-1zM64.45 76.39H65a.45.45 0 00-.26-.08.46.46 0 00-.29.08zM61 76.39h.52a.46.46 0 00-.52 0zM65.83 73.3a.44.44 0 00.45-.37.47.47 0 00-.45-.59.46.46 0 00-.42.59.42.42 0 00.42.37zM64.1 73.4a.5.5 0 100 1 .5.5 0 000-1zM61.84 73.4a.5.5 0 100 1 .5.5 0 000-1zM60.1 74.46a.5.5 0 100 1 .5.5 0 100-1zM68.74 75.25a.5.5 0 100 1 .5.5 0 000-1zM70.21 76.39h.52a.46.46 0 00-.52 0zM66.71 76.39h.53a.46.46 0 00-.27-.08.45.45 0 00-.26.08zM71.58 73.3a.44.44 0 00.46-.37.47.47 0 00-.46-.59.47.47 0 00-.42.59.44.44 0 00.42.37zM69.85 73.4a.5.5 0 100 1 .5.5 0 000-1zM67.59 73.4a.5.5 0 100 1 .5.5 0 000-1zM65.86 74.46a.5.5 0 100 1 .5.5 0 100-1zM74.49 75.25a.5.5 0 100 1 .5.5 0 000-1zM76 76.39h.53a.45.45 0 00-.26-.08.46.46 0 00-.27.08zM72.47 76.39H73a.46.46 0 00-.52 0h-.01zM77.34 73.3a.44.44 0 00.45-.37.47.47 0 00-.45-.59.46.46 0 00-.42.59.42.42 0 00.42.37zM75.61 73.4a.5.5 0 100 1 .5.5 0 000-1zM73.35 73.4a.5.5 0 100 1 .5.5 0 000-1zM71.61 74.46a.5.5 0 100 1 .5.5 0 100-1zM80.25 75.25a.5.5 0 100 1 .5.5 0 000-1zM81.72 76.39h.52a.46.46 0 00-.52 0zM78.22 76.39h.53a.46.46 0 00-.27-.08.45.45 0 00-.26.08zM83.09 73.3a.44.44 0 00.46-.37.47.47 0 00-.46-.59.47.47 0 00-.42.59.44.44 0 00.42.37zM81.36 73.4a.5.5 0 100 1 .5.5 0 000-1zM79.1 73.4a.5.5 0 100 1 .5.5 0 000-1zM77.37 74.46a.5.5 0 100 1 .5.5 0 100-1zM86 75.25a.5.5 0 100 1 .5.5 0 000-1zM87.47 76.39H88a.45.45 0 00-.26-.08.46.46 0 00-.27.08zM84 76.39h.52a.46.46 0 00-.52 0zM88.85 73.3a.44.44 0 00.45-.37.47.47 0 00-.45-.59.46.46 0 00-.42.59.42.42 0 00.42.37zM87.12 73.4a.5.5 0 100 1 .5.5 0 000-1zM84.86 73.4a.5.5 0 100 1 .5.5 0 000-1zM83.12 74.46a.5.5 0 100 1 .5.5 0 100-1zM91.76 75.25a.5.5 0 100 1 .5.5 0 000-1zM93.23 76.39h.52a.46.46 0 00-.52 0zM89.73 76.39h.53a.46.46 0 00-.27-.08.45.45 0 00-.26.08zM94.61 73.3a.44.44 0 00.46-.37.47.47 0 00-.46-.59.47.47 0 00-.43.59.44.44 0 00.43.37zM92.87 73.4a.5.5 0 100 1 .5.5 0 000-1zM90.61 73.4a.5.5 0 100 1 .5.5 0 000-1zM88.88 74.46a.5.5 0 100 1 .5.5 0 100-1zM97.51 75.25a.5.5 0 100 1 .5.5 0 000-1zM99 76.39h.53a.45.45 0 00-.26-.08.46.46 0 00-.27.08zM95.49 76.39H96a.46.46 0 00-.52 0h.01zM100.36 73.3a.44.44 0 00.45-.37.47.47 0 00-.45-.59.46.46 0 00-.42.59.42.42 0 00.42.37zM98.63 73.4a.5.5 0 100 1 .5.5 0 000-1zM96.37 73.4a.5.5 0 100 1 .5.5 0 000-1zM94.63 74.46a.5.5 0 100 1 .5.5 0 100-1zM103.27 75.25a.5.5 0 100 1 .5.5 0 000-1zM104.74 76.39h.52a.46.46 0 00-.52 0zM101.24 76.39h.53a.46.46 0 00-.27-.08.45.45 0 00-.26.08zM106.12 73.3a.44.44 0 00.46-.37.47.47 0 00-.46-.59.47.47 0 00-.43.59.44.44 0 00.43.37zM104.38 73.4a.5.5 0 100 1 .5.5 0 000-1zM102.12 73.4a.5.5 0 100 1 .5.5 0 000-1zM100.39 74.46a.5.5 0 100 1 .5.5 0 100-1zM109 75.25a.5.5 0 100 1 .5.5 0 000-1zM110.49 76.39h.51a.45.45 0 00-.51 0zM107 76.39h.52a.46.46 0 00-.52 0zM111.87 73.3a.44.44 0 00.45-.37.47.47 0 00-.45-.59.46.46 0 00-.42.59.42.42 0 00.42.37zM110.14 73.4a.5.5 0 100 1 .5.5 0 000-1zM107.88 73.4a.5.5 0 100 1 .5.5 0 000-1zM106.14 74.46a.5.5 0 000 1 .5.5 0 000-1zM114.78 75.25a.5.5 0 100 1 .5.5 0 000-1zM116.71 76.35a.59.59 0 00-.2 0 .42.42 0 00-.26.08h.47l-.01-.08zM112.75 76.39h.53a.46.46 0 00-.27-.08.45.45 0 00-.26.08zM115.89 74.36a.65.65 0 00.21 0l-.28-.92a.49.49 0 00.07.92zM113.63 73.4a.5.5 0 100 1 .5.5 0 000-1zM111.9 74.46a.5.5 0 000 1 .5.5 0 000-1zM35.32 71.28a.5.5 0 100 1 .5.5 0 000-1zM34.21 65.18a.5.5 0 100 1 .5.5 0 000-1zM35.94 68.36a.5.5 0 100 1 .5.5 0 000-1zM34.21 69.43a.44.44 0 00-.38.18l.23.75c.05.011.1.011.15 0a.48.48 0 000-.93zM34.21 67.3a.5.5 0 100 1 .5.5 0 000-1zM35.94 66.24a.5.5 0 100 1 .5.5 0 000-1zM37.05 63.23a.45.45 0 00.46-.38.46.46 0 00-.46-.58.46.46 0 00-.42.58.45.45 0 00.42.38zM35.32 64.29a.5.5 0 100-1 .5.5 0 000 1zM33.06 63.33a.5.5 0 100 1 .5.5 0 000-1zM41.08 72.24a.5.5 0 100-1 .5.5 0 000 1zM37.08 70.22a.5.5 0 100 1 .5.5 0 100-1zM38.82 71.28a.5.5 0 100 1 .5.5 0 000-1zM40 65.18a.5.5 0 100 1 .5.5 0 000-1zM41.7 68.36a.5.5 0 100 1 .5.5 0 000-1zM40 69.43a.48.48 0 000 .95.48.48 0 000-.95zM40 67.3a.5.5 0 100 1 .5.5 0 000-1zM41.7 66.24a.5.5 0 100 1 .5.5 0 000-1zM38.2 68.36a.5.5 0 100 1 .5.5 0 000-1zM38.2 67.2a.5.5 0 100-1 .5.5 0 000 1zM42.81 63.23a.45.45 0 00.45-.38.46.46 0 00-.45-.58.46.46 0 00-.42.58.43.43 0 00.42.38zM41.08 64.29a.5.5 0 100-1 .5.5 0 000 1zM38.82 63.33a.5.5 0 100 1 .5.5 0 000-1zM37.08 64.39a.5.5 0 100 1 .5.5 0 100-1zM46.83 72.24a.5.5 0 100-1 .5.5 0 000 1zM42.84 70.22a.5.5 0 100 1 .5.5 0 100-1zM44.57 71.28a.5.5 0 100 1 .5.5 0 000-1zM45.72 65.18a.5.5 0 100 1 .5.5 0 000-1zM47.45 68.36a.5.5 0 100 1 .5.5 0 000-1zM45.72 69.43a.48.48 0 000 .95.48.48 0 000-.95zM45.72 67.3a.5.5 0 100 1 .5.5 0 000-1zM47.45 66.24a.5.5 0 100 1 .5.5 0 000-1zM44 68.36a.5.5 0 100 1 .5.5 0 000-1zM44 67.2a.5.5 0 100-1 .5.5 0 000 1zM48.56 63.23a.45.45 0 00.46-.38.46.46 0 00-.46-.58.46.46 0 00-.42.58.45.45 0 00.42.38zM46.83 64.29a.5.5 0 100-1 .5.5 0 000 1zM44.57 63.33a.5.5 0 100 1 .5.5 0 000-1zM42.84 64.39a.5.5 0 100 1 .5.5 0 100-1zM52.59 72.24a.5.5 0 100-1 .5.5 0 000 1zM48.59 70.22a.5.5 0 100 1 .5.5 0 100-1zM50.33 71.28a.5.5 0 100 1 .5.5 0 000-1zM51.47 65.18a.5.5 0 100 1 .5.5 0 000-1zM53.21 68.36a.5.5 0 100 1 .5.5 0 000-1zM51.47 69.43a.48.48 0 000 .95.48.48 0 000-.95zM51.47 67.3a.5.5 0 100 1 .5.5 0 000-1zM53.21 66.24a.5.5 0 100 1 .5.5 0 000-1zM49.71 68.36a.5.5 0 100 1 .5.5 0 000-1zM49.71 67.2a.5.5 0 100-1 .5.5 0 000 1zM54.32 63.23a.45.45 0 00.45-.38.46.46 0 00-.45-.58.46.46 0 00-.42.58.43.43 0 00.42.38zM52.59 64.29a.5.5 0 100-1 .5.5 0 000 1zM50.33 63.33a.5.5 0 100 1 .5.5 0 000-1zM48.59 64.39a.5.5 0 100 1 .5.5 0 100-1zM58.34 72.24a.5.5 0 100-1 .5.5 0 000 1zM54.35 70.22a.5.5 0 100 1 .5.5 0 100-1zM56.08 71.28a.5.5 0 100 1 .5.5 0 000-1zM57.23 65.18a.5.5 0 100 1 .5.5 0 000-1zM59 68.36a.5.5 0 100 1 .5.5 0 000-1zM57.23 69.43a.48.48 0 000 .95.48.48 0 000-.95zM57.23 67.3a.5.5 0 100 1 .5.5 0 000-1zM59 66.24a.5.5 0 100 1 .5.5 0 000-1zM55.46 68.36a.5.5 0 100 1 .5.5 0 000-1zM55.46 67.2a.5.5 0 100-1 .5.5 0 000 1zM60.07 63.23a.45.45 0 00.46-.38.46.46 0 00-.46-.58.46.46 0 00-.42.58.45.45 0 00.42.38zM58.34 64.29a.5.5 0 100-1 .5.5 0 000 1zM56.08 63.33a.5.5 0 100 1 .5.5 0 000-1zM54.35 64.39a.5.5 0 100 1 .5.5 0 100-1zM64.1 72.24a.5.5 0 100-1 .5.5 0 000 1zM60.1 70.22a.5.5 0 100 1 .5.5 0 100-1zM61.84 71.28a.5.5 0 100 1 .5.5 0 000-1zM63 65.18a.5.5 0 100 1 .5.5 0 000-1zM64.72 68.36a.5.5 0 100 1 .5.5 0 000-1zM63 69.43a.48.48 0 000 .95.48.48 0 000-.95zM63 67.3a.5.5 0 100 1 .5.5 0 000-1zM64.72 66.24a.5.5 0 100 1 .5.5 0 000-1zM61.22 68.36a.5.5 0 100 1 .5.5 0 000-1zM61.22 67.2a.5.5 0 100-1 .5.5 0 000 1zM65.83 63.23a.45.45 0 00.45-.38.46.46 0 00-.45-.58.46.46 0 00-.42.58.43.43 0 00.42.38zM64.1 64.29a.5.5 0 100-1 .5.5 0 000 1zM61.84 63.33a.5.5 0 100 1 .5.5 0 000-1zM60.1 64.39a.5.5 0 100 1 .5.5 0 100-1zM69.85 72.24a.5.5 0 100-1 .5.5 0 000 1zM65.86 70.22a.5.5 0 100 1 .5.5 0 100-1zM67.59 71.28a.5.5 0 100 1 .5.5 0 000-1zM68.74 65.18a.5.5 0 100 1 .5.5 0 000-1zM70.47 68.36a.5.5 0 100 1 .5.5 0 000-1zM68.74 69.43a.48.48 0 000 .95.48.48 0 000-.95zM68.74 67.3a.5.5 0 100 1 .5.5 0 000-1zM70.47 66.24a.5.5 0 100 1 .5.5 0 000-1zM67 68.36a.5.5 0 100 1 .5.5 0 000-1zM67 67.2a.5.5 0 100-1 .5.5 0 000 1zM71.58 63.23a.45.45 0 00.46-.38.46.46 0 00-.46-.58.46.46 0 00-.42.58.45.45 0 00.42.38zM69.85 64.29a.5.5 0 100-1 .5.5 0 000 1zM67.59 63.33a.5.5 0 100 1 .5.5 0 000-1zM65.86 64.39a.5.5 0 100 1 .5.5 0 100-1zM75.61 72.24a.5.5 0 100-1 .5.5 0 000 1zM71.61 70.22a.5.5 0 100 1 .5.5 0 100-1zM73.35 71.28a.5.5 0 100 1 .5.5 0 000-1zM74.49 65.18a.5.5 0 100 1 .5.5 0 000-1zM76.23 68.36a.5.5 0 100 1 .5.5 0 000-1zM74.49 69.43a.48.48 0 000 .95.48.48 0 000-.95zM74.49 67.3a.5.5 0 100 1 .5.5 0 000-1zM76.23 66.24a.5.5 0 100 1 .5.5 0 000-1zM72.73 68.36a.5.5 0 100 1 .5.5 0 000-1zM72.73 67.2a.5.5 0 100-1 .5.5 0 000 1zM77.34 63.23a.45.45 0 00.45-.38.46.46 0 00-.45-.58.46.46 0 00-.42.58.43.43 0 00.42.38zM75.61 64.29a.5.5 0 100-1 .5.5 0 000 1zM73.35 63.33a.5.5 0 100 1 .5.5 0 000-1zM71.61 64.39a.5.5 0 100 1 .5.5 0 100-1zM81.36 72.24a.5.5 0 100-1 .5.5 0 000 1zM77.37 70.22a.5.5 0 100 1 .5.5 0 100-1zM79.1 71.28a.5.5 0 100 1 .5.5 0 000-1zM80.25 65.18a.5.5 0 100 1 .5.5 0 000-1zM82 68.36a.5.5 0 100 1 .5.5 0 000-1zM80.25 69.43a.48.48 0 000 .95.48.48 0 000-.95zM80.25 67.3a.5.5 0 100 1 .5.5 0 000-1zM82 66.24a.5.5 0 100 1 .5.5 0 000-1zM78.48 68.36a.5.5 0 100 1 .5.5 0 000-1zM78.48 67.2a.5.5 0 100-1 .5.5 0 000 1zM83.09 63.23a.45.45 0 00.46-.38.46.46 0 00-.46-.58.46.46 0 00-.42.58.45.45 0 00.42.38zM81.36 64.29a.5.5 0 100-1 .5.5 0 000 1zM79.1 63.33a.5.5 0 100 1 .5.5 0 000-1zM77.37 64.39a.5.5 0 100 1 .5.5 0 100-1zM87.12 72.24a.5.5 0 100-1 .5.5 0 000 1zM83.12 70.22a.5.5 0 100 1 .5.5 0 100-1zM84.86 71.28a.5.5 0 100 1 .5.5 0 000-1zM86 65.18a.5.5 0 100 1 .5.5 0 000-1zM87.74 68.36a.5.5 0 100 1 .5.5 0 000-1zM86 69.43a.48.48 0 000 .95.48.48 0 000-.95zM86 67.3a.5.5 0 100 1 .5.5 0 000-1zM87.74 66.24a.5.5 0 100 1 .5.5 0 000-1zM84.24 68.36a.5.5 0 100 1 .5.5 0 000-1zM84.24 67.2a.5.5 0 100-1 .5.5 0 000 1zM88.85 63.23a.45.45 0 00.45-.38.46.46 0 00-.45-.58.46.46 0 00-.42.58.43.43 0 00.42.38zM87.12 64.29a.5.5 0 100-1 .5.5 0 000 1zM84.86 63.33a.5.5 0 100 1 .5.5 0 000-1zM83.12 64.39a.5.5 0 100 1 .5.5 0 100-1zM92.87 72.24a.5.5 0 100-1 .5.5 0 000 1zM88.88 70.22a.5.5 0 100 1 .5.5 0 100-1zM90.61 71.28a.5.5 0 100 1 .5.5 0 000-1zM91.76 65.18a.5.5 0 100 1 .5.5 0 000-1zM93.49 68.36a.5.5 0 100 1 .5.5 0 000-1zM91.76 69.43a.48.48 0 000 .95.48.48 0 000-.95zM91.76 67.3a.5.5 0 100 1 .5.5 0 000-1zM93.49 66.24a.5.5 0 100 1 .5.5 0 000-1zM90 68.36a.5.5 0 100 1 .5.5 0 000-1zM90 67.2a.5.5 0 100-1 .5.5 0 000 1zM94.61 63.23a.45.45 0 00.46-.38.46.46 0 00-.46-.58.47.47 0 00-.43.58.45.45 0 00.43.38zM92.87 64.29a.5.5 0 100-1 .5.5 0 000 1zM90.61 63.33a.5.5 0 100 1 .5.5 0 000-1zM88.88 64.39a.5.5 0 100 1 .5.5 0 100-1zM98.63 72.24a.5.5 0 100-1 .5.5 0 000 1zM94.63 70.22a.5.5 0 100 1 .5.5 0 100-1zM96.37 71.28a.5.5 0 100 1 .5.5 0 000-1zM97.51 65.18a.5.5 0 100 1 .5.5 0 000-1zM99.25 68.36a.5.5 0 100 1 .5.5 0 000-1zM97.51 69.43a.48.48 0 000 .95.48.48 0 000-.95zM97.51 67.3a.5.5 0 100 1 .5.5 0 000-1zM99.25 66.24a.5.5 0 100 1 .5.5 0 000-1zM95.75 68.36a.5.5 0 100 1 .5.5 0 000-1zM95.75 67.2a.5.5 0 100-1 .5.5 0 000 1zM100.36 63.23a.45.45 0 00.45-.38.46.46 0 00-.45-.58.46.46 0 00-.42.58.43.43 0 00.42.38zM98.63 64.29a.5.5 0 100-1 .5.5 0 000 1zM96.37 63.33a.5.5 0 100 1 .5.5 0 000-1zM94.63 64.39a.5.5 0 100 1 .5.5 0 100-1zM104.38 72.24a.5.5 0 100-1 .5.5 0 000 1zM100.39 70.22a.5.5 0 100 1 .5.5 0 100-1zM102.12 71.28a.5.5 0 100 1 .5.5 0 000-1zM103.27 65.18a.5.5 0 100 1 .5.5 0 000-1zM105 68.36a.5.5 0 100 1 .5.5 0 000-1zM103.27 69.43a.48.48 0 000 .95.48.48 0 000-.95zM103.27 67.3a.5.5 0 100 1 .5.5 0 000-1zM105 66.24a.5.5 0 100 1 .5.5 0 000-1zM101.5 68.36a.5.5 0 100 1 .5.5 0 000-1zM101.5 67.2a.5.5 0 100-1 .5.5 0 000 1zM106.12 63.23a.45.45 0 00.46-.38.46.46 0 00-.46-.58.47.47 0 00-.43.58.45.45 0 00.43.38zM104.38 64.29a.5.5 0 100-1 .5.5 0 000 1zM102.12 63.33a.5.5 0 100 1 .5.5 0 000-1zM100.39 64.39a.5.5 0 100 1 .5.5 0 100-1zM110.14 72.24a.5.5 0 100-1 .5.5 0 000 1zM106.14 70.22a.5.5 0 000 1 .5.5 0 000-1zM107.88 71.28a.5.5 0 100 1 .5.5 0 000-1zM109 65.18a.5.5 0 100 1 .5.5 0 000-1zM110.76 68.36a.5.5 0 100 1 .5.5 0 000-1zM109 69.43a.48.48 0 000 .95.48.48 0 000-.95zM109 67.3a.5.5 0 100 1 .5.5 0 000-1zM110.76 66.24a.5.5 0 100 1 .5.5 0 000-1zM107.26 68.36a.5.5 0 100 1 .5.5 0 000-1zM107.26 67.2a.5.5 0 100-1 .5.5 0 000 1zM111.87 63.23a.45.45 0 00.45-.38.46.46 0 00-.45-.58.46.46 0 00-.42.58.43.43 0 00.42.38zM110.14 64.29a.5.5 0 100-1 .5.5 0 000 1zM107.88 63.33a.5.5 0 100 1 .5.5 0 000-1zM106.14 64.39a.5.5 0 000 1 .5.5 0 000-1zM111.9 70.22a.5.5 0 000 1 .5.5 0 000-1zM113.63 71.28a.5.5 0 100 1 .5.5 0 000-1zM114.78 70.38h.13l-.28-.92a.48.48 0 00.15.92zM113 68.36a.5.5 0 100 1 .5.5 0 000-1zM113 67.2a.5.5 0 100-1 .5.5 0 000 1zM111.9 64.39a.5.5 0 000 1 .5.5 0 000-1zM35.32 62.17a.5.5 0 100-1 .5.5 0 000 1zM31.3 61h-.07v.14h.06a.44.44 0 00.34-.15l-.33.01zM31.79 62.82a.53.53 0 00-.13-.42l.13.42zM33.06 61.21a.5.5 0 100 1 .5.5 0 000-1zM41.08 62.17a.5.5 0 100-1 .5.5 0 000 1zM37.08 61.11a.42.42 0 00.34-.15h-.68a.48.48 0 00.31.15h.03zM38.82 61.21a.5.5 0 100 1 .5.5 0 000-1zM46.83 62.17a.5.5 0 100-1 .5.5 0 000 1zM42.84 61.11a.44.44 0 00.34-.15h-.68a.44.44 0 00.31.15h.03zM44.57 61.21a.5.5 0 100 1 .5.5 0 000-1zM52.59 62.17a.5.5 0 100-1 .5.5 0 000 1zM48.59 61.11a.42.42 0 00.34-.15h-.68a.48.48 0 00.31.15h.03zM50.33 61.21a.5.5 0 100 1 .5.5 0 000-1zM58.34 62.17a.5.5 0 100-1 .5.5 0 000 1zM54.35 61.11a.44.44 0 00.34-.15H54a.44.44 0 00.31.15h.04zM56.08 61.21a.5.5 0 100 1 .5.5 0 000-1zM64.1 62.17a.5.5 0 100-1 .5.5 0 000 1zM60.1 61.11a.42.42 0 00.34-.15h-.68a.48.48 0 00.31.15h.03zM61.84 61.21a.5.5 0 100 1 .5.5 0 000-1zM69.85 62.17a.5.5 0 100-1 .5.5 0 000 1zM65.86 61.11a.44.44 0 00.34-.11h-.68a.44.44 0 00.31.15l.03-.04zM67.59 61.21a.5.5 0 100 1 .5.5 0 000-1zM75.61 62.17a.5.5 0 100-1 .5.5 0 000 1zM71.61 61.11A.42.42 0 0072 61h-.68a.48.48 0 00.31.15l-.02-.04zM73.35 61.21a.5.5 0 100 1 .5.5 0 000-1zM81.36 62.17a.5.5 0 100-1 .5.5 0 000 1zM77.37 61.11a.44.44 0 00.34-.15H77a.44.44 0 00.31.15h.06zM79.1 61.21a.5.5 0 100 1 .5.5 0 000-1zM87.12 62.17a.5.5 0 100-1 .5.5 0 000 1zM83.12 61.11a.42.42 0 00.34-.15h-.68a.48.48 0 00.31.15h.03zM84.86 61.21a.5.5 0 100 1 .5.5 0 000-1zM92.87 62.17a.5.5 0 100-1 .5.5 0 000 1zM88.88 61.11a.44.44 0 00.34-.15h-.68a.44.44 0 00.31.15h.03zM90.61 61.21a.5.5 0 100 1 .5.5 0 000-1zM98.63 62.17a.5.5 0 100-1 .5.5 0 000 1zM94.63 61.11A.42.42 0 0095 61h-.68a.48.48 0 00.32.15l-.01-.04zM96.37 61.21a.5.5 0 100 1 .5.5 0 000-1zM104.38 62.17a.5.5 0 100-1 .5.5 0 000 1zM100.39 61.11a.44.44 0 00.34-.15h-.68a.44.44 0 00.31.15h.03zM102.12 61.21a.5.5 0 100 1 .5.5 0 000-1zM110.14 62.17a.5.5 0 100-1 .5.5 0 000 1zM106.14 61.11a.42.42 0 00.34-.15h-.68a.48.48 0 00.32.15h.02zM107.88 61.21a.5.5 0 100 1 .5.5 0 000-1zM111.9 61.11a.46.46 0 00.21 0v-.1h-.52a.44.44 0 00.31.15v-.05z" fill="#777576" opacity=".35"/><path d="M95.69 69.77l-1-3.33a.75.75 0 00-.69-.54H32.15a.72.72 0 00-.6.31.77.77 0 00-.12.66l1 3.32a.76.76 0 00.72.54H95a.74.74 0 00.6-.3.72.72 0 00.09-.66z" fill="#777576" opacity=".25"/><path d="M97 64.78l-5.82-13.7a.75.75 0 00-.69-.46H36.73l-.16-.5a.76.76 0 00-.69-.53l-25.31-1a.74.74 0 00-.74.52l-.66 2a.72.72 0 000 .46L14 67.3a.75.75 0 00.72.53H95.6a.75.75 0 00.71-.52l.66-2a.75.75 0 00.03-.53z" fill="#777576"/><path stroke="#777576" stroke-width="1.5" fill="#BAB9BA" stroke-linecap="round" stroke-linejoin="round" d="M42.36 65.08H15.41l-4.87-15.7h26.95zM69.31 65.08H42.36l-4.87-15.7h26.95z"/><path stroke="#777576" stroke-width="1.5" fill="#DCDCDC" stroke-linecap="round" stroke-linejoin="round" d="M96.26 65.08H69.31l-4.87-15.7h26.95z"/><path d="M15.28 64.91v.07h.33a.45.45 0 00-.26-.08l-.07.01zM16.48 61.88a.45.45 0 00.45-.38.45.45 0 00-.45-.58.46.46 0 00-.42.58.44.44 0 00.42.38zM14.75 62a.48.48 0 00-.32.11l.26.84h.06a.48.48 0 000-.95zM19.39 63.84a.5.5 0 100 1 .5.5 0 000-1zM20.86 65h.53a.46.46 0 00-.27-.08.45.45 0 00-.26.08zM17.36 65h.53a.45.45 0 00-.26-.08.46.46 0 00-.27.08zM22.24 61.88a.45.45 0 00.45-.38.46.46 0 00-.45-.58.46.46 0 00-.43.58.44.44 0 00.43.38zM20.5 62a.5.5 0 100 1 .5.5 0 000-1zM18.25 62a.5.5 0 100 1 .5.5 0 000-1zM16.51 63.05a.5.5 0 100 1 .5.5 0 100-1zM25.14 63.84a.5.5 0 100 1 .5.5 0 000-1zM26.61 65h.53a.45.45 0 00-.26-.08.46.46 0 00-.27.08zM23.12 65h.53a.46.46 0 00-.27-.08.45.45 0 00-.26.08zM28 61.88a.45.45 0 00.45-.38.45.45 0 00-.45-.58.46.46 0 00-.42.58.44.44 0 00.42.38zM26.26 62a.5.5 0 100 1 .5.5 0 000-1zM24 62a.5.5 0 100 1 .5.5 0 000-1zM22.27 63.05a.5.5 0 100 1 .5.5 0 100-1zM30.9 63.84a.5.5 0 100 1 .5.5 0 000-1zM32.37 65h.53a.46.46 0 00-.27-.08.45.45 0 00-.26.08zM28.87 65h.53a.45.45 0 00-.26-.08.46.46 0 00-.27.08zM33.75 61.88a.45.45 0 00.45-.38.46.46 0 00-.45-.58.46.46 0 00-.43.58.44.44 0 00.43.38zM32 62a.5.5 0 100 1 .5.5 0 000-1zM29.76 62a.5.5 0 100 1 .5.5 0 000-1zM28 63.05a.5.5 0 100 1 .5.5 0 100-1zM36.65 63.84a.5.5 0 100 1 .5.5 0 000-1zM38.12 65h.53a.45.45 0 00-.26-.08.46.46 0 00-.27.08zM34.63 65h.53a.46.46 0 00-.27-.08.45.45 0 00-.26.08zM39.5 61.88a.45.45 0 00.45-.38.45.45 0 00-.45-.58.46.46 0 00-.42.58.44.44 0 00.42.38zM37.77 62a.5.5 0 100 1 .5.5 0 000-1zM35.51 62a.5.5 0 100 1 .5.5 0 000-1zM33.78 63.05a.5.5 0 100 1 .5.5 0 100-1zM42.41 63.84a.5.5 0 100 1 .5.5 0 000-1zM43.88 65h.53a.46.46 0 00-.27-.08.45.45 0 00-.26.08zM40.38 65h.53a.45.45 0 00-.26-.08.46.46 0 00-.27.08zM45.26 61.88a.45.45 0 00.45-.38.46.46 0 00-.45-.58.46.46 0 00-.43.58.44.44 0 00.43.38zM43.52 62a.5.5 0 100 1 .5.5 0 000-1zM41.27 62a.5.5 0 100 1 .5.5 0 000-1zM39.53 63.05a.5.5 0 100 1 .5.5 0 100-1zM48.16 63.84a.5.5 0 100 1 .5.5 0 000-1zM49.63 65h.53a.45.45 0 00-.26-.08.46.46 0 00-.27.08zM46.14 65h.53a.46.46 0 00-.27-.08.45.45 0 00-.26.08zM51 61.88a.45.45 0 00.45-.38.45.45 0 00-.45-.58.46.46 0 00-.42.58.44.44 0 00.42.38zM49.28 62a.5.5 0 100 1 .5.5 0 000-1zM47 62a.5.5 0 100 1 .5.5 0 000-1zM45.29 63.05a.5.5 0 100 1 .5.5 0 100-1zM53.92 63.84a.5.5 0 100 1 .5.5 0 000-1zM55.39 65h.53a.46.46 0 00-.27-.08.45.45 0 00-.26.08zM51.89 65h.53a.45.45 0 00-.26-.08.46.46 0 00-.27.08zM56.77 61.88a.45.45 0 00.45-.38.46.46 0 00-.45-.58.46.46 0 00-.43.58.44.44 0 00.43.38zM55 62a.5.5 0 100 1 .5.5 0 000-1zM52.78 62a.5.5 0 100 1 .5.5 0 000-1zM51 63.05a.5.5 0 100 1 .5.5 0 100-1zM59.67 63.84a.5.5 0 100 1 .5.5 0 000-1zM61.14 65h.53a.45.45 0 00-.26-.08.46.46 0 00-.27.08zM57.65 65h.53a.46.46 0 00-.27-.08.45.45 0 00-.26.08zM62.52 61.88a.45.45 0 00.45-.38.45.45 0 00-.45-.58.46.46 0 00-.42.58.44.44 0 00.42.38zM60.79 62a.5.5 0 100 1 .5.5 0 000-1zM58.53 62a.5.5 0 100 1 .5.5 0 000-1zM56.8 63.05a.5.5 0 100 1 .5.5 0 100-1zM65.43 63.84a.5.5 0 100 1 .5.5 0 000-1zM66.9 65h.53a.46.46 0 00-.27-.08.45.45 0 00-.26.08zM63.4 65h.53a.45.45 0 00-.26-.08.46.46 0 00-.27.08zM68.28 61.88a.45.45 0 00.45-.38.46.46 0 00-.45-.58.46.46 0 00-.43.58.44.44 0 00.43.38zM66.54 62a.5.5 0 100 1 .5.5 0 000-1zM64.29 62a.5.5 0 100 1 .5.5 0 000-1zM62.55 63.05a.5.5 0 100 1 .5.5 0 100-1zM71.18 63.84a.5.5 0 100 1 .5.5 0 000-1zM72.65 65h.53a.45.45 0 00-.26-.08.46.46 0 00-.27.08zM69.16 65h.53a.46.46 0 00-.27-.08.45.45 0 00-.26.08zM74 61.88a.45.45 0 00.45-.38.45.45 0 00-.45-.58.46.46 0 00-.42.58.44.44 0 00.42.38zM72.3 62a.5.5 0 100 1 .5.5 0 000-1zM70 62a.5.5 0 100 1 .5.5 0 000-1zM68.31 63.05a.5.5 0 100 1 .5.5 0 100-1zM76.94 63.84a.5.5 0 100 1 .5.5 0 000-1zM78.41 65h.53a.46.46 0 00-.27-.08.45.45 0 00-.26.08zM74.91 65h.53a.45.45 0 00-.26-.08.46.46 0 00-.27.08zM79.79 61.88a.45.45 0 00.45-.38.46.46 0 00-.45-.58.46.46 0 00-.43.58.44.44 0 00.43.38zM78.05 62a.5.5 0 100 1 .5.5 0 000-1zM75.8 62a.5.5 0 100 1 .5.5 0 000-1zM74.06 63.05a.5.5 0 100 1 .5.5 0 100-1zM82.69 63.84a.5.5 0 100 1 .5.5 0 000-1zM84.16 65h.53a.45.45 0 00-.26-.08.46.46 0 00-.27.08zM80.67 65h.53a.46.46 0 00-.27-.08.45.45 0 00-.26.08zM85.54 61.88a.45.45 0 00.45-.38.45.45 0 00-.45-.58.46.46 0 00-.42.58.44.44 0 00.42.38zM83.81 62a.5.5 0 100 1 .5.5 0 000-1zM81.55 62a.5.5 0 100 1 .5.5 0 000-1zM79.82 63.05a.5.5 0 100 1 .5.5 0 100-1zM88.45 63.84a.5.5 0 100 1 .5.5 0 000-1zM89.92 65h.53a.46.46 0 00-.27-.08.45.45 0 00-.26.08zM86.42 65H87a.45.45 0 00-.26-.08.46.46 0 00-.32.08zM91.3 61.88a.45.45 0 00.45-.38.46.46 0 00-.45-.58.46.46 0 00-.43.58.44.44 0 00.43.38zM89.56 62a.5.5 0 100 1 .5.5 0 000-1zM87.31 62a.5.5 0 100 1 .5.5 0 000-1zM85.57 63.05a.5.5 0 100 1 .5.5 0 100-1zM94.2 63.84a.5.5 0 100 1 .5.5 0 000-1zM96.14 64.94a.65.65 0 00-.2 0 .46.46 0 00-.27.08h.48l-.01-.08zM92.18 65h.53a.46.46 0 00-.27-.08.45.45 0 00-.26.08zM95.32 63a.39.39 0 00.2 0l-.27-1a.501.501 0 10.07 1zM93.06 62a.5.5 0 100 1 .5.5 0 000-1zM91.33 63.05a.5.5 0 100 1 .5.5 0 100-1zM14.75 59.87a.5.5 0 100 1 .5.5 0 000-1zM13.63 53.77a.5.5 0 100 1 .5.5 0 000-1zM15.37 57a.5.5 0 100 1 .5.5 0 000-1zM13.63 58a.44.44 0 00-.37.19l.23.75h.14a.48.48 0 000-.94zM13.63 55.89a.5.5 0 100 1 .5.5 0 000-1zM15.37 54.83a.5.5 0 100 1 .5.5 0 000-1zM16.48 51.81a.44.44 0 00.45-.37.46.46 0 00-.45-.59.46.46 0 00-.42.58.44.44 0 00.42.38zM14.75 52.87a.48.48 0 000-.95.48.48 0 000 .95zM12.49 51.92a.48.48 0 000 .95.48.48 0 000-.95zM20.5 60.82a.5.5 0 100-1 .5.5 0 000 1zM16.51 58.8a.48.48 0 000 .95.48.48 0 000-.95zM18.25 59.87a.5.5 0 100 1 .5.5 0 000-1zM19.39 53.77a.5.5 0 100 1 .5.5 0 000-1zM21.12 57a.5.5 0 100 1 .5.5 0 000-1zM19.39 58a.5.5 0 100 1 .5.5 0 000-1zM19.39 55.89a.5.5 0 100 1 .5.5 0 000-1zM21.12 54.83a.5.5 0 100 1 .5.5 0 000-1zM17.63 57a.5.5 0 100 1 .5.5 0 000-1zM17.63 55.79a.5.5 0 100-1 .5.5 0 000 1zM22.24 51.81a.44.44 0 00.45-.37.47.47 0 00-.45-.59.46.46 0 00-.43.58.44.44 0 00.43.38zM20.5 52.87a.48.48 0 000-.95.48.48 0 000 .95zM18.25 51.92a.48.48 0 000 .95.48.48 0 000-.95zM16.51 53a.5.5 0 100 1 .5.5 0 100-1zM26.26 60.82a.5.5 0 100-1 .5.5 0 000 1zM22.27 58.8a.48.48 0 000 .95.48.48 0 000-.95zM24 59.87a.5.5 0 100 1 .5.5 0 000-1zM25.14 53.77a.5.5 0 100 1 .5.5 0 000-1zM26.88 57a.5.5 0 100 1 .5.5 0 000-1zM25.14 58a.5.5 0 100 1 .5.5 0 000-1zM25.14 55.89a.5.5 0 100 1 .5.5 0 000-1zM26.88 54.83a.5.5 0 100 1 .5.5 0 000-1zM23.38 57a.5.5 0 100 1 .5.5 0 000-1zM23.38 55.79a.5.5 0 100-1 .5.5 0 000 1zM28 51.81a.44.44 0 00.45-.37.46.46 0 00-.45-.59.46.46 0 00-.42.58.44.44 0 00.42.38zM26.26 52.87a.48.48 0 000-.95.48.48 0 000 .95zM24 51.92a.48.48 0 000 .95.48.48 0 000-.95zM22.27 53a.5.5 0 100 1 .5.5 0 100-1zM32 60.82a.5.5 0 100-1 .5.5 0 000 1zM28 58.8a.48.48 0 000 .95.48.48 0 000-.95zM29.76 59.87a.5.5 0 100 1 .5.5 0 000-1zM30.9 53.77a.5.5 0 100 1 .5.5 0 000-1zM32.63 57a.5.5 0 100 1 .5.5 0 000-1zM30.9 58a.5.5 0 100 1 .5.5 0 000-1zM30.9 55.89a.5.5 0 100 1 .5.5 0 000-1zM32.63 54.83a.5.5 0 100 1 .5.5 0 000-1zM29.14 57a.5.5 0 100 1 .5.5 0 000-1zM29.14 55.79a.5.5 0 100-1 .5.5 0 000 1zM33.75 51.81a.44.44 0 00.45-.37.47.47 0 00-.45-.59.46.46 0 00-.43.58.44.44 0 00.43.38zM32 52.87a.48.48 0 000-.95.48.48 0 000 .95zM29.76 51.92a.48.48 0 000 .95.48.48 0 000-.95zM28 53a.5.5 0 100 1 .5.5 0 100-1zM37.77 60.82a.5.5 0 100-1 .5.5 0 000 1zM33.78 58.8a.48.48 0 000 .95.48.48 0 000-.95zM35.51 59.87a.5.5 0 100 1 .5.5 0 000-1zM36.65 53.77a.5.5 0 100 1 .5.5 0 000-1zM38.39 57a.5.5 0 100 1 .5.5 0 000-1zM36.65 58a.5.5 0 100 1 .5.5 0 000-1zM36.65 55.89a.5.5 0 100 1 .5.5 0 000-1zM38.39 54.83a.5.5 0 100 1 .5.5 0 000-1zM34.89 57a.5.5 0 100 1 .5.5 0 000-1zM34.89 55.79a.5.5 0 100-1 .5.5 0 000 1zM39.5 51.81a.44.44 0 00.45-.37.46.46 0 00-.45-.59.46.46 0 00-.42.58.44.44 0 00.42.38zM37.77 52.87a.48.48 0 000-.95.48.48 0 000 .95zM35.51 51.92a.48.48 0 000 .95.48.48 0 000-.95zM33.78 53a.5.5 0 100 1 .5.5 0 100-1zM43.52 60.82a.5.5 0 100-1 .5.5 0 000 1zM39.53 58.8a.48.48 0 000 .95.48.48 0 000-.95zM41.27 59.87a.5.5 0 100 1 .5.5 0 000-1zM42.41 53.77a.5.5 0 100 1 .5.5 0 000-1zM44.14 57a.5.5 0 100 1 .5.5 0 000-1zM42.41 58a.5.5 0 100 1 .5.5 0 000-1zM42.41 55.89a.5.5 0 100 1 .5.5 0 000-1zM44.14 54.83a.5.5 0 100 1 .5.5 0 000-1zM40.65 57a.5.5 0 100 1 .5.5 0 000-1zM40.65 55.79a.5.5 0 100-1 .5.5 0 000 1zM45.26 51.81a.44.44 0 00.45-.37.47.47 0 00-.45-.59.46.46 0 00-.43.58.44.44 0 00.43.38zM43.52 52.87a.48.48 0 000-.95.48.48 0 000 .95zM41.27 51.92a.48.48 0 000 .95.48.48 0 000-.95zM39.53 53a.5.5 0 100 1 .5.5 0 100-1zM49.28 60.82a.5.5 0 100-1 .5.5 0 000 1zM45.29 58.8a.48.48 0 000 .95.48.48 0 000-.95zM47 59.87a.5.5 0 100 1 .5.5 0 000-1zM48.16 53.77a.5.5 0 100 1 .5.5 0 000-1zM49.9 57a.5.5 0 100 1 .5.5 0 000-1zM48.16 58a.5.5 0 100 1 .5.5 0 000-1zM48.16 55.89a.5.5 0 100 1 .5.5 0 000-1zM49.9 54.83a.5.5 0 100 1 .5.5 0 000-1zM46.4 57a.5.5 0 100 1 .5.5 0 000-1zM46.4 55.79a.5.5 0 100-1 .5.5 0 000 1zM51 51.81a.44.44 0 00.45-.37.46.46 0 00-.45-.59.46.46 0 00-.42.58.44.44 0 00.42.38zM49.28 52.87a.48.48 0 000-.95.48.48 0 000 .95zM47 51.92a.48.48 0 000 .95.48.48 0 000-.95zM45.29 53a.5.5 0 100 1 .5.5 0 100-1zM55 60.82a.5.5 0 100-1 .5.5 0 000 1zM51 58.8a.48.48 0 000 .95.48.48 0 000-.95zM52.78 59.87a.5.5 0 100 1 .5.5 0 000-1zM53.92 53.77a.5.5 0 100 1 .5.5 0 000-1zM55.65 57a.5.5 0 100 1 .5.5 0 000-1zM53.92 58a.5.5 0 100 1 .5.5 0 000-1zM53.92 55.89a.5.5 0 100 1 .5.5 0 000-1zM55.65 54.83a.5.5 0 100 1 .5.5 0 000-1zM52.16 57a.5.5 0 100 1 .5.5 0 000-1zM52.16 55.79a.5.5 0 100-1 .5.5 0 000 1zM56.77 51.81a.44.44 0 00.45-.37.47.47 0 00-.45-.59.46.46 0 00-.43.58.44.44 0 00.43.38zM55 52.87a.48.48 0 000-.95.48.48 0 000 .95zM52.78 51.92a.48.48 0 000 .95.48.48 0 000-.95zM51 53a.5.5 0 100 1 .5.5 0 100-1zM60.79 60.82a.5.5 0 100-1 .5.5 0 000 1zM56.8 58.8a.48.48 0 000 .95.48.48 0 000-.95zM58.53 59.87a.5.5 0 100 1 .5.5 0 000-1zM59.67 53.77a.5.5 0 100 1 .5.5 0 000-1zM61.41 57a.5.5 0 100 1 .5.5 0 000-1zM59.67 58a.5.5 0 100 1 .5.5 0 000-1zM59.67 55.89a.5.5 0 100 1 .5.5 0 000-1zM61.41 54.83a.5.5 0 100 1 .5.5 0 000-1zM57.91 57a.5.5 0 100 1 .5.5 0 000-1zM57.91 55.79a.5.5 0 100-1 .5.5 0 000 1zM62.52 51.81a.44.44 0 00.45-.37.46.46 0 00-.45-.59.46.46 0 00-.42.58.44.44 0 00.42.38zM60.79 52.87a.48.48 0 000-.95.48.48 0 000 .95zM58.53 51.92a.48.48 0 000 .95.48.48 0 000-.95zM56.8 53a.5.5 0 100 1 .5.5 0 100-1zM66.54 60.82a.5.5 0 100-1 .5.5 0 000 1zM62.55 58.8a.48.48 0 000 .95.48.48 0 000-.95zM64.29 59.87a.5.5 0 100 1 .5.5 0 000-1zM65.43 53.77a.5.5 0 100 1 .5.5 0 000-1zM67.16 57a.5.5 0 100 1 .5.5 0 000-1zM65.43 58a.5.5 0 100 1 .5.5 0 000-1zM65.43 55.89a.5.5 0 100 1 .5.5 0 000-1zM67.16 54.83a.5.5 0 100 1 .5.5 0 000-1zM63.67 57a.5.5 0 100 1 .5.5 0 000-1zM63.67 55.79a.5.5 0 100-1 .5.5 0 000 1zM68.28 51.81a.44.44 0 00.45-.37.47.47 0 00-.45-.59.46.46 0 00-.43.58.44.44 0 00.43.38zM66.54 52.87a.48.48 0 000-.95.48.48 0 000 .95zM64.29 51.92a.48.48 0 000 .95.48.48 0 000-.95zM62.55 53a.5.5 0 100 1 .5.5 0 100-1zM72.3 60.82a.5.5 0 100-1 .5.5 0 000 1zM68.31 58.8a.48.48 0 000 .95.48.48 0 000-.95zM70 59.87a.5.5 0 100 1 .5.5 0 000-1zM71.18 53.77a.5.5 0 100 1 .5.5 0 000-1zM72.92 57a.5.5 0 100 1 .5.5 0 000-1zM71.18 58a.5.5 0 100 1 .5.5 0 000-1zM71.18 55.89a.5.5 0 100 1 .5.5 0 000-1zM72.92 54.83a.5.5 0 100 1 .5.5 0 000-1zM69.42 57a.5.5 0 100 1 .5.5 0 000-1zM69.42 55.79a.5.5 0 100-1 .5.5 0 000 1zM74 51.81a.44.44 0 00.45-.37.46.46 0 00-.45-.59.46.46 0 00-.42.58.44.44 0 00.42.38zM72.3 52.87a.48.48 0 000-.95.48.48 0 000 .95zM70 51.92a.48.48 0 000 .95.48.48 0 000-.95zM68.31 53a.5.5 0 100 1 .5.5 0 100-1zM78.05 60.82a.5.5 0 100-1 .5.5 0 000 1zM74.06 58.8a.48.48 0 000 .95.48.48 0 000-.95zM75.8 59.87a.5.5 0 100 1 .5.5 0 000-1zM76.94 53.77a.5.5 0 100 1 .5.5 0 000-1zM78.67 57a.5.5 0 100 1 .5.5 0 000-1zM76.94 58a.5.5 0 100 1 .5.5 0 000-1zM76.94 55.89a.5.5 0 100 1 .5.5 0 000-1zM78.67 54.83a.5.5 0 100 1 .5.5 0 000-1zM75.18 57a.5.5 0 100 1 .5.5 0 000-1zM75.18 55.79a.5.5 0 100-1 .5.5 0 000 1zM79.79 51.81a.44.44 0 00.45-.37.47.47 0 00-.45-.59.46.46 0 00-.43.58.44.44 0 00.43.38zM78.05 52.87a.48.48 0 000-.95.48.48 0 000 .95zM75.8 51.92a.48.48 0 000 .95.48.48 0 000-.95zM74.06 53a.5.5 0 100 1 .5.5 0 100-1zM83.81 60.82a.5.5 0 100-1 .5.5 0 000 1zM79.82 58.8a.48.48 0 000 .95.48.48 0 000-.95zM81.55 59.87a.5.5 0 100 1 .5.5 0 000-1zM82.69 53.77a.5.5 0 100 1 .5.5 0 000-1zM84.43 57a.5.5 0 100 1 .5.5 0 000-1zM82.69 58a.5.5 0 100 1 .5.5 0 000-1zM82.69 55.89a.5.5 0 100 1 .5.5 0 000-1zM84.43 54.83a.5.5 0 100 1 .5.5 0 000-1zM80.93 57a.5.5 0 100 1 .5.5 0 000-1zM80.93 55.79a.5.5 0 100-1 .5.5 0 000 1zM85.54 51.81a.44.44 0 00.45-.37.46.46 0 00-.45-.59.46.46 0 00-.42.58.44.44 0 00.42.38zM83.81 52.87a.48.48 0 000-.95.48.48 0 000 .95zM81.55 51.92a.48.48 0 000 .95.48.48 0 000-.95zM79.82 53a.5.5 0 100 1 .5.5 0 100-1zM89.56 60.82a.5.5 0 100-1 .5.5 0 000 1zM85.57 58.8a.48.48 0 000 .95.48.48 0 000-.95zM87.31 59.87a.5.5 0 100 1 .5.5 0 000-1zM88.45 53.77a.5.5 0 100 1 .5.5 0 000-1zM90.18 57a.5.5 0 100 1 .5.5 0 000-1zM88.45 58a.5.5 0 100 1 .5.5 0 000-1zM88.45 55.89a.5.5 0 100 1 .5.5 0 000-1zM90.18 54.83a.5.5 0 100 1 .5.5 0 000-1zM86.69 57a.5.5 0 100 1 .5.5 0 000-1zM86.69 55.79a.5.5 0 100-1 .5.5 0 000 1zM91.3 51.81a.44.44 0 00.45-.37.47.47 0 00-.45-.59.46.46 0 00-.43.58.44.44 0 00.43.38zM89.56 52.87a.48.48 0 000-.95.48.48 0 000 .95zM87.31 51.92a.48.48 0 000 .95.48.48 0 000-.95zM85.57 53a.5.5 0 100 1 .5.5 0 100-1zM91.33 58.8a.48.48 0 000 .95.48.48 0 000-.95zM93.06 59.87a.5.5 0 100 1 .5.5 0 000-1zM94.2 59a.32.32 0 00.14 0l-.28-1a.505.505 0 10.14 1zM92.44 57a.5.5 0 100 1 .5.5 0 000-1zM92.44 55.79a.5.5 0 100-1 .5.5 0 000 1zM91.33 53a.5.5 0 100 1 .5.5 0 100-1zM14.75 50.75a.5.5 0 100-1 .5.5 0 000 1zM10.73 49.55h-.07v.14h.06a.43.43 0 00.34-.14h-.33zM11.21 51.4a.52.52 0 00-.12-.41l.12.41zM12.49 49.79a.5.5 0 100 1 .5.5 0 000-1zM20.5 50.75a.5.5 0 100-1 .5.5 0 000 1zM16.51 49.69a.43.43 0 00.34-.14h-.68a.41.41 0 00.31.14h.03zM18.25 49.79a.5.5 0 100 1 .5.5 0 000-1zM26.26 50.75a.5.5 0 100-1 .5.5 0 000 1zM22.27 49.69a.43.43 0 00.34-.14h-.68a.4.4 0 00.31.14h.03zM24 49.79a.5.5 0 100 1 .5.5 0 000-1zM32 50.75a.5.5 0 100-1 .5.5 0 000 1zM28 49.69a.43.43 0 00.34-.14h-.68a.41.41 0 00.31.14H28zM29.76 49.79a.5.5 0 100 1 .5.5 0 000-1zM37.77 50.75a.5.5 0 100-1 .5.5 0 000 1zM33.78 49.69a.44.44 0 00.34-.14h-.68a.4.4 0 00.31.14h.03zM35.51 49.79a.5.5 0 100 1 .5.5 0 000-1zM43.52 50.75a.5.5 0 100-1 .5.5 0 000 1zM39.53 49.69a.43.43 0 00.34-.14h-.68a.41.41 0 00.31.14h.03zM41.27 49.79a.5.5 0 100 1 .5.5 0 000-1zM49.28 50.75a.5.5 0 100-1 .5.5 0 000 1zM45.29 49.69a.43.43 0 00.34-.14H45a.4.4 0 00.31.14h-.02zM47 49.79a.5.5 0 100 1 .5.5 0 000-1zM55 50.75a.5.5 0 100-1 .5.5 0 000 1zM51 49.69a.43.43 0 00.34-.14h-.64a.41.41 0 00.31.14H51zM52.78 49.79a.5.5 0 100 1 .5.5 0 000-1zM60.79 50.75a.5.5 0 100-1 .5.5 0 000 1zM56.8 49.69a.43.43 0 00.34-.14h-.68a.4.4 0 00.31.14h.03zM58.53 49.79a.5.5 0 100 1 .5.5 0 000-1zM66.54 50.75a.5.5 0 100-1 .5.5 0 000 1zM62.55 49.69a.43.43 0 00.34-.14h-.68a.41.41 0 00.31.14h.03zM64.29 49.79a.5.5 0 100 1 .5.5 0 000-1zM72.3 50.75a.5.5 0 100-1 .5.5 0 000 1zM68.31 49.69a.43.43 0 00.34-.14H68a.4.4 0 00.31.14zM70 49.79a.5.5 0 100 1 .5.5 0 000-1zM78.05 50.75a.5.5 0 100-1 .5.5 0 000 1zM74.06 49.69a.43.43 0 00.34-.14h-.68a.41.41 0 00.31.14h.03zM75.8 49.79a.5.5 0 100 1 .5.5 0 000-1zM83.81 50.75a.5.5 0 100-1 .5.5 0 000 1zM79.82 49.69a.43.43 0 00.34-.14h-.68a.4.4 0 00.31.14h.03zM81.55 49.79a.5.5 0 100 1 .5.5 0 000-1zM89.56 50.75a.5.5 0 100-1 .5.5 0 000 1zM85.57 49.69a.43.43 0 00.34-.14h-.68a.41.41 0 00.31.14h.03zM87.31 49.79a.5.5 0 100 1 .5.5 0 000-1zM91.33 49.69a.4.4 0 00.2 0v-.1H91a.4.4 0 00.31.14l.02-.04z" fill="#777576" opacity=".35"/><path d="M94.52 59l-2.77-8.89a.76.76 0 00-.72-.53H24.6a.76.76 0 00-.72 1l2.68 8.88a.75.75 0 00.72.54H93.8a.72.72 0 00.6-.31.75.75 0 00.12-.69z" fill="#777576" opacity=".25"/><path d="M110.65 53.89l-5.6-13.44a.73.73 0 00-.69-.46H51.89l-.11-.45a.74.74 0 00-.7-.58L24.49 38a.71.71 0 00-.73.52l-.67 2a.69.69 0 000 .45l4.64 15.43c.1.314.39.528.72.53h80.85a.75.75 0 00.71-.51l.66-2a.72.72 0 00-.02-.53z" fill="#777576"/><path stroke="#777576" stroke-width="1.5" fill="#DCDCDC" stroke-linecap="round" stroke-linejoin="round" d="M56.06 54.18H29.11l-4.64-15.43h26.95z"/><path stroke="#777576" stroke-width="1.5" fill="#BAB9BA" stroke-linecap="round" stroke-linejoin="round" d="M83.01 54.18H56.06l-4.64-15.43h26.95z"/><path stroke="#777576" stroke-width="1.5" fill="#BAB9BA" stroke-linecap="round" stroke-linejoin="round" d="M109.96 54.18H83.01l-4.64-15.43h26.95z"/><path d="M28.93 54.14v.07h.33a.45.45 0 00-.26-.08l-.07.01zM30.13 51.11a.45.45 0 00.45-.38.46.46 0 00-.45-.58.46.46 0 00-.42.58.43.43 0 00.42.38zM28.4 51.22a.46.46 0 00-.32.11l.26.84h.06a.48.48 0 000-.95zM33 53.07a.5.5 0 100 1 .5.5 0 000-1zM34.51 54.21H35a.46.46 0 00-.27-.08.45.45 0 00-.22.08zM31 54.21h.53a.45.45 0 00-.26-.08.46.46 0 00-.27.08zM35.89 51.11a.45.45 0 00.46-.38.46.46 0 00-.46-.58.46.46 0 00-.43.58.44.44 0 00.43.38zM34.15 51.22a.5.5 0 100 1 .5.5 0 000-1zM31.89 51.22a.5.5 0 100 1 .5.5 0 000-1zM30.16 52.28a.5.5 0 100 1 .5.5 0 100-1zM38.79 53.07a.5.5 0 100 1 .5.5 0 000-1zM40.26 54.21h.53a.45.45 0 00-.26-.08.46.46 0 00-.27.08zM36.77 54.21h.52a.46.46 0 00-.52 0zM41.64 51.11a.45.45 0 00.45-.38.46.46 0 00-.45-.58.46.46 0 00-.42.58.43.43 0 00.42.38zM39.91 51.22a.5.5 0 100 1 .5.5 0 000-1zM37.65 51.22a.5.5 0 100 1 .5.5 0 000-1zM35.91 52.28a.5.5 0 100 1 .5.5 0 100-1zM44.55 53.07a.5.5 0 100 1 .5.5 0 000-1zM46 54.21h.53a.46.46 0 00-.27-.08.45.45 0 00-.26.08zM42.52 54.21h.53a.45.45 0 00-.26-.08.46.46 0 00-.27.08zM47.4 51.11a.45.45 0 00.46-.38.46.46 0 00-.46-.58.46.46 0 00-.43.58.44.44 0 00.43.38zM45.66 51.22a.5.5 0 100 1 .5.5 0 000-1zM43.4 51.22a.5.5 0 100 1 .5.5 0 000-1zM41.67 52.28a.5.5 0 100 1 .5.5 0 100-1zM50.3 53.07a.5.5 0 100 1 .5.5 0 000-1zM51.77 54.21h.53a.45.45 0 00-.26-.08.46.46 0 00-.27.08zM48.28 54.21h.52a.46.46 0 00-.52 0zM53.15 51.11a.45.45 0 00.45-.38.46.46 0 00-.45-.58.46.46 0 00-.42.58.43.43 0 00.42.38zM51.42 51.22a.5.5 0 100 1 .5.5 0 000-1zM49.16 51.22a.5.5 0 100 1 .5.5 0 000-1zM47.42 52.28a.5.5 0 100 1 .5.5 0 100-1zM56.06 53.07a.5.5 0 100 1 .5.5 0 000-1zM57.53 54.21h.53a.46.46 0 00-.27-.08.45.45 0 00-.26.08zM54 54.21h.53a.45.45 0 00-.26-.08.46.46 0 00-.27.08zM58.91 51.11a.45.45 0 00.46-.38.46.46 0 00-.46-.58.46.46 0 00-.43.58.44.44 0 00.43.38zM57.17 51.22a.5.5 0 100 1 .5.5 0 000-1zM54.91 51.22a.5.5 0 100 1 .5.5 0 000-1zM53.18 52.28a.5.5 0 100 1 .5.5 0 100-1zM61.81 53.07a.5.5 0 100 1 .5.5 0 000-1zM63.28 54.21h.53a.45.45 0 00-.26-.08.46.46 0 00-.27.08zM59.79 54.21h.52a.42.42 0 00-.26-.08.45.45 0 00-.26.08zM64.66 51.11a.45.45 0 00.45-.38.46.46 0 00-.45-.58.46.46 0 00-.42.58.43.43 0 00.42.38zM62.93 51.22a.5.5 0 100 1 .5.5 0 000-1zM60.67 51.22a.5.5 0 100 1 .5.5 0 000-1zM58.93 52.28a.5.5 0 100 1 .5.5 0 100-1zM67.57 53.07a.5.5 0 100 1 .5.5 0 000-1zM69 54.21h.53a.46.46 0 00-.27-.08.45.45 0 00-.26.08zM65.54 54.21h.53a.45.45 0 00-.26-.08.46.46 0 00-.27.08zM70.42 51.11a.45.45 0 00.46-.38.46.46 0 00-.46-.58.46.46 0 00-.43.58.44.44 0 00.43.38zM68.68 51.22a.5.5 0 100 1 .5.5 0 000-1zM66.42 51.22a.5.5 0 100 1 .5.5 0 000-1zM64.69 52.28a.5.5 0 100 1 .5.5 0 100-1zM73.32 53.07a.5.5 0 100 1 .5.5 0 000-1zM74.79 54.21h.53a.45.45 0 00-.26-.08.46.46 0 00-.27.08zM71.3 54.21h.52a.42.42 0 00-.26-.08.45.45 0 00-.26.08zM76.17 51.11a.45.45 0 00.45-.38.46.46 0 00-.45-.58.46.46 0 00-.42.58.43.43 0 00.42.38zM74.44 51.22a.5.5 0 100 1 .5.5 0 000-1zM72.18 51.22a.5.5 0 100 1 .5.5 0 000-1zM70.44 52.28a.5.5 0 100 1 .5.5 0 100-1zM79.08 53.07a.5.5 0 100 1 .5.5 0 000-1zM80.55 54.21h.53a.46.46 0 00-.27-.08.45.45 0 00-.26.08zM77.05 54.21h.53a.45.45 0 00-.26-.08.46.46 0 00-.27.08zM81.93 51.11a.45.45 0 00.46-.38.46.46 0 00-.46-.58.46.46 0 00-.43.58.44.44 0 00.43.38zM80.19 51.22a.5.5 0 100 1 .5.5 0 000-1zM77.93 51.22a.5.5 0 100 1 .5.5 0 000-1zM76.2 52.28a.5.5 0 100 1 .5.5 0 100-1zM84.83 53.07a.5.5 0 100 1 .5.5 0 000-1zM86.3 54.21h.53a.45.45 0 00-.26-.08.46.46 0 00-.27.08zM82.81 54.21h.52a.42.42 0 00-.26-.08.45.45 0 00-.26.08zM87.68 51.11a.45.45 0 00.45-.38.46.46 0 00-.45-.58.46.46 0 00-.42.58.43.43 0 00.42.38zM86 51.22a.5.5 0 100 1 .5.5 0 000-1zM83.69 51.22a.5.5 0 100 1 .5.5 0 000-1zM82 52.28a.5.5 0 100 1 .5.5 0 100-1zM90.59 53.07a.5.5 0 100 1 .5.5 0 000-1zM92.06 54.21h.53a.46.46 0 00-.27-.08.45.45 0 00-.26.08zM88.56 54.21h.53a.45.45 0 00-.26-.08.46.46 0 00-.27.08zM93.44 51.11a.45.45 0 00.46-.38.46.46 0 00-.46-.58.46.46 0 00-.43.58.44.44 0 00.43.38zM91.7 51.22a.5.5 0 100 1 .5.5 0 000-1zM89.44 51.22a.5.5 0 100 1 .5.5 0 000-1zM87.71 52.28a.5.5 0 100 1 .5.5 0 100-1zM96.34 53.07a.5.5 0 100 1 .5.5 0 000-1zM97.81 54.21h.53a.45.45 0 00-.26-.08.46.46 0 00-.27.08zM94.32 54.21h.52a.4.4 0 00-.26-.08.45.45 0 00-.26.08zM99.19 51.11a.45.45 0 00.45-.38.46.46 0 00-.45-.58.46.46 0 00-.42.58.43.43 0 00.42.38zM97.46 51.22a.5.5 0 100 1 .5.5 0 000-1zM95.2 51.22a.5.5 0 100 1 .5.5 0 000-1zM93.46 52.28a.5.5 0 100 1 .5.5 0 100-1zM102.1 53.07a.5.5 0 100 1 .5.5 0 000-1zM103.57 54.21h.53a.46.46 0 00-.27-.08.45.45 0 00-.26.08zM100.07 54.21h.53a.45.45 0 00-.26-.08.46.46 0 00-.27.08zM105 51.11a.45.45 0 00.46-.38.46.46 0 00-.46-.58.46.46 0 00-.43.58.44.44 0 00.43.38zM103.21 51.22a.5.5 0 100 1 .5.5 0 000-1zM101 51.22a.5.5 0 100 1 .5.5 0 000-1zM99.22 52.28a.5.5 0 100 1 .5.5 0 100-1zM107.85 53.07a.5.5 0 100 1 .5.5 0 000-1zM109.79 54.17a.65.65 0 00-.2 0 .46.46 0 00-.27.08h.48l-.01-.08zM105.83 54.21h.52a.42.42 0 00-.26-.08.45.45 0 00-.26.08zM109 52.18a.39.39 0 00.2 0l-.27-.91a.48.48 0 00.07.91zM106.71 51.22a.5.5 0 100 1 .5.5 0 000-1zM105 52.28a.5.5 0 000 1 .5.5 0 000-1zM28.4 49.1a.48.48 0 000 .95.48.48 0 000-.95zM27.28 43a.5.5 0 100 1 .5.5 0 000-1zM29 46.18a.5.5 0 100 1 .5.5 0 000-1zM27.28 47.24a.43.43 0 00-.37.19l.22.75h.15a.48.48 0 000-.94zM27.28 45.12a.5.5 0 100 1 .5.5 0 000-1zM29 44.06a.5.5 0 100 1 .5.5 0 000-1zM30.13 41a.44.44 0 00.45-.37.47.47 0 00-.45-.59.46.46 0 00-.42.58.43.43 0 00.42.38zM28.4 42.1a.5.5 0 100-1 .5.5 0 000 1zM26.14 41.15a.5.5 0 100 1 .5.5 0 000-1zM34.15 50.05a.48.48 0 000-.95.48.48 0 000 .95zM30.16 48a.5.5 0 100 1 .5.5 0 100-1zM31.89 49.1a.48.48 0 000 .95.48.48 0 000-.95zM33 43a.5.5 0 100 1 .5.5 0 000-1zM34.77 46.18a.5.5 0 100 1 .5.5 0 000-1zM33 47.24a.5.5 0 100 1 .5.5 0 000-1zM33 45.12a.5.5 0 100 1 .5.5 0 000-1zM34.77 44.06a.5.5 0 100 1 .5.5 0 000-1zM31.28 46.18a.5.5 0 100 1 .5.5 0 000-1zM31.28 45a.5.5 0 100-1 .5.5 0 000 1zM35.89 41a.44.44 0 00.46-.37.47.47 0 00-.46-.59.46.46 0 00-.43.58.44.44 0 00.43.38zM34.15 42.1a.5.5 0 100-1 .5.5 0 000 1zM31.89 41.15a.5.5 0 100 1 .5.5 0 000-1zM30.16 42.21a.48.48 0 000 .95.48.48 0 000-.95zM39.91 50.05a.48.48 0 000-.95.48.48 0 000 .95zM35.91 48a.5.5 0 100 1 .5.5 0 100-1zM37.65 49.1a.48.48 0 000 .95.48.48 0 000-.95zM38.79 43a.5.5 0 100 1 .5.5 0 000-1zM40.53 46.18a.5.5 0 100 1 .5.5 0 000-1zM38.79 47.24a.5.5 0 100 1 .5.5 0 000-1zM38.79 45.12a.5.5 0 100 1 .5.5 0 000-1zM40.53 44.06a.5.5 0 100 1 .5.5 0 000-1zM37 46.18a.5.5 0 100 1 .5.5 0 000-1zM37 45a.5.5 0 100-1 .5.5 0 000 1zM41.64 41a.44.44 0 00.45-.37.47.47 0 00-.45-.59.46.46 0 00-.42.58.43.43 0 00.42.38zM39.91 42.1a.5.5 0 100-1 .5.5 0 000 1zM37.65 41.15a.5.5 0 100 1 .5.5 0 000-1zM35.91 42.21a.48.48 0 000 .95.48.48 0 000-.95zM45.66 50.05a.48.48 0 000-.95.48.48 0 000 .95zM41.67 48a.5.5 0 100 1 .5.5 0 100-1zM43.4 49.1a.48.48 0 000 .95.48.48 0 000-.95zM44.55 43a.5.5 0 100 1 .5.5 0 000-1zM46.28 46.18a.5.5 0 100 1 .5.5 0 000-1zM44.55 47.24a.5.5 0 100 1 .5.5 0 000-1zM44.55 45.12a.5.5 0 100 1 .5.5 0 000-1zM46.28 44.06a.5.5 0 100 1 .5.5 0 000-1zM42.79 46.18a.5.5 0 100 1 .5.5 0 000-1zM42.79 45a.5.5 0 100-1 .5.5 0 000 1zM47.4 41a.44.44 0 00.46-.37.47.47 0 00-.46-.59.46.46 0 00-.43.58.44.44 0 00.43.38zM45.66 42.1a.5.5 0 100-1 .5.5 0 000 1zM43.4 41.15a.5.5 0 100 1 .5.5 0 000-1zM41.67 42.21a.48.48 0 000 .95.48.48 0 000-.95zM51.42 50.05a.48.48 0 000-.95.48.48 0 000 .95zM47.42 48a.5.5 0 100 1 .5.5 0 100-1zM49.16 49.1a.48.48 0 000 .95.48.48 0 000-.95zM50.3 43a.5.5 0 100 1 .5.5 0 000-1zM52 46.18a.5.5 0 100 1 .5.5 0 000-1zM50.3 47.24a.5.5 0 100 1 .5.5 0 000-1zM50.3 45.12a.5.5 0 100 1 .5.5 0 000-1zM52 44.06a.5.5 0 100 1 .5.5 0 000-1zM48.54 46.18a.5.5 0 100 1 .5.5 0 000-1zM48.54 45a.5.5 0 100-1 .5.5 0 000 1zM53.15 41a.44.44 0 00.45-.37.47.47 0 00-.45-.59.46.46 0 00-.42.58.43.43 0 00.42.38zM51.42 42.1a.5.5 0 100-1 .5.5 0 000 1zM49.16 41.15a.5.5 0 100 1 .5.5 0 000-1zM47.42 42.21a.48.48 0 000 .95.48.48 0 000-.95zM57.17 50.05a.48.48 0 000-.95.48.48 0 000 .95zM53.18 48a.5.5 0 100 1 .5.5 0 100-1zM54.91 49.1a.48.48 0 000 .95.48.48 0 000-.95zM56.06 43a.5.5 0 100 1 .5.5 0 000-1zM57.79 46.18a.5.5 0 100 1 .5.5 0 000-1zM56.06 47.24a.5.5 0 100 1 .5.5 0 000-1zM56.06 45.12a.5.5 0 100 1 .5.5 0 000-1zM57.79 44.06a.5.5 0 100 1 .5.5 0 000-1zM54.3 46.18a.5.5 0 100 1 .5.5 0 000-1zM54.3 45a.5.5 0 100-1 .5.5 0 000 1zM58.91 41a.44.44 0 00.46-.37.47.47 0 00-.46-.59.46.46 0 00-.43.58.44.44 0 00.43.38zM57.17 42.1a.5.5 0 100-1 .5.5 0 000 1zM54.91 41.15a.5.5 0 100 1 .5.5 0 000-1zM53.18 42.21a.48.48 0 000 .95.48.48 0 000-.95zM62.93 50.05a.48.48 0 000-.95.48.48 0 000 .95zM58.93 48a.5.5 0 100 1 .5.5 0 100-1zM60.67 49.1a.48.48 0 000 .95.48.48 0 000-.95zM61.81 43a.5.5 0 100 1 .5.5 0 000-1zM63.55 46.18a.5.5 0 100 1 .5.5 0 000-1zM61.81 47.24a.5.5 0 100 1 .5.5 0 000-1zM61.81 45.12a.5.5 0 100 1 .5.5 0 000-1zM63.55 44.06a.5.5 0 100 1 .5.5 0 000-1zM60.05 46.18a.5.5 0 100 1 .5.5 0 000-1zM60.05 45a.5.5 0 100-1 .5.5 0 000 1zM64.66 41a.44.44 0 00.45-.37.47.47 0 00-.45-.59.46.46 0 00-.42.58.43.43 0 00.42.38zM62.93 42.1a.5.5 0 100-1 .5.5 0 000 1zM60.67 41.15a.5.5 0 100 1 .5.5 0 000-1zM58.93 42.21a.48.48 0 000 .95.48.48 0 000-.95zM68.68 50.05a.48.48 0 000-.95.48.48 0 000 .95zM64.69 48a.5.5 0 100 1 .5.5 0 100-1zM66.42 49.1a.48.48 0 000 .95.48.48 0 000-.95zM67.57 43a.5.5 0 100 1 .5.5 0 000-1zM69.3 46.18a.5.5 0 100 1 .5.5 0 000-1zM67.57 47.24a.5.5 0 100 1 .5.5 0 000-1zM67.57 45.12a.5.5 0 100 1 .5.5 0 000-1zM69.3 44.06a.5.5 0 100 1 .5.5 0 000-1zM65.81 46.18a.5.5 0 100 1 .5.5 0 000-1zM65.81 45a.5.5 0 100-1 .5.5 0 000 1zM70.42 41a.44.44 0 00.46-.37.47.47 0 00-.46-.59.46.46 0 00-.43.58.44.44 0 00.43.38zM68.68 42.1a.5.5 0 100-1 .5.5 0 000 1zM66.42 41.15a.5.5 0 100 1 .5.5 0 000-1zM64.69 42.21a.48.48 0 000 .95.48.48 0 000-.95zM74.44 50.05a.48.48 0 000-.95.48.48 0 000 .95zM70.44 48a.5.5 0 100 1 .5.5 0 100-1zM72.18 49.1a.48.48 0 000 .95.48.48 0 000-.95zM73.32 43a.5.5 0 100 1 .5.5 0 000-1zM75.06 46.18a.5.5 0 100 1 .5.5 0 000-1zM73.32 47.24a.5.5 0 100 1 .5.5 0 000-1zM73.32 45.12a.5.5 0 100 1 .5.5 0 000-1zM75.06 44.06a.5.5 0 100 1 .5.5 0 000-1zM71.56 46.18a.5.5 0 100 1 .5.5 0 000-1zM71.56 45a.5.5 0 100-1 .5.5 0 000 1zM76.17 41a.44.44 0 00.45-.37.47.47 0 00-.45-.59.46.46 0 00-.42.58.43.43 0 00.42.38zM74.44 42.1a.5.5 0 100-1 .5.5 0 000 1zM72.18 41.15a.5.5 0 100 1 .5.5 0 000-1zM70.44 42.21a.48.48 0 000 .95.48.48 0 000-.95zM80.19 50.05a.48.48 0 000-.95.48.48 0 000 .95zM76.2 48a.5.5 0 100 1 .5.5 0 100-1zM77.93 49.1a.48.48 0 000 .95.48.48 0 000-.95zM79.08 43a.5.5 0 100 1 .5.5 0 000-1zM80.81 46.18a.5.5 0 100 1 .5.5 0 000-1zM79.08 47.24a.5.5 0 100 1 .5.5 0 000-1zM79.08 45.12a.5.5 0 100 1 .5.5 0 000-1zM80.81 44.06a.5.5 0 100 1 .5.5 0 000-1zM77.32 46.18a.5.5 0 100 1 .5.5 0 000-1zM77.32 45a.5.5 0 100-1 .5.5 0 000 1zM81.93 41a.44.44 0 00.46-.37.47.47 0 00-.46-.59.46.46 0 00-.43.58.44.44 0 00.43.38zM80.19 42.1a.5.5 0 100-1 .5.5 0 000 1zM77.93 41.15a.5.5 0 100 1 .5.5 0 000-1zM76.2 42.21a.48.48 0 000 .95.48.48 0 000-.95zM86 50.05a.48.48 0 000-.95.48.48 0 000 .95zM82 48a.5.5 0 100 1 .5.5 0 100-1zM83.69 49.1a.48.48 0 000 .95.48.48 0 000-.95zM84.83 43a.5.5 0 100 1 .5.5 0 000-1zM86.57 46.18a.5.5 0 100 1 .5.5 0 000-1zM84.83 47.24a.5.5 0 100 1 .5.5 0 000-1zM84.83 45.12a.5.5 0 100 1 .5.5 0 000-1zM86.57 44.06a.5.5 0 100 1 .5.5 0 000-1zM83.07 46.18a.5.5 0 100 1 .5.5 0 000-1zM83.07 45a.5.5 0 100-1 .5.5 0 000 1zM87.68 41a.44.44 0 00.45-.37.47.47 0 00-.45-.59.46.46 0 00-.42.58.43.43 0 00.42.38zM86 42.1a.5.5 0 100-1 .5.5 0 000 1zM83.69 41.15a.5.5 0 100 1 .5.5 0 000-1zM82 42.21a.48.48 0 000 .95.48.48 0 000-.95zM91.7 50.05a.48.48 0 000-.95.48.48 0 000 .95zM87.71 48a.5.5 0 100 1 .5.5 0 100-1zM89.44 49.1a.48.48 0 000 .95.48.48 0 000-.95zM90.59 43a.5.5 0 100 1 .5.5 0 000-1zM92.32 46.18a.5.5 0 100 1 .5.5 0 000-1zM90.59 47.24a.5.5 0 100 1 .5.5 0 000-1zM90.59 45.12a.5.5 0 100 1 .5.5 0 000-1zM92.32 44.06a.5.5 0 100 1 .5.5 0 000-1zM88.83 46.18a.5.5 0 100 1 .5.5 0 000-1zM88.83 45a.5.5 0 100-1 .5.5 0 000 1zM93.44 41a.44.44 0 00.46-.37.47.47 0 00-.46-.59.46.46 0 00-.43.58.44.44 0 00.43.38zM91.7 42.1a.5.5 0 100-1 .5.5 0 000 1zM89.44 41.15a.5.5 0 100 1 .5.5 0 000-1zM87.71 42.21a.48.48 0 000 .95.48.48 0 000-.95zM97.46 50.05a.48.48 0 000-.95.48.48 0 000 .95zM93.46 48a.5.5 0 100 1 .5.5 0 100-1zM95.2 49.1a.48.48 0 000 .95.48.48 0 000-.95zM96.34 43a.5.5 0 100 1 .5.5 0 000-1zM98.08 46.18a.5.5 0 100 1 .5.5 0 000-1zM96.34 47.24a.5.5 0 100 1 .5.5 0 000-1zM96.34 45.12a.5.5 0 100 1 .5.5 0 000-1zM98.08 44.06a.5.5 0 100 1 .5.5 0 000-1zM94.58 46.18a.5.5 0 100 1 .5.5 0 000-1zM94.58 45a.5.5 0 100-1 .5.5 0 000 1zM99.19 41a.44.44 0 00.45-.37.47.47 0 00-.45-.59.46.46 0 00-.42.58.43.43 0 00.42.38zM97.46 42.1a.5.5 0 100-1 .5.5 0 000 1zM95.2 41.15a.5.5 0 100 1 .5.5 0 000-1zM93.46 42.21a.48.48 0 000 .95.48.48 0 000-.95zM103.21 50.05a.48.48 0 000-.95.48.48 0 000 .95zM99.22 48a.5.5 0 100 1 .5.5 0 100-1zM101 49.1a.48.48 0 000 .95.48.48 0 000-.95zM102.1 43a.5.5 0 100 1 .5.5 0 000-1zM103.83 46.18a.5.5 0 100 1 .5.5 0 000-1zM102.1 47.24a.5.5 0 100 1 .5.5 0 000-1zM102.1 45.12a.5.5 0 100 1 .5.5 0 000-1zM103.83 44.06a.5.5 0 100 1 .5.5 0 000-1zM100.34 46.18a.5.5 0 100 1 .5.5 0 000-1zM100.34 45a.5.5 0 100-1 .5.5 0 000 1zM105 41a.44.44 0 00.46-.37.47.47 0 00-.46-.59.46.46 0 00-.43.58.44.44 0 00.43.38zM103.21 42.1a.5.5 0 100-1 .5.5 0 000 1zM101 41.15a.5.5 0 100 1 .5.5 0 000-1zM99.22 42.21a.48.48 0 000 .95.48.48 0 000-.95zM105 48a.5.5 0 000 1 .5.5 0 000-1zM106.71 49.1a.48.48 0 000 .95.48.48 0 000-.95zM107.85 48.2a.27.27 0 00.13 0l-.27-.92a.48.48 0 00.14.92zM106.09 46.18a.5.5 0 100 1 .5.5 0 000-1zM106.09 45a.5.5 0 100-1 .5.5 0 000 1zM105 42.21a.48.48 0 000 .95.48.48 0 000-.95zM28.4 40a.5.5 0 100-1 .5.5 0 000 1zM24.38 38.78h-.07v.14a.42.42 0 00.34-.14h-.27zM24.86 40.63a.52.52 0 00-.12-.41l.12.41zM26.14 39a.5.5 0 100 1 .5.5 0 000-1zM34.15 40a.5.5 0 100-1 .5.5 0 000 1zM30.16 38.92a.43.43 0 00.34-.14h-.68a.41.41 0 00.31.14h.03zM31.89 39a.5.5 0 100 1 .5.5 0 000-1zM39.91 40a.5.5 0 100-1 .5.5 0 000 1zM35.91 38.92a.42.42 0 00.34-.14h-.68a.44.44 0 00.32.14h.02zM37.65 39a.5.5 0 100 1 .5.5 0 000-1zM45.66 40a.5.5 0 100-1 .5.5 0 000 1zM41.67 38.92a.43.43 0 00.34-.14h-.68a.41.41 0 00.31.14h.03zM43.4 39a.5.5 0 100 1 .5.5 0 000-1zM51.42 40a.5.5 0 100-1 .5.5 0 000 1zM47.42 38.92a.42.42 0 00.34-.14h-.68a.44.44 0 00.32.14h.02zM49.16 39a.5.5 0 100 1 .5.5 0 000-1zM57.17 40a.5.5 0 100-1 .5.5 0 000 1zM53.18 38.92a.43.43 0 00.34-.14h-.68a.41.41 0 00.31.14h.03zM54.91 39a.5.5 0 100 1 .5.5 0 000-1zM62.93 40a.5.5 0 100-1 .5.5 0 000 1zM58.93 38.92a.42.42 0 00.34-.14h-.68a.44.44 0 00.32.14h.02zM60.67 39a.5.5 0 100 1 .5.5 0 000-1zM68.68 40a.5.5 0 100-1 .5.5 0 000 1zM64.69 38.92a.43.43 0 00.34-.14h-.68a.41.41 0 00.31.14h.03zM66.42 39a.5.5 0 100 1 .5.5 0 000-1zM74.44 40a.5.5 0 100-1 .5.5 0 000 1zM70.44 38.92a.42.42 0 00.34-.14h-.68a.44.44 0 00.32.14h.02zM72.18 39a.5.5 0 100 1 .5.5 0 000-1zM80.19 40a.5.5 0 100-1 .5.5 0 000 1zM76.2 38.92a.43.43 0 00.34-.14h-.68a.41.41 0 00.31.14h.03zM77.93 39a.5.5 0 100 1 .5.5 0 000-1zM86 40a.5.5 0 100-1 .5.5 0 000 1zM82 38.92a.42.42 0 00.34-.14h-.68a.44.44 0 00.32.14H82zM83.69 39a.5.5 0 100 1 .5.5 0 000-1zM91.7 40a.5.5 0 100-1 .5.5 0 000 1zM87.71 38.92a.43.43 0 00.34-.14h-.68a.41.41 0 00.31.14h.03zM89.44 39a.5.5 0 100 1 .5.5 0 000-1zM97.46 40a.5.5 0 100-1 .5.5 0 000 1zM93.46 38.92a.42.42 0 00.34-.14h-.68a.44.44 0 00.32.14h.02zM95.2 39a.5.5 0 100 1 .5.5 0 000-1zM103.21 40a.5.5 0 100-1 .5.5 0 000 1zM99.22 38.92a.43.43 0 00.34-.14h-.68a.41.41 0 00.31.14h.03zM101 39a.5.5 0 100 1 .5.5 0 000-1zM105 38.92a.46.46 0 00.21 0v-.1h-.52a.44.44 0 00.32.14l-.01-.04z" fill="#777576" opacity=".35"/><path d="M89.77 47.78l-1-3.32a.76.76 0 00-.72-.54H26.23a.75.75 0 00-.72 1l1 3.32a.76.76 0 00.72.54h61.82a.75.75 0 00.72-1z" fill="#777576" opacity=".25"/><path d="M90.32 42.61l-5.65-13.7a.76.76 0 00-.69-.47H30l-.17-.44a.75.75 0 00-.68-.52l-25-1a.73.73 0 00-.74.51l-.66 2a.77.77 0 000 .45l4.7 15.7c.1.314.39.528.72.53H89a.75.75 0 00.71-.51l.66-2a.72.72 0 00-.05-.55z" fill="#777576"/><path stroke="#777576" stroke-width="1.5" fill="#BAB9BA" stroke-linecap="round" stroke-linejoin="round" d="M35.73 42.9H8.78l-4.7-15.7h26.95z"/><path stroke="#777576" stroke-width="1.5" fill="#DCDCDC" stroke-linecap="round" stroke-linejoin="round" d="M62.68 42.9H35.73l-4.7-15.7h26.95z"/><path stroke="#777576" stroke-width="1.5" fill="#BAB9BA" stroke-linecap="round" stroke-linejoin="round" d="M89.63 42.9H62.68l-4.7-15.7h26.95z"/><path d="M8.73 42.7v.06h.34a.54.54 0 00-.27-.07l-.07.01zM9.94 39.67a.44.44 0 00.46-.37.47.47 0 00-.46-.59.47.47 0 00-.43.59.44.44 0 00.43.37zM8.2 39.77a.44.44 0 00-.31.12l.25.84h.06a.48.48 0 100-.96zM12.84 41.63a.5.5 0 100 1 .5.5 0 000-1zM14.31 42.76h.53a.53.53 0 00-.53 0zM10.82 42.76h.52a.5.5 0 00-.26-.07.53.53 0 00-.26.07zM15.69 39.67a.44.44 0 00.45-.37.47.47 0 00-.45-.59.47.47 0 00-.42.59.43.43 0 00.42.37zM14 39.77a.5.5 0 100 1 .5.5 0 000-1zM11.7 39.77a.5.5 0 100 1 .5.5 0 000-1zM10 40.83a.48.48 0 000 .95.48.48 0 000-.95zM18.6 41.63a.5.5 0 100 1 .5.5 0 000-1zM20.07 42.76h.53a.54.54 0 00-.53 0zM16.57 42.76h.53a.53.53 0 00-.53 0zM21.45 39.67a.44.44 0 00.46-.37.47.47 0 00-.46-.59.47.47 0 00-.43.59.44.44 0 00.43.37zM19.71 39.77a.5.5 0 100 1 .5.5 0 000-1zM17.45 39.77a.5.5 0 100 1 .5.5 0 000-1zM15.72 40.83a.48.48 0 000 .95.48.48 0 000-.95zM24.35 41.63a.5.5 0 100 1 .5.5 0 000-1zM25.82 42.76h.53a.53.53 0 00-.53 0zM22.33 42.76h.52a.47.47 0 00-.26-.07.53.53 0 00-.26.07zM27.2 39.67a.44.44 0 00.45-.37.47.47 0 00-.45-.59.47.47 0 00-.42.59.43.43 0 00.42.37zM25.47 39.77a.5.5 0 100 1 .5.5 0 000-1zM23.21 39.77a.5.5 0 100 1 .5.5 0 000-1zM21.47 40.83a.48.48 0 000 .95.48.48 0 000-.95zM30.11 41.63a.5.5 0 100 1 .5.5 0 000-1zM31.58 42.76h.53a.54.54 0 00-.53 0zM28.08 42.76h.53a.53.53 0 00-.53 0zM33 39.67a.44.44 0 00.46-.37.47.47 0 00-.46-.59.47.47 0 00-.43.59.44.44 0 00.43.37zM31.22 39.77a.5.5 0 100 1 .5.5 0 000-1zM29 39.77a.5.5 0 100 1 .5.5 0 000-1zM27.23 40.83a.48.48 0 000 .95.48.48 0 000-.95zM35.86 41.63a.5.5 0 100 1 .5.5 0 000-1zM37.33 42.76h.53a.53.53 0 00-.53 0zM33.84 42.76h.52a.5.5 0 00-.26-.07.53.53 0 00-.26.07zM38.71 39.67a.44.44 0 00.45-.37.47.47 0 00-.45-.59.47.47 0 00-.42.59.43.43 0 00.42.37zM37 39.77a.5.5 0 100 1 .5.5 0 000-1zM34.72 39.77a.5.5 0 100 1 .5.5 0 000-1zM33 40.83a.48.48 0 000 .95.48.48 0 000-.95zM41.62 41.63a.5.5 0 100 1 .5.5 0 000-1zM43.09 42.76h.53a.54.54 0 00-.53 0zM39.59 42.76h.53a.53.53 0 00-.53 0zM44.47 39.67a.44.44 0 00.53-.37.47.47 0 00-.46-.59.47.47 0 00-.43.59.44.44 0 00.36.37zM42.73 39.77a.5.5 0 100 1 .5.5 0 000-1zM40.47 39.77a.5.5 0 100 1 .5.5 0 000-1zM38.74 40.83a.48.48 0 000 .95.48.48 0 000-.95zM47.37 41.63a.5.5 0 100 1 .5.5 0 000-1zM48.84 42.76h.53a.53.53 0 00-.53 0zM45.35 42.76h.52a.47.47 0 00-.26-.07.53.53 0 00-.26.07zM50.22 39.67a.44.44 0 00.45-.37.47.47 0 00-.45-.59.47.47 0 00-.42.59.43.43 0 00.42.37zM48.49 39.77a.5.5 0 100 1 .5.5 0 000-1zM46.23 39.77a.5.5 0 100 1 .5.5 0 000-1zM44.49 40.83a.48.48 0 000 .95.48.48 0 000-.95zM53.13 41.63a.5.5 0 100 1 .5.5 0 000-1zM54.6 42.76h.53a.54.54 0 00-.53 0zM51.1 42.76h.53a.53.53 0 00-.53 0zM56 39.67a.44.44 0 00.46-.37.47.47 0 00-.46-.59.47.47 0 00-.43.59.44.44 0 00.43.37zM54.24 39.77a.5.5 0 100 1 .5.5 0 000-1zM52 39.77a.5.5 0 100 1 .5.5 0 000-1zM50.25 40.83a.48.48 0 000 .95.48.48 0 000-.95zM58.88 41.63a.5.5 0 100 1 .5.5 0 000-1zM60.35 42.76h.53a.53.53 0 00-.53 0zM56.86 42.76h.52a.47.47 0 00-.26-.07.53.53 0 00-.26.07zM61.73 39.67a.44.44 0 00.45-.37.47.47 0 00-.45-.59.47.47 0 00-.42.59.43.43 0 00.42.37zM60 39.77a.5.5 0 100 1 .5.5 0 000-1zM57.74 39.77a.5.5 0 100 1 .5.5 0 000-1zM56 40.83a.48.48 0 000 .95.48.48 0 000-.95zM64.64 41.63a.5.5 0 100 1 .5.5 0 000-1zM66.11 42.76h.53a.54.54 0 00-.53 0zM62.61 42.76h.53a.53.53 0 00-.53 0zM67.49 39.67a.44.44 0 00.51-.37.47.47 0 00-.46-.59.47.47 0 00-.43.59.44.44 0 00.38.37zM65.75 39.77a.5.5 0 100 1 .5.5 0 000-1zM63.49 39.77a.5.5 0 100 1 .5.5 0 000-1zM61.76 40.83a.48.48 0 000 .95.48.48 0 000-.95zM70.39 41.63a.5.5 0 100 1 .5.5 0 000-1zM71.86 42.76h.53a.53.53 0 00-.53 0zM68.37 42.76h.52a.47.47 0 00-.26-.07.53.53 0 00-.26.07zM73.24 39.67a.44.44 0 00.45-.37.47.47 0 00-.45-.59.47.47 0 00-.42.59.43.43 0 00.42.37zM71.51 39.77a.5.5 0 100 1 .5.5 0 000-1zM69.25 39.77a.5.5 0 100 1 .5.5 0 000-1zM67.51 40.83a.48.48 0 000 .95.48.48 0 000-.95zM76.15 41.63a.5.5 0 100 1 .5.5 0 000-1zM77.62 42.76h.53a.54.54 0 00-.53 0zM74.12 42.76h.53a.53.53 0 00-.53 0zM79 39.67a.44.44 0 00.46-.37.47.47 0 00-.46-.59.47.47 0 00-.43.59.44.44 0 00.43.37zM77.26 39.77a.5.5 0 100 1 .5.5 0 000-1zM75 39.77a.5.5 0 100 1 .5.5 0 000-1zM73.27 40.83a.48.48 0 000 .95.48.48 0 000-.95zM81.9 41.63a.5.5 0 100 1 .5.5 0 000-1zM83.37 42.76h.53a.53.53 0 00-.53 0zM79.88 42.76h.52a.47.47 0 00-.26-.07.53.53 0 00-.26.07zM84.75 39.67a.44.44 0 00.45-.37.47.47 0 00-.45-.59.47.47 0 00-.42.59.43.43 0 00.42.37zM83 39.77a.5.5 0 100 1 .5.5 0 000-1zM80.76 39.77a.5.5 0 100 1 .5.5 0 000-1zM79 40.83a.48.48 0 000 .95.48.48 0 000-.95zM87.66 41.63a.5.5 0 100 1 .5.5 0 000-1zM89.59 42.73a.42.42 0 00-.2 0 .53.53 0 00-.26.07h.47l-.01-.07zM85.63 42.76h.53a.53.53 0 00-.53 0zM88.77 40.73a.46.46 0 00.21 0l-.28-.91a.48.48 0 00.07.91zM86.51 39.77a.5.5 0 100 1 .5.5 0 000-1zM84.78 40.83a.48.48 0 000 .95.48.48 0 000-.95zM8.2 37.65a.5.5 0 100 1 .5.5 0 000-1zM7.09 31.56a.5.5 0 100 1 .5.5 0 000-1zM8.82 34.74a.5.5 0 100 1 .5.5 0 000-1zM7.09 35.8a.44.44 0 00-.38.18l.23.76h.15a.48.48 0 000-.94zM7.09 33.68a.5.5 0 100 1 .5.5 0 000-1zM8.82 32.62a.5.5 0 100 1 .5.5 0 000-1zM9.94 29.6a.44.44 0 00.46-.37.47.47 0 00-.46-.59.47.47 0 00-.43.59.44.44 0 00.43.37zM8.2 30.66a.5.5 0 100-1 .5.5 0 000 1zM5.94 29.7a.5.5 0 100 1 .5.5 0 000-1zM14 38.61a.5.5 0 100-1 .5.5 0 000 1zM10 36.59a.5.5 0 100 1 .5.5 0 100-1zM11.7 37.65a.5.5 0 100 1 .5.5 0 000-1zM12.84 31.56a.5.5 0 100 1 .5.5 0 000-1zM14.58 34.74a.5.5 0 100 1 .5.5 0 000-1zM12.84 35.8a.5.5 0 100 1 .5.5 0 000-1zM12.84 33.68a.5.5 0 100 1 .5.5 0 000-1zM14.58 32.62a.5.5 0 100 1 .5.5 0 000-1zM11.08 34.74a.5.5 0 100 1 .5.5 0 000-1zM11.08 33.58a.5.5 0 100-1 .5.5 0 000 1zM15.69 29.6a.44.44 0 00.45-.37.47.47 0 00-.45-.59.47.47 0 00-.42.59.43.43 0 00.42.37zM14 30.66a.5.5 0 100-1 .5.5 0 000 1zM11.7 29.7a.5.5 0 100 1 .5.5 0 000-1zM10 30.76a.5.5 0 000 1 .5.5 0 000-1zM19.71 38.61a.5.5 0 100-1 .5.5 0 000 1zM15.72 36.59a.5.5 0 100 1 .5.5 0 100-1zM17.45 37.65a.5.5 0 100 1 .5.5 0 000-1zM18.6 31.56a.5.5 0 100 1 .5.5 0 000-1zM20.33 34.74a.5.5 0 100 1 .5.5 0 000-1zM18.6 35.8a.5.5 0 100 1 .5.5 0 000-1zM18.6 33.68a.5.5 0 100 1 .5.5 0 000-1zM20.33 32.62a.5.5 0 100 1 .5.5 0 000-1zM16.84 34.74a.5.5 0 100 1 .5.5 0 000-1zM16.84 33.58a.5.5 0 100-1 .5.5 0 000 1zM21.45 29.6a.44.44 0 00.46-.37.47.47 0 00-.46-.59.47.47 0 00-.43.59.44.44 0 00.43.37zM19.71 30.66a.5.5 0 100-1 .5.5 0 000 1zM17.45 29.7a.5.5 0 100 1 .5.5 0 000-1zM15.72 30.76a.5.5 0 100 1 .5.5 0 100-1zM25.47 38.61a.5.5 0 100-1 .5.5 0 000 1zM21.47 36.59a.5.5 0 100 1 .5.5 0 100-1zM23.21 37.65a.5.5 0 100 1 .5.5 0 000-1zM24.35 31.56a.5.5 0 100 1 .5.5 0 000-1zM26.09 34.74a.5.5 0 100 1 .5.5 0 000-1zM24.35 35.8a.5.5 0 100 1 .5.5 0 000-1zM24.35 33.68a.5.5 0 100 1 .5.5 0 000-1zM26.09 32.62a.5.5 0 100 1 .5.5 0 000-1zM22.59 34.74a.5.5 0 100 1 .5.5 0 000-1zM22.59 33.58a.5.5 0 100-1 .5.5 0 000 1zM27.2 29.6a.44.44 0 00.45-.37.47.47 0 00-.45-.59.47.47 0 00-.42.59.43.43 0 00.42.37zM25.47 30.66a.5.5 0 100-1 .5.5 0 000 1zM23.21 29.7a.5.5 0 100 1 .5.5 0 000-1zM21.47 30.76a.5.5 0 100 1 .5.5 0 100-1zM31.22 38.61a.5.5 0 100-1 .5.5 0 000 1zM27.23 36.59a.5.5 0 100 1 .5.5 0 100-1zM29 37.65a.5.5 0 100 1 .5.5 0 000-1zM30.11 31.56a.5.5 0 100 1 .5.5 0 000-1zM31.84 34.74a.5.5 0 100 1 .5.5 0 000-1zM30.11 35.8a.5.5 0 100 1 .5.5 0 000-1zM30.11 33.68a.5.5 0 100 1 .5.5 0 000-1zM31.84 32.62a.5.5 0 100 1 .5.5 0 000-1zM28.35 34.74a.5.5 0 100 1 .5.5 0 000-1zM28.35 33.58a.5.5 0 100-1 .5.5 0 000 1zM33 29.6a.44.44 0 00.46-.37.47.47 0 00-.46-.59.47.47 0 00-.43.59.44.44 0 00.43.37zM31.22 30.66a.5.5 0 100-1 .5.5 0 000 1zM29 29.7a.5.5 0 100 1 .5.5 0 000-1zM27.23 30.76a.5.5 0 100 1 .5.5 0 100-1zM37 38.61a.5.5 0 100-1 .5.5 0 000 1zM33 36.59a.5.5 0 100 1 .5.5 0 100-1zM34.72 37.65a.5.5 0 100 1 .5.5 0 000-1zM35.86 31.56a.5.5 0 100 1 .5.5 0 000-1zM37.6 34.74a.5.5 0 100 1 .5.5 0 000-1zM35.86 35.8a.5.5 0 100 1 .5.5 0 000-1zM35.86 33.68a.5.5 0 100 1 .5.5 0 000-1zM37.6 32.62a.5.5 0 100 1 .5.5 0 000-1zM34.1 34.74a.5.5 0 100 1 .5.5 0 000-1zM34.1 33.58a.5.5 0 100-1 .5.5 0 000 1zM38.71 29.6a.44.44 0 00.45-.37.47.47 0 00-.45-.59.47.47 0 00-.42.59.43.43 0 00.42.37zM37 30.66a.5.5 0 100-1 .5.5 0 000 1zM34.72 29.7a.5.5 0 100 1 .5.5 0 000-1zM33 30.76a.5.5 0 100 1 .5.5 0 100-1zM42.73 38.61a.5.5 0 100-1 .5.5 0 000 1zM38.74 36.59a.5.5 0 100 1 .5.5 0 100-1zM40.47 37.65a.5.5 0 100 1 .5.5 0 000-1zM41.62 31.56a.5.5 0 100 1 .5.5 0 000-1zM43.35 34.74a.5.5 0 100 1 .5.5 0 000-1zM41.62 35.8a.5.5 0 100 1 .5.5 0 000-1zM41.62 33.68a.5.5 0 100 1 .5.5 0 000-1zM43.35 32.62a.5.5 0 100 1 .5.5 0 000-1zM39.86 34.74a.5.5 0 100 1 .5.5 0 000-1zM39.86 33.58a.5.5 0 100-1 .5.5 0 000 1zM44.47 29.6a.44.44 0 00.46-.37.47.47 0 00-.46-.59.47.47 0 00-.43.59.44.44 0 00.43.37zM42.73 30.66a.5.5 0 100-1 .5.5 0 000 1zM40.47 29.7a.5.5 0 100 1 .5.5 0 000-1zM38.74 30.76a.5.5 0 100 1 .5.5 0 100-1zM48.49 38.61a.5.5 0 100-1 .5.5 0 000 1zM44.49 36.59a.5.5 0 100 1 .5.5 0 100-1zM46.23 37.65a.5.5 0 100 1 .5.5 0 000-1zM47.37 31.56a.5.5 0 100 1 .5.5 0 000-1zM49.11 34.74a.5.5 0 100 1 .5.5 0 000-1zM47.37 35.8a.5.5 0 100 1 .5.5 0 000-1zM47.37 33.68a.5.5 0 100 1 .5.5 0 000-1zM49.11 32.62a.5.5 0 100 1 .5.5 0 000-1zM45.61 34.74a.5.5 0 100 1 .5.5 0 000-1zM45.61 33.58a.5.5 0 100-1 .5.5 0 000 1zM50.22 29.6a.44.44 0 00.45-.37.47.47 0 00-.45-.59.47.47 0 00-.42.59.43.43 0 00.42.37zM48.49 30.66a.5.5 0 100-1 .5.5 0 000 1zM46.23 29.7a.5.5 0 100 1 .5.5 0 000-1zM44.49 30.76a.5.5 0 100 1 .5.5 0 100-1zM54.24 38.61a.5.5 0 100-1 .5.5 0 000 1zM50.25 36.59a.5.5 0 100 1 .5.5 0 100-1zM52 37.65a.5.5 0 100 1 .5.5 0 000-1zM53.13 31.56a.5.5 0 100 1 .5.5 0 000-1zM54.86 34.74a.5.5 0 100 1 .5.5 0 000-1zM53.13 35.8a.5.5 0 100 1 .5.5 0 000-1zM53.13 33.68a.5.5 0 100 1 .5.5 0 000-1zM54.86 32.62a.5.5 0 100 1 .5.5 0 000-1zM51.37 34.74a.5.5 0 100 1 .5.5 0 000-1zM51.37 33.58a.5.5 0 100-1 .5.5 0 000 1zM56 29.6a.44.44 0 00.46-.37.47.47 0 00-.46-.59.47.47 0 00-.43.59.44.44 0 00.43.37zM54.24 30.66a.5.5 0 100-1 .5.5 0 000 1zM52 29.7a.5.5 0 100 1 .5.5 0 000-1zM50.25 30.76a.5.5 0 100 1 .5.5 0 100-1zM60 38.61a.5.5 0 100-1 .5.5 0 000 1zM56 36.59a.5.5 0 100 1 .5.5 0 100-1zM57.74 37.65a.5.5 0 100 1 .5.5 0 000-1zM58.88 31.56a.5.5 0 100 1 .5.5 0 000-1zM60.62 34.74a.5.5 0 100 1 .5.5 0 000-1zM58.88 35.8a.5.5 0 100 1 .5.5 0 000-1zM58.88 33.68a.5.5 0 100 1 .5.5 0 000-1zM60.62 32.62a.5.5 0 100 1 .5.5 0 000-1zM57.12 34.74a.5.5 0 100 1 .5.5 0 000-1zM57.12 33.58a.5.5 0 100-1 .5.5 0 000 1zM61.73 29.6a.44.44 0 00.45-.37.47.47 0 00-.45-.59.47.47 0 00-.42.59.43.43 0 00.42.37zM60 30.66a.5.5 0 100-1 .5.5 0 000 1zM57.74 29.7a.5.5 0 100 1 .5.5 0 000-1zM56 30.76a.5.5 0 100 1 .5.5 0 100-1zM65.75 38.61a.5.5 0 100-1 .5.5 0 000 1zM61.76 36.59a.5.5 0 100 1 .5.5 0 100-1zM63.49 37.65a.5.5 0 100 1 .5.5 0 000-1zM64.64 31.56a.5.5 0 100 1 .5.5 0 000-1zM66.37 34.74a.5.5 0 100 1 .5.5 0 000-1zM64.64 35.8a.5.5 0 100 1 .5.5 0 000-1zM64.64 33.68a.5.5 0 100 1 .5.5 0 000-1zM66.37 32.62a.5.5 0 100 1 .5.5 0 000-1zM62.88 34.74a.5.5 0 100 1 .5.5 0 000-1zM62.88 33.58a.5.5 0 100-1 .5.5 0 000 1zM67.49 29.6a.44.44 0 00.46-.37.47.47 0 00-.46-.59.47.47 0 00-.43.59.44.44 0 00.43.37zM65.75 30.66a.5.5 0 100-1 .5.5 0 000 1zM63.49 29.7a.5.5 0 100 1 .5.5 0 000-1zM61.76 30.76a.5.5 0 100 1 .5.5 0 100-1zM71.51 38.61a.5.5 0 100-1 .5.5 0 000 1zM67.51 36.59a.5.5 0 100 1 .5.5 0 100-1zM69.25 37.65a.5.5 0 100 1 .5.5 0 000-1zM70.39 31.56a.5.5 0 100 1 .5.5 0 000-1zM72.13 34.74a.5.5 0 100 1 .5.5 0 000-1zM70.39 35.8a.5.5 0 100 1 .5.5 0 000-1zM70.39 33.68a.5.5 0 100 1 .5.5 0 000-1zM72.13 32.62a.5.5 0 100 1 .5.5 0 000-1zM68.63 34.74a.5.5 0 100 1 .5.5 0 000-1zM68.63 33.58a.5.5 0 100-1 .5.5 0 000 1zM73.24 29.6a.44.44 0 00.45-.37.47.47 0 00-.45-.59.47.47 0 00-.42.59.43.43 0 00.42.37zM71.51 30.66a.5.5 0 100-1 .5.5 0 000 1zM69.25 29.7a.5.5 0 100 1 .5.5 0 000-1zM67.51 30.76a.5.5 0 100 1 .5.5 0 100-1zM77.26 38.61a.5.5 0 100-1 .5.5 0 000 1zM73.27 36.59a.5.5 0 100 1 .5.5 0 100-1zM75 37.65a.5.5 0 100 1 .5.5 0 000-1zM76.15 31.56a.5.5 0 100 1 .5.5 0 000-1zM77.88 34.74a.5.5 0 100 1 .5.5 0 000-1zM76.15 35.8a.5.5 0 100 1 .5.5 0 000-1zM76.15 33.68a.5.5 0 100 1 .5.5 0 000-1zM77.88 32.62a.5.5 0 100 1 .5.5 0 000-1zM74.39 34.74a.5.5 0 100 1 .5.5 0 000-1zM74.39 33.58a.5.5 0 100-1 .5.5 0 000 1zM79 29.6a.44.44 0 00.46-.37.47.47 0 00-.46-.59.47.47 0 00-.43.59.44.44 0 00.43.37zM77.26 30.66a.5.5 0 100-1 .5.5 0 000 1zM75 29.7a.5.5 0 100 1 .5.5 0 000-1zM73.27 30.76a.5.5 0 100 1 .5.5 0 100-1zM83 38.61a.5.5 0 100-1 .5.5 0 000 1zM79 36.59a.5.5 0 100 1 .5.5 0 100-1zM80.76 37.65a.5.5 0 100 1 .5.5 0 000-1zM81.9 31.56a.5.5 0 100 1 .5.5 0 000-1zM83.64 34.74a.5.5 0 100 1 .5.5 0 000-1zM81.9 35.8a.5.5 0 100 1 .5.5 0 000-1zM81.9 33.68a.5.5 0 100 1 .5.5 0 000-1zM83.64 32.62a.5.5 0 100 1 .5.5 0 000-1zM80.14 34.74a.5.5 0 100 1 .5.5 0 000-1zM80.14 33.58a.5.5 0 100-1 .5.5 0 000 1zM84.75 29.6a.44.44 0 00.45-.37.47.47 0 00-.45-.59.47.47 0 00-.42.59.43.43 0 00.42.37zM83 30.66a.5.5 0 100-1 .5.5 0 000 1zM80.76 29.7a.5.5 0 100 1 .5.5 0 000-1zM79 30.76a.5.5 0 100 1 .5.5 0 100-1zM84.78 36.59a.5.5 0 100 1 .5.5 0 100-1zM86.51 37.65a.5.5 0 100 1 .5.5 0 000-1zM87.66 36.76h.13l-.28-.92a.48.48 0 00.15.92zM85.9 34.74a.5.5 0 100 1 .5.5 0 000-1zM85.9 33.58a.5.5 0 100-1 .5.5 0 000 1zM84.78 30.76a.5.5 0 100 1 .5.5 0 100-1zM8.2 28.54a.5.5 0 100-1 .5.5 0 000 1zM4.18 27.34h-.07v.14h.06a.46.46 0 00.34-.14h-.33zM4.67 29.19a.48.48 0 00-.13-.41l.13.41zM5.94 27.58a.5.5 0 100 1 .5.5 0 000-1zM14 28.54a.5.5 0 100-1 .5.5 0 000 1zM10 27.48a.45.45 0 00.34-.14h-.72a.48.48 0 00.32.14H10zM11.7 27.58a.5.5 0 100 1 .5.5 0 000-1zM19.71 28.54a.5.5 0 100-1 .5.5 0 000 1zM15.72 27.48a.46.46 0 00.34-.14h-.68a.45.45 0 00.31.14h.03zM17.45 27.58a.5.5 0 100 1 .5.5 0 000-1zM25.47 28.54a.5.5 0 100-1 .5.5 0 000 1zM21.47 27.48a.45.45 0 00.34-.14h-.68a.48.48 0 00.32.14h.02zM23.21 27.58a.5.5 0 100 1 .5.5 0 000-1zM31.22 28.54a.5.5 0 100-1 .5.5 0 000 1zM27.23 27.48a.46.46 0 00.34-.14h-.68a.45.45 0 00.31.14h.03zM29 27.58a.5.5 0 100 1 .5.5 0 000-1zM37 28.54a.5.5 0 100-1 .5.5 0 000 1zM33 27.48a.45.45 0 00.34-.14h-.68a.48.48 0 00.32.14H33zM34.72 27.58a.5.5 0 100 1 .5.5 0 000-1zM42.73 28.54a.5.5 0 100-1 .5.5 0 000 1zM38.74 27.48a.46.46 0 00.34-.14h-.68a.45.45 0 00.31.14h.03zM40.47 27.58a.5.5 0 100 1 .5.5 0 000-1zM48.49 28.54a.5.5 0 100-1 .5.5 0 000 1zM44.49 27.48a.45.45 0 00.34-.14h-.68a.48.48 0 00.32.14h.02zM46.23 27.58a.5.5 0 100 1 .5.5 0 000-1zM54.24 28.54a.5.5 0 100-1 .5.5 0 000 1zM50.25 27.48a.46.46 0 00.34-.14h-.68a.45.45 0 00.31.14h.03zM52 27.58a.5.5 0 100 1 .5.5 0 000-1zM60 28.54a.5.5 0 100-1 .5.5 0 000 1zM56 27.48a.45.45 0 00.34-.14h-.68a.48.48 0 00.32.14H56zM57.74 27.58a.5.5 0 100 1 .5.5 0 000-1zM65.75 28.54a.5.5 0 100-1 .5.5 0 000 1zM61.76 27.48a.46.46 0 00.34-.14h-.68a.45.45 0 00.31.14h.03zM63.49 27.58a.5.5 0 100 1 .5.5 0 000-1zM71.51 28.54a.5.5 0 100-1 .5.5 0 000 1zM67.51 27.48a.45.45 0 00.34-.14h-.68a.48.48 0 00.32.14h.02zM69.25 27.58a.5.5 0 100 1 .5.5 0 000-1zM77.26 28.54a.5.5 0 100-1 .5.5 0 000 1zM73.27 27.48a.46.46 0 00.34-.14h-.68a.45.45 0 00.31.14h.03zM75 27.58a.5.5 0 100 1 .5.5 0 000-1zM83 28.54a.5.5 0 100-1 .5.5 0 000 1zM79 27.48a.45.45 0 00.34-.14h-.68a.48.48 0 00.32.14H79zM80.76 27.58a.5.5 0 100 1 .5.5 0 000-1zM84.78 27.48a.65.65 0 00.21 0v-.1h-.52a.45.45 0 00.31.14v-.04z" fill="#777576" opacity=".35"/></g></svg>
