<svg width="120" height="120" xmlns="http://www.w3.org/2000/svg"><g fill-rule="nonzero" fill="none"><path fill="#F1A99A" d="M88 73.88l.1-.15v-.07h-2.95l.14.22zM67.61 73.88l.1-.15v-.07h-2.92l.14.22zM47.25 73.88v-.22h-2.89l.14.22zM24 73.88h2.82a1.3 1.3 0 00.1-.15v-.07h-3l.08.22zM23.91 73.66l.01.03z"/><path fill="#DBEDF0" d="M105.34 73.54l.26.71z"/><path d="M88 73.88h-2.71l-.14-.22h-.09l.62 1.72h2.7a.75.75 0 00.26 0l-.57-1.61-.07.11zM67.61 73.88h-2.68l-.14-.22h-.09l.62 1.72H68a.84.84 0 00.27 0l-.58-1.61-.08.11zM47.25 73.88H44.5l-.14-.22h-.09l.61 1.72h2.79c.06.01.12.01.18 0l-.55-1.55-.05.05z" fill="#F1A99A"/><path d="M21.43 69.52l-.09.06.09-.06z" fill="#84C1CB"/><path fill="#DBEDF0" d="M21.25 69.68v.01l.01-.01z"/><path d="M21.19 69.82v.15c0 .03 0-.08.05-.12.05-.04-.06-.02-.05-.03zM21.11 70.06v0zM21.17 69.88s0 .08-.05.12c-.05.04 0 0 0 .06a1.05 1.05 0 01.05-.18zM21.19 69.8l-.06.13.06-.13zM21.17 69.85s-.01.02 0 0zM21.85 72.44l.83 2.44a.73.73 0 00.17.28l-1-2.77v.05zM21.15 70.39l-.01-.01.31.91.01-.02z" fill="#84C1CB"/><path fill="#84C1CB" d="M21.86 72.39l-.4-1.12-.01.02.4 1.15zM21.15 70.39l.31.88z"/><path d="M27.23 75.38a.75.75 0 00.26 0l-.58-1.61a1.3 1.3 0 01-.1.15H24l.37 1.08.16.42 2.7-.04zM24.37 74.96l.16.42zM82 50.46l.1-.15v-.07h-2.9l.14.22zM61.67 50.46l.11-.15v-.07h-2.92l.14.22zM41.32 50.46v-.07l-.06-.15h-2.83l.14.22zM21 50.31v-.07h-3l.08.22h2.82z" fill="#F1A99A"/><path fill="#DBEDF0" d="M99.41 50.08l-.01.01.31.87z"/><path fill="#DBEDF0" d="M99.094 50.679l.949-.317.316.95-.949.315z"/><path d="M82 50.46h-2.65l-.14-.22h-.08l.58 1.62v.1h2.7a.75.75 0 00.26 0l-.58-1.61-.09.11zM79.75 51.96l-.04-.1.04.1zM59.39 52h2.7a.75.75 0 00.26 0l-.57-1.61-.11.15H59l-.14-.22h-.09l.23.65.39 1.03zM59 50.89l.39 1.07zM39 52H41.97l-.55-1.55v.07h-2.85l-.14-.22h-.1l.37 1zM38.7 51.26l-.37-1.02z" fill="#F1A99A"/><path d="M15.26 46.39V46.4c0-.04-.01.01 0-.01zM15.24 46.44V46.61a1 1 0 010-.17z" fill="#84C1CB"/><path d="M15.26 46.38v-.05l-.06.14.06-.09zM15.91 49l.83 2.43a.79.79 0 00.18.29l-1-2.77-.01.05zM15.22 46.98l.3.89.01-.02z" fill="#84C1CB"/><path fill="#84C1CB" d="M15.93 48.97l-.4-1.12-.01.02.39 1.15z"/><path d="M21.29 52a.8.8 0 00.27 0L21 50.31l-.1.15h-2.84l.52 1.45V52h2.71zM18.57 51.91l.02.05z" fill="#F1A99A"/><path d="M103.13 73.28a7.87 7.87 0 00-1.51-1.49 6.87 6.87 0 00-4.21-1.17 10.25 10.25 0 00-6.06 1.87c-.16.25-.31.5-.45.76a.73.73 0 01-.66.41H90A7.81 7.81 0 0089 75a.77.77 0 01-.39.32l6.27 17.53a10.2 10.2 0 0114.7-2.67 1 1 0 01.13.09L104.26 75a17.94 17.94 0 00-1.13-1.72zM82 70.67l.19.2-.19-.18zM83.13 73.42c-.18-.22-.36-.43-.55-.62-.19-.19-.25-.24-.37-.36a7.14 7.14 0 00-.62-.5l-.28-.21a7.54 7.54 0 00-4.25-1.11A10.28 10.28 0 0071 72.49c-.15.25-.31.5-.44.76a.76.76 0 01-.67.41h-.2a7.38 7.38 0 00-1 1.36.79.79 0 01-.38.32l6.27 17.53A10.21 10.21 0 0187.1 89a8.74 8.74 0 011 .48c.346.193.68.407 1 .64l.16.12a.6.6 0 01.13.09L83.55 74l-.42-.58zM61.64 70.76l.13.14-.13-.15-.09-.08zM63 73.75l-.26-.33a10.1 10.1 0 00-.68-.77l-.24-.21a7.64 7.64 0 00-.62-.51c-.09-.06-.18-.14-.28-.2a7.52 7.52 0 00-4.25-1.11 10.19 10.19 0 00-6.21 2c-.13.21-.26.42-.38.65a.76.76 0 01-.67.41h-.12a8.41 8.41 0 00-1 1.36.76.76 0 01-.46.34l6.27 17.51a10.23 10.23 0 018.6-4.7c1.376 0 2.738.282 4 .83a9.8 9.8 0 011 .49c.345.206.679.43 1 .67h.06a.94.94 0 01.12.09L63 73.75zM41.19 70.67c.07.06.13.13.2.2l-.2-.21v.01zM42.32 73.39c-.18-.22-.36-.42-.54-.62l-.37-.34a5 5 0 00-.62-.5 1.58 1.58 0 00-.15-.12 7.49 7.49 0 00-4.38-1.19 10.3 10.3 0 00-6.07 1.87c-.15.25-.3.5-.44.76a.76.76 0 01-.67.41h-.2a8.41 8.41 0 00-1 1.36.74.74 0 01-.38.32l6.27 17.53A10.22 10.22 0 0146.31 89a8.59 8.59 0 011 .48c.346.193.68.407 1 .64l.17.12a1 1 0 01.13.09l-5.87-16.39-.42-.55zM95.69 48.37a6.87 6.87 0 00-4.21-1.17 10.17 10.17 0 00-6.16 1.94c-.14.23-.28.45-.41.69a.73.73 0 01-.66.41h-.15a8.79 8.79 0 00-1 1.35.76.76 0 01-.38.33l5.5 15.38.28.76.15.44.12.34.16.42.06.18c.13-.2.26-.41.4-.61a10.83 10.83 0 011.7-1.75c.06 0 .11-.11.17-.15a10.33 10.33 0 015.68-2.15h.65a10.18 10.18 0 016.1 2l.13.08-5.5-15.35a16.17 16.17 0 00-1.13-1.67 7.55 7.55 0 00-1.5-1.47zM83.33 66.8l.13.08-5.85-16.33c-.13-.19-.27-.37-.42-.55a6.48 6.48 0 00-.54-.62 4.27 4.27 0 00-.38-.36 5 5 0 00-.62-.5 2.92 2.92 0 00-.28-.21 7.5 7.5 0 00-4.25-1.11A10.17 10.17 0 0065 49.14c-.14.23-.28.45-.4.69a.76.76 0 01-.67.41h-.15a8.13 8.13 0 00-1 1.35.79.79 0 01-.39.33l5.47 15.38.27.76.16.44.12.34.15.42.06.18c.13-.2.26-.41.41-.61a10.36 10.36 0 011.69-1.75c.06 0 .11-.11.17-.15a10.07 10.07 0 012.7-1.51 10.22 10.22 0 013-.64h.65a10.11 10.11 0 013.94.79c.33.14.65.3 1 .47.35.17.69.42 1 .65l.15.11zM76.07 47.31s.12.13.19.19-.12-.12-.19-.19zM62.83 66.76h.06l.13.08-5.93-16.52-.25-.32a10.21 10.21 0 00-.69-.77l-.23-.23a7.28 7.28 0 00-.62-.51l-.28-.2a7.54 7.54 0 00-4.25-1.11 10.16 10.16 0 00-6.32 2.06c-.11.19-.23.37-.33.57a.76.76 0 01-.67.41h-.06a8.19 8.19 0 00-1 1.35.73.73 0 01-.46.35l5.5 15.36.27.76.16.44.12.34.15.42.07.18c.14-.2.26-.41.41-.61a10.36 10.36 0 011.69-1.75c.06 0 .11-.11.17-.15a10.07 10.07 0 012.7-1.51 10.22 10.22 0 013-.64h.64c1.375 0 2.736.28 4 .82.34.15.66.32 1 .5.356.202.697.43 1.02.68zM55.69 47.38l.13.13-.13-.13zM27.61 68.84l.15.42.07.18c.13-.2.25-.41.4-.61a10.42 10.42 0 011.7-1.75 1.22 1.22 0 01.17-.15 10 10 0 012.69-1.51 10.22 10.22 0 013-.64h.64a10.11 10.11 0 013.94.79c.34.14.65.3 1 .47a12 12 0 011 .65l.17.12.12.08-5.86-16.38c-.13-.19-.27-.37-.41-.54-.14-.17-.36-.43-.55-.62-.19-.19-.24-.23-.36-.34a5.9 5.9 0 00-.62-.5 1 1 0 00-.16-.12 7.46 7.46 0 00-4.37-1.19 10.22 10.22 0 00-6.17 1.94c-.14.23-.27.45-.4.69a.76.76 0 01-.67.41H23a8.19 8.19 0 00-1 1.35.81.81 0 01-.38.33l5.5 15.38.27.76.16.44.06.34zM35.23 47.27l.19.19-.19-.2zM75.17 24.17v.06l.06.16.31.87 6.68 18.66.27.75.16.45.12.34.15.42.08.12c.12-.18.23-.37.36-.54A10.31 10.31 0 0185 43.75l.2-.18A10.34 10.34 0 0188 42a10.17 10.17 0 013-.64h.6a10.18 10.18 0 016.1 2l.13.08L91.21 25l-.29-.82-.18-.51a8.77 8.77 0 00-15.16 0 .74.74 0 01-.46.33l.05.17zM54.81 24.17v.06l.06.16.32.87 6.67 18.65.27.76.16.45.12.34.15.42.05.14c.12-.18.23-.37.36-.54a10.31 10.31 0 011.67-1.76l.21-.18A10.12 10.12 0 0167.6 42a10.3 10.3 0 013-.64h.6a10.15 10.15 0 013.94.79c.33.14.65.3 1 .47.35.17.69.42 1 .65l.17.12.13.08-6.36-17.87-.22-.6-.18-.49-.12-.33-.18-.51-.13-.2a8.77 8.77 0 00-15 .24.74.74 0 01-.46.33l.02.13zM34.37 24.17v.06l.05.16.32.87 6.67 18.66.27.75.16.45.12.34.15.42.06.14c.12-.18.23-.37.36-.54a10.71 10.71 0 011.67-1.76l.21-.18a10.17 10.17 0 015.76-2.18h.6c1.375 0 2.736.28 4 .82.34.15.66.32 1 .5.348.2.683.424 1 .67h.06l.13.08-6.28-17.71-.26-.72-.13-.37-.17-.45-.18-.51-.08-.12a8.76 8.76 0 00-15.07.16.76.76 0 01-.47.33l.05.13zM21.79 45.88l.05.14c.11-.18.23-.37.35-.54a10.37 10.37 0 011.68-1.76l.2-.18a10.34 10.34 0 015.74-2.18h.59a10.11 10.11 0 013.94.79c.34.14.65.3 1 .47a12 12 0 011 .65l.17.12.12.08-6.35-17.87-.22-.6-.17-.49-.12-.33-.18-.51a2.43 2.43 0 00-.14-.2 8.76 8.76 0 00-15 .24.71.71 0 01-.45.29l.06.15v.06l.06.16.31.88 6.67 18.64.28.76.15.45.13.34.13.44z" fill="#F6C6BC"/><path d="M88.38 75.38h-2.7L92 93h2.89v-.08l-6.25-17.58a.75.75 0 01-.26.04zM68 75.38h-2.7L71.61 93h2.89l.06-.08-6.27-17.58a.84.84 0 01-.29.04zM47.67 75.38h-2.79L51.17 93h2.89l.06-.08-6.27-17.56a.55.55 0 01-.18.02zM27.23 75.38h-2.7L30.81 93h2.9v-.08l-6.22-17.58a.75.75 0 01-.26.04zM89 75a7.81 7.81 0 011-1.36h-2v.07l.57 1.61A.77.77 0 0089 75zM103.13 71.8l-.18-.51a4.68 4.68 0 00-.38-.39l-.22-.23a6.83 6.83 0 00-.74-.59c-.13-.09-.27-.16-.41-.24l-.21-.12-.36-.19c-.15-.07-.31-.12-.46-.18h-.09a2.32 2.32 0 00-.37-.13A6.58 6.58 0 0099 69h-.3a7.87 7.87 0 00-2.11 0h-.19a8.1 8.1 0 00-.91.2l-.16.06a1.84 1.84 0 00-.25.09l-.43.17-.26.12a6.43 6.43 0 00-1.49 1.02l-.21.21c-.15.15-.3.3-.44.47a2.75 2.75 0 00-.22.26c-.14.17-.27.35-.4.54l-.18.26s0 .07-.05.1a10.25 10.25 0 016.06-1.87 6.87 6.87 0 014.21 1.17 7.87 7.87 0 011.51 1.49c.392.55.752 1.12 1.08 1.71l-1.12-3.12-.01-.08zM68.67 75a7.38 7.38 0 011-1.36h-2v.07l.58 1.61a.79.79 0 00.42-.32zM82.78 71.83l-.17-.49a4.68 4.68 0 00-.38-.39L82 70.7a6.83 6.83 0 00-.74-.59c-.19-.13-.39-.23-.58-.34l-.13-.07a3.18 3.18 0 00-.32-.16l-.41-.16-.15-.06-.35-.11c-.22-.06-.44-.11-.67-.15l-.33-.06a7.68 7.68 0 00-2.09 0H76a8.1 8.1 0 00-.91.2l-.16.06a1.84 1.84 0 00-.25.09l-.43.17c-.08 0-.17.07-.25.12-.27.13-.532.28-.78.45-.252.17-.49.36-.71.57-.08.07-.14.14-.21.21a5 5 0 00-.45.47l-.22.26c-.13.17-.27.35-.39.54l-.18.26-.06.1a10.28 10.28 0 016.07-1.87 7.54 7.54 0 014.25 1.11l.28.21c.216.155.423.322.62.5.12.12.25.23.37.36.12.13.37.4.55.62l.42.55-.56-1.54-.22-.61zM48.31 75a8.41 8.41 0 011-1.36h-2.06v.15l.55 1.55a.76.76 0 00.51-.34zM62.6 72.56l-.26-.73-.13-.37-.05-.14a4.68 4.68 0 00-.38-.39l-.13-.14-.09-.09a6.83 6.83 0 00-.74-.59 6.65 6.65 0 00-.73-.43h-.06l-.25-.11-.4-.16-.21-.08-.32-.1c-.22-.06-.44-.11-.67-.15h-.32a9 9 0 00-1.06-.07 8.79 8.79 0 00-1 .07h-.22a6.68 6.68 0 00-.91.2h-.13l-.35.14-.37.14-.23.11a6.09 6.09 0 00-1.49 1c-.08.06-.14.14-.22.21-.08.07-.3.31-.44.47l-.23.28c-.13.16-.25.33-.37.51l-.21.31-.09.16a10.19 10.19 0 016.21-2A7.52 7.52 0 0161 71.73c.1.06.19.14.28.2.215.159.422.33.62.51l.24.21c.24.245.467.502.68.77l.26.33-.24-.66-.24-.53zM27.87 75a8.41 8.41 0 011-1.36h-2v.07l.58 1.61a.74.74 0 00.42-.32zM42.2 72.44l-.2-.61-.17-.49a4.59 4.59 0 00-.37-.39c-.07-.07-.13-.14-.2-.2a6 6 0 00-.74-.59 5.88 5.88 0 00-.6-.35l-.11-.07-.32-.15-.4-.16-.17-.06-.34-.11c-.22-.06-.44-.11-.67-.15l-.39-.11a7.68 7.68 0 00-2.09 0h-.2a8.62 8.62 0 00-.91.2l-.16.06-.25.09-.43.17c-.08 0-.17.07-.25.12-.27.13-.532.28-.78.45a6.33 6.33 0 00-.71.57l-.21.2-.45.48-.21.26c-.14.17-.27.35-.4.54l-.18.26-.06.1a10.3 10.3 0 016.07-1.87 7.49 7.49 0 014.38 1.19c.052.037.102.077.15.12a5 5 0 01.62.5l.37.34c.18.2.36.4.54.62l.42.55-.16-.44-.42-1.07zM79.75 52L86 69.39v.14h2.9a.41.41 0 010-.09l-.06-.18-.16-.42-.12-.34-.15-.44-.28-.76-5.5-15.38a.75.75 0 01-.26 0l-2.62.08zM59.39 52l6.23 17.43.06.14h2.89l.05-.09-.06-.18-.15-.42-.12-.34-.16-.44-.27-.76-5.51-15.42a.75.75 0 01-.26 0l-2.7.08zM39 52l6.23 17.43.06.14h2.89l.06-.09-.07-.18-.17-.46-.12-.34-.16-.44-.27-.76-5.5-15.36h-.19zM24.88 69.53h2.89l.06-.09-.07-.18-.15-.42-.12-.34-.16-.44-.27-.76-5.5-15.38a.8.8 0 01-.27 0h-2.7l6.24 17.43.05.18zM83.09 51.59a8.79 8.79 0 011-1.35h-2v.07l.58 1.61a.76.76 0 00.42-.33zM95.69 48.37a7.55 7.55 0 011.5 1.49c.411.533.788 1.09 1.13 1.67l-1.12-3.12-.15-.41c-.14-.16-.29-.31-.44-.46a2.61 2.61 0 00-.23-.24 7.25 7.25 0 00-.76-.61 4.67 4.67 0 00-.57-.33l-.13-.08-.33-.16-.28-.12-.31-.13-.35-.11a6.58 6.58 0 00-.67-.15l-.32-.06a9.46 9.46 0 00-1.09-.08 8.45 8.45 0 00-1 .08h-.22a5.46 5.46 0 00-.91.2h-.14L89 46c-.13 0-.27.09-.39.15l-.24.11a5.35 5.35 0 00-.77.45 7.83 7.83 0 00-.72.57l-.22.22c-.15.15-.3.3-.44.47a2.88 2.88 0 00-.22.27c-.14.16-.26.34-.39.52l-.21.24-.08.14a10.17 10.17 0 016.16-1.94 6.87 6.87 0 014.21 1.17zM75.37 48.31c.097.064.19.134.28.21a5 5 0 01.62.5c.134.112.26.232.38.36.193.195.373.402.54.62.15.18.29.36.42.55L77.07 49l-.22-.61-.16-.39-.39-.42c-.07-.06-.13-.13-.19-.19a6.34 6.34 0 00-.76-.61 8 8 0 00-.7-.41h-.06l-.29-.13L74 46l-.34-.13-.33-.1a6.58 6.58 0 00-.67-.15l-.31-.05a9.11 9.11 0 00-1.07-.08 8.6 8.6 0 00-1 .08h-.21a5.36 5.36 0 00-.92.2h-.14l-.31.13a3.12 3.12 0 00-.39.15l-.24.11a5.35 5.35 0 00-.77.45 7.83 7.83 0 00-.72.57l-.21.22a5 5 0 00-.45.47l-.22.27c-.13.17-.26.34-.38.52A3 3 0 0065 49s-.05.1-.08.14a10.17 10.17 0 016.16-1.94 7.5 7.5 0 014.29 1.11z" fill="#F1A99A"/><path d="M62.74 51.59a8.13 8.13 0 011-1.35h-2v.07l.57 1.61a.79.79 0 00.43-.33zM55 48.31l.28.2c.216.158.423.329.62.51l.23.21c.243.245.473.502.69.77l.25.32-.42-1.18-.26-.73-.12-.41c-.14-.16-.29-.31-.43-.46l-.13-.13a1.14 1.14 0 00-.11-.11 6.34 6.34 0 00-.76-.61 6.75 6.75 0 00-.82-.48l-.12-.05-.38-.16-.39-.15-.29-.08a7 7 0 00-.69-.15l-.3-.05a8.61 8.61 0 00-1.05-.08 8.43 8.43 0 00-1 .08h-.24a6.51 6.51 0 00-.92.2h-.08l-.44.17-.33.13-.22.1a7.23 7.23 0 00-.76.45 7.72 7.72 0 00-.73.58l-.22.22c-.15.15-.3.31-.44.47a3.25 3.25 0 00-.23.29 5.86 5.86 0 00-.37.5 4 4 0 00-.22.34l-.12.2a10.16 10.16 0 016.32-2.06 7.54 7.54 0 014.2 1.15zM42.38 51.59a8.19 8.19 0 011-1.35h-2.07l.06.15.55 1.55a.73.73 0 00.46-.35zM21.94 51.59a8.19 8.19 0 011-1.35H21v.07l.58 1.61a.81.81 0 00.36-.33zM34.7 48.39a1 1 0 01.16.12 5.9 5.9 0 01.62.5c.12.11.25.22.36.34.11.12.37.4.55.62.18.22.28.35.41.54L36.27 49l-.22-.61-.16-.39c-.13-.15-.26-.28-.4-.42l-.19-.19a7.36 7.36 0 00-.77-.61 4.92 4.92 0 00-.7-.41h-.07l-.27-.13-.26-.1-.34-.13-.33-.1c-.21-.06-.44-.11-.66-.15l-.32-.05a9 9 0 00-1.07-.08 8.43 8.43 0 00-1 .08 1.46 1.46 0 00-.22 0 5.24 5.24 0 00-.91.2h-.14l-.31.13a3.25 3.25 0 00-.4.15l-.24.11a6.71 6.71 0 00-.77.45 7.83 7.83 0 00-.72.57l-.21.22c-.15.15-.3.3-.44.47-.14.17-.15.18-.23.27-.08.09-.26.34-.38.52s-.13.19-.2.29c-.07.1 0 .1-.08.14a10.22 10.22 0 016.17-1.94 7.46 7.46 0 014.27 1.1zM80 46l.05.15h2.9L83 46v-.14l-.15-.42-.12-.34-.16-.45-.27-.75-6.74-18.64-.31-.87-.06-.16v-.21a.68.68 0 01-.2 0h-2.84l.21.59L80 46zM59.63 46v.15h2.9l.05-.09-.05-.14-.15-.42-.12-.34-.16-.45-.27-.76-6.62-18.69-.32-.87-.06-.16v-.06l-.07-.17a.62.62 0 01-.19 0h-2.78l.21.59L59.63 46zM39.19 46l.06.15h2.89l.06-.15-.06-.14-.14-.4-.12-.34-.16-.45-.27-.75-6.68-18.66-.32-.87-.05-.16v-.21a.62.62 0 01-.19 0h-2.86l.21.59L39.19 46zM18.89 46.11h2.89l.06-.09-.05-.14-.15-.42-.13-.34-.15-.45-.28-.76-6.67-18.64-.31-.88-.1-.16V24a.58.58 0 01-.19 0H11l.21.59L18.84 46l.05.11z" fill="#F1A99A"/><path d="M112.48 93.52v-.07l-6.83-19.07v-.13l-.26-.71a.77.77 0 00.31-.38l.89-2.63v-.13a.36.36 0 010-.1 1.38 1.38 0 000-.2v-.06L99.71 51l-.31-.87a.78.78 0 00.26-.36l.89-2.63v-.13a.36.36 0 010-.1 1.08 1.08 0 000-.19.64.64 0 000-.07L92.11 23l-.06-.12a10.24 10.24 0 00-17.53-.38h-3.07a10.22 10.22 0 00-17.28 0H51a10.22 10.22 0 00-17.28 0h-3.07a10.22 10.22 0 00-17.28 0H9.92a.8.8 0 00-.3.06l-.08.06a.8.8 0 00-.17.15.26.26 0 000 .08.34.34 0 00-.07.11l-.91 2.63a.75.75 0 000 .49l7.14 20v.05a1 1 0 000 .17v-.06-.06L14.3 49.1a.75.75 0 000 .49l7.13 19.92-.09.06v.06a1.29 1.29 0 00-.06.21v-.07-.06-.09l-.91 2.63a.78.78 0 000 .5l8.43 23.56a.76.76 0 00.71.5H35a.73.73 0 00.66-.41 8.56 8.56 0 012.67-3.17 7.44 7.44 0 018 0 8.44 8.44 0 012.66 3.17.76.76 0 00.44.37h5.86a.76.76 0 00.67-.41 8.54 8.54 0 012.74-2.86 7.45 7.45 0 018 0 8.54 8.54 0 012.66 3.17.75.75 0 00.72.41h5.68a.76.76 0 00.67-.41 8.44 8.44 0 012.66-3.17 7.44 7.44 0 018 0 8.47 8.47 0 012.67 3.17.73.73 0 00.44.37h5.86a.76.76 0 00.67-.41 8.44 8.44 0 012.77-3.13 7.44 7.44 0 018 0 8.44 8.44 0 012.66 3.17.77.77 0 00.73.41.74.74 0 00.65-.51l.89-2.63a.3.3 0 000-.13.36.36 0 000-.1 1.25 1.25 0 00.05-.19zm-2.73-3.21a1 1 0 00-.13-.09 10.2 10.2 0 00-14.7 2.67v.08H92l-6.32-17.59-.62-1.72h5.18a.73.73 0 00.66-.41c.14-.26.29-.51.45-.76 0 0 0-.07.05-.1l.18-.26c.13-.19.26-.37.4-.54a2.75 2.75 0 01.22-.26c.14-.17.29-.32.44-.47l.21-.21a6.43 6.43 0 011.49-1.02l.26-.12.43-.17a1.84 1.84 0 01.25-.09l.16-.06a8.1 8.1 0 01.91-.2h.19a7.884 7.884 0 012.16.01h.3c.226.038.45.088.67.15.127.033.25.076.37.13h.09c.15.06.31.11.46.18l.36.19.21.12c.14.08.28.15.41.24.26.18.507.376.74.59l.22.23c.13.12.25.25.38.39l.18.51 1.17 3.27 5.49 15.31zm-20.49-.09l-.16-.12a9.85 9.85 0 00-1-.64 8.74 8.74 0 00-1-.48 10.21 10.21 0 00-12.53 3.91l-.07.11h-2.89l-6.29-17.62-.62-1.72h5.18a.76.76 0 00.67-.41c.13-.26.29-.51.44-.76l.06-.1.18-.26c.12-.19.26-.37.39-.54l.22-.26a5 5 0 01.45-.47c.07-.07.13-.14.21-.21.22-.21.458-.4.71-.57.248-.17.51-.32.78-.45.08 0 .17-.08.25-.12l.43-.17a1.84 1.84 0 01.25-.09l.16-.06A8.1 8.1 0 0176 69h.2a7.708 7.708 0 012.09 0l.32.06c.23 0 .45.09.67.15l.35.11.15.06.41.16c.11.047.216.1.32.16l.13.07c.19.11.39.21.58.34.26.18.507.376.74.59l.19.21c.134.123.261.253.38.39l.17.49.22.61.63 1.6 5.84 16.34a.6.6 0 00-.13-.12zm-20.43 0h-.06a11.48 11.48 0 00-1-.67 9.8 9.8 0 00-1-.49 10.05 10.05 0 00-4-.83 10.23 10.23 0 00-8.6 4.7l-.06.08h-2.94l-6.29-17.63-.61-1.72h5.17a.76.76 0 00.67-.41c.12-.23.25-.44.38-.65l.09-.16.21-.31c.12-.18.24-.35.37-.51l.23-.28c.14-.16.29-.32.44-.47.15-.15.14-.15.22-.21a6.09 6.09 0 011.49-1l.23-.11.37-.14.35-.14h.13a6.68 6.68 0 01.91-.2h.22a8.835 8.835 0 011-.07c.355-.003.709.02 1.06.07h.32c.23 0 .45.09.67.15l.32.1.21.08.4.16.26.11c.252.128.496.271.73.43.26.18.507.376.74.59l.09.08.13.15c.134.123.261.253.38.39l.05.14.13.37.26.73.19.53.24.66L69 90.31a.94.94 0 00-.17-.09zm-20.36 0l-.17-.12a9.85 9.85 0 00-1-.64 8.59 8.59 0 00-1-.48 10.22 10.22 0 00-12.54 3.91.22.22 0 000 .08h-2.9l-6.33-17.59-.16-.38-.37-1.12-.07-.19h5.17a.76.76 0 00.67-.41c.14-.26.29-.51.44-.76l.06-.1.18-.26c.13-.19.26-.37.4-.54l.21-.26.45-.48.21-.2a6.33 6.33 0 01.71-.57c.248-.17.51-.32.78-.45.08 0 .17-.08.25-.12l.43-.17.25-.09.16-.06c.3-.083.603-.15.91-.2h.2a7.708 7.708 0 012.09 0l.32.06c.23 0 .45.09.67.15l.34.11.17.06.4.16.32.15.11.07c.207.105.407.222.6.35a6 6 0 01.74.59l.2.21c.13.123.254.253.37.39l.17.49.21.61.38 1.06.16.44 5.94 16.39a1 1 0 00-.13-.09zM56.27 48l.13.37.26.73.42 1.18L63 66.88l-.13-.08h-.06a9.323 9.323 0 00-2-1.17 10.18 10.18 0 00-4-.82h-.64a10.22 10.22 0 00-3 .64A10.07 10.07 0 0050.46 67c-.06 0-.11.1-.17.15a10.36 10.36 0 00-1.69 1.75c-.15.2-.27.41-.41.61l-.06.09h-2.89l-.06-.14L39 52l-.25-.7-.37-1h5.12a.76.76 0 00.67-.41c.1-.2.22-.38.33-.57l.12-.2a4 4 0 01.22-.34c.12-.17.24-.34.37-.5a3.25 3.25 0 01.23-.29c.14-.16.29-.32.44-.47l.22-.22a7.72 7.72 0 01.73-.58 7.23 7.23 0 01.76-.45l.22-.1.33-.13.44-.17h.08a6.51 6.51 0 01.92-.2h.24a8.43 8.43 0 011-.08 8.61 8.61 0 011.05.08l.3.05a7 7 0 01.69.15l.29.08.39.15.34.14.12.05c.284.14.558.3.82.48.269.184.523.387.76.61.04.034.076.07.11.11l.13.13c.14.15.29.3.43.46l.02-.08zM36 48.38l.22.61.53 1.49 5.86 16.37-.12-.08-.17-.12a12 12 0 00-1-.65 8.41 8.41 0 00-1-.47 10.11 10.11 0 00-3.94-.79h-.64a10.22 10.22 0 00-3 .64A10 10 0 0030.11 67a1.22 1.22 0 00-.17.15 10.42 10.42 0 00-1.7 1.75c-.15.2-.27.41-.4.61l-.06.09h-2.9l-.05-.14L18.59 52v-.05l-.52-1.45-.07-.26h5.11a.76.76 0 00.67-.41c.13-.24.26-.46.4-.69 0 0 .05-.09.08-.14.03-.05.13-.2.2-.29.07-.09.25-.35.38-.52.13-.17.15-.19.23-.27.08-.08.29-.32.44-.47l.21-.22a7.83 7.83 0 01.72-.57 6.71 6.71 0 01.77-.45l.24-.11c.13-.06.27-.1.4-.15l.31-.13h.14a5.24 5.24 0 01.91-.2 1.46 1.46 0 01.22 0 8.43 8.43 0 011-.08 9 9 0 011.07.08l.32.05c.22 0 .45.09.66.15l.33.1.34.13.26.1.27.13h.07c.244.117.478.254.7.41.27.186.527.39.77.61l.19.2c.14.14.27.27.4.42l.19.46zM83.33 66.8l-.17-.12c-.33-.23-.67-.45-1-.65-.33-.2-.64-.33-1-.47a10.11 10.11 0 00-3.94-.79h-.65a10.22 10.22 0 00-3 .64A10.07 10.07 0 0070.9 67c-.06 0-.11.1-.17.15A10.36 10.36 0 0069 68.86c-.15.2-.28.41-.41.61l-.05.09h-2.86l-.06-.14L59.39 52 59 50.89l-.23-.65h5.12a.76.76 0 00.67-.41c.12-.24.26-.46.4-.69 0 0 .05-.09.08-.14a3 3 0 01.2-.29c.12-.18.25-.35.38-.52l.22-.27a5 5 0 01.45-.47l.21-.22a7.83 7.83 0 01.72-.57 5.35 5.35 0 01.77-.45l.24-.11c.13-.06.26-.1.39-.15l.31-.13h.14c.3-.094.608-.16.92-.2h.21a8.6 8.6 0 011-.08 9.11 9.11 0 011.07.08l.31.05c.226.038.45.088.67.15l.33.1.42.08.25.1.29.13h.06a8 8 0 01.7.41c.269.184.523.387.76.61.07.07.12.14.19.2l.39.42.15.41.22.61.54 1.53 5.85 16.33-.07.05zm20.49.08l-.13-.08a10.18 10.18 0 00-6.1-2h-.65a10.33 10.33 0 00-5.68 2.2c-.06 0-.11.1-.17.15a10.83 10.83 0 00-1.7 1.75c-.14.2-.27.41-.4.61a.41.41 0 000 .09H86v-.14L79.75 52v-.1l-.58-1.62h5.12a.73.73 0 00.66-.41c.13-.24.27-.46.41-.69l.04-.18.19-.29c.13-.18.25-.36.39-.52a2.88 2.88 0 01.22-.27c.14-.17.29-.32.44-.47l.22-.22a7.83 7.83 0 01.72-.57 5.35 5.35 0 01.77-.45l.24-.11c.12-.06.26-.1.39-.15l.31-.13h.14a5.46 5.46 0 01.91-.2 1.66 1.66 0 01.22 0 8.45 8.45 0 011-.08 9.46 9.46 0 011.09.08l.32.06c.226.038.45.088.67.15l.35.11.28.11.28.11.33.16.13.08c.198.096.388.207.57.33.267.186.52.39.76.61l.24.24c.14.15.29.3.43.46l.14.41 1.12 3.12 5.55 15.31zM72.9 24h2a.68.68 0 00.2 0 .74.74 0 00.46-.33 8.77 8.77 0 0115.16 0l.18.51.29.82 6.62 18.47-.13-.08a10.18 10.18 0 00-6.1-2h-.6a10.17 10.17 0 00-5.76 2.18l-.21.18a10.31 10.31 0 00-1.67 1.76c-.13.17-.24.36-.36.54v.09H80V46l-7.64-21.37-.21-.63h.75zm-20.36 0h2a.62.62 0 00.19 0 .74.74 0 00.46-.33 8.76 8.76 0 0115-.24l.13.2.18.51.12.33.18.49.22.61 6.39 17.86-.13-.08-.17-.12c-.33-.23-.67-.45-1-.65-.33-.2-.64-.33-1-.47a10.15 10.15 0 00-3.94-.79h-.6a10.3 10.3 0 00-3 .64c-.98.37-1.899.889-2.72 1.54l-.21.18A10.31 10.31 0 0063 45.51c-.13.17-.24.36-.36.54a.41.41 0 01-.05.09h-2.9v-.15L52 24.63l-.21-.63h.75zm-20.43 0h2a.62.62 0 00.19 0 .76.76 0 00.47-.33 8.75 8.75 0 0115.07-.16l.08.12.18.51.17.45.13.37.26.73L57 43.46l-.13-.08h-.06a9.323 9.323 0 00-2-1.17 10.18 10.18 0 00-4-.82h-.6a10.17 10.17 0 00-5.76 2.18l-.21.18a10.71 10.71 0 00-1.67 1.76c-.13.17-.24.36-.36.54l-.06.09h-2.9l-.06-.14-7.63-21.37-.21-.63h.76zm-20.36 0h2a.58.58 0 00.25 0 .71.71 0 00.46-.33 8.75 8.75 0 0115-.24c.05.064.097.131.14.2l.18.51.12.33.17.49.22.61 6.39 17.86-.12-.08-.17-.12a12 12 0 00-1-.65 8.41 8.41 0 00-1-.47 10.11 10.11 0 00-3.94-.79h-.59a10.17 10.17 0 00-3 .64 10.34 10.34 0 00-2.73 1.54l-.2.18a10.37 10.37 0 00-1.68 1.76c-.12.17-.24.36-.35.54l-.06.09h-2.95l-.05-.07-7.64-21.37L11 24h.75zm5 27.41L15.91 49l-.39-1.15-.3-.89.31.87.4 1.12 1 2.77a.79.79 0 01-.19-.27l.01-.04zm5.94 23.43l-.83-2.44-.4-1.15-.31-.91.31.88.4 1.12 1 2.77a.73.73 0 01-.18-.23l.01-.04z" fill="#E97158"/></g></svg>
