<svg width="120" height="120" viewBox="0 0 120 120" fill="none" xmlns="http://www.w3.org/2000/svg">
<path d="M88 73.88L88.1 73.73V73.66H85.15L85.29 73.88H88ZM67.61 73.88L67.71 73.73V73.66H64.79L64.93 73.88H67.61ZM47.25 73.88V73.66H44.36L44.5 73.88H47.25ZM24 73.88H26.82C26.8568 73.8324 26.8902 73.7823 26.92 73.73V73.66H23.92L24 73.88Z" fill="#F1A99A"/>
<path d="M88 73.88H85.29L85.15 73.66H85.06L85.68 75.38H88.38C88.466 75.3951 88.554 75.3951 88.64 75.38L88.07 73.77L88 73.88ZM67.61 73.88H64.93L64.79 73.66H64.7L65.32 75.38H68C68.0894 75.3946 68.1806 75.3946 68.27 75.38L67.69 73.77L67.61 73.88ZM47.25 73.88H44.5L44.36 73.66H44.27L44.88 75.38H47.67C47.73 75.39 47.79 75.39 47.85 75.38L47.3 73.83L47.25 73.88Z" fill="#F1A99A"/>
<path d="M27.23 75.38C27.316 75.3951 27.404 75.3951 27.49 75.38L26.91 73.77C26.8802 73.8223 26.8468 73.8724 26.81 73.92H24L24.37 75L24.53 75.42L27.23 75.38ZM82 50.46L82.1 50.31V50.24H79.2L79.34 50.46H82ZM61.67 50.46L61.78 50.31V50.24H58.86L59 50.46H61.67ZM41.32 50.46V50.39L41.26 50.24H38.43L38.57 50.46H41.32ZM21 50.31V50.24H18L18.08 50.46H20.9L21 50.31Z" fill="#F1A99A"/>
<path d="M82 50.46H79.35L79.21 50.24H79.13L79.71 51.86V51.96H82.41C82.496 51.9751 82.584 51.9751 82.67 51.96L82.09 50.35L82 50.46ZM59.39 52H62.09C62.176 52.0151 62.264 52.0151 62.35 52L61.78 50.39L61.67 50.54H59L58.86 50.32H58.77L59 50.97L59.39 52ZM39 52H41.97L41.42 50.45V50.52H38.57L38.43 50.3H38.33L38.7 51.3L39 52Z" fill="#F1A99A"/>
<path d="M21.29 52C21.3794 52.0153 21.4706 52.0153 21.56 52L21 50.31L20.9 50.46H18.06L18.58 51.91V52H21.29Z" fill="#F1A99A"/>
<path d="M103.13 73.28C102.696 72.7175 102.188 72.2162 101.62 71.79C100.381 70.9522 98.9033 70.5414 97.41 70.62C95.2431 70.587 93.1215 71.2417 91.35 72.49C91.19 72.74 91.04 72.99 90.9 73.25C90.8397 73.3735 90.7458 73.4776 90.6291 73.5501C90.5123 73.6226 90.3775 73.6607 90.24 73.66H90C89.6197 74.0696 89.2844 74.5188 89 75C88.9096 75.1474 88.7722 75.2602 88.61 75.32L94.88 92.85C95.6358 91.6691 96.6268 90.6567 97.7914 89.876C98.9559 89.0954 100.269 88.5631 101.648 88.3126C103.028 88.062 104.444 88.0985 105.809 88.4198C107.173 88.7411 108.457 89.3403 109.58 90.18C109.626 90.2065 109.669 90.2366 109.71 90.27L104.26 75C103.917 74.4055 103.539 73.8312 103.13 73.28ZM82 70.67L82.19 70.87L82 70.69V70.67ZM83.13 73.42C82.95 73.2 82.77 72.99 82.58 72.8C82.39 72.61 82.33 72.56 82.21 72.44C82.0128 72.2619 81.8058 72.095 81.59 71.94L81.31 71.73C80.0349 70.9464 78.5554 70.56 77.06 70.62C74.8934 70.5891 72.7724 71.2436 71 72.49C70.85 72.74 70.69 72.99 70.56 73.25C70.4962 73.3729 70.4002 73.476 70.2821 73.5483C70.164 73.6205 70.0284 73.6592 69.89 73.66H69.69C69.3057 74.0736 68.9702 74.5299 68.69 75.02C68.601 75.1648 68.4678 75.277 68.31 75.34L74.58 92.87C75.8813 90.8586 77.8484 89.3688 80.1372 88.6614C82.426 87.9539 84.8907 88.0738 87.1 89C87.4432 89.1387 87.7772 89.299 88.1 89.48C88.446 89.673 88.78 89.887 89.1 90.12L89.26 90.24C89.3071 90.2641 89.3508 90.2944 89.39 90.33L83.55 74L83.13 73.42ZM61.64 70.76L61.77 70.9L61.64 70.75L61.55 70.67L61.64 70.76ZM63 73.75L62.74 73.42C62.5265 73.152 62.2996 72.895 62.06 72.65L61.82 72.44C61.6224 72.2593 61.4155 72.089 61.2 71.93C61.11 71.87 61.02 71.79 60.92 71.73C59.6454 70.9453 58.1656 70.5588 56.67 70.62C54.4368 70.5881 52.2549 71.2908 50.46 72.62C50.33 72.83 50.2 73.04 50.08 73.27C50.0163 73.3929 49.9202 73.496 49.8021 73.5683C49.684 73.6405 49.5484 73.6792 49.41 73.68H49.29C48.9119 74.0987 48.5769 74.5543 48.29 75.04C48.1868 75.2089 48.0218 75.3309 47.83 75.38L54.1 92.89C55.0256 91.4495 56.298 90.2643 57.8005 89.4431C59.3031 88.622 60.9877 88.1911 62.7 88.19C64.076 88.19 65.438 88.472 66.7 89.02C67.0423 89.1642 67.3762 89.3279 67.7 89.51C68.045 89.716 68.379 89.94 68.7 90.18H68.76C68.8023 90.2068 68.8425 90.2369 68.88 90.27L63 73.75ZM41.19 70.67C41.26 70.73 41.32 70.8 41.39 70.87L41.19 70.66V70.67ZM42.32 73.39C42.14 73.17 41.96 72.97 41.78 72.77L41.41 72.43C41.217 72.2471 41.0096 72.0799 40.79 71.93C40.7425 71.887 40.6924 71.8469 40.64 71.81C39.3382 70.9699 37.8079 70.5541 36.26 70.62C34.0902 70.5884 31.9658 71.2428 30.19 72.49C30.04 72.74 29.89 72.99 29.75 73.25C29.6863 73.3729 29.5902 73.476 29.4721 73.5483C29.354 73.6205 29.2184 73.6592 29.08 73.66H28.88C28.5019 74.0787 28.1669 74.5343 27.88 75.02C27.794 75.1673 27.6598 75.2803 27.5 75.34L33.77 92.87C35.0734 90.8555 37.0441 89.3639 39.3368 88.6563C41.6295 87.9488 44.098 88.0704 46.31 89C46.6533 89.1383 46.9874 89.2986 47.31 89.48C47.656 89.673 47.99 89.887 48.31 90.12L48.48 90.24C48.5256 90.2665 48.5691 90.2966 48.61 90.33L42.74 73.94L42.32 73.39ZM95.69 48.37C94.4514 47.5322 92.9733 47.1214 91.48 47.2C89.2704 47.1602 87.108 47.8412 85.32 49.14C85.18 49.37 85.04 49.59 84.91 49.83C84.8498 49.9535 84.7558 50.0576 84.6391 50.1301C84.5223 50.2026 84.3875 50.2407 84.25 50.24H84.1C83.7243 50.657 83.3895 51.1091 83.1 51.59C83.0145 51.74 82.8805 51.8564 82.72 51.92L88.22 67.3L88.5 68.06L88.65 68.5L88.77 68.84L88.93 69.26L88.99 69.44C89.12 69.24 89.25 69.03 89.39 68.83C89.8889 68.1845 90.4592 67.5974 91.09 67.08C91.15 67.08 91.2 66.97 91.26 66.93C92.8951 65.6604 94.874 64.9113 96.94 64.78H97.59C99.7858 64.7713 101.926 65.4729 103.69 66.78L103.82 66.86L98.32 51.51C97.9784 50.9304 97.601 50.3726 97.19 49.84C96.7609 49.2825 96.256 48.7877 95.69 48.37ZM83.33 66.8L83.46 66.88L77.61 50.55C77.48 50.36 77.34 50.18 77.19 50C77.0233 49.7821 76.8429 49.575 76.65 49.38C76.5308 49.2523 76.4039 49.1321 76.27 49.02C76.077 48.8371 75.8696 48.6699 75.65 48.52C75.561 48.4445 75.4675 48.3743 75.37 48.31C74.0959 47.5241 72.6157 47.1376 71.12 47.2C68.924 47.1689 66.777 47.8495 65 49.14C64.86 49.37 64.72 49.59 64.6 49.83C64.5362 49.9529 64.4402 50.056 64.3221 50.1283C64.204 50.2005 64.0684 50.2392 63.93 50.24H63.78C63.4009 50.6543 63.0658 51.1067 62.78 51.59C62.6901 51.7402 62.553 51.8562 62.39 51.92L67.86 67.3L68.13 68.06L68.29 68.5L68.41 68.84L68.56 69.26L68.62 69.44C68.75 69.24 68.88 69.03 69.03 68.83C69.5226 68.1823 70.0899 67.5949 70.72 67.08C70.78 67.08 70.83 66.97 70.89 66.93C71.7069 66.2906 72.6176 65.7813 73.59 65.42C74.5521 65.057 75.5635 64.8412 76.59 64.78H77.24C78.593 64.777 79.9328 65.0457 81.18 65.57C81.51 65.71 81.83 65.87 82.18 66.04C82.53 66.21 82.87 66.46 83.18 66.69L83.33 66.8ZM76.07 47.31C76.07 47.31 76.19 47.44 76.26 47.5C76.33 47.56 76.14 47.38 76.07 47.31ZM62.83 66.76H62.89L63.02 66.84L57.09 50.32L56.84 50C56.6232 49.7318 56.3929 49.4749 56.15 49.23L55.92 49C55.7229 48.8187 55.5159 48.6485 55.3 48.49L55.02 48.29C53.7449 47.5064 52.2654 47.12 50.77 47.18C48.4919 47.1386 46.2661 47.8641 44.45 49.24C44.34 49.43 44.22 49.61 44.12 49.81C44.0563 49.9329 43.9602 50.036 43.8421 50.1083C43.724 50.1805 43.5884 50.2192 43.45 50.22H43.39C43.0113 50.6345 42.6762 51.0869 42.39 51.57C42.3412 51.6566 42.2752 51.7323 42.1961 51.7925C42.117 51.8527 42.0265 51.8961 41.93 51.92L47.43 67.28L47.7 68.04L47.86 68.48L47.98 68.82L48.13 69.24L48.2 69.42C48.34 69.22 48.46 69.01 48.61 68.81C49.1026 68.1623 49.6699 67.5749 50.3 67.06C50.36 67.06 50.41 66.95 50.47 66.91C51.2869 66.2706 52.1976 65.7613 53.17 65.4C54.1321 65.037 55.1435 64.8212 56.17 64.76H56.81C58.185 64.76 59.546 65.04 60.81 65.58C61.15 65.73 61.47 65.9 61.81 66.08C62.166 66.282 62.507 66.51 62.83 66.76ZM27.61 68.84L27.76 69.26L27.83 69.44C27.96 69.24 28.08 69.03 28.23 68.83C28.7262 68.1821 29.2968 67.5948 29.93 67.08C29.9819 67.0248 30.0388 66.9746 30.1 66.93C30.9132 66.2906 31.8206 65.7812 32.79 65.42C33.7521 65.057 34.7635 64.8412 35.79 64.78H36.43C37.783 64.777 39.1228 65.0457 40.37 65.57C40.71 65.71 41.02 65.87 41.37 66.04C41.7139 66.24 42.0476 66.4569 42.37 66.69L42.54 66.81L42.66 66.89L36.8 50.51C36.67 50.32 36.53 50.14 36.39 49.97C36.25 49.8 36.03 49.54 35.84 49.35C35.65 49.16 35.6 49.12 35.48 49.01C35.2848 48.8296 35.0777 48.6625 34.86 48.51C34.8108 48.4648 34.7572 48.4246 34.7 48.39C33.4019 47.55 31.8748 47.1342 30.33 47.2C28.1175 47.1617 25.9524 47.8424 24.16 49.14C24.02 49.37 23.89 49.59 23.76 49.83C23.6963 49.9529 23.6002 50.056 23.4821 50.1283C23.364 50.2005 23.2284 50.2392 23.09 50.24H23C22.6213 50.6545 22.2862 51.1069 22 51.59C21.9116 51.7376 21.7785 51.8531 21.62 51.92L27.12 67.3L27.39 68.06L27.55 68.5L27.61 68.84ZM35.23 47.27L35.42 47.46L35.23 47.26V47.27ZM75.17 24.17V24.23L75.23 24.39L75.54 25.26L82.22 43.92L82.49 44.67L82.65 45.12L82.77 45.46L82.92 45.88L83 46C83.12 45.82 83.23 45.63 83.36 45.46C83.8391 44.8289 84.3894 44.2551 85 43.75L85.2 43.57C86.0459 42.9041 86.9906 42.3744 88 42C88.9619 41.6362 89.9734 41.4204 91 41.36H91.6C93.7958 41.3513 95.9356 42.0529 97.7 43.36L97.83 43.44L91.21 25L90.92 24.18L90.74 23.67C89.9683 22.3438 88.8621 21.2433 87.532 20.4784C86.2019 19.7135 84.6944 19.311 83.16 19.311C81.6256 19.311 80.1181 19.7135 78.788 20.4784C77.4579 21.2433 76.3517 22.3438 75.58 23.67C75.4765 23.8366 75.311 23.9553 75.12 24L75.17 24.17ZM54.81 24.17V24.23L54.87 24.39L55.19 25.26L61.86 43.91L62.13 44.67L62.29 45.12L62.41 45.46L62.56 45.88L62.61 46.02C62.73 45.84 62.84 45.65 62.97 45.48C63.4555 44.8297 64.016 44.2389 64.64 43.72L64.85 43.54C65.6806 42.8862 66.6085 42.3666 67.6 42C68.5624 41.6381 69.5737 41.4224 70.6 41.36H71.2C72.5529 41.3581 73.8924 41.6267 75.14 42.15C75.47 42.29 75.79 42.45 76.14 42.62C76.49 42.79 76.83 43.04 77.14 43.27L77.31 43.39L77.44 43.47L71.08 25.6L70.86 25L70.68 24.51L70.56 24.18L70.38 23.67L70.25 23.47C69.448 22.1928 68.3303 21.1439 67.0046 20.4248C65.679 19.7056 64.1903 19.3405 62.6824 19.3646C61.1745 19.3887 59.6982 19.8013 58.3963 20.5625C57.0943 21.3237 56.0107 22.4078 55.25 23.71C55.1465 23.8766 54.981 23.9953 54.79 24.04L54.81 24.17ZM34.37 24.17V24.23L34.42 24.39L34.74 25.26L41.41 43.92L41.68 44.67L41.84 45.12L41.96 45.46L42.11 45.88L42.17 46.02C42.29 45.84 42.4 45.65 42.53 45.48C43.0182 44.832 43.5785 44.2415 44.2 43.72L44.41 43.54C46.0585 42.2355 48.0708 41.4739 50.17 41.36H50.77C52.145 41.36 53.506 41.64 54.77 42.18C55.11 42.33 55.43 42.5 55.77 42.68C56.118 42.88 56.453 43.104 56.77 43.35H56.83L56.96 43.43L50.68 25.72L50.42 25L50.29 24.63L50.12 24.18L49.94 23.67L49.86 23.55C49.0707 22.2503 47.9568 21.1784 46.6276 20.4398C45.2985 19.7011 43.7999 19.3212 42.2794 19.3373C40.7589 19.3535 39.2688 19.7651 37.9556 20.5318C36.6425 21.2985 35.5515 22.3938 34.79 23.71C34.6825 23.8772 34.5138 23.9957 34.32 24.04L34.37 24.17ZM21.79 45.88L21.84 46.02C21.95 45.84 22.07 45.65 22.19 45.48C22.679 44.8294 23.2429 44.2387 23.87 43.72L24.07 43.54C25.7185 42.2489 27.7201 41.4887 29.81 41.36H30.4C31.753 41.357 33.0928 41.6257 34.34 42.15C34.68 42.29 34.99 42.45 35.34 42.62C35.6839 42.82 36.0176 43.0369 36.34 43.27L36.51 43.39L36.63 43.47L30.28 25.6L30.06 25L29.89 24.51L29.77 24.18L29.59 23.67C29.5467 23.601 29.5 23.5343 29.45 23.47C28.6499 22.1903 27.5327 21.1391 26.2068 20.4182C24.8809 19.6973 23.3913 19.3311 21.8822 19.3553C20.3732 19.3794 18.896 19.793 17.5939 20.556C16.2917 21.319 15.2088 22.4054 14.45 23.71C14.3436 23.8617 14.1821 23.9658 14 24L14.06 24.15V24.21L14.12 24.37L14.43 25.25L21.1 43.89L21.38 44.65L21.53 45.1L21.66 45.44L21.79 45.88Z" fill="#F6C6BC"/>
<path d="M88.38 75.38H85.68L92 93H94.89V92.92L88.64 75.34C88.5564 75.3685 88.4683 75.3821 88.38 75.38ZM68 75.38H65.3L71.61 93H74.5L74.56 92.92L68.29 75.34C68.1964 75.3702 68.0983 75.3837 68 75.38ZM47.67 75.38H44.88L51.17 93H54.06L54.12 92.92L47.85 75.36C47.7915 75.3766 47.7307 75.3833 47.67 75.38ZM27.23 75.38H24.53L30.81 93H33.71V92.92L27.49 75.34C27.4064 75.3685 27.3183 75.3821 27.23 75.38ZM89 75C89.2832 74.5119 89.6185 74.0559 90 73.64H88V73.71L88.57 75.32C88.747 75.2683 88.8996 75.1547 89 75ZM103.13 71.8L102.95 71.29C102.831 71.1527 102.704 71.0225 102.57 70.9L102.35 70.67C102.117 70.4565 101.87 70.2593 101.61 70.08C101.48 69.99 101.34 69.92 101.2 69.84L100.99 69.72L100.63 69.53C100.48 69.46 100.32 69.41 100.17 69.35H100.08C99.9606 69.2963 99.8368 69.2528 99.71 69.22C99.4777 69.1334 99.2406 69.0599 99 69H98.7C97.9999 68.9053 97.2901 68.9053 96.59 69H96.4C96.0931 69.0492 95.7892 69.1159 95.49 69.2L95.33 69.26C95.2446 69.2839 95.1611 69.314 95.08 69.35L94.65 69.52L94.39 69.64C93.8478 69.9082 93.3462 70.2516 92.9 70.66L92.69 70.87C92.54 71.02 92.39 71.17 92.25 71.34C92.1714 71.422 92.0979 71.5089 92.03 71.6C91.89 71.77 91.76 71.95 91.63 72.14L91.45 72.4C91.45 72.4 91.45 72.47 91.4 72.5C93.1715 71.2517 95.2931 70.597 97.46 70.63C98.9533 70.5514 100.431 70.9622 101.67 71.8C102.238 72.2262 102.746 72.7275 103.18 73.29C103.572 73.84 103.932 74.41 104.26 75L103.14 71.88L103.13 71.8ZM68.67 75C68.9502 74.5099 69.2857 74.0536 69.67 73.64H67.67V73.71L68.25 75.32C68.4226 75.2647 68.5708 75.1517 68.67 75ZM82.78 71.83L82.61 71.34C82.491 71.2027 82.3641 71.0725 82.23 70.95L82 70.7C81.7673 70.4865 81.52 70.2893 81.26 70.11C81.07 69.98 80.87 69.88 80.68 69.77L80.55 69.7C80.4464 69.6407 80.3396 69.5873 80.23 69.54L79.82 69.38L79.67 69.32L79.32 69.21C79.1 69.15 78.88 69.1 78.65 69.06L78.32 69C77.6266 68.9048 76.9234 68.9048 76.23 69H76C75.6931 69.0492 75.3892 69.1159 75.09 69.2L74.93 69.26C74.8446 69.2839 74.7611 69.314 74.68 69.35L74.25 69.52C74.17 69.52 74.08 69.59 74 69.64C73.73 69.77 73.468 69.92 73.22 70.09C72.968 70.26 72.73 70.45 72.51 70.66C72.43 70.73 72.37 70.8 72.3 70.87C72.14 71.0167 71.9896 71.1737 71.85 71.34L71.63 71.6C71.5 71.77 71.36 71.95 71.24 72.14L71.06 72.4L71 72.5C72.7752 71.2516 74.9 70.597 77.07 70.63C78.5654 70.57 80.0449 70.9564 81.32 71.74L81.6 71.95C81.816 72.105 82.023 72.272 82.22 72.45C82.34 72.57 82.47 72.68 82.59 72.81C82.71 72.94 82.96 73.21 83.14 73.43L83.56 73.98L83 72.44L82.78 71.83ZM48.31 75C48.5969 74.5143 48.9319 74.0586 49.31 73.64H47.25V73.79L47.8 75.34C47.904 75.3218 48.003 75.2822 48.0908 75.2237C48.1786 75.1652 48.2533 75.089 48.31 75ZM62.6 72.56L62.34 71.83L62.21 71.46L62.16 71.32C62.041 71.1827 61.9141 71.0525 61.78 70.93L61.65 70.79L61.56 70.7C61.3273 70.4865 61.08 70.2893 60.82 70.11C60.5861 69.9513 60.3422 69.8077 60.09 69.68H60.03L59.78 69.57L59.38 69.41L59.17 69.33L58.85 69.23C58.63 69.17 58.41 69.12 58.18 69.08H57.86C57.5084 69.0358 57.1544 69.0124 56.8 69.01C56.4656 69.0143 56.1317 69.0377 55.8 69.08H55.58C55.2724 69.1254 54.9683 69.1922 54.67 69.28H54.54L54.19 69.42L53.82 69.56L53.59 69.67C53.0467 69.9279 52.5446 70.2649 52.1 70.67C52.02 70.73 51.96 70.81 51.88 70.88C51.8 70.95 51.58 71.19 51.44 71.35L51.21 71.63C51.08 71.79 50.96 71.96 50.84 72.14L50.63 72.45L50.54 72.61C52.3349 71.2808 54.5168 70.5781 56.75 70.61C58.2466 70.5518 59.7265 70.9418 61 71.73C61.1 71.79 61.19 71.87 61.28 71.93C61.495 72.089 61.702 72.26 61.9 72.44L62.14 72.65C62.38 72.895 62.607 73.152 62.82 73.42L63.08 73.75L62.84 73.09L62.6 72.56ZM27.87 75C28.1569 74.5143 28.4919 74.0586 28.87 73.64H26.87V73.71L27.45 75.32C27.6246 75.2686 27.7741 75.1547 27.87 75ZM42.2 72.44L42 71.83L41.83 71.34C41.7144 71.2029 41.5908 71.0727 41.46 70.95C41.39 70.88 41.33 70.81 41.26 70.75C41.0293 70.5342 40.7818 70.3369 40.52 70.16C40.3271 70.0316 40.1267 69.9147 39.92 69.81L39.81 69.74L39.49 69.59L39.09 69.43L38.92 69.37L38.58 69.26C38.36 69.2 38.14 69.15 37.91 69.11L37.52 69C36.8266 68.9048 36.1234 68.9048 35.43 69H35.23C34.9233 69.0502 34.6195 69.117 34.32 69.2L34.16 69.26L33.91 69.35L33.48 69.52C33.4 69.52 33.31 69.59 33.23 69.64C32.96 69.77 32.698 69.92 32.45 70.09C32.2 70.2627 31.9627 70.4532 31.74 70.66L31.53 70.86L31.08 71.34L30.87 71.6C30.73 71.77 30.6 71.95 30.47 72.14L30.29 72.4L30.23 72.5C32.0058 71.2528 34.1302 70.5983 36.3 70.63C37.8479 70.5641 39.3782 70.9799 40.68 71.82C40.732 71.857 40.782 71.897 40.83 71.94C41.0496 72.0899 41.257 72.2571 41.45 72.44L41.82 72.78C42 72.98 42.18 73.18 42.36 73.4L42.78 73.95L42.62 73.51L42.2 72.44ZM79.75 52L86 69.39V69.53H88.9C88.8967 69.5001 88.8967 69.4699 88.9 69.44L88.84 69.26L88.68 68.84L88.56 68.5L88.41 68.06L88.13 67.3L82.63 51.92C82.544 51.9351 82.456 51.9351 82.37 51.92L79.75 52ZM59.39 52L65.62 69.43L65.68 69.57H68.57L68.62 69.48L68.56 69.3L68.41 68.88L68.29 68.54L68.13 68.1L67.86 67.34L62.35 51.92C62.264 51.9351 62.176 51.9351 62.09 51.92L59.39 52ZM39 52L45.23 69.43L45.29 69.57H48.18L48.24 69.48L48.17 69.3L48 68.84L47.88 68.5L47.72 68.06L47.45 67.3L41.95 51.94H41.76L39 52ZM24.88 69.53H27.77L27.83 69.44L27.76 69.26L27.61 68.84L27.49 68.5L27.33 68.06L27.06 67.3L21.56 51.92C21.4706 51.9353 21.3794 51.9353 21.29 51.92H18.59L24.83 69.35L24.88 69.53ZM83.09 51.59C83.3795 51.1091 83.7143 50.657 84.09 50.24H82.09V50.31L82.67 51.92C82.8453 51.8644 82.9945 51.7472 83.09 51.59ZM95.69 48.37C96.2574 48.7939 96.7624 49.2954 97.19 49.86C97.601 50.393 97.978 50.95 98.32 51.53L97.2 48.41L97.05 48C96.91 47.84 96.76 47.69 96.61 47.54C96.5385 47.4552 96.4617 47.375 96.38 47.3C96.1406 47.0799 95.8867 46.8761 95.62 46.69C95.438 46.5667 95.2475 46.4565 95.05 46.36L94.92 46.28L94.59 46.12L94.31 46L94 45.87L93.65 45.76C93.4294 45.6984 93.2058 45.6483 92.98 45.61L92.66 45.55C92.2985 45.5024 91.9346 45.4756 91.57 45.47C91.2354 45.4768 90.9015 45.5036 90.57 45.55H90.35C90.0415 45.5906 89.7371 45.6575 89.44 45.75H89.3L89 46C88.87 46 88.73 46.09 88.61 46.15L88.37 46.26C88.1013 46.3883 87.8437 46.5388 87.6 46.71C87.3491 46.8858 87.1086 47.0761 86.88 47.28L86.66 47.5C86.51 47.65 86.36 47.8 86.22 47.97C86.1413 48.0555 86.0678 48.1456 86 48.24C85.86 48.4 85.74 48.58 85.61 48.76L85.4 49L85.32 49.14C87.108 47.8412 89.2704 47.1602 91.48 47.2C92.9733 47.1214 94.4514 47.5322 95.69 48.37ZM75.37 48.31C75.467 48.374 75.56 48.444 75.65 48.52C75.8696 48.6699 76.077 48.8371 76.27 49.02C76.404 49.132 76.53 49.252 76.65 49.38C76.843 49.575 77.023 49.782 77.19 50C77.34 50.18 77.48 50.36 77.61 50.55L77.07 49L76.85 48.39L76.69 48L76.3 47.58C76.23 47.52 76.17 47.45 76.11 47.39C75.8727 47.1675 75.6186 46.9635 75.35 46.78C75.1237 46.6316 74.8901 46.4947 74.65 46.37H74.59L74.3 46.24L74 46L73.66 45.87L73.33 45.77C73.1094 45.7084 72.8858 45.6583 72.66 45.62L72.35 45.57C71.9952 45.5223 71.6379 45.4956 71.28 45.49C70.9454 45.4972 70.6115 45.5239 70.28 45.57H70.07C69.7581 45.6096 69.4502 45.6765 69.15 45.77H69.01L68.7 45.9C68.5668 45.9412 68.4365 45.9913 68.31 46.05L68.07 46.16C67.8013 46.2883 67.5437 46.4388 67.3 46.61C67.0491 46.7858 66.8086 46.9761 66.58 47.18L66.37 47.4C66.21 47.5467 66.0596 47.7037 65.92 47.87L65.7 48.14C65.57 48.31 65.44 48.48 65.32 48.66C65.2047 48.7648 65.0977 48.8785 65 49C65 49 64.95 49.1 64.92 49.14C66.708 47.8412 68.8704 47.1602 71.08 47.2C72.5892 47.1295 74.0844 47.5164 75.37 48.31Z" fill="#F1A99A"/>
<path d="M62.74 51.59C63.0258 51.1067 63.3609 50.6543 63.74 50.24H61.74V50.31L62.31 51.92C62.4878 51.8642 62.6401 51.7473 62.74 51.59ZM55 48.31L55.28 48.51C55.496 48.668 55.703 48.839 55.9 49.02L56.13 49.23C56.373 49.475 56.603 49.732 56.82 50L57.07 50.32L56.65 49.14L56.39 48.41L56.27 48C56.13 47.84 55.98 47.69 55.84 47.54L55.71 47.41C55.6759 47.3709 55.6391 47.3341 55.6 47.3C55.3627 47.0775 55.1086 46.8735 54.84 46.69C54.5783 46.5109 54.3043 46.3505 54.02 46.21L53.9 46.16L53.52 46L53.13 45.85L52.84 45.77C52.6127 45.7084 52.3824 45.6584 52.15 45.62L51.85 45.57C51.502 45.5219 51.1513 45.4952 50.8 45.49C50.4654 45.4968 50.1314 45.5235 49.8 45.57H49.56C49.2489 45.6144 48.9414 45.6812 48.64 45.77H48.56L48.12 45.94L47.79 46.07L47.57 46.17C47.3077 46.3044 47.0539 46.4547 46.81 46.62C46.5552 46.7984 46.3114 46.9921 46.08 47.2L45.86 47.42C45.71 47.57 45.56 47.73 45.42 47.89C45.3379 47.9822 45.2611 48.079 45.19 48.18C45.0579 48.34 44.9344 48.5069 44.82 48.68C44.741 48.7895 44.6675 48.903 44.6 49.02L44.48 49.22C46.2961 47.8441 48.5219 47.1186 50.8 47.16C52.2826 47.1219 53.7436 47.5219 55 48.31ZM42.38 51.59C42.6662 51.1069 43.0013 50.6545 43.38 50.24H41.31L41.37 50.39L41.92 51.94C42.0165 51.916 42.107 51.8727 42.1861 51.8125C42.2652 51.7523 42.3312 51.6766 42.38 51.59ZM21.94 51.59C22.2262 51.1069 22.5613 50.6545 22.94 50.24H21V50.31L21.58 51.92C21.7311 51.8497 21.8568 51.7344 21.94 51.59ZM34.7 48.39C34.7572 48.4246 34.8108 48.4648 34.86 48.51C35.0777 48.6625 35.2848 48.8296 35.48 49.01C35.6 49.12 35.73 49.23 35.84 49.35C35.95 49.47 36.21 49.75 36.39 49.97C36.57 50.19 36.67 50.32 36.8 50.51L36.27 49L36.05 48.39L35.89 48C35.76 47.85 35.63 47.72 35.49 47.58L35.3 47.39C35.0572 47.1697 34.8 46.966 34.53 46.78C34.3083 46.6243 34.0742 46.4872 33.83 46.37H33.76L33.49 46.24L33.23 46.14L32.89 46.01L32.56 45.91C32.35 45.85 32.12 45.8 31.9 45.76L31.58 45.71C31.2252 45.6621 30.8679 45.6354 30.51 45.63C30.1754 45.6368 29.8414 45.6635 29.51 45.71C29.4368 45.7045 29.3632 45.7045 29.29 45.71C28.9813 45.7495 28.6768 45.8164 28.38 45.91H28.24L27.93 46.04C27.7935 46.0812 27.6599 46.1313 27.53 46.19L27.29 46.3C27.0236 46.4328 26.7664 46.5831 26.52 46.75C26.2691 46.9258 26.0286 47.1161 25.8 47.32L25.59 47.54C25.44 47.69 25.29 47.84 25.15 48.01C25.01 48.18 25 48.19 24.92 48.28C24.84 48.37 24.66 48.62 24.54 48.8C24.42 48.98 24.41 48.99 24.34 49.09C24.27 49.19 24.34 49.19 24.26 49.23C26.0524 47.9324 28.2175 47.2517 30.43 47.29C31.9317 47.218 33.42 47.6015 34.7 48.39ZM80 46L80.05 46.15H82.95L83 46V45.86L82.85 45.44L82.73 45.1L82.57 44.65L82.3 43.9L75.56 25.26L75.25 24.39L75.19 24.23V24.02C75.1237 24.0299 75.0563 24.0299 74.99 24.02H72.15L72.36 24.61L80 46ZM59.63 46V46.15H62.53L62.58 46.06L62.53 45.92L62.38 45.5L62.26 45.16L62.1 44.71L61.83 43.95L55.21 25.26L54.89 24.39L54.83 24.23V24.17L54.76 24C54.697 24.0098 54.633 24.0098 54.57 24H51.79L52 24.59L59.63 46ZM39.19 46L39.25 46.15H42.14L42.2 46L42.14 45.86L42 45.46L41.88 45.12L41.72 44.67L41.45 43.92L34.77 25.26L34.45 24.39L34.4 24.23V24.02C34.337 24.0298 34.273 24.0298 34.21 24.02H31.35L31.56 24.61L39.19 46ZM18.89 46.11H21.78L21.84 46.02L21.79 45.88L21.64 45.46L21.51 45.12L21.36 44.67L21.08 43.91L14.41 25.27L14.1 24.39L14 24.23V24C13.9371 24.0104 13.8729 24.0104 13.81 24H11L11.21 24.59L18.84 46L18.89 46.11Z" fill="#F1A99A"/>
<path d="M112.48 93.52V93.45L105.65 74.38V74.25L105.39 73.54C105.532 73.4505 105.641 73.3171 105.7 73.16L106.59 70.53V70.4C106.585 70.3668 106.585 70.3332 106.59 70.3C106.595 70.2334 106.595 70.1666 106.59 70.1V70.04L99.71 51L99.4 50.13C99.5197 50.0377 99.61 49.9127 99.66 49.77L100.55 47.14V47.01C100.545 46.9768 100.545 46.9432 100.55 46.91C100.556 46.8468 100.556 46.7832 100.55 46.72C100.551 46.6967 100.551 46.6733 100.55 46.65L92.11 23L92.05 22.88C91.1716 21.3505 89.9129 20.0738 88.3961 19.1737C86.8793 18.2736 85.1556 17.7805 83.3923 17.7423C81.6289 17.7041 79.8855 18.122 78.3311 18.9555C76.7767 19.7891 75.4639 21.01 74.52 22.5H71.45C70.5287 21.0418 69.2532 19.8404 67.7425 19.0079C66.2318 18.1754 64.5349 17.7388 62.81 17.7388C61.0851 17.7388 59.3882 18.1754 57.8775 19.0079C56.3668 19.8404 55.0913 21.0418 54.17 22.5H51C50.0787 21.0418 48.8032 19.8404 47.2925 19.0079C45.7818 18.1754 44.0849 17.7388 42.36 17.7388C40.6351 17.7388 38.9382 18.1754 37.4275 19.0079C35.9168 19.8404 34.6413 21.0418 33.72 22.5H30.65C29.7287 21.0418 28.4532 19.8404 26.9425 19.0079C25.4318 18.1754 23.7349 17.7388 22.01 17.7388C20.2851 17.7388 18.5882 18.1754 17.0775 19.0079C15.5668 19.8404 14.2913 21.0418 13.37 22.5H9.92C9.81707 22.5005 9.71521 22.5209 9.62 22.56L9.54 22.62C9.4765 22.6617 9.41926 22.7122 9.37 22.77C9.36587 22.7965 9.36587 22.8235 9.37 22.85C9.33979 22.8818 9.31602 22.9192 9.3 22.96L8.39 25.59C8.33514 25.7487 8.33514 25.9213 8.39 26.08L15.53 46.08V46.13C15.5252 46.1866 15.5252 46.2434 15.53 46.3V46.24V46.18L14.3 49.1C14.2451 49.2587 14.2451 49.4313 14.3 49.59L21.43 69.51L21.34 69.57V69.63C21.3141 69.6982 21.294 69.7684 21.28 69.84V69.77V69.71V69.62L20.37 72.25C20.3151 72.4122 20.3151 72.5878 20.37 72.75L28.8 96.31C28.8531 96.4559 28.9496 96.582 29.0766 96.6714C29.2035 96.7608 29.3548 96.8092 29.51 96.81H35C35.1375 96.8107 35.2723 96.7726 35.3891 96.7001C35.5058 96.6276 35.5997 96.5235 35.66 96.4C36.2769 95.1406 37.1938 94.052 38.33 93.23C39.525 92.468 40.9128 92.0632 42.33 92.0632C43.7472 92.0632 45.135 92.468 46.33 93.23C47.466 94.0496 48.3801 95.139 48.99 96.4C49.0826 96.5762 49.2405 96.709 49.43 96.77H55.29C55.4284 96.7692 55.564 96.7305 55.6821 96.6583C55.8002 96.586 55.8963 96.4829 55.96 96.36C56.6366 95.2051 57.5752 94.2254 58.7 93.5C59.8954 92.7392 61.283 92.3351 62.7 92.3351C64.117 92.3351 65.5046 92.7392 66.7 93.5C67.8331 94.3226 68.7466 95.4112 69.36 96.67C69.4265 96.8015 69.5302 96.9105 69.6582 96.9835C69.7863 97.0564 69.933 97.0899 70.08 97.08H75.76C75.8984 97.0792 76.034 97.0405 76.1521 96.9683C76.2702 96.896 76.3663 96.7929 76.43 96.67C77.0399 95.409 77.954 94.3196 79.09 93.5C80.285 92.738 81.6728 92.3332 83.09 92.3332C84.5072 92.3332 85.895 92.738 87.09 93.5C88.2288 94.3193 89.1463 95.4085 89.76 96.67C89.8045 96.7582 89.8664 96.8365 89.942 96.9001C90.0177 96.9637 90.1054 97.0113 90.2 97.04H96.06C96.1984 97.0392 96.334 97.0005 96.4521 96.9283C96.5702 96.856 96.6663 96.7529 96.73 96.63C97.3763 95.3709 98.3288 94.2946 99.5 93.5C100.695 92.738 102.083 92.3332 103.5 92.3332C104.917 92.3332 106.305 92.738 107.5 93.5C108.636 94.3196 109.55 95.409 110.16 96.67C110.229 96.8015 110.335 96.9101 110.464 96.9829C110.594 97.0556 110.742 97.0894 110.89 97.08C111.037 97.0693 111.177 97.015 111.293 96.9242C111.409 96.8333 111.495 96.71 111.54 96.57L112.43 93.94C112.44 93.8972 112.44 93.8528 112.43 93.81C112.435 93.7768 112.435 93.7432 112.43 93.71C112.452 93.6481 112.468 93.5845 112.48 93.52ZM109.75 90.31C109.709 90.2766 109.666 90.2465 109.62 90.22C108.497 89.3803 107.213 88.7811 105.849 88.4598C104.484 88.1385 103.068 88.102 101.688 88.3526C100.309 88.6031 98.9959 89.1354 97.8314 89.916C96.6668 90.6967 95.6758 91.7091 94.92 92.89V92.97H92L85.68 75.38L85.06 73.66H90.24C90.3775 73.6607 90.5123 73.6226 90.6291 73.5501C90.7458 73.4776 90.8398 73.3735 90.9 73.25C91.04 72.99 91.19 72.74 91.35 72.49C91.35 72.49 91.35 72.42 91.4 72.39L91.58 72.13C91.71 71.94 91.84 71.76 91.98 71.59C92.0479 71.4989 92.1214 71.412 92.2 71.33C92.34 71.16 92.49 71.01 92.64 70.86L92.85 70.65C93.2962 70.2416 93.7978 69.8982 94.34 69.63L94.6 69.51L95.03 69.34C95.1111 69.304 95.1946 69.2739 95.28 69.25L95.44 69.19C95.7392 69.1059 96.0431 69.0391 96.35 68.99H96.54C97.2571 68.8942 97.9839 68.8976 98.7 69H99C99.226 69.038 99.45 69.088 99.67 69.15C99.797 69.183 99.92 69.226 100.04 69.28H100.13C100.28 69.34 100.44 69.39 100.59 69.46L100.95 69.65L101.16 69.77C101.3 69.85 101.44 69.92 101.57 70.01C101.83 70.19 102.077 70.386 102.31 70.6L102.53 70.83C102.66 70.95 102.78 71.08 102.91 71.22L103.09 71.73L104.26 75L109.75 90.31ZM89.26 90.22L89.1 90.1C88.7798 89.8668 88.4459 89.653 88.1 89.46C87.7772 89.279 87.4432 89.1187 87.1 88.98C84.885 88.0548 82.4149 87.9396 80.1234 88.6547C77.832 89.3697 75.8657 90.8693 74.57 92.89L74.5 93H71.61L65.32 75.38L64.7 73.66H69.88C70.0184 73.6592 70.154 73.6205 70.2721 73.5483C70.3901 73.476 70.4863 73.3729 70.55 73.25C70.68 72.99 70.84 72.74 70.99 72.49L71.05 72.39L71.23 72.13C71.35 71.94 71.49 71.76 71.62 71.59L71.84 71.33C71.9796 71.1637 72.13 71.0067 72.29 70.86C72.36 70.79 72.42 70.72 72.5 70.65C72.72 70.44 72.958 70.25 73.21 70.08C73.458 69.91 73.72 69.76 73.99 69.63C74.07 69.63 74.16 69.55 74.24 69.51L74.67 69.34C74.7511 69.304 74.8346 69.2739 74.92 69.25L75.08 69.19C75.3827 69.1089 75.6899 69.0455 76 69H76.2C76.8934 68.9051 77.5966 68.9051 78.29 69L78.61 69.06C78.84 69.06 79.06 69.15 79.28 69.21L79.63 69.32L79.78 69.38L80.19 69.54C80.3 69.587 80.406 69.64 80.51 69.7L80.64 69.77C80.83 69.88 81.03 69.98 81.22 70.11C81.48 70.29 81.727 70.486 81.96 70.7L82.15 70.91C82.284 71.033 82.411 71.163 82.53 71.3L82.7 71.79L82.92 72.4L83.55 74L89.39 90.34C89.3528 90.2938 89.309 90.2534 89.26 90.22ZM68.83 90.22H68.77C68.4486 89.9793 68.1148 89.7557 67.77 89.55C67.4462 89.3678 67.1123 89.2042 66.77 89.06C65.5075 88.5124 64.1461 88.2299 62.77 88.23C61.0577 88.2311 59.3731 88.662 57.8705 89.4831C56.368 90.3043 55.0956 91.4894 54.17 92.93L54.11 93.01H51.17L44.88 75.38L44.27 73.66H49.44C49.5784 73.6592 49.714 73.6205 49.8321 73.5483C49.9502 73.476 50.0463 73.3729 50.11 73.25C50.23 73.02 50.36 72.81 50.49 72.6L50.58 72.44L50.79 72.13C50.91 71.95 51.03 71.78 51.16 71.62L51.39 71.34C51.53 71.18 51.68 71.02 51.83 70.87C51.98 70.72 51.97 70.72 52.05 70.66C52.4946 70.2549 52.9967 69.9179 53.54 69.66L53.77 69.55L54.14 69.41L54.49 69.27H54.62C54.9183 69.1822 55.2224 69.1154 55.53 69.07H55.75C56.0817 69.0278 56.4156 69.0044 56.75 69C57.105 68.997 57.459 69.02 57.81 69.07H58.13C58.36 69.07 58.58 69.16 58.8 69.22L59.12 69.32L59.33 69.4L59.73 69.56L59.99 69.67C60.242 69.798 60.486 69.941 60.72 70.1C60.98 70.28 61.227 70.476 61.46 70.69L61.55 70.77L61.68 70.92C61.814 71.043 61.941 71.173 62.06 71.31L62.11 71.45L62.24 71.82L62.5 72.55L62.69 73.08L62.93 73.74L69 90.31C68.9466 90.2743 68.8896 90.2441 68.83 90.22ZM48.47 90.22L48.3 90.1C47.9798 89.8668 47.6459 89.653 47.3 89.46C46.9774 89.2786 46.6433 89.1183 46.3 88.98C44.0836 88.0542 41.6118 87.9386 39.3187 88.6536C37.0255 89.3686 35.0575 90.8685 33.76 92.89C33.7551 92.9164 33.7551 92.9436 33.76 92.97H30.86L24.53 75.38L24.37 75L24 73.88L23.93 73.69H29.1C29.2384 73.6892 29.374 73.6505 29.4921 73.5783C29.6102 73.506 29.7063 73.4029 29.77 73.28C29.91 73.02 30.06 72.77 30.21 72.52L30.27 72.42L30.45 72.16C30.58 71.97 30.71 71.79 30.85 71.62L31.06 71.36L31.51 70.88L31.72 70.68C31.9427 70.4732 32.18 70.2827 32.43 70.11C32.678 69.94 32.94 69.79 33.21 69.66C33.29 69.66 33.38 69.58 33.46 69.54L33.89 69.37L34.14 69.28L34.3 69.22C34.6 69.137 34.903 69.07 35.21 69.02H35.41C36.1034 68.9251 36.8066 68.9251 37.5 69.02L37.82 69.08C38.05 69.08 38.27 69.17 38.49 69.23L38.83 69.34L39 69.4L39.4 69.56L39.72 69.71L39.83 69.78C40.037 69.885 40.237 70.002 40.43 70.13C40.6918 70.3069 40.9393 70.5042 41.17 70.72L41.37 70.93C41.5 71.053 41.624 71.183 41.74 71.32L41.91 71.81L42.12 72.42L42.5 73.48L42.66 73.92L48.6 90.31C48.5591 90.2766 48.5156 90.2465 48.47 90.22ZM56.27 48L56.4 48.37L56.66 49.1L57.08 50.28L63 66.88L62.87 66.8H62.81C62.1946 66.3284 61.5227 65.9353 60.81 65.63C59.5457 65.0893 58.185 64.8104 56.81 64.81H56.17C55.1435 64.8712 54.1321 65.087 53.17 65.45C52.1916 65.8226 51.2773 66.3456 50.46 67C50.4 67 50.35 67.1 50.29 67.15C49.6599 67.6649 49.0926 68.2523 48.6 68.9C48.45 69.1 48.33 69.31 48.19 69.51L48.13 69.6H45.24L45.18 69.46L39 52L38.75 51.3L38.38 50.3H43.5C43.6384 50.2992 43.774 50.2605 43.8921 50.1883C44.0102 50.116 44.1063 50.0129 44.17 49.89C44.27 49.69 44.39 49.51 44.5 49.32L44.62 49.12C44.6875 49.003 44.761 48.8895 44.84 48.78C44.96 48.61 45.08 48.44 45.21 48.28C45.2811 48.179 45.3579 48.0822 45.44 47.99C45.58 47.83 45.73 47.67 45.88 47.52L46.1 47.3C46.3314 47.0921 46.5752 46.8985 46.83 46.72C47.0739 46.5547 47.3277 46.4044 47.59 46.27L47.81 46.17L48.14 46.04L48.58 45.87H48.66C48.9614 45.7812 49.2689 45.7144 49.58 45.67H49.82C50.1515 45.6235 50.4854 45.5968 50.82 45.59C51.1713 45.5952 51.522 45.6219 51.87 45.67L52.17 45.72C52.4024 45.7584 52.6327 45.8084 52.86 45.87L53.15 45.95L53.54 46.1L53.88 46.24L54 46.29C54.284 46.43 54.558 46.59 54.82 46.77C55.089 46.954 55.343 47.157 55.58 47.38C55.62 47.414 55.656 47.45 55.69 47.49L55.82 47.62C55.96 47.77 56.11 47.92 56.25 48.08L56.27 48ZM36 48.38L36.22 48.99L36.75 50.48L42.61 66.85L42.49 66.77L42.32 66.65C41.9976 66.4169 41.6639 66.2 41.32 66C40.9973 65.8216 40.6633 65.6646 40.32 65.53C39.0728 65.0057 37.733 64.737 36.38 64.74H35.74C34.7135 64.8012 33.7021 65.017 32.74 65.38C31.7847 65.7805 30.8975 66.327 30.11 67C30.0488 67.0446 29.9919 67.0948 29.94 67.15C29.3068 67.6648 28.7362 68.2521 28.24 68.9C28.09 69.1 27.97 69.31 27.84 69.51L27.78 69.6H24.88L24.83 69.46L18.59 52V51.95L18.07 50.5L18 50.24H23.11C23.2484 50.2392 23.384 50.2005 23.5021 50.1283C23.6202 50.056 23.7163 49.9529 23.78 49.83C23.91 49.59 24.04 49.37 24.18 49.14C24.18 49.14 24.23 49.05 24.26 49C24.29 48.95 24.39 48.8 24.46 48.71C24.53 48.62 24.71 48.36 24.84 48.19C24.97 48.02 24.99 48 25.07 47.92C25.15 47.84 25.36 47.6 25.51 47.45L25.72 47.23C25.9486 47.0261 26.1891 46.8358 26.44 46.66C26.6864 46.4931 26.9436 46.3428 27.21 46.21L27.45 46.1C27.58 46.04 27.72 46 27.85 45.95L28.16 45.82H28.3C28.5968 45.7264 28.9013 45.6595 29.21 45.62C29.2832 45.6145 29.3568 45.6145 29.43 45.62C29.7614 45.5735 30.0954 45.5468 30.43 45.54C30.7879 45.5454 31.1452 45.5721 31.5 45.62L31.82 45.67C32.04 45.67 32.27 45.76 32.48 45.82L32.81 45.92L33.15 46.05L33.41 46.15L33.68 46.28H33.75C33.994 46.397 34.228 46.534 34.45 46.69C34.72 46.876 34.977 47.08 35.22 47.3L35.41 47.5C35.55 47.64 35.68 47.77 35.81 47.92L36 48.38ZM83.33 66.8L83.16 66.68C82.83 66.45 82.49 66.23 82.16 66.03C81.83 65.83 81.52 65.7 81.16 65.56C79.9128 65.0357 78.573 64.767 77.22 64.77H76.57C75.5435 64.8312 74.5321 65.047 73.57 65.41C72.6031 65.7987 71.7024 66.335 70.9 67C70.84 67 70.79 67.1 70.73 67.15C70.0882 67.6501 69.5075 68.224 69 68.86C68.85 69.06 68.72 69.27 68.59 69.47L68.54 69.56H65.68L65.62 69.42L59.39 52L59 50.89L58.77 50.24H63.89C64.0284 50.2392 64.164 50.2005 64.2821 50.1283C64.4002 50.056 64.4962 49.9529 64.56 49.83C64.68 49.59 64.82 49.37 64.96 49.14C64.96 49.14 65.01 49.05 65.04 49C65.1009 48.8995 65.1677 48.8027 65.24 48.71C65.36 48.53 65.49 48.36 65.62 48.19L65.84 47.92C65.9796 47.7537 66.13 47.5967 66.29 47.45L66.5 47.23C66.7286 47.0261 66.9691 46.8358 67.22 46.66C67.4637 46.4888 67.7213 46.3383 67.99 46.21L68.23 46.1C68.36 46.04 68.49 46 68.62 45.95L68.93 45.82H69.07C69.37 45.726 69.678 45.66 69.99 45.62H70.2C70.5315 45.5739 70.8654 45.5472 71.2 45.54C71.5579 45.5456 71.9152 45.5723 72.27 45.62L72.58 45.67C72.806 45.708 73.03 45.758 73.25 45.82L73.58 45.92L74 46L74.25 46.1L74.54 46.23H74.6C74.8401 46.3547 75.0738 46.4916 75.3 46.64C75.569 46.824 75.823 47.027 76.06 47.25C76.13 47.32 76.18 47.39 76.25 47.45L76.64 47.87L76.79 48.28L77.01 48.89L77.55 50.42L83.4 66.75L83.33 66.8ZM103.82 66.88L103.69 66.8C101.926 65.4929 99.7858 64.7913 97.59 64.8H96.94C94.8686 64.9458 92.8892 65.7124 91.26 67C91.2 67 91.15 67.1 91.09 67.15C90.4592 67.6674 89.8889 68.2545 89.39 68.9C89.25 69.1 89.12 69.31 88.99 69.51C88.9867 69.5399 88.9867 69.5701 88.99 69.6H86V69.46L79.75 52V51.9L79.17 50.28H84.29C84.4275 50.2807 84.5623 50.2426 84.6791 50.1701C84.7958 50.0976 84.8897 49.9935 84.95 49.87C85.08 49.63 85.22 49.41 85.36 49.18L85.4 49L85.59 48.71C85.72 48.53 85.84 48.35 85.98 48.19C86.0478 48.0956 86.1213 48.0055 86.2 47.92C86.34 47.75 86.49 47.6 86.64 47.45L86.86 47.23C87.0886 47.0261 87.3291 46.8358 87.58 46.66C87.8237 46.4888 88.0813 46.3383 88.35 46.21L88.59 46.1C88.71 46.04 88.85 46 88.98 45.95L89.29 45.82H89.43C89.7271 45.7275 90.0315 45.6606 90.34 45.62C90.4132 45.6151 90.4867 45.6151 90.56 45.62C90.8915 45.5736 91.2254 45.5468 91.56 45.54C91.9246 45.5456 92.2885 45.5724 92.65 45.62L92.97 45.68C93.196 45.718 93.42 45.768 93.64 45.83L93.99 45.94L94.27 46.05L94.55 46.16L94.88 46.32L95.01 46.4C95.208 46.496 95.398 46.607 95.58 46.73C95.847 46.916 96.1 47.12 96.34 47.34L96.58 47.58C96.72 47.73 96.87 47.88 97.01 48.04L97.15 48.45L98.27 51.57L103.82 66.88ZM72.9 24H74.9C74.9663 24.0099 75.0337 24.0099 75.1 24C75.291 23.9553 75.4565 23.8366 75.56 23.67C76.3317 22.3438 77.4379 21.2433 78.768 20.4784C80.0981 19.7135 81.6056 19.311 83.14 19.311C84.6744 19.311 86.1819 19.7135 87.512 20.4784C88.8421 21.2433 89.9483 22.3438 90.72 23.67L90.9 24.18L91.19 25L97.81 43.47L97.68 43.39C95.9156 42.0829 93.7758 41.3813 91.58 41.39H90.98C88.8808 41.5039 86.8685 42.2655 85.22 43.57L85.01 43.75C84.386 44.2689 83.8255 44.8597 83.34 45.51C83.21 45.68 83.1 45.87 82.98 46.05V46.14H80V46L72.36 24.63L72.15 24H72.9ZM52.54 24H54.54C54.603 24.0098 54.667 24.0098 54.73 24C54.921 23.9553 55.0865 23.8366 55.19 23.67C55.9488 22.3654 57.0317 21.2789 58.3339 20.516C59.636 19.753 61.1132 19.3394 62.6222 19.3153C64.1313 19.2911 65.6209 19.6573 66.9468 20.3782C68.2727 21.0991 69.3899 22.1503 70.19 23.43L70.32 23.63L70.5 24.14L70.62 24.47L70.8 24.96L71.02 25.57L77.41 43.43L77.28 43.35L77.11 43.23C76.78 43 76.44 42.78 76.11 42.58C75.78 42.38 75.47 42.25 75.11 42.11C73.8624 41.5867 72.5229 41.3181 71.17 41.32H70.57C69.5437 41.3824 68.5324 41.5981 67.57 41.96C66.59 42.33 65.671 42.849 64.85 43.5L64.64 43.68C64.0223 44.2224 63.4718 44.8368 63 45.51C62.87 45.68 62.76 45.87 62.64 46.05C62.6272 46.082 62.6104 46.1122 62.59 46.14H59.69V45.99L52 24.63L51.79 24H52.54ZM32.11 24H34.11C34.173 24.0098 34.237 24.0098 34.3 24C34.4938 23.9557 34.6625 23.8372 34.77 23.67C35.5295 22.3514 36.6198 21.2536 37.9332 20.4851C39.2466 19.7166 40.7377 19.3039 42.2593 19.2877C43.781 19.2715 45.2805 19.6525 46.6099 20.393C47.9393 21.1334 49.0527 22.2078 49.84 23.51L49.92 23.63L50.1 24.14L50.27 24.59L50.4 24.96L50.66 25.69L57 43.46L56.87 43.38H56.81C56.1946 42.9084 55.5227 42.5153 54.81 42.21C53.5457 41.6693 52.185 41.3904 50.81 41.39H50.21C48.1108 41.5039 46.0985 42.2655 44.45 43.57L44.24 43.75C43.6185 44.2715 43.0582 44.862 42.57 45.51C42.44 45.68 42.33 45.87 42.21 46.05L42.15 46.14H39.25L39.19 46L31.56 24.63L31.35 24H32.11ZM11.75 24H13.75C13.8323 24.0182 13.9177 24.0182 14 24C14.0952 23.9795 14.1852 23.9396 14.2643 23.8828C14.3434 23.8261 14.4101 23.7536 14.46 23.67C15.2168 22.363 16.2991 21.2742 17.6015 20.5094C18.9038 19.7447 20.382 19.33 21.8921 19.3059C23.4022 19.2817 24.8929 19.6489 26.219 20.3715C27.5452 21.0942 28.6617 22.1479 29.46 23.43C29.51 23.494 29.557 23.561 29.6 23.63L29.78 24.14L29.9 24.47L30.07 24.96L30.29 25.57L36.68 43.43L36.56 43.35L36.39 43.23C36.0676 42.9969 35.7339 42.78 35.39 42.58C35.0673 42.4016 34.7333 42.2446 34.39 42.11C33.1428 41.5857 31.803 41.317 30.45 41.32H29.86C28.8334 41.3804 27.8219 41.5962 26.86 41.96C25.877 42.3316 24.9565 42.8509 24.13 43.5L23.93 43.68C23.3029 44.1987 22.739 44.7894 22.25 45.44C22.13 45.61 22.01 45.8 21.9 45.98L21.84 46.07H18.89L18.84 46L11.2 24.63L11 24H11.75ZM16.75 51.41L15.91 49L15.52 47.85L15.22 46.96L15.53 47.83L15.93 48.95L16.93 51.72C16.8484 51.6444 16.7836 51.5524 16.74 51.45L16.75 51.41ZM22.69 74.84L21.86 72.4L21.46 71.25L21.15 70.34L21.46 71.22L21.86 72.34L22.86 75.11C22.7851 75.0462 22.7239 74.968 22.68 74.88L22.69 74.84Z" fill="#E97158"/>
</svg>
