<svg width="120" height="120" viewBox="0 0 120 120" fill="none" xmlns="http://www.w3.org/2000/svg">
<path d="M117.1 88.18C117.11 88.1305 117.11 88.0795 117.1 88.03L111.24 71.76V71.69L110.58 69.85L111.16 68.42C111.175 68.3374 111.175 68.2526 111.16 68.17C111.165 68.1335 111.165 68.0965 111.16 68.06C111.17 68.0105 111.17 67.9595 111.16 67.91L105.27 51.6L104.59 49.69V49.63L105.14 48.27C105.155 48.1874 105.155 48.1026 105.14 48.02V47.91C105.146 47.8635 105.146 47.8165 105.14 47.77L97.87 27.4L97.81 27.28C97.2745 26.3369 96.5063 25.5466 95.5787 24.9846C94.6511 24.4226 93.5951 24.1075 92.5112 24.0694C91.4273 24.0313 90.3517 24.2714 89.3869 24.7669C88.4222 25.2625 87.6004 25.9968 87 26.9H66.6C66.0191 26.0358 65.2346 25.3278 64.3156 24.8382C63.3966 24.3486 62.3713 24.0925 61.33 24.0925C60.2887 24.0925 59.2634 24.3486 58.3444 24.8382C57.4254 25.3278 56.6409 26.0358 56.06 26.9H35.85C35.2691 26.0358 34.4846 25.3278 33.5656 24.8382C32.6466 24.3486 31.6213 24.0925 30.58 24.0925C29.5387 24.0925 28.5134 24.3486 27.5944 24.8382C26.6754 25.3278 25.8909 26.0358 25.31 26.9H4.52999C4.42228 26.9052 4.31678 26.9325 4.21999 26.98C4.13563 27.0414 4.0614 27.1156 3.99999 27.2L2.39999 29.8C2.34569 29.8965 2.31229 30.0034 2.30196 30.1136C2.29162 30.2239 2.30458 30.3351 2.33999 30.44L8.99999 48.9L8.34999 50C8.29593 50.0948 8.26262 50.1999 8.25228 50.3086C8.24194 50.4172 8.25479 50.5267 8.28999 50.63L14.94 69.09L14.3 70.15C14.2438 70.2458 14.2094 70.3528 14.199 70.4633C14.1886 70.5739 14.2026 70.6854 14.24 70.79L21.55 91.11C21.6035 91.2548 21.7004 91.3796 21.8275 91.4673C21.9546 91.555 22.1056 91.6013 22.26 91.6H44.47C44.6037 91.6001 44.735 91.5651 44.8509 91.4984C44.9667 91.4317 45.063 91.3357 45.13 91.22C45.5831 90.3524 46.2635 89.6243 47.0983 89.1135C47.9332 88.6027 48.8913 88.3284 49.87 88.32C50.3871 88.3175 50.9009 88.402 51.39 88.57L52.31 91.11C52.41 91.41 52.694 91.608 53.01 91.6H75.22C75.3537 91.6001 75.485 91.5651 75.6009 91.4984C75.7167 91.4317 75.813 91.3357 75.88 91.22C76.3347 90.3517 77.0169 89.6232 77.8535 89.1124C78.6901 88.6016 79.6498 88.3277 80.63 88.32C81.229 88.3175 81.823 88.4295 82.38 88.65L83.27 91.11C83.3204 91.2549 83.4152 91.3802 83.5408 91.4681C83.6665 91.5561 83.8166 91.6022 83.97 91.6H106.19C106.323 91.6017 106.453 91.5672 106.568 91.5003C106.682 91.4333 106.776 91.3364 106.84 91.22C107.295 90.3517 107.977 89.6232 108.813 89.1124C109.65 88.6016 110.61 88.3277 111.59 88.32C112.369 88.31 113.138 88.5029 113.82 88.88C114.36 89.15 114.78 89.609 115 90.17C115.047 90.3169 115.139 90.4456 115.262 90.5386C115.385 90.6317 115.533 90.6846 115.687 90.69C115.842 90.6955 115.994 90.6533 116.123 90.5692C116.252 90.4851 116.353 90.3631 116.41 90.22L117.08 88.58C117.09 88.5003 117.09 88.4197 117.08 88.34C117.099 88.2889 117.106 88.2342 117.1 88.18Z" fill="#757575"/>
<path d="M100.5 71.36C100.414 71.3751 100.326 71.3751 100.24 71.36H80.24L80.94 73.36H100.27C100.402 73.3596 100.532 73.3242 100.646 73.2575C100.76 73.1907 100.855 73.095 100.92 72.98L101.04 72.77L100.5 71.36ZM94.94 52.82L95.06 52.61L94.55 51.2C94.464 51.2151 94.376 51.2151 94.29 51.2H74.29L74.87 52.8L74.99 53.15H94.29C94.4177 53.1568 94.545 53.1299 94.6591 53.0719C94.7732 53.014 94.8701 52.9271 94.94 52.82ZM69.28 71.41H49.44V71.5C49.4545 71.5861 49.4545 71.6739 49.44 71.76V71.84L49.98 73.34H69.28C69.412 73.3386 69.5414 73.3028 69.6553 73.2362C69.7693 73.1695 69.864 73.0743 69.93 72.96L70.05 72.75L69.54 71.34C69.4583 71.3788 69.3702 71.4025 69.28 71.41ZM64 52.82L64.12 52.61L63.61 51.2C63.524 51.2151 63.436 51.2151 63.35 51.2H43.49C43.523 51.315 43.546 51.432 43.56 51.55V51.61L43.71 52.04L44.1 53.11H63.33C63.4573 53.1247 63.5862 53.1057 63.7038 53.0548C63.8215 53.0039 63.9236 52.9229 64 52.82ZM38.52 71.41H18.52L19.23 73.41H38.52C38.6533 73.4084 38.784 73.3725 38.8995 73.306C39.0151 73.2395 39.1116 73.1445 39.18 73.03L39.3 72.82L38.79 71.41C38.7007 71.4261 38.6093 71.4261 38.52 71.41ZM33.23 52.82L33.35 52.61L32.84 51.2C32.754 51.2151 32.666 51.2151 32.58 51.2H12.58L13 52.62L13.21 53.2H32.58C32.7124 53.2006 32.8426 53.1657 32.9569 53.0988C33.0713 53.032 33.1656 52.9357 33.23 52.82Z" fill="#9E9E9E"/>
<path d="M100.5 71.36H100.58L100.44 71.42L100.5 71.36ZM109.55 71.54C109.292 71.1684 108.949 70.8634 108.55 70.65H108.46C108.142 70.4904 107.807 70.3695 107.46 70.29C106.995 70.1769 106.518 70.1198 106.04 70.12C105.055 70.111 104.083 70.3445 103.21 70.8C102.322 71.258 101.575 71.9495 101.05 72.8L106.33 87.46C107.185 86.2222 108.452 85.3297 109.906 84.943C111.36 84.5562 112.903 84.7005 114.26 85.35L114.61 85.53L112.43 79.53L109.55 71.54ZM94.55 51.2H94.63L94.49 51.25L94.55 51.2ZM100.34 67.28C100.445 67.1241 100.559 66.9739 100.68 66.83C101.113 66.3184 101.622 65.8766 102.19 65.52C103.192 64.8808 104.352 64.5344 105.54 64.52C106.483 64.5222 107.412 64.7376 108.26 65.15C108.382 65.2 108.499 65.26 108.61 65.33L106.44 59.27L103.58 51.34C103.322 50.9684 102.979 50.6634 102.58 50.45H102.49C102.172 50.2938 101.836 50.1762 101.49 50.1C101.025 49.9864 100.548 49.9293 100.07 49.93C99.0855 49.9242 98.1144 50.1576 97.24 50.61C96.3559 51.0741 95.6106 51.7642 95.08 52.61L99.93 66.08L100.21 66.84L100.28 67.06L100.34 67.28ZM94.39 47.12C94.5 46.97 94.61 46.82 94.74 46.67C95.1696 46.1588 95.6756 45.7169 96.24 45.36C97.2413 44.7203 98.4018 44.3738 99.59 44.36C100.531 44.3635 101.46 44.5752 102.31 44.98L102.67 45.16L100.49 39.11L97.21 30.01L96.49 28C96.0589 27.2694 95.4448 26.6638 94.7083 26.243C93.9718 25.8221 93.1383 25.6005 92.29 25.6C91.5163 25.6006 90.7544 25.7893 90.07 26.15C89.3949 26.4981 88.8097 26.9979 88.36 27.61C88.26 27.75 88.16 27.89 88.07 28.04C87.9724 28.1973 87.8187 28.3117 87.64 28.36L87.85 28.94L93.96 45.94L94.24 46.7L94.31 46.92L94.39 47.12ZM49.55 71.86L49.52 71.78L55.19 87.53L50.09 73.36L49.55 71.86ZM69.54 71.36C69.5631 71.3646 69.5869 71.3646 69.61 71.36C69.5696 71.3859 69.5259 71.4061 69.48 71.42L69.54 71.36ZM78.59 71.54C78.5525 71.4944 78.5125 71.451 78.47 71.41C78.217 71.0914 77.9003 70.8291 77.54 70.64L77.25 70.51L76.85 70.37L76.57 70.28C76.42 70.28 76.26 70.22 76.1 70.19C75.7695 70.1355 75.435 70.1087 75.1 70.11C74.1152 70.101 73.1432 70.3345 72.27 70.79C71.3799 71.2455 70.6325 71.9375 70.11 72.79L75.39 87.45C75.9739 86.6085 76.7526 85.9208 77.6599 85.4454C78.5671 84.97 79.5758 84.7211 80.6 84.72H81.05C81.3319 84.7406 81.6123 84.7773 81.89 84.83C82.192 84.895 82.49 84.982 82.78 85.09C82.967 85.153 83.151 85.226 83.33 85.31L83.68 85.49L81.5 79.49L78.59 71.54ZM44.14 53.2L43.75 52.13L49.18 67.22L44.14 53.2ZM63.59 51.2H63.66L63.53 51.25L63.59 51.2ZM69.38 67.28C69.8778 66.5763 70.5099 65.9782 71.24 65.52C72.238 64.8811 73.3951 64.5346 74.58 64.52H75.03C75.313 64.539 75.593 64.579 75.87 64.64C76.368 64.74 76.851 64.902 77.31 65.12C77.432 65.17 77.549 65.23 77.66 65.3L75.5 59.32L72.64 51.38L72.52 51.25C72.2691 50.9319 71.9517 50.6725 71.59 50.49L71.3 50.36L70.9 50.22L70.62 50.14L70.05 50C69.7195 49.9455 69.385 49.9188 69.05 49.92C68.0655 49.9142 67.0944 50.1476 66.22 50.6C65.334 51.0613 64.588 51.752 64.06 52.6L69 66.08L69.27 66.84L69.35 67.06L69.38 67.28ZM63.43 47.12L63.77 46.67C64.2031 46.1584 64.7124 45.7166 65.28 45.36C66.2809 44.7193 67.4417 44.3728 68.63 44.36H69.07C69.352 44.376 69.633 44.412 69.91 44.47C70.212 44.532 70.51 44.616 70.8 44.72C70.987 44.786 71.171 44.863 71.35 44.95C71.47 45.004 71.586 45.064 71.7 45.13L69.53 39.08L66.25 29.99L66.04 29.39L65.71 28.48L65.51 27.91L65.33 27.65C64.8882 26.9943 64.2928 26.4565 63.5956 26.0835C62.8985 25.7105 62.1207 25.5136 61.33 25.51C60.5562 25.5094 59.794 25.6982 59.11 26.06C58.4263 26.4309 57.8402 26.9587 57.4 27.6C57.3 27.74 57.2 27.88 57.11 28.03C57.0108 28.1901 56.8529 28.305 56.67 28.35L56.88 28.93L62.99 45.93L63.26 46.69L63.34 46.91L63.43 47.12ZM38.79 71.36C38.8131 71.3646 38.8369 71.3646 38.86 71.36C38.8187 71.3841 38.7751 71.4042 38.73 71.42L38.79 71.36ZM47.83 71.53L47.72 71.41L47.61 71.28C47.3691 71.0239 47.0889 70.8079 46.78 70.64H46.7L46.55 70.57L46.17 70.41L45.83 70.31H45.73C45.5097 70.2546 45.2858 70.2146 45.06 70.19C44.8071 70.1698 44.5529 70.1698 44.3 70.19C43.3185 70.1826 42.3502 70.4161 41.48 70.87C40.5899 71.3255 39.8425 72.0175 39.32 72.87L44.6 87.53C45.1827 86.6873 45.9612 85.9986 46.8687 85.5231C47.7761 85.0476 48.7855 84.7995 49.81 84.8H50.05C50.325 84.806 50.599 84.833 50.87 84.88C51.4455 84.9726 52.0046 85.1477 52.53 85.4L52.72 85.5L52.89 85.58L50.71 79.58L47.83 71.53ZM32.84 51.2H32.91L32.78 51.25L32.84 51.2ZM38.63 67.28C39.1281 66.5802 39.7562 65.9826 40.48 65.52C41.4822 64.8822 42.6422 64.536 43.83 64.52H44.07C44.345 64.531 44.618 64.558 44.89 64.6C45.188 64.65 45.482 64.72 45.77 64.81C46.04 64.898 46.305 65.005 46.56 65.13L46.74 65.22L46.91 65.31L44.73 59.26L41.88 51.32C41.8425 51.2744 41.8025 51.231 41.76 51.19L41.65 51.07C41.4145 50.808 41.1332 50.5912 40.82 50.43C40.7936 50.4246 40.7664 50.4246 40.74 50.43L40.59 50.36C40.46 50.31 40.34 50.25 40.21 50.21L39.87 50.11H39.77C39.55 50.06 39.33 50.02 39.1 49.99C38.8469 49.9748 38.5931 49.9748 38.34 49.99C37.3555 49.9842 36.3844 50.2176 35.51 50.67C34.624 51.1313 33.878 51.822 33.35 52.67L38.2 66.08L38.47 66.84L38.55 67.06L38.63 67.28ZM40.65 48.84C40.698 48.8747 40.7416 48.9149 40.78 48.96C40.7418 48.9118 40.6982 48.8682 40.65 48.83H40.59L40.65 48.84ZM32.68 47.12L33.03 46.67C33.4631 46.1584 33.9724 45.7166 34.54 45.36C35.5378 44.7206 36.695 44.3741 37.88 44.36H38.13C38.405 44.371 38.678 44.398 38.95 44.44C39.248 44.493 39.542 44.567 39.83 44.66C40.1 44.744 40.364 44.848 40.62 44.97L40.8 45.06L40.97 45.15L38.8 39.16L35.52 30.07L35.23 29.25L34.9 28.34L34.77 28C34.7159 27.903 34.6557 27.8095 34.59 27.72L34.49 27.58C34.0416 26.9625 33.4538 26.4596 32.7744 26.1121C32.0949 25.7645 31.3431 25.5822 30.58 25.58C29.8062 25.5794 29.044 25.7682 28.36 26.13C27.6831 26.4754 27.0972 26.9756 26.65 27.59C26.55 27.73 26.45 27.87 26.36 28.02C26.2586 28.178 26.1015 28.2922 25.92 28.34L26.13 28.92L32.24 45.92L32.51 46.68L32.59 46.9L32.68 47.12Z" fill="#E0E0E0"/>
<path d="M100.24 73.36H80.91L86 87.54H106.21L106.28 87.43L101 72.77L100.88 72.98C100.816 73.0936 100.723 73.1884 100.61 73.255C100.498 73.3216 100.371 73.3578 100.24 73.36ZM109.13 70.37L109.03 70.1L108.85 69.61C108.819 69.556 108.782 69.5057 108.74 69.46C108.699 69.3873 108.648 69.3201 108.59 69.26C108.572 69.2319 108.548 69.208 108.52 69.19C108.496 69.1609 108.469 69.1341 108.44 69.11C108.381 69.0482 108.318 68.9913 108.25 68.94C108.141 68.8576 108.027 68.7808 107.91 68.71C107.754 68.6162 107.59 68.5359 107.42 68.47H107.31L106.88 68.33H106.68L106.31 68.26H104.96L104.55 68.33L104.34 68.39C104.2 68.4228 104.063 68.4662 103.93 68.52L103.75 68.59C103.549 68.6615 103.354 68.7519 103.17 68.86C102.997 68.96 102.83 69.07 102.67 69.19L102.5 69.33C102.373 69.425 102.253 69.5286 102.14 69.64L101.96 69.82L101.87 69.92C101.782 70.0123 101.698 70.1091 101.62 70.21L101.47 70.4C101.309 70.6133 101.162 70.8371 101.03 71.07C100.969 71.1666 100.887 71.2486 100.79 71.31H100.64L101.15 72.72C101.675 71.8695 102.422 71.178 103.31 70.72C104.183 70.2645 105.155 70.031 106.14 70.04C106.618 70.0399 107.095 70.0969 107.56 70.21C107.907 70.29 108.242 70.41 108.56 70.57H108.65C109.049 70.7834 109.392 71.0884 109.65 71.46L109.28 70.46L109.13 70.37ZM99.32 67.38H100.32L100.39 67.28L100.31 67.06L100.24 66.84L99.96 66.08L95.06 52.61L94.94 52.82C94.8764 52.9364 94.7823 53.0333 94.6678 53.1003C94.5532 53.1672 94.4226 53.2017 94.29 53.2H75L80.05 67.2V67.36H99.32V67.38ZM97.22 50.6C98.0944 50.1476 99.0655 49.9142 100.05 49.92C100.528 49.92 101.005 49.976 101.47 50.09C101.816 50.1662 102.152 50.2837 102.47 50.44H102.56C102.959 50.6534 103.302 50.9584 103.56 51.33L103.45 51.04L103.14 50.17L102.86 49.4L102.76 49.25L102.61 49.05C102.582 49.032 102.558 49.0081 102.54 48.98L102.45 48.91L102.26 48.73C102.151 48.6476 102.037 48.5708 101.92 48.5C101.766 48.4114 101.606 48.3345 101.44 48.27H101.29L100.9 48.14H100.69L100.35 48.07H99.01L98.6 48.15H98.39L97.98 48.28L97.8 48.35C97.6021 48.4298 97.4085 48.5199 97.22 48.62C97.044 48.72 96.874 48.83 96.71 48.95L96.54 49.09C96.42 49.19 96.3 49.29 96.18 49.41L96 49.58L95.92 49.68C95.83 49.77 95.75 49.87 95.66 49.97L95.51 50.16C95.36 50.37 95.21 50.59 95.07 50.83C95.0051 50.9267 94.9239 51.0113 94.83 51.08H94.68L95.19 52.49C95.6991 51.7011 96.3968 51.0515 97.22 50.6ZM74.06 47.06L74.12 47.22H94.32C94.3466 47.1891 94.3701 47.1556 94.39 47.12L94.31 46.9L94.24 46.68L94 45.92L87.85 29L87.64 28.42C87.567 28.4304 87.493 28.4304 87.42 28.42H67.34V28.53L74.06 47.06ZM69.28 73.36H50.09L55.19 87.54H75.26L75.33 87.43L70.05 72.77L69.93 72.98C69.864 73.0943 69.7693 73.1895 69.6554 73.2561C69.5414 73.3228 69.412 73.3586 69.28 73.36ZM78.27 70.66L78.17 70.38L78 69.79L77.93 69.61C77.8968 69.5544 77.86 69.5009 77.82 69.45C77.7763 69.382 77.726 69.3183 77.67 69.26L77.53 69.12L77.36 68.97H77.31C77.2057 68.8854 77.0955 68.8085 76.98 68.74C76.8361 68.6548 76.6856 68.5812 76.53 68.52H76.43C76.2858 68.4659 76.1389 68.4192 75.99 68.38H75.8L75.43 68.31H74.81C74.6134 68.3001 74.4165 68.3001 74.22 68.31H74.08L73.66 68.38L73.46 68.44C73.3173 68.4742 73.177 68.5176 73.04 68.57L72.87 68.64C72.6686 68.7115 72.4744 68.8019 72.29 68.91H72.24C72.067 69.01 71.9 69.12 71.74 69.24L71.57 69.38C71.4398 69.4749 71.3162 69.5784 71.2 69.69L71.03 69.87L70.94 69.97C70.8518 70.0623 70.7683 70.1591 70.69 70.26L70.54 70.45C70.3751 70.6608 70.2279 70.8849 70.1 71.12C70.0374 71.2192 69.9516 71.3015 69.85 71.36H69.78C69.7569 71.3646 69.7331 71.3646 69.71 71.36L70.22 72.77C70.7425 71.9175 71.4899 71.2255 72.38 70.77C73.1893 70.3432 74.0855 70.1072 75 70.08C75.335 70.0787 75.6695 70.1055 76 70.16C76.16 70.16 76.32 70.16 76.47 70.25L76.75 70.34L77.15 70.48L77.44 70.61C77.8 70.8 78.117 71.061 78.37 71.38C78.412 71.421 78.453 71.464 78.49 71.51V71.38L78.27 70.66ZM68.36 67.38H69.36C69.3809 67.345 69.4043 67.3116 69.43 67.28L69.35 67.06L69.27 66.84L69 66.08L64.1 52.61L63.98 52.82C63.9164 52.9364 63.8223 53.0333 63.7078 53.1003C63.5932 53.1672 63.4626 53.2017 63.33 53.2H44.14L49.14 67.2L49.2 67.36H68.36V67.38ZM66.26 50.6C67.1344 50.1476 68.1055 49.9142 69.09 49.92C69.425 49.9187 69.7595 49.9455 70.09 50L70.56 50.09L70.84 50.17L71.24 50.31L71.53 50.44C71.892 50.623 72.21 50.882 72.46 51.2L72.58 51.33V51.2L72.31 50.45L72.21 50.18L72 49.58L71.93 49.4L71.83 49.25L71.68 49.05L71.61 49H71.54L71.37 48.84C71.2607 48.7576 71.1472 48.6808 71.03 48.61C70.884 48.5287 70.7338 48.4553 70.58 48.39L70.38 48.32L70.04 48.21H69.85L69.35 48H68L67.59 48.08H67.38L66.96 48.21L66.79 48.28C66.5921 48.3598 66.3985 48.4499 66.21 48.55C66.037 48.65 65.87 48.76 65.71 48.88L65.54 49.02C65.4097 49.1183 65.2861 49.2252 65.17 49.34L65 49.51L64.91 49.61L64.66 49.9L64.51 50.09C64.3496 50.304 64.2026 50.5278 64.07 50.76C64.0051 50.8599 63.9199 50.9451 63.82 51.01H63.68L64.19 52.42C64.7169 51.6498 65.4287 51.024 66.26 50.6ZM43.23 47.06L43.29 47.22H63.36L63.43 47.12L63.35 46.9L63.27 46.68L63 45.92L56.89 29L56.68 28.42C56.607 28.4304 56.533 28.4304 56.46 28.42H36.52V28.55L43.23 47.06ZM38.52 73.36H19.2L24.3 87.54H44.51L44.58 87.43L39.3 72.77L39.18 72.98C39.1116 73.0945 39.0151 73.1895 38.8995 73.256C38.784 73.3226 38.6533 73.3583 38.52 73.36ZM47.52 70.66L47.42 70.38L47.29 70L47.14 69.59L47 69.45C46.95 69.39 46.91 69.32 46.85 69.26L46.79 69.2L46.71 69.12L46.6 69H46.54L46.46 68.94C46.3279 68.8307 46.1794 68.743 46.02 68.68L45.72 68.53H45.49L45.18 68.43H44.98L44.61 68.36H43.99C43.7934 68.3501 43.5965 68.3501 43.4 68.36H43.26L42.84 68.43L42.64 68.49C42.4973 68.5242 42.357 68.5676 42.22 68.62L42.05 68.69C41.8486 68.7615 41.6544 68.8519 41.47 68.96C41.297 69.06 41.13 69.17 40.97 69.29L40.8 69.42C40.67 69.52 40.55 69.63 40.43 69.74L40.26 69.92L40.17 70.02C40.0818 70.1123 39.9983 70.2091 39.92 70.31L39.77 70.5C39.6017 70.7084 39.4544 70.9328 39.33 71.17C39.2674 71.2692 39.1816 71.3516 39.08 71.41H39.01C38.9869 71.4146 38.9631 71.4146 38.94 71.41L39.45 72.82C39.9725 71.9675 40.7199 71.2755 41.61 70.82C42.4802 70.3661 43.4485 70.1326 44.43 70.14C44.683 70.12 44.937 70.12 45.19 70.14C45.416 70.165 45.64 70.205 45.86 70.26H45.96L46.3 70.36L46.68 70.52L46.83 70.59H46.91C47.219 70.758 47.5 70.974 47.74 71.23L47.85 71.36L47.96 71.48V71.36L47.52 70.66ZM37.61 67.38H38.61C38.6309 67.345 38.6543 67.3116 38.68 67.28L38.6 67.06L38.52 66.84L38.25 66.08L33.35 52.61L33.23 52.82C33.1656 52.9357 33.0713 53.032 32.9569 53.0988C32.8426 53.1657 32.7124 53.2006 32.58 53.2H13.25L18.25 67.2L18.31 67.36H37.61V67.38ZM35.51 50.6C36.3844 50.1476 37.3555 49.9142 38.34 49.92C38.5931 49.9048 38.8469 49.9048 39.1 49.92C39.33 49.92 39.55 49.99 39.77 50.04H39.87L40.21 50.14C40.34 50.14 40.46 50.24 40.59 50.29L40.74 50.36C40.7664 50.3546 40.7936 50.3546 40.82 50.36C41.1332 50.5212 41.4145 50.738 41.65 51L41.76 51.12C41.802 51.161 41.843 51.204 41.88 51.25V51.12L41.71 50.64L41.61 50.37L41.51 50.1L41.23 49.32C41.2032 49.2777 41.1731 49.2375 41.14 49.2C41.0965 49.1287 41.0463 49.0617 40.99 49H40.78C40.7416 48.9549 40.698 48.9147 40.65 48.88L40.59 48.82H40.46C40.3808 48.7544 40.2973 48.6943 40.21 48.64L40 48.43C39.9029 48.3773 39.8027 48.3306 39.7 48.29H39.47L39.16 48.19H38.95L38.6 48H37.27L36.86 48.08H36.65L36.23 48.21L36.06 48.28C35.8621 48.3598 35.6685 48.4499 35.48 48.55H35.43C35.257 48.65 35.09 48.76 34.93 48.88L34.76 49.02C34.6297 49.1183 34.5061 49.2252 34.39 49.34L34.22 49.51L34.13 49.61L33.88 49.9L33.73 50.09C33.5696 50.304 33.4226 50.5278 33.29 50.76C33.2251 50.8599 33.1399 50.9451 33.04 51.01H32.9L33.41 52.42C33.9453 51.6459 34.6677 51.0199 35.51 50.6ZM31.66 47.22H32.61L32.68 47.12L32.6 46.9L32.52 46.68L32.25 45.92L26.14 29L25.93 28.42C25.857 28.4304 25.783 28.4304 25.71 28.42H5.62999V28.53L12.31 47.08L12.36 47.24H31.66V47.22Z" fill="#BDBDBD"/>
</svg>
