<svg height="120" width="120" xmlns="http://www.w3.org/2000/svg"><g fill="none"><path d="m30.533 21.979.946-.324.324.945-.946.325zm.097.031-.04-.12z" fill="#95cad2"/><g fill="#a2d1d8"><path d="m31.34 24.12 1.25 3.7z"/><path d="m31.34 24.12 1.41 4.16-.16-.46zm-.664-1.953.948-.32.32.948-.949.32z"/><path d="m31.21 23.73-.26-.79.16.49zm.01.014.947-.32.32.948-.948.32zm-.11-.314.1.3z"/></g><path d="m27.55 82.3.34 1.02-.28-.84zm66.07-45.37-.13-.38.4 1.21zm1.21 3.61-.94-2.78.74 2.16zm4.56 13.47-.16-.45.79 2.31zm-16.34 32.76.58 1.74-1.03-3.04zm-43.56-29.86-1.82-5.36-.65-1.94-.01-.02.01.02-12.23 24.53 2.1 6.24 12.24-24.53zm53.41-22.08.59 1.72-4.33-12.82h-19.25l11.5 34.13zm-34.27 54.71h6.98l10.95-21.95.72 2.11.55 1.64-6.97-20.62-9.12-26.99h-.49l-14.8 29.69zm-3.49-65.81h-5.22l-8.04 16.13 2.1 6.25zm-25.2 4.93-1.67-4.93h-20.52l9.96 29.46.13.38-.13-.38zm53.84 36.22 3.4 10.07 11.49-23.05-2.52-7.46-.82-2.42-.5-1.48.5 1.48zm14.02 24.66 8.1-16.25-1.12-3.34-9.94 19.59zm-64.96 0h17.67l-8.91-26.39-12.24 24.53 1.52 4.5 1.27-2.24a.78.78 0 0 1 .69-.4zm78.56 0-4.23-12.51-6.35 12.51zm-31.5 0 2.43-4.87-1.39-4.13-2.62-7.75.58 1.73-7.59 15.02zm-38.34-35.11-1.04-3.1-.71-2.1 2.12-4.27 1.92 5.69-.16-.49-1.05-3.09-.71-2.11-.63-1.86-1.44-4.28-.03-.1-2.13 4.26-.34-1.02 4.75 14.1zm-2.44-17.82-1.59-4.7 1.86 5.5z" fill="#f9be77"/><path d="m112.76 91.12h-79.46l-1.16 2.03h81.12l.12-.21.52-.92.51-.9h-.82zm-82.07-69.23h-.1l.04.12zm11.58 34.65 11.13 33h3.56l-12.56-37.27zm43.2 18.27-1.34-3.96-2.41-7.15-.31-.92.31.92-2.14 4.22 1.15 3.42 2.27 6.73 2.13-4.26zm-5.59-16.57.2.59.3.91zm-15.47-35.3.27.79 4.94 14.66 7.62 22.59 2.12-4.26-11.12-32.99-.26-.79-.27-.78-.09-.27h-3.56l.09.27z" fill="#f9be77"/><path d="m41.17 37.75.26.77.45 1.34 8.04-16.13h-13.48l4.09 12.13zm-4.16 11.84-.7-2.09-5.66-16.73-.71-2.11-12.23 24.53.13.38.54 1.61.04.12 5.65 16.73.72 2.11 12.23-24.53zm19.89-25.86h-1.76l-11.16 22.38.72 2.11 1.04 3.09.71 2.11 14.8-29.69h-1.76zm-17.06 34.22-.35-1.04-.36-1.06-12.24 24.53.1.28.56 1.64.06.18.28.84.76 2.25.71 2.11 12.23-24.53-.71-2.11zm43.21 28.82-.45-1.3-.27-.8-2.43 4.87h4.08l-.35-1.03zm21.02-18.91-4.05-11.99-.63-1.86-.16-.45-.56-1.66-11.49 23.05.56 1.67.15.44.95 2.83 3.25 9.65h2.75l9.94-19.59zm1.83 5.43-8.1 16.25h3.02l6.35-12.51zm-23.77-13.32.1.3.84 2.51.71 2.1 11.55-22.86-.7-2.1-1.01-2.99-.72-2.1-11.49 23.03.62 1.83zm-3.94 12.45-.36-1.08-.55-1.64-.72-2.11-10.95 21.95h5.7l7.59-15.02-.58-1.73zm-47.24-49.48.26.79.13.39 1.25 3.7 4.4 13.05.33.98.04.11.34 1.02 2.13-4.26-.44-1.31-.27-.8-1.59-4.7-2.75-8.18-.27-.79-.27-.78-.08-.27h-3.47l-.06.12.05.15zm12.74 27.22-1.05-3.09-.71-2.11-2.12 4.27.71 2.1 1.04 3.1.55 1.63.16.48 2.13-4.27-.55-1.62zm42.15 25.76-.27-.78-.1-.33-.34-1-2.13 4.26.71 2.11 3.16 9.36h3.56l-.01-.03zm-4.43-13.14-.29-.86-.11-.32-.63-1.86-.3-.91-.2-.59-.52-1.52-2.12 4.26.71 2.11.55 1.65.37 1.09.32.95.39 1.14 2.14-4.22z" fill="#fbd3a4"/><path d="m116.45 89.93a.79.79 0 0 0 -.68-.39h-2.71l-22.59-66.85a.79.79 0 0 0 -.75-.53h-20.34l-.44-1.31a.8.8 0 0 0 -.75-.54h-5.26a.54.54 0 0 0 -.22 0h-.14l-.09.06-.09.09v.1a.47.47 0 0 0 -.05.1l-.47 1.32h-25.96l-.44-1.31a.8.8 0 0 0 -.75-.54h-5.26a.54.54 0 0 0 -.22 0h-.13l-.09.06-.08.09-.08.14-.47 1.32h-21.74a.69.69 0 0 0 -.37.1l-.11.08c0 .05-.12.08-.16.14s0 0 0 .05l-1.12 2a.8.8 0 0 0 -.06.64l24 71a.8.8 0 0 0 .75.54h83.02a.78.78 0 0 0 .68-.4l1.12-2 2-3.6a.8.8 0 0 0 .05-.36zm-27.29-66.2 7.06 20.9 2.45 7.27.56 1.66.79 2.31 4 12 .7 2.09 1.13 3.34 1.32 3.7 4.23 12.51h-19.31l-3.25-9.65-1-2.83-.15-.44-.51-1.59-3.4-10.09-.71-2.09-.84-2.51-.1-.3-.1-.28-.62-1.83-11.5-34.17zm-25.1-1.84h3.56l.09.27.27.78.26.79 11.12 33 .18.51 1.31 3.9.16.47.11.32.29.86 4 12 .11.32.27.78 4.58 13.59h-3.5l-3.16-9.36-.71-2.05-2.27-6.73-1.54-4.56-.32-1-.37-1.09-8.5-25.2-5.32-15.76-.27-.79-.26-.78-.09-.27zm-15.9 1.84h13.58l9.12 27 7 20.62.37 1.08.12.37 2.62 7.75 1.39 4.13.27.8 1 3 .35 1h-25.35l-12.18-36.06-.71-2.11-1.05-3.09-.69-2.11-2.1-6.25-.45-1.34-.26-.77-.64-1.89-4.11-12.13zm-17.57-1.84h3.57l.08.27.27.78.27.79 2.75 8.18 1.86 5.5.43 1.28v.1l1.45 4.28 2.54 7.55.55 1.62 12.64 37.3h-3.6l-11.13-33-.14-.42-1.13-3.51-3.64-10.61v-.1l-.09-.25-.27-.78-4.25-12.59-.5-1.47-1-3.08-.25-.79-.27-.78-.07-.23zm-2.32 1.84 1.67 4.93.71 2.11 5.66 16.73.7 2.09 2.48 7.32.35 1 1 3.09.72 2.11 8.91 26.39h-17.63a.78.78 0 0 0 -.69.4l-1.27 2.24-1.52-4.5-.71-2.11-.76-2.25-.35-1-.54-1.62-.1-.28-2.1-6.24-.73-2.14-5.65-16.7v-.12l-.54-1.61-10.13-29.84zm85.63 68.27-.52.92-.12.21h-81.12l1.16-2h81.11z" fill="#f6931d"/><g fill="#9ecfd6"><path d="m77.24 60.98-7.62-22.59.37 1.1 8.51 25.25-.55-1.65zm1.95 5.8 1.54 4.56-1.15-3.42zm-15.13-44.89.09.27z"/><path d="m64.68 23.73 5.31 15.76-.37-1.1zm-.528-1.565.948-.32.32.948-.948.32z"/><path d="m64.42 22.957.949-.32.319.948-.948.32zm16.31 48.383 2.27 6.73zm2.98 8.84 3.16 9.36zm-5.21-15.44.37 1.09zm.37 1.09.32.95z"/></g></g></svg>