<svg width="120" height="120" viewBox="0 0 120 120" fill="none" xmlns="http://www.w3.org/2000/svg">
<path d="M27.55 82.3L27.89 83.32L27.61 82.48L27.55 82.3ZM93.62 36.93L93.49 36.55L93.89 37.76L93.62 36.93ZM94.83 40.54L93.89 37.76L94.63 39.92L94.83 40.54ZM99.39 54.01L99.23 53.56L100.02 55.87L99.39 54.01ZM83.05 86.77L83.63 88.51L82.6 85.47L83.05 86.77ZM39.49 56.91L37.67 51.55L37.02 49.61L24.79 74.14L26.89 80.38L39.13 55.85L39.49 56.91ZM92.9 34.83L93.49 36.55L89.16 23.73H69.91L81.41 57.86L92.9 34.83ZM58.63 89.54H65.61L76.56 67.59L77.28 69.7L77.83 71.34L70.86 50.72L61.74 23.73H61.25L46.45 53.42L58.63 89.54ZM55.14 23.73H49.92L41.88 39.86L43.98 46.11L55.14 23.73ZM29.94 28.66L28.27 23.73H7.75L17.71 53.19L29.94 28.66ZM83.78 64.88L87.18 74.95L98.67 51.9L96.15 44.44L95.33 42.02L83.78 64.88ZM97.8 89.54L105.9 73.29L104.78 69.95L94.84 89.54H97.8ZM32.84 89.54H50.51L41.6 63.15L29.36 87.68L30.88 92.18L32.15 89.94C32.2184 89.8174 32.3186 89.7155 32.44 89.6451C32.5615 89.5747 32.6996 89.5384 32.84 89.54ZM111.4 89.54L107.17 77.03L100.82 89.54H111.4ZM79.9 89.54L82.33 84.67L80.94 80.54L78.32 72.79L78.9 74.52L71.31 89.54H79.9ZM41.56 54.43L40.52 51.33L39.81 49.23L41.93 44.96L43.85 50.65L43.69 50.16L42.64 47.07L41.93 44.96L41.3 43.1L39.86 38.82L39.83 38.72L37.7 42.98L37.36 41.96L42.11 56.06L41.56 54.43ZM39.12 36.61L37.53 31.91L39.39 37.41L39.12 36.61Z" fill="#F9BE77"/>
<path d="M112.76 91.12H33.3L32.14 93.15H113.26L113.38 92.94L113.9 92.02L114.41 91.12H113.59H112.76ZM30.69 21.89H30.59L30.63 22.01L30.69 21.89ZM42.27 56.54L53.4 89.54H56.96L44.4 52.27L42.27 56.54ZM85.47 74.81L84.13 70.85L81.72 63.7L79.58 67.92L80.73 71.34L83 78.07L85.13 73.81L85.47 74.81ZM79.88 58.24L80.08 58.83L80.38 59.74L79.88 58.24ZM64.41 22.94L64.68 23.73L69.62 38.39L77.24 60.98L79.36 56.72L68.24 23.73L67.98 22.94L67.71 22.16L67.62 21.89H64.06L64.15 22.16L64.41 22.94Z" fill="#F9BE77"/>
<path d="M41.17 37.75L41.43 38.52L41.88 39.86L49.92 23.73H36.44L40.53 35.86L41.17 37.75ZM37.01 49.59L36.31 47.5L30.65 30.77L29.94 28.66L17.71 53.19L17.84 53.57L18.38 55.18L18.42 55.3L24.07 72.03L24.79 74.14L37.02 49.61L37.01 49.59ZM56.9 23.73H55.14L43.98 46.11L44.7 48.22L45.74 51.31L46.45 53.42L61.25 23.73H59.49H56.9ZM39.84 57.95L39.49 56.91L39.13 55.85L26.89 80.38L26.99 80.66L27.55 82.3L27.61 82.48L27.89 83.32L28.65 85.57L29.36 87.68L41.59 63.15L40.88 61.04L39.84 57.95ZM83.05 86.77L82.6 85.47L82.33 84.67L79.9 89.54H83.98L83.63 88.51L83.05 86.77ZM104.07 67.86L100.02 55.87L99.39 54.01L99.23 53.56L98.67 51.9L87.18 74.95L87.74 76.62L87.89 77.06L88.84 79.89L92.09 89.54H94.84L104.78 69.95L104.07 67.86ZM105.9 73.29L97.8 89.54H100.82L107.17 77.03L105.9 73.29ZM82.13 59.97L82.23 60.27L83.07 62.78L83.78 64.88L95.33 42.02L94.63 39.92L93.62 36.93L92.9 34.83L81.41 57.86L82.03 59.69L82.13 59.97ZM78.19 72.42L77.83 71.34L77.28 69.7L76.56 67.59L65.61 89.54H71.31L78.9 74.52L78.32 72.79L78.19 72.42ZM30.95 22.94L31.21 23.73L31.34 24.12L32.59 27.82L36.99 40.87L37.32 41.85L37.36 41.96L37.7 42.98L39.83 38.72L39.39 37.41L39.12 36.61L37.53 31.91L34.78 23.73L34.51 22.94L34.24 22.16L34.16 21.89H30.69L30.63 22.01L30.68 22.16L30.95 22.94ZM43.69 50.16L42.64 47.07L41.93 44.96L39.81 49.23L40.52 51.33L41.56 54.43L42.11 56.06L42.27 56.54L44.4 52.27L43.85 50.65L43.69 50.16ZM85.84 75.92L85.57 75.14L85.47 74.81L85.13 73.81L83 78.07L83.71 80.18L86.87 89.54H90.43L90.42 89.51L85.84 75.92ZM81.41 62.78L81.12 61.92L81.01 61.6L80.38 59.74L80.08 58.83L79.88 58.24L79.36 56.72L77.24 60.98L77.95 63.09L78.5 64.74L78.87 65.83L79.19 66.78L79.58 67.92L81.72 63.7L81.41 62.78Z" fill="#FBD3A4"/>
<path d="M116.45 89.93C116.38 89.8114 116.281 89.7131 116.162 89.6447C116.043 89.5763 115.907 89.5402 115.77 89.54H113.06L90.47 22.69C90.4158 22.5345 90.3144 22.3998 90.1799 22.3048C90.0455 22.2098 89.8847 22.1592 89.72 22.16H69.38L68.94 20.85C68.8862 20.6935 68.7852 20.5575 68.6509 20.4607C68.5165 20.364 68.3555 20.3114 68.19 20.31H62.93C62.8574 20.2949 62.7826 20.2949 62.71 20.31H62.57L62.48 20.37L62.39 20.46V20.56C62.3694 20.5912 62.3526 20.6248 62.34 20.66L61.87 21.98H35.91L35.47 20.67C35.4162 20.5135 35.3152 20.3775 35.1809 20.2807C35.0465 20.184 34.8855 20.1314 34.72 20.13H29.46C29.3874 20.1149 29.3126 20.1149 29.24 20.13H29.11L29.02 20.19L28.94 20.28L28.86 20.42L28.39 21.74H6.65C6.5197 21.7377 6.39141 21.7724 6.28 21.84L6.17 21.92C6.17 21.97 6.05 22 6.01 22.06C5.97 22.12 6.01 22.06 6.01 22.11L4.89 24.11C4.83628 24.2067 4.80322 24.3135 4.79289 24.4237C4.78256 24.5339 4.7952 24.645 4.83 24.75L28.83 95.75C28.8838 95.9065 28.9848 96.0425 29.1191 96.1393C29.2535 96.236 29.4145 96.2886 29.58 96.29H112.6C112.739 96.2898 112.875 96.2526 112.994 96.1823C113.114 96.112 113.212 96.0111 113.28 95.89L114.4 93.89L116.4 90.29C116.444 90.1754 116.461 90.0522 116.45 89.93ZM89.16 23.73L96.22 44.63L98.67 51.9L99.23 53.56L100.02 55.87L104.02 67.87L104.72 69.96L105.85 73.3L107.17 77L111.4 89.51H92.09L88.84 79.86L87.84 77.03L87.69 76.59L87.18 75L83.78 64.91L83.07 62.82L82.23 60.31L82.13 60.01L82.03 59.73L81.41 57.9L69.91 23.73H89.16ZM64.06 21.89H67.62L67.71 22.16L67.98 22.94L68.24 23.73L79.36 56.73L79.54 57.24L80.85 61.14L81.01 61.61L81.12 61.93L81.41 62.79L85.41 74.79L85.52 75.11L85.79 75.89L90.37 89.48H86.87L83.71 80.12L83 78.07L80.73 71.34L79.19 66.78L78.87 65.78L78.5 64.69L70 39.49L64.68 23.73L64.41 22.94L64.15 22.16L64.06 21.89ZM48.16 23.73H61.74L70.86 50.73L77.86 71.35L78.23 72.43L78.35 72.8L80.97 80.55L82.36 84.68L82.63 85.48L83.63 88.48L83.98 89.48H58.63L46.45 53.42L45.74 51.31L44.69 48.22L44 46.11L41.9 39.86L41.45 38.52L41.19 37.75L40.55 35.86L36.44 23.73H48.16ZM30.59 21.89H34.16L34.24 22.16L34.51 22.94L34.78 23.73L37.53 31.91L39.39 37.41L39.82 38.69V38.79L41.27 43.07L43.81 50.62L44.36 52.24L57 89.54H53.4L42.27 56.54L42.13 56.12L41 52.61L37.36 42V41.9L37.27 41.65L37 40.87L32.75 28.28L32.25 26.81L31.25 23.73L31 22.94L30.73 22.16L30.66 21.93L30.59 21.89ZM28.27 23.73L29.94 28.66L30.65 30.77L36.31 47.5L37.01 49.59L39.49 56.91L39.84 57.91L40.84 61L41.56 63.11L50.47 89.5H32.84C32.6996 89.4984 32.5614 89.5347 32.44 89.6051C32.3186 89.6755 32.2184 89.7774 32.15 89.9L30.88 92.14L29.36 87.64L28.65 85.53L27.89 83.28L27.54 82.28L27 80.66L26.9 80.38L24.8 74.14L24.07 72L18.42 55.3V55.18L17.88 53.57L7.75 23.73H28.27ZM113.9 92L113.38 92.92L113.26 93.13H32.14L33.3 91.13H114.41L113.9 92Z" fill="#F6931D"/>
</svg>
