<svg width="120" height="120" xmlns="http://www.w3.org/2000/svg"><g fill-rule="nonzero" fill="none"><path d="M87.47 30.91L87 29.4a5.58 5.58 0 01-2-.57 7.24 7.24 0 01-1.82-1.41 22.09 22.09 0 00-2.75-2.89 4.32 4.32 0 00-4-.44l.25.73.25.73.24.73 21.71 63.85a5.83 5.83 0 011.88-.31 5.55 5.55 0 012.6.61 6.76 6.76 0 011.81 1.41c.836 1.037 1.76 2 2.76 2.88.386.276.82.476 1.28.59L98.54 63.66 87.47 30.91zM71.71 29.15l-.22-.64a5.3 5.3 0 01-.47.28 5.85 5.85 0 01-5.24 0A7.24 7.24 0 0164 27.42a22.09 22.09 0 00-2.75-2.89 4 4 0 00-2.41-.74 4.12 4.12 0 00-1.71.35l.24.69.25.73.25.73 21.8 63.89a5.64 5.64 0 012-.36 5.55 5.55 0 012.6.61A6.92 6.92 0 0186 91.84a22.63 22.63 0 002.76 2.88 3.92 3.92 0 002.4.74A4.12 4.12 0 0093.1 95a5.2 5.2 0 00.88-.62L72 30l-.29-.85zM52.47 29.26l-.23-.69-.36.22a5.58 5.58 0 01-2.65.64 5.67 5.67 0 01-2.6-.6 7.18 7.18 0 01-1.81-1.41 22.79 22.79 0 00-2.76-2.89 4 4 0 00-2.41-.74 4.19 4.19 0 00-1.6.3l.25.73.25.73.25.73 21.78 63.85a5.89 5.89 0 011.89-.31 5.52 5.52 0 012.6.61 7 7 0 011.82 1.41 22.61 22.61 0 002.75 2.88 4 4 0 002.41.74A4.15 4.15 0 0074 95a5.65 5.65 0 00.78-.53l-22-64.45-.31-.76zM13.94 28.57a5.37 5.37 0 01-2 .77v.1l22.3 66a3.79 3.79 0 001.41-.44c.28-.145.546-.32.79-.52L14 28.74l-.06-.17zM33.41 29.16l-.22-.65-.46.28a5.58 5.58 0 01-2.65.64 5.67 5.67 0 01-2.6-.6 7.42 7.42 0 01-1.82-1.41 22.09 22.09 0 00-2.75-2.89 4.32 4.32 0 00-4.12-.39l.25.71.24.72.25.74 21.8 63.86a5.83 5.83 0 012-.35 5.55 5.55 0 012.6.61 6.76 6.76 0 011.81 1.41c.836 1.037 1.76 2 2.76 2.88a4 4 0 002.41.74 4.15 4.15 0 001.9-.46c.308-.176.6-.38.87-.61L33.68 30l-.27-.84z" fill="#DCDCDC"/><path d="M110.34 97H110a4.9 4.9 0 01-.78-.09 5.26 5.26 0 01-1.48-.49 7 7 0 01-1.81-1.42 22 22 0 00-2.76-2.88 4.28 4.28 0 00-4.31-.31 5.31 5.31 0 00-1.42 1.12 22.83 22.83 0 01-3 3.06 5.43 5.43 0 01-3.28 1 5.63 5.63 0 01-2.59-.6A7 7 0 0186.78 95 21.34 21.34 0 0084 92.07a4.28 4.28 0 00-4.31-.31 5.13 5.13 0 00-1.17.88l-.08.07-.18.17-.07.08c-.55.58-1.08 1.26-1.71 1.92a8.11 8.11 0 01-1.19 1.06 5.4 5.4 0 01-3.27 1 5.67 5.67 0 01-2.6-.6A7.14 7.14 0 0167.64 95a20.77 20.77 0 00-2.76-2.88 3.93 3.93 0 00-2.41-.75 4 4 0 00-1.9.44 4.93 4.93 0 00-1.12.83c-.1.1-.21.18-.31.29-.69.7-1.33 1.6-2.16 2.39a7.46 7.46 0 01-.8.67 5.43 5.43 0 01-3.28 1 5.67 5.67 0 01-2.6-.6A7.14 7.14 0 0148.49 95a22 22 0 00-2.76-2.88 4 4 0 00-2.41-.75 4 4 0 00-1.91.44 5 5 0 00-1.12.84l-.3.28a22.83 22.83 0 01-3 3.06 5.4 5.4 0 01-1.5.75 5.78 5.78 0 01-1.78.27.74.74 0 01-.71-.51L10.68 30.31l-.3-.87-.17-.52a.75.75 0 01.1-.68L9.05 30a.758.758 0 00-.1.67l22.83 67.55a.73.73 0 00.71.51 9 9 0 004.29-1 13.32 13.32 0 003.55-3.13c.374-.42.8-.79 1.27-1.1a2.57 2.57 0 011.4-.41 2.64 2.64 0 011.8.71c.81.67 1.57 1.86 2.69 2.94a7.18 7.18 0 002.08 1.41c.949.4 1.97.598 3 .58a7 7 0 003.77-1 14 14 0 003.17-3.12 5.88 5.88 0 011.21-1.12 2.61 2.61 0 011.42-.41 2.69 2.69 0 011.86.72c.82.67 1.57 1.86 2.69 2.94a7.05 7.05 0 002.08 1.41 7.26 7.26 0 003 .58 7 7 0 003.79-1 13.83 13.83 0 003.17-3.12 5.91 5.91 0 011.22-1.12 2.51 2.51 0 011.4-.41 2.64 2.64 0 011.8.71c.82.67 1.57 1.86 2.69 2.94a7.05 7.05 0 002.08 1.41 8.1 8.1 0 006.87-.4A13.09 13.09 0 0098 94.62a6.13 6.13 0 011.18-1.13c.391-.26.85-.4 1.32-.4a2.48 2.48 0 011.71.7c.78.67 1.5 1.86 2.57 2.94a6.94 6.94 0 002 1.41 6.57 6.57 0 002.83.59.75.75 0 00.68-.43l.81-1.78a.61.61 0 000-.13.82.82 0 01-.1.26.77.77 0 01-.66.35z" fill="#979796"/><path d="M19.28 25.57l-.28-.72-.25-.71-.2.09a5.48 5.48 0 00-1.42 1.11l-.11.12c-.43.46-.85 1-1.31 1.5a9.36 9.36 0 01-1.55 1.45c-.08.06-.18.1-.26.16l.06.17L36.44 94.5c.21-.18.43-.38.63-.59a22.3 22.3 0 013-3.07 5.61 5.61 0 011.29-.67L19.53 26.31l-.25-.74zM38.55 25.55l-.25-.73-.25-.73-.31.14a5.65 5.65 0 00-1.42 1.11l-.06.08a20.8 20.8 0 01-2.91 3l-.16.1.22.65.27.79 22 64.47c.19-.16.37-.33.55-.51a22.3 22.3 0 013-3.07 5.44 5.44 0 011.38-.71L38.8 26.28l-.25-.73zM57.58 25.56l-.25-.73-.24-.69-.2.09a5.65 5.65 0 00-1.42 1.11l-.06.08a20.8 20.8 0 01-2.91 3 2.26 2.26 0 01-.26.16l.23.69.27.79 22 64.45a7 7 0 00.64-.59 21.72 21.72 0 013-3.07 5 5 0 011.28-.66l-21.83-63.9-.25-.73zM76.85 25.55l-.25-.73-.25-.73-.32.14a5.65 5.65 0 00-1.42 1.11l-.06.08a20.7 20.7 0 01-2.9 3l-.16.1.22.64.29.84 22 64.41c.18-.15.36-.32.54-.5a22.3 22.3 0 013-3.07 5.51 5.51 0 011.39-.71L77.09 26.28l-.24-.73z" fill="#BAB9BA"/><path d="M111.05 96L88.22 28.44a.73.73 0 00-.71-.51 4 4 0 01-2.4-.74 21.47 21.47 0 01-2.76-2.89 7.37 7.37 0 00-1.81-1.41 5.67 5.67 0 00-2.6-.6 5.46 5.46 0 00-3.27 1 21.18 21.18 0 00-3 3.07 5.65 5.65 0 01-1.42 1.11 4.32 4.32 0 01-4.32-.3 22.09 22.09 0 01-2.75-2.89 7.24 7.24 0 00-1.82-1.41 5.59 5.59 0 00-2.59-.6 5.46 5.46 0 00-3.27 1 21.18 21.18 0 00-3 3.07 5.52 5.52 0 01-1.43 1.11 4 4 0 01-1.9.44 4 4 0 01-2.41-.74A22.79 22.79 0 0144 24.26a7.37 7.37 0 00-1.81-1.41 5.67 5.67 0 00-2.6-.6 5.46 5.46 0 00-3.27 1 21.18 21.18 0 00-3 3.07A5.52 5.52 0 0132 27.49a4 4 0 01-1.9.44 4 4 0 01-2.41-.74 21.47 21.47 0 01-2.76-2.89 7.24 7.24 0 00-1.82-1.41 5.59 5.59 0 00-2.59-.6 5.5 5.5 0 00-3.28 1 22.3 22.3 0 00-3 3.07 5.48 5.48 0 01-1.42 1.11 4 4 0 01-1.91.44.74.74 0 00-.3.08.76.76 0 00-.24.2.753.753 0 00-.1.68l.17.52.3.87L33 96.45a.74.74 0 00.71.51 5.78 5.78 0 001.78-.27 5.4 5.4 0 001.5-.75 22.83 22.83 0 003-3.06l.3-.28a5 5 0 011.12-.84 4 4 0 011.91-.44 4 4 0 012.41.75A22 22 0 0148.49 95a7.14 7.14 0 001.81 1.41 5.67 5.67 0 002.6.6 5.43 5.43 0 003.28-1 7.46 7.46 0 00.8-.67c.83-.79 1.47-1.69 2.16-2.39.1-.11.21-.19.31-.29a4.93 4.93 0 011.12-.83 4 4 0 011.9-.44 3.93 3.93 0 012.41.75A20.77 20.77 0 0167.64 95a7.14 7.14 0 001.81 1.41 5.67 5.67 0 002.6.6 5.4 5.4 0 003.27-1 8.11 8.11 0 001.19-1.06c.63-.66 1.16-1.34 1.71-1.92l.07-.08.18-.17.08-.07a5.13 5.13 0 011.17-.88 4.28 4.28 0 014.31.31A21.34 21.34 0 0186.78 95a7 7 0 001.82 1.41 5.63 5.63 0 002.59.6 5.43 5.43 0 003.28-1 22.83 22.83 0 003-3.06 5.31 5.31 0 011.42-1.12 4.28 4.28 0 014.31.31 22 22 0 012.73 2.86 7 7 0 001.81 1.41 5.26 5.26 0 001.48.49c.257.05.518.08.78.09h.34a.77.77 0 00.61-.31.82.82 0 00.1-.26.36.36 0 000-.1.62.62 0 000-.27V96zm-69.72-5.8a5.61 5.61 0 00-1.29.67 22.3 22.3 0 00-3 3.07c-.2.21-.42.41-.63.59-.244.2-.51.375-.79.52a3.79 3.79 0 01-1.38.41L12 29.44v-.1a5.37 5.37 0 002-.77c.08-.06.18-.1.26-.16A9.36 9.36 0 0015.75 27c.46-.52.88-1 1.31-1.5l.11-.12a5.48 5.48 0 011.42-1.11l.2-.09a4.32 4.32 0 014.12.39 22.09 22.09 0 012.75 2.89 7.42 7.42 0 001.82 1.41 5.67 5.67 0 002.6.6 5.58 5.58 0 002.65-.64l.46-.28.16-.1a20.8 20.8 0 002.91-3l.06-.08a5.65 5.65 0 011.42-1.11l.31-.14a4.19 4.19 0 011.6-.3 4 4 0 012.41.74 22.79 22.79 0 012.76 2.89 7.18 7.18 0 001.81 1.41 5.67 5.67 0 002.6.6 5.58 5.58 0 002.65-.64l.36-.22c.09-.047.177-.1.26-.16a20.8 20.8 0 002.91-3l.06-.08a5.65 5.65 0 011.42-1.11l.2-.09a4.12 4.12 0 011.71-.35c.862-.02 1.707.24 2.41.74A22.09 22.09 0 0164 27.42a7.24 7.24 0 001.82 1.41 5.85 5.85 0 005.24 0 5.3 5.3 0 00.47-.28l.16-.1a20.7 20.7 0 002.9-3l.06-.08A5.65 5.65 0 0176 24.23l.32-.14a4.32 4.32 0 014 .44 22.09 22.09 0 012.75 2.89 7.24 7.24 0 001.82 1.41 5.58 5.58 0 002 .57l.5 1.51 11.15 32.75 10.7 31.66a3.75 3.75 0 01-1.28-.59 23.35 23.35 0 01-2.76-2.88 6.76 6.76 0 00-1.81-1.41 5.55 5.55 0 00-2.6-.61 5.83 5.83 0 00-1.88.31 5.51 5.51 0 00-1.39.71 22.3 22.3 0 00-3 3.07c-.18.18-.36.35-.54.5a5.2 5.2 0 01-.88.62 4.12 4.12 0 01-1.91.43 3.92 3.92 0 01-2.4-.74A22.63 22.63 0 0186 91.84a6.92 6.92 0 00-1.81-1.41 5.55 5.55 0 00-2.6-.61 5.64 5.64 0 00-2 .36 5 5 0 00-1.28.66 21.72 21.72 0 00-3 3.07 7 7 0 01-.64.59 5.65 5.65 0 01-.67.5 4.15 4.15 0 01-1.91.43 4 4 0 01-2.41-.74 22.61 22.61 0 01-2.75-2.88 7 7 0 00-1.82-1.41 5.52 5.52 0 00-2.6-.61 5.89 5.89 0 00-1.89.31 5.44 5.44 0 00-1.38.71 22.3 22.3 0 00-3 3.07c-.18.18-.36.35-.55.51a5.68 5.68 0 01-.87.61 4.15 4.15 0 01-1.91.43 4 4 0 01-2.41-.74 23.35 23.35 0 01-2.76-2.88 6.76 6.76 0 00-1.81-1.41 5.55 5.55 0 00-2.6-.61 5.83 5.83 0 00-2 .38v.03z" fill="#979796"/></g></svg>
