<svg width="120" height="120" viewBox="0 0 120 120" fill="none" xmlns="http://www.w3.org/2000/svg">
<path d="M87.47 30.91L87 29.4C86.3035 29.337 85.6251 29.1436 85 28.83C84.322 28.4601 83.7076 27.9841 83.18 27.42C82.3524 26.3757 81.432 25.4084 80.43 24.53C79.849 24.1376 79.1812 23.8925 78.4844 23.8158C77.7875 23.7391 77.0824 23.8333 76.43 24.09L76.68 24.82L76.93 25.55L77.17 26.28L98.88 90.13C99.4854 89.9243 100.121 89.8195 100.76 89.82C101.663 89.8087 102.556 90.0181 103.36 90.43C104.039 90.7934 104.651 91.2703 105.17 91.84C106.006 92.877 106.93 93.84 107.93 94.72C108.316 94.996 108.75 95.196 109.21 95.31L98.54 63.66L87.47 30.91ZM71.71 29.15L71.49 28.51C71.3383 28.6114 71.1814 28.7048 71.02 28.79C70.2067 29.1974 69.3096 29.4095 68.4 29.4095C67.4904 29.4095 66.5933 29.1974 65.78 28.79C65.119 28.4287 64.5184 27.9665 64 27.42C63.1724 26.3757 62.252 25.4084 61.25 24.53C60.5474 24.03 59.7021 23.7704 58.84 23.79C58.2515 23.7832 57.6685 23.9025 57.13 24.14L57.37 24.83L57.62 25.56L57.87 26.29L79.67 90.18C80.3094 89.9399 80.987 89.8179 81.67 89.82C82.5734 89.8087 83.4659 90.0181 84.27 90.43C84.9192 90.8033 85.5034 91.2795 86 91.84C86.8334 92.8794 87.757 93.8431 88.76 94.72C89.4572 95.2232 90.3005 95.4832 91.16 95.46C91.8346 95.4678 92.5007 95.3099 93.1 95C93.414 94.8243 93.7089 94.6166 93.98 94.38L72 30L71.71 29.15ZM52.47 29.26L52.24 28.57L51.88 28.79C51.0632 29.2192 50.1527 29.439 49.23 29.43C48.3279 29.4397 47.4366 29.234 46.63 28.83C45.955 28.4601 45.3439 27.984 44.82 27.42C43.9864 26.3777 43.0628 25.4107 42.06 24.53C41.3574 24.03 40.5121 23.7704 39.65 23.79C39.1022 23.7844 38.5586 23.8864 38.05 24.09L38.3 24.82L38.55 25.55L38.8 26.28L60.58 90.13C61.1889 89.9242 61.8273 89.8195 62.47 89.82C63.3735 89.8075 64.2663 90.0169 65.07 90.43C65.7503 90.7963 66.3653 91.2728 66.89 91.84C67.7202 92.879 68.6404 93.8428 69.64 94.72C70.3426 95.22 71.1879 95.4796 72.05 95.46C72.7278 95.4682 73.3973 95.3103 74 95C74.2743 94.8454 74.5352 94.6681 74.78 94.47L52.78 30.02L52.47 29.26ZM13.94 28.57C13.3318 28.9584 12.6516 29.2203 11.94 29.34V29.44L34.24 95.44C34.7343 95.3872 35.2134 95.2377 35.65 95C35.93 94.855 36.196 94.68 36.44 94.48L14 28.74L13.94 28.57ZM33.41 29.16L33.19 28.51L32.73 28.79C31.9132 29.2192 31.0027 29.439 30.08 29.43C29.1779 29.4397 28.2866 29.234 27.48 28.83C26.8037 28.4576 26.1896 27.9818 25.66 27.42C24.8324 26.3757 23.912 25.4084 22.91 24.53C22.3108 24.1254 21.6196 23.8777 20.8997 23.8095C20.1799 23.7414 19.4545 23.855 18.79 24.14L19.04 24.85L19.28 25.57L19.53 26.31L41.33 90.17C41.9711 89.9372 42.648 89.8188 43.33 89.82C44.2334 89.8087 45.1259 90.0181 45.93 90.43C46.6093 90.7934 47.2214 91.2703 47.74 91.84C48.576 92.877 49.5 93.84 50.5 94.72C51.2026 95.22 52.0479 95.4796 52.91 95.46C53.5709 95.4602 54.2223 95.3024 54.81 95C55.118 94.824 55.41 94.62 55.68 94.39L33.68 30L33.41 29.16Z" fill="#EEEEEE"/>
<path d="M110.34 97H110C109.738 96.9909 109.477 96.9608 109.22 96.91C108.705 96.8211 108.206 96.6559 107.74 96.42C107.062 96.0497 106.451 95.5699 105.93 95C105.099 93.9584 104.175 92.9944 103.17 92.12C102.544 91.6906 101.814 91.4356 101.057 91.3811C100.3 91.3267 99.5413 91.4747 98.86 91.81C98.3261 92.0994 97.8458 92.4782 97.44 92.93C96.5382 94.0418 95.5337 95.0663 94.44 95.99C93.4834 96.6689 92.3327 97.0197 91.16 96.99C90.2612 96.9996 89.3731 96.7939 88.57 96.39C87.9018 96.027 87.2972 95.5575 86.78 95C85.9481 93.9376 85.0172 92.9566 84 92.07C83.3737 91.6406 82.6444 91.3856 81.887 91.3311C81.1296 91.2767 80.3713 91.4247 79.69 91.76C79.2599 91.9959 78.8659 92.2922 78.52 92.64L78.44 92.71L78.26 92.88L78.19 92.96C77.64 93.54 77.11 94.22 76.48 94.88C76.1191 95.2715 75.7205 95.6266 75.29 95.94C74.3371 96.6188 73.1895 96.9697 72.02 96.94C71.1179 96.9497 70.2266 96.744 69.42 96.34C68.7602 95.9892 68.1596 95.5371 67.64 95C66.8145 93.9537 65.8903 92.9892 64.88 92.12C64.181 91.6118 63.3339 91.3482 62.47 91.37C61.8101 91.3577 61.1573 91.5088 60.57 91.81C60.1592 92.0322 59.7821 92.3117 59.45 92.64C59.35 92.74 59.24 92.82 59.14 92.93C58.45 93.63 57.81 94.53 56.98 95.32C56.7293 95.5617 56.462 95.7856 56.18 95.99C55.2234 96.6689 54.0726 97.0197 52.9 96.99C51.9979 96.9997 51.1066 96.794 50.3 96.39C49.626 96.0267 49.0149 95.5574 48.49 95C47.6591 93.9584 46.7353 92.9944 45.73 92.12C45.0287 91.6165 44.1832 91.3534 43.32 91.37C42.6567 91.356 42.0003 91.5072 41.41 91.81C40.9991 92.0361 40.6221 92.3189 40.29 92.65L39.99 92.93C39.0882 94.0418 38.0837 95.0663 36.99 95.99C36.5321 96.3166 36.026 96.5696 35.49 96.74C34.9144 96.9224 34.3138 97.0135 33.71 97.01C33.5528 97.0114 33.3993 96.9627 33.2716 96.871C33.144 96.7794 33.0488 96.6494 33 96.5L10.68 30.31L10.38 29.44L10.21 28.92C10.1713 28.8069 10.1601 28.6862 10.1775 28.5679C10.1949 28.4496 10.2403 28.3372 10.31 28.24L9.05 30C8.98251 30.0963 8.93834 30.2069 8.92099 30.3232C8.90363 30.4395 8.91357 30.5582 8.95 30.67L31.78 98.22C31.8275 98.3702 31.9222 98.5011 32.0502 98.593C32.1782 98.6849 32.3325 98.733 32.49 98.73C33.9808 98.7572 35.4549 98.4135 36.78 97.73C38.1407 96.907 39.343 95.8469 40.33 94.6C40.704 94.18 41.13 93.81 41.6 93.5C42.0173 93.231 42.5035 93.0886 43 93.09C43.6682 93.0903 44.3115 93.3441 44.8 93.8C45.61 94.47 46.37 95.66 47.49 96.74C48.0951 97.3286 48.7992 97.8059 49.57 98.15C50.519 98.55 51.54 98.748 52.57 98.73C53.896 98.7606 55.2035 98.4138 56.34 97.73C57.5562 96.8656 58.6263 95.8123 59.51 94.61C59.8587 94.1817 60.2661 93.8046 60.72 93.49C61.1439 93.2194 61.637 93.077 62.14 93.08C62.8294 93.0728 63.4952 93.3305 64 93.8C64.82 94.47 65.57 95.66 66.69 96.74C67.2933 97.3308 67.9978 97.8084 68.77 98.15C69.7175 98.554 70.7402 98.7517 71.77 98.73C73.1028 98.7644 74.4177 98.4175 75.56 97.73C76.7781 96.8678 77.8486 95.8142 78.73 94.61C79.0821 94.1813 79.4928 93.8042 79.95 93.49C80.3658 93.2177 80.853 93.0751 81.35 93.08C82.0182 93.0803 82.6615 93.3341 83.15 93.79C83.97 94.46 84.72 95.65 85.84 96.73C86.4433 97.3208 87.1478 97.7984 87.92 98.14C89.0243 98.5818 90.2123 98.775 91.3996 98.7058C92.5869 98.6367 93.7445 98.307 94.79 97.74C96.0312 96.892 97.1171 95.8366 98 94.62C98.3412 94.1924 98.738 93.8123 99.18 93.49C99.571 93.23 100.03 93.09 100.5 93.09C101.139 93.0944 101.751 93.3451 102.21 93.79C102.99 94.46 103.71 95.65 104.78 96.73C105.358 97.3148 106.035 97.7922 106.78 98.14C107.668 98.5443 108.635 98.7459 109.61 98.73C109.752 98.7303 109.892 98.69 110.013 98.6139C110.133 98.5378 110.229 98.4289 110.29 98.3L111.1 96.52C111.105 96.4768 111.105 96.4332 111.1 96.39C111.082 96.4817 111.048 96.5697 111 96.65C110.929 96.7596 110.831 96.8492 110.715 96.9104C110.6 96.9716 110.471 97.0025 110.34 97Z" fill="#757575"/>
<path d="M19.28 25.57L19 24.85L18.75 24.14L18.55 24.23C18.0186 24.5191 17.5388 24.8942 17.13 25.34L17.02 25.46C16.59 25.92 16.17 26.46 15.71 26.96C15.25 27.5005 14.73 27.987 14.16 28.41C14.08 28.47 13.98 28.51 13.9 28.57L13.96 28.74L36.44 94.5C36.65 94.32 36.87 94.12 37.07 93.91C37.969 92.7926 38.9736 91.7645 40.07 90.84C40.4691 90.5617 40.9028 90.3364 41.36 90.17L19.53 26.31L19.28 25.57ZM38.55 25.55L38.3 24.82L38.05 24.09L37.74 24.23C37.2103 24.5216 36.7309 24.8964 36.32 25.34L36.26 25.42C35.3932 26.5152 34.4183 27.5202 33.35 28.42L33.19 28.52L33.41 29.17L33.68 29.96L55.68 94.43C55.87 94.27 56.05 94.1 56.23 93.92C57.129 92.8026 58.1336 91.7745 59.23 90.85C59.6537 90.5486 60.1184 90.3095 60.61 90.14L38.8 26.28L38.55 25.55ZM57.58 25.56L57.33 24.83L57.09 24.14L56.89 24.23C56.3603 24.5216 55.8809 24.8964 55.47 25.34L55.41 25.42C54.5432 26.5152 53.5683 27.5202 52.5 28.42C52.417 28.4791 52.3302 28.5326 52.24 28.58L52.47 29.27L52.74 30.06L74.74 94.51C74.9654 94.3268 75.1791 94.1298 75.38 93.92C76.2762 92.8001 77.2811 91.7718 78.38 90.85C78.7726 90.5694 79.2037 90.3471 79.66 90.19L57.83 26.29L57.58 25.56ZM76.85 25.55L76.6 24.82L76.35 24.09L76.03 24.23C75.5003 24.5216 75.0209 24.8964 74.61 25.34L74.55 25.42C73.6868 26.5151 72.7152 27.5202 71.65 28.42L71.49 28.52L71.71 29.16L72 30L94 94.41C94.18 94.26 94.36 94.09 94.54 93.91C95.439 92.7926 96.4436 91.7645 97.54 90.84C97.9673 90.5386 98.4353 90.2995 98.93 90.13L77.09 26.28L76.85 25.55Z" fill="#9E9E9E"/>
<path d="M111.05 96L88.22 28.44C88.1725 28.2898 88.0777 28.1589 87.9498 28.067C87.8218 27.975 87.6675 27.927 87.51 27.93C86.6513 27.9474 85.8098 27.6879 85.11 27.19C84.1021 26.3146 83.1782 25.347 82.35 24.3C81.824 23.7384 81.2132 23.2626 80.54 22.89C79.7334 22.486 78.8421 22.2803 77.94 22.29C76.771 22.2646 75.6248 22.6151 74.67 23.29C73.5686 24.2091 72.5635 25.2377 71.67 26.36C71.2591 26.8036 70.7797 27.1784 70.25 27.47C69.5672 27.8046 68.8082 27.9531 68.0497 27.9004C67.2912 27.8477 66.56 27.5958 65.93 27.17C64.928 26.2916 64.0076 25.3243 63.18 24.28C62.6524 23.7159 62.038 23.2399 61.36 22.87C60.5575 22.4646 59.669 22.2588 58.77 22.27C57.601 22.2446 56.4548 22.5951 55.5 23.27C54.3986 24.1891 53.3935 25.2177 52.5 26.34C52.0877 26.7862 51.6045 27.1612 51.07 27.45C50.4827 27.7512 49.8299 27.9023 49.17 27.89C48.3079 27.9096 47.4626 27.65 46.76 27.15C45.7571 26.2693 44.8336 25.3023 44 24.26C43.474 23.6984 42.8632 23.2226 42.19 22.85C41.3834 22.446 40.4921 22.2403 39.59 22.25C38.421 22.2246 37.2748 22.5751 36.32 23.25C35.2186 24.1691 34.2135 25.1977 33.32 26.32C32.9456 26.7782 32.4999 27.1733 32 27.49C31.4127 27.7912 30.7599 27.9423 30.1 27.93C29.2379 27.9496 28.3926 27.69 27.69 27.19C26.6822 26.3146 25.7582 25.347 24.93 24.3C24.4024 23.7359 23.788 23.2599 23.11 22.89C22.3075 22.4846 21.419 22.2788 20.52 22.29C19.348 22.2653 18.1988 22.6156 17.24 23.29C16.1436 24.2145 15.139 25.2426 14.24 26.36C13.8312 26.8058 13.3514 27.1809 12.82 27.47C12.2297 27.7728 11.5733 27.924 10.91 27.91C10.8055 27.9152 10.7032 27.9424 10.61 27.99C10.517 28.0393 10.4353 28.1074 10.37 28.19C10.3006 28.2873 10.2553 28.3997 10.2379 28.5179C10.2205 28.6362 10.2315 28.7569 10.27 28.87L10.44 29.39L10.74 30.26L33 96.45C33.0488 96.5994 33.144 96.7293 33.2716 96.821C33.3993 96.9127 33.5528 96.9614 33.71 96.96C34.3138 96.9635 34.9144 96.8724 35.49 96.69C36.026 96.5196 36.5321 96.2666 36.99 95.94C38.0837 95.0163 39.0882 93.9918 39.99 92.88L40.29 92.6C40.6221 92.2689 40.9991 91.9861 41.41 91.76C42.0003 91.4572 42.6567 91.306 43.32 91.32C44.1832 91.3034 45.0287 91.5665 45.73 92.07C46.7376 92.9603 47.6615 93.941 48.49 95C49.0134 95.5645 49.6246 96.0406 50.3 96.41C51.1066 96.814 51.9979 97.0197 52.9 97.01C54.0726 97.0397 55.2234 96.6889 56.18 96.01C56.462 95.8056 56.7293 95.5817 56.98 95.34C57.81 94.55 58.45 93.65 59.14 92.95C59.24 92.84 59.35 92.76 59.45 92.66C59.7821 92.3317 60.1592 92.0522 60.57 91.83C61.1573 91.5288 61.8101 91.3777 62.47 91.39C63.3339 91.3682 64.181 91.6318 64.88 92.14C65.8893 93.0029 66.8135 93.9606 67.64 95C68.1634 95.5645 68.7746 96.0406 69.45 96.41C70.2566 96.814 71.1479 97.0197 72.05 97.01C73.2196 97.0397 74.3671 96.6888 75.32 96.01C75.7505 95.6966 76.1491 95.3415 76.51 94.95C77.14 94.29 77.67 93.61 78.22 93.03L78.29 92.95L78.47 92.78L78.55 92.71C78.8959 92.3622 79.2899 92.0659 79.72 91.83C80.4013 91.4947 81.1596 91.3467 81.917 91.4011C82.6744 91.4556 83.4037 91.7106 84.03 92.14C85.0335 93.0059 85.9541 93.9633 86.78 95C87.3047 95.5672 87.9197 96.0437 88.6 96.41C89.403 96.8139 90.2911 97.0196 91.19 97.01C92.3626 97.0397 93.5134 96.6889 94.47 96.01C95.5637 95.0863 96.5681 94.0618 97.47 92.95C97.8758 92.4982 98.3561 92.1194 98.89 91.83C99.5713 91.4947 100.33 91.3467 101.087 91.4011C101.844 91.4556 102.574 91.7106 103.2 92.14C104.194 93.0095 105.108 93.9667 105.93 95C106.452 95.5664 107.063 96.0428 107.74 96.41C108.206 96.6459 108.705 96.8111 109.22 96.9C109.477 96.95 109.738 96.98 110 96.99H110.34C110.459 96.9888 110.576 96.9603 110.681 96.9065C110.787 96.8527 110.879 96.7752 110.95 96.68C110.998 96.5997 111.032 96.5117 111.05 96.42C111.055 96.3868 111.055 96.3532 111.05 96.32C111.07 96.2311 111.07 96.1389 111.05 96.05V96ZM41.33 90.2C40.8728 90.3664 40.4391 90.5917 40.04 90.87C38.9436 91.7945 37.939 92.8226 37.04 93.94C36.84 94.15 36.62 94.35 36.41 94.53C36.166 94.73 35.9 94.905 35.62 95.05C35.1904 95.2736 34.722 95.4128 34.24 95.46L12 29.44V29.34C12.7116 29.2203 13.3918 28.9584 14 28.57C14.08 28.51 14.18 28.47 14.26 28.41C14.8068 27.996 15.3065 27.5232 15.75 27C16.21 26.48 16.63 26 17.06 25.5L17.17 25.38C17.5788 24.9342 18.0586 24.5591 18.59 24.27L18.79 24.18C19.4545 23.895 20.1799 23.7814 20.8997 23.8495C21.6196 23.9177 22.3108 24.1654 22.91 24.57C23.912 25.4484 24.8324 26.4157 25.66 27.46C26.1896 28.0218 26.8037 28.4976 27.48 28.87C28.2866 29.274 29.1779 29.4797 30.08 29.47C31.0027 29.479 31.9132 29.2592 32.73 28.83L33.19 28.55L33.35 28.45C34.4183 27.5502 35.3932 26.5452 36.26 25.45L36.32 25.37C36.7309 24.9264 37.2103 24.5516 37.74 24.26L38.05 24.12C38.5586 23.9164 39.1022 23.8144 39.65 23.82C40.5121 23.8004 41.3574 24.06 42.06 24.56C43.0629 25.4407 43.9864 26.4077 44.82 27.45C45.3439 28.014 45.955 28.4901 46.63 28.86C47.4366 29.264 48.3279 29.4697 49.23 29.46C50.1527 29.469 51.0632 29.2492 51.88 28.82L52.24 28.6C52.33 28.553 52.417 28.5 52.5 28.44C53.5683 27.5402 54.5432 26.5352 55.41 25.44L55.47 25.36C55.8809 24.9164 56.3603 24.5416 56.89 24.25L57.09 24.16C57.6285 23.9225 58.2115 23.8032 58.8 23.81C59.662 23.79 60.507 24.05 61.21 24.55C62.2249 25.4203 63.1588 26.3809 64 27.42C64.5276 27.9841 65.142 28.4601 65.82 28.83C66.6333 29.2374 67.5304 29.4495 68.44 29.4495C69.3496 29.4495 70.2467 29.2374 71.06 28.83C71.2214 28.7448 71.3783 28.6514 71.53 28.55L71.69 28.45C72.7552 27.5502 73.7268 26.5451 74.59 25.45L74.65 25.37C75.0374 24.9216 75.493 24.5368 76 24.23L76.32 24.09C76.9724 23.8333 77.6775 23.7391 78.3744 23.8158C79.0712 23.8925 79.739 24.1376 80.32 24.53C81.3219 25.4084 82.2424 26.3757 83.07 27.42C83.5976 27.9841 84.212 28.4601 84.89 28.83C85.5151 29.1436 86.1935 29.337 86.89 29.4L87.39 30.91L98.54 63.66L109.24 95.32C108.78 95.206 108.346 95.0058 107.96 94.73C106.96 93.8505 106.036 92.887 105.2 91.85C104.681 91.2803 104.069 90.8034 103.39 90.44C102.586 90.0281 101.693 89.8187 100.79 89.83C100.151 89.8295 99.5154 89.9343 98.91 90.14C98.4153 90.3095 97.9473 90.5486 97.52 90.85C96.4236 91.7745 95.4189 92.8026 94.52 93.92C94.34 94.1 94.16 94.27 93.98 94.42C93.7089 94.6566 93.414 94.8643 93.1 95.04C92.5071 95.3347 91.852 95.4822 91.19 95.47C90.3305 95.4932 89.4872 95.2332 88.79 94.73C87.7762 93.8513 86.8425 92.8841 86 91.84C85.4793 91.2726 84.8676 90.796 84.19 90.43C83.3859 90.0181 82.4934 89.8087 81.59 89.82C80.907 89.8179 80.2294 89.9399 79.59 90.18C79.1337 90.3371 78.7026 90.5594 78.31 90.84C77.2111 91.7618 76.2062 92.7901 75.31 93.91C75.1091 94.1198 74.8954 94.3168 74.67 94.5C74.4593 94.683 74.2354 94.8501 74 95C73.4067 95.2936 72.7518 95.441 72.09 95.43C71.2279 95.4496 70.3826 95.19 69.68 94.69C68.6804 93.8128 67.7602 92.849 66.93 91.81C66.4053 91.2428 65.7903 90.7663 65.11 90.4C64.3063 89.9869 63.4135 89.7775 62.51 89.79C61.8673 89.7895 61.2289 89.8942 60.62 90.1C60.1284 90.2695 59.6637 90.5086 59.24 90.81C58.1436 91.7345 57.139 92.7626 56.24 93.88C56.06 94.06 55.88 94.23 55.69 94.39C55.4197 94.6201 55.1284 94.8243 54.82 95C54.2267 95.2936 53.5718 95.441 52.91 95.43C52.0479 95.4496 51.2026 95.19 50.5 94.69C49.4995 93.8105 48.5762 92.847 47.74 91.81C47.2214 91.2403 46.6093 90.7634 45.93 90.4C45.1259 89.9881 44.2334 89.7787 43.33 89.79C42.6462 89.7984 41.9692 89.927 41.33 90.17V90.2Z" fill="#757575"/>
</svg>
