<svg width="120" height="120" viewBox="0 0 120 120" fill="none" xmlns="http://www.w3.org/2000/svg">
<path d="M111.58 89.65C110.9 89.65 110.89 89.58 110.82 89.39C109.99 86.94 109.47 85.24 108.74 82.59C107.82 80.08 107.1 77.81 106.34 75.41C106.03 74.41 105.72 73.47 105.41 72.52C104.57 68.9 104.19 68.4 100.41 68.74C95.41 68.67 90.95 68.74 86.87 68.74C84.6055 68.6 82.3345 68.6 80.07 68.74H78.81C78.2348 68.6545 77.6478 68.6954 77.09 68.86C75.6997 68.621 74.2831 68.5739 72.88 68.72C71.8453 68.81 70.8047 68.81 69.77 68.72H66.96C63.33 68.72 59.89 68.72 56.11 68.62C54.87 68.62 53.86 68.67 53.03 68.67H51.56C50.5 68.16 48.75 68.3 45.56 68.74C42.93 68.67 39.68 68.74 36.56 68.74C32.82 68.8 28.97 68.86 26.19 68.74C25.7299 68.7247 25.2733 68.6542 24.83 68.53C23.8781 68.2061 22.8392 68.2525 21.92 68.66L21.7 68.77L21.59 69C21.3401 69.5137 21.1197 70.0412 20.93 70.58C19.73 73.29 20.66 75.41 21.55 77.45C22.1222 78.6172 22.5262 79.8595 22.75 81.14V81.31C24.61 86.14 26.17 90.82 27.39 95.31C27.83 96.58 29.2 97 31 97C32.4771 96.9553 33.95 96.8184 35.41 96.59C37.52 96.31 39.91 96 40.77 96.44L41.03 96.51C42.3913 96.6149 43.7601 96.5646 45.11 96.36C46.5799 96.1155 48.0801 96.1155 49.55 96.36C49.8301 96.512 50.1405 96.5998 50.4587 96.6171C50.777 96.6344 51.0951 96.5807 51.39 96.46C51.5773 96.3982 51.7728 96.3646 51.97 96.36C52.9392 96.6854 53.983 96.7167 54.97 96.45H55.17C55.87 96.725 56.665 96.61 57.26 96.15L57.41 96.07L57.48 95.89C57.698 96.001 57.886 96.162 58.03 96.36L58.26 96.68H59.64C63.89 96.68 68.05 96.57 72.08 96.47C75.73 96.37 79.51 96.28 83.31 96.26H83.6L83.81 96.08C83.8976 96.0252 83.9916 95.9815 84.09 95.95C84.2686 95.894 84.4398 95.8168 84.6 95.72L84.82 95.59C85.241 95.9284 85.7602 96.1214 86.3 96.14C86.9913 96.2051 87.6861 96.2252 88.38 96.2C89.2649 96.152 90.1524 96.2193 91.02 96.4L91.25 96.47L91.49 96.39C92.3661 96.2001 93.2751 96.2241 94.14 96.46C94.8 96.59 95.468 96.666 96.14 96.69H96.76C97.6146 96.6975 98.4681 96.6273 99.31 96.48C99.9716 96.3698 100.64 96.303 101.31 96.28C102.44 96.28 103.59 96.19 104.75 96.13C107 96.01 109.32 95.9 111.57 95.98H111.97L112.2 95.65C112.39 95.39 112.57 95.13 112.75 94.85L112.87 94.66V94.42C112.887 93.7652 113.156 93.1421 113.62 92.68L113.81 92.47V92.18C113.9 89.73 112.33 89.68 111.58 89.65Z" fill="#757575"/>
<path d="M110.76 86.25C109.91 84.49 110.44 83.17 109.12 81.57C109.06 81.2 108.3 79.79 108.59 79.24C107.72 76.17 106.81 71.73 105.59 68.97C104.26 67.97 100.8 68.88 98.82 68.55C94.19 68.55 89.92 68.66 85.24 68.48C83.55 68.48 83.59 68.62 81.9 68.62C78.38 68.33 78.38 68.62 79.58 71.81C80.48 77.13 83.47 81.74 84.66 86.9C85.0444 88.0187 85.5757 89.0813 86.24 90.06C86.69 91.29 86.36 93.23 87.77 93.06C90.6389 93.0617 93.5059 93.2086 96.36 93.5C97.61 93.35 98.47 93.82 99.62 93.14C101.26 93.14 100.62 92.4 102.98 93.14C103.681 93.176 104.384 93.15 105.08 93.06C105.89 92.41 107.02 92.94 107.95 92.52C108.76 92.52 109.95 93.27 110.63 92.61C110.79 92.45 112.8 92.61 112.89 92.54C112.76 90.7 111.42 88.08 110.76 86.25Z" fill="#E0E0E0"/>
<path d="M98.14 94.25C97.9268 94.2607 97.7132 94.2607 97.5 94.25C97.144 94.22 96.786 94.22 96.43 94.25C96.3704 94.2601 96.3096 94.2601 96.25 94.25C93.7351 93.9866 91.2086 93.8498 88.68 93.84H87.79C86.15 94.02 85.88 92.36 85.74 91.46C85.705 91.1211 85.638 90.7863 85.54 90.46C85.0318 89.7321 84.6185 88.9424 84.31 88.11C84.2 87.84 84.09 87.55 83.95 87.25C83.9442 87.2035 83.9442 87.1565 83.95 87.11C83.3403 84.7877 82.5479 82.5173 81.58 80.32C80.3606 77.657 79.4416 74.8665 78.84 72C78.18 70.24 77.84 69.18 78.37 68.41C78.9 67.64 80.1 67.71 81.94 67.87C82.69 67.87 83.07 67.87 83.48 67.79C84.0517 67.7364 84.6258 67.7131 85.2 67.72C88.94 67.86 92.37 67.84 96 67.81H98.9C99.774 67.9 100.656 67.9 101.53 67.81C103.3 67.71 104.97 67.6 106 68.37C106.098 68.4474 106.177 68.5467 106.23 68.66C107.186 71.0801 107.951 73.571 108.52 76.11C108.78 77.11 109.04 78.11 109.29 79.03C109.341 79.2143 109.319 79.411 109.23 79.58C109.316 79.982 109.444 80.3741 109.61 80.75C109.68 80.94 109.74 81.09 109.78 81.23C110.414 82.0634 110.802 83.0576 110.9 84.1C110.985 84.7306 111.156 85.3464 111.41 85.93V86C111.59 86.49 111.82 87 112.06 87.62C112.803 89.1519 113.312 90.7868 113.57 92.47C113.574 92.5742 113.558 92.6782 113.522 92.776C113.486 92.8738 113.431 92.9636 113.36 93.04C113.09 93.31 112.83 93.31 111.91 93.28H110.91C110.571 93.4708 110.192 93.58 109.803 93.5991C109.414 93.6182 109.026 93.5466 108.67 93.39C108.461 93.3259 108.247 93.2791 108.03 93.25C107.556 93.4032 107.058 93.4676 106.56 93.44C106.193 93.3785 105.816 93.4418 105.49 93.62C105.19 93.86 104.81 93.89 103.24 93.87H103C102.924 93.8851 102.846 93.8851 102.77 93.87C101.56 93.5 101.36 93.57 101.07 93.68C100.67 93.832 100.247 93.91 99.82 93.91C99.2975 94.1629 98.7197 94.2798 98.14 94.25ZM96.88 92.7H97.59C98.147 92.8045 98.7231 92.7126 99.22 92.44C99.339 92.3731 99.4735 92.3386 99.61 92.34C99.9246 92.3731 100.242 92.3213 100.53 92.19C101.367 91.9067 102.282 91.9605 103.08 92.34H103.3C103.776 92.365 104.254 92.365 104.73 92.34C105.295 92.0006 105.955 91.8565 106.61 91.93C106.948 91.9551 107.288 91.9143 107.61 91.81C107.692 91.7716 107.78 91.7479 107.87 91.74C108.288 91.742 108.703 91.8095 109.1 91.94C109.49 92.04 109.94 92.17 110.1 92.03C110.4 91.74 110.8 91.74 112.01 91.77C111.679 90.5446 111.251 89.3474 110.73 88.19C110.48 87.6 110.25 87.04 110.07 86.53C109.755 85.835 109.546 85.0968 109.45 84.34C109.377 83.501 109.061 82.7016 108.54 82.04C108.451 81.9391 108.395 81.8135 108.38 81.68C108.337 81.5474 108.287 81.4172 108.23 81.29C107.908 80.6496 107.759 79.9358 107.8 79.22C107.57 78.37 107.33 77.44 107.09 76.47C106.55 74.0905 105.845 71.7515 104.98 69.47C103.889 69.1909 102.754 69.133 101.64 69.3C100.676 69.3955 99.7043 69.3955 98.74 69.3H96.03C92.38 69.3 88.94 69.35 85.19 69.2C84.4 69.2 84.02 69.2 83.61 69.28C83.2 69.36 82.76 69.35 81.88 69.35C81.1187 69.271 80.3513 69.271 79.59 69.35C79.734 70.11 79.962 70.85 80.27 71.56C80.2747 71.6065 80.2747 71.6535 80.27 71.7C80.854 74.4541 81.7358 77.1366 82.9 79.7C83.893 81.9647 84.7023 84.3056 85.32 86.7C85.45 86.99 85.56 87.27 85.67 87.53C85.9415 88.2809 86.315 88.9909 86.78 89.64C86.8262 89.6973 86.8633 89.7614 86.89 89.83C87.037 90.28 87.14 90.741 87.2 91.21C87.225 91.597 87.32 91.977 87.48 92.33C87.5262 92.3389 87.5738 92.3389 87.62 92.33H88.68C91.13 92.33 93.91 92.44 96.32 92.74C96.5057 92.7157 96.6927 92.7023 96.88 92.7Z" fill="#757575"/>
<path d="M81.36 78.59C80.36 75.59 79.36 71.59 78.25 68.97C77.67 68.23 76.58 68.61 74.89 68.61C72.35 68.55 70.63 68.55 68.1 68.61C63.47 68.61 59.19 68.41 54.56 68.61C51.04 68.32 51.04 68.61 52.25 71.8C52.78 73.5 52.6 73.5 53.14 75.2C53.48 77.93 55.54 79.2 55.4 81.76C57.3511 85.1885 58.9301 88.8158 60.11 92.58C60.53 93.46 62.32 93.29 62.58 93.16C64.89 92.77 67.58 93.51 69.88 93.43C72.4 93.05 74.95 92.43 77.53 93.07C79.24 92.93 81.53 93.65 83.13 92.82C83.93 92.34 85.13 93.16 85.13 92.12C84.31 87.5 82.71 83.1 81.36 78.59Z" fill="#E0E0E0"/>
<path d="M69.5 94.19C68.5807 94.1732 67.6629 94.1098 66.75 94C65.4263 93.7976 64.0822 93.764 62.75 93.9C62.0256 94.0821 61.2654 94.0648 60.55 93.85C60.3088 93.7789 60.0844 93.6599 59.8902 93.5001C59.6961 93.3403 59.5361 93.143 59.42 92.92L59.2 92.32C58.0844 88.7839 56.5926 85.3777 54.75 82.16C54.6682 82.0285 54.6297 81.8746 54.64 81.72C54.6153 80.6423 54.2669 79.597 53.64 78.72C53.0018 77.6925 52.5672 76.5517 52.36 75.36C52.1836 74.8014 52.0368 74.234 51.92 73.66C51.8236 73.0993 51.6934 72.545 51.53 72C50.87 70.24 50.47 69.16 51.05 68.38C51.63 67.6 52.76 67.68 54.57 67.83C57.5 67.69 60.34 67.73 63.09 67.77H74.9C75.34 67.77 75.75 67.77 76.11 67.71C77.17 67.64 78.17 67.57 78.83 68.42C78.8726 68.4707 78.9064 68.5281 78.93 68.59C79.6566 70.4522 80.2841 72.3515 80.81 74.28C81.22 75.64 81.64 77.04 82.06 78.28C82.39 79.4 82.74 80.5 83.06 81.6C84.2274 84.997 85.1531 88.4724 85.83 92C85.8567 92.1994 85.8392 92.4022 85.7787 92.594C85.7182 92.7859 85.6163 92.962 85.48 93.11C85.297 93.2532 85.0851 93.355 84.859 93.4085C84.6328 93.462 84.3978 93.4659 84.17 93.42C83.9562 93.3705 83.7338 93.3705 83.52 93.42C82.2314 93.9458 80.82 94.0949 79.45 93.85C78.8364 93.7744 78.2175 93.751 77.6 93.78C77.5174 93.7952 77.4326 93.7952 77.35 93.78C75.3068 93.4275 73.2128 93.5024 71.2 94L70 94.2L69.5 94.19ZM64.08 92.31C65.02 92.31 65.97 92.41 66.91 92.5C67.9035 92.6421 68.9066 92.7056 69.91 92.69L71 92.5C73.1793 91.9971 75.4378 91.9393 77.64 92.33C78.3075 92.3077 78.9757 92.3311 79.64 92.4C80.7118 92.603 81.818 92.5237 82.85 92.17C83.3079 91.9319 83.8304 91.8477 84.34 91.93C83.6854 88.6153 82.8101 85.348 81.72 82.15C81.37 81.04 81.03 79.93 80.72 78.82C80.41 77.71 79.87 76.17 79.47 74.82C78.9 72.91 78.31 70.93 77.69 69.41C77.5 69.26 77.12 69.27 76.31 69.33C75.91 69.33 75.46 69.39 74.97 69.39C72.36 69.33 70.65 69.33 68.2 69.39H63.15C60.28 69.39 57.57 69.31 54.68 69.45H54.58C53.8391 69.3658 53.0909 69.3658 52.35 69.45C52.4919 70.171 52.7098 70.8749 53 71.55C53.19 72.145 53.35 72.749 53.48 73.36C53.5704 73.9136 53.6939 74.4612 53.85 75C53.8546 75.0432 53.8546 75.0868 53.85 75.13C54.039 76.154 54.43 77.13 55 78C55.7027 79.0593 56.1038 80.29 56.16 81.56C57.9987 84.8138 59.4966 88.2486 60.63 91.81L60.81 92.33C60.91 92.52 61.95 92.57 62.3 92.46C62.35 92.45 62.4 92.45 62.45 92.46C62.9882 92.3649 63.5335 92.3147 64.08 92.31Z" fill="#757575"/>
<path d="M52.81 75.2C52.07 73.31 51.53 70.4 50.76 68.97C50.18 68.23 49.1 68.61 47.4 68.61C43.82 68.51 40.8 68.61 37.22 68.61C33.22 68.92 25.16 68.11 22.22 69.13C22.43 71.85 23.86 75.89 24.55 78.86C25.0409 80.6672 25.7814 82.3972 26.75 84C26.954 85.2651 27.4733 86.4585 28.26 87.47C29 89.47 29.26 91.84 30.49 93.67C30.8 94.05 31.86 93.3 32.22 93.67C32.79 94.21 36.3 93.43 36.97 93.5C38.11 93.5 39.57 94.23 40.62 93.76C41.1313 93.5171 41.6945 93.4038 42.26 93.43C44.15 93.88 45.58 92.86 47.37 92.67C48.55 93.1 49.14 93.76 50.37 93.05C51.94 93.28 54.23 93.67 55.62 92.87C56.42 92.39 57.5 93.05 57.48 92.02C56 86.26 54.61 80.86 52.81 75.2Z" fill="#E0E0E0"/>
<path d="M39.79 94.62C39.2529 94.6052 38.7193 94.528 38.2 94.39C37.8041 94.3055 37.4033 94.2454 37 94.21C36.5645 94.2216 36.1303 94.2617 35.7 94.33C33.81 94.59 32.56 94.72 31.9 94.33L31.59 94.41C31.323 94.5418 31.0223 94.5894 30.7277 94.5466C30.433 94.5037 30.1584 94.3724 29.94 94.17C29.1117 92.8404 28.526 91.3743 28.21 89.84C28.03 89.15 27.85 88.49 27.63 87.84C26.8095 86.8009 26.2505 85.58 26 84.28C25.038 82.6266 24.3047 80.8504 23.82 79C23.57 77.94 23.25 76.81 22.92 75.61C22.2369 73.4922 21.7482 71.3165 21.46 69.11C21.4468 68.9457 21.4888 68.7818 21.5794 68.6441C21.67 68.5064 21.8039 68.4029 21.96 68.35C23.96 67.66 27.78 67.74 31.5 67.81C33.66 67.81 35.7 67.89 37.16 67.81H47.42C47.86 67.81 48.27 67.81 48.63 67.75C49.69 67.68 50.69 67.61 51.35 68.46C51.379 68.4927 51.4027 68.5298 51.42 68.57C51.9522 69.7222 52.3676 70.9249 52.66 72.16C52.93 73.16 53.21 74.1 53.51 74.88C55.37 80.71 56.85 86.39 58.21 91.7C58.2156 91.7565 58.2156 91.8135 58.21 91.87C58.21 93.23 57.03 93.26 56.63 93.28C56.4117 93.2609 56.1921 93.2952 55.99 93.38C54.43 94.28 52.16 93.95 50.48 93.7C50.0473 93.9017 49.5713 93.9926 49.0948 93.9647C48.6183 93.9368 48.1561 93.7908 47.75 93.54C47.59 93.46 47.42 93.38 47.24 93.31C46.7073 93.3941 46.1822 93.5212 45.67 93.69C44.5378 94.1306 43.3063 94.2517 42.11 94.04C41.6925 94.0465 41.2807 94.1384 40.9 94.31C40.5548 94.4873 40.1772 94.5928 39.79 94.62ZM37.07 92.71C37.5596 92.7338 38.0454 92.8075 38.52 92.93C39.0954 93.1297 39.7145 93.1677 40.31 93.04C40.9333 92.7432 41.6205 92.6057 42.31 92.64H42.43C43.3879 92.8023 44.3722 92.6914 45.27 92.32C45.9212 92.1081 46.5908 91.9574 47.27 91.87C47.382 91.845 47.498 91.845 47.61 91.87C47.9 91.98 48.16 92.09 48.4 92.2C49.11 92.53 49.4 92.65 50 92.3C50.1433 92.2116 50.3144 92.1795 50.48 92.21H50.66C52.04 92.42 54.14 92.74 55.25 92.1C55.6668 91.8752 56.1369 91.768 56.61 91.79H56.67C55.34 86.6 53.89 81.06 52.08 75.38C51.76 74.54 51.47 73.53 51.2 72.55C50.9349 71.4471 50.5735 70.3697 50.12 69.33C49.94 69.16 49.56 69.17 48.72 69.23C48.32 69.23 47.88 69.29 47.38 69.29H37.18C35.72 69.4 33.65 69.36 31.45 69.29C28.6302 69.1213 25.8007 69.2218 23 69.59C23.3294 71.4828 23.777 73.3531 24.34 75.19C24.68 76.4 25.01 77.54 25.25 78.59C25.7173 80.3483 26.4311 82.0316 27.37 83.59C27.41 83.662 27.44 83.74 27.46 83.82C27.6337 84.9807 28.1058 86.0764 28.83 87C28.8886 87.067 28.9329 87.1452 28.96 87.23C29.23 87.95 29.43 88.71 29.63 89.45C29.9143 90.6928 30.3757 91.8884 31 93L31.21 92.94C31.4496 92.8293 31.7128 92.7796 31.9763 92.7953C32.2398 92.811 32.4953 92.8916 32.72 93.03C33.6571 93.0748 34.5963 93.0144 35.52 92.85C36.0083 92.7599 36.5035 92.7131 37 92.71H37.07Z" fill="#757575"/>
<path d="M95.67 66.34C94.99 66.34 94.98 66.27 94.91 66.07C94.08 63.62 93.56 61.92 92.83 59.28C91.91 56.77 91.19 54.5 90.42 52.09C90.12 51.09 89.81 50.16 89.5 49.2C88.66 45.58 88.28 45.09 84.5 45.42C79.5 45.35 75.04 45.37 70.96 45.42C68.6925 45.27 66.4175 45.27 64.15 45.42C63.68 45.42 63.26 45.42 62.9 45.36C62.3248 45.2745 61.7378 45.3154 61.18 45.48C59.7892 45.2446 58.3727 45.2008 56.97 45.35C55.9353 45.4405 54.8947 45.4405 53.86 45.35H51C47.37 45.35 43.93 45.35 40.15 45.26C38.91 45.26 37.9 45.26 37.07 45.31C36.0807 45.2386 35.0863 45.3161 34.12 45.54C32.36 44.74 30.01 44.9 26.9 45.39C24.69 45.33 22.5 45.39 20.38 45.39C17.69 45.39 14.91 45.39 12.04 45.29C11.5597 45.2625 11.087 45.1578 10.64 44.98C10.1903 44.778 9.70296 44.6736 9.21 44.6736C8.71704 44.6736 8.22968 44.778 7.78 44.98L7.56 45.1L7.45 45.32C7.19909 45.838 6.97545 46.3687 6.78 46.91C5.58 49.62 6.52 51.84 7.42 53.99C7.9833 55.1774 8.38359 56.4354 8.61 57.73V57.9C10.3948 62.4854 11.9468 67.158 13.26 71.9C13.74 73.28 14.94 73.66 16.35 73.66C17.2726 73.6312 18.1917 73.5342 19.1 73.37C20.51 73.16 22.1 72.91 22.81 73.37L22.94 73.45H23.1C24.3084 73.5573 25.5258 73.5035 26.72 73.29C27.985 73.0455 29.285 73.0455 30.55 73.29C31.24 73.67 32.49 73.54 34.39 73.29C34.9433 73.158 35.5044 73.0611 36.07 73C37.041 73.3151 38.0818 73.3463 39.07 73.09H39.26C39.965 73.36 40.76 73.247 41.36 72.79L41.51 72.71L41.58 72.52C41.804 72.625 41.998 72.787 42.14 72.99L42.36 73.31H43.75C48.01 73.31 52.17 73.21 56.2 73.1C59.85 73.01 63.63 72.91 67.42 72.9H67.7L67.92 72.71C68.008 72.66 68.102 72.62 68.2 72.59C68.3752 72.5253 68.5456 72.4485 68.71 72.36L68.93 72.23C69.3515 72.5661 69.8711 72.7556 70.41 72.77C71.1011 72.8384 71.7959 72.8618 72.49 72.84C73.3745 72.7889 74.2619 72.8527 75.13 73.03L75.49 73.15L75.79 72.92C76.23 72.6 77.21 73.02 77.62 73.2L77.8 73.28H78C78.9481 73.1946 79.9019 73.1946 80.85 73.28H81.27C82.0074 73.262 82.7425 73.1918 83.47 73.07C84.1306 72.9512 84.7991 72.8811 85.47 72.86H85.67C86.0074 72.8244 86.3484 72.8619 86.67 72.97C87.0786 73.0754 87.4981 73.1325 87.92 73.14H88.05C89.4158 72.92 90.8051 72.8863 92.18 73.04C93.178 73.12 94.18 73.143 95.18 73.11H95.44L95.64 72.93L95.94 72.68C96.3911 72.3489 96.7549 71.913 97 71.41L97.07 71.25V71.08C97.0877 70.4224 97.356 69.7964 97.82 69.33L98.01 69.12V68.83C98 66.41 96.42 66.36 95.67 66.34Z" fill="#757575"/>
<path d="M94.85 62.94C94 61.18 94.53 59.86 93.21 58.26C93.15 57.88 92.39 56.47 92.67 55.92C91.81 52.86 90.9 48.41 89.67 45.66C88.34 44.66 84.88 45.57 82.9 45.24C78.27 45.24 74 45.34 69.32 45.16C67.62 45.16 67.67 45.31 65.98 45.31C62.46 45.01 62.46 45.31 63.66 48.5C64.56 53.81 67.55 58.43 68.74 63.59C69.1264 64.7078 69.6576 65.7702 70.32 66.75C70.77 67.97 70.44 69.91 71.85 69.75C74.56 69.82 77.74 69.85 80.44 70.19C81.69 70.05 82.54 70.51 83.7 69.84C85.34 69.84 84.7 69.1 87.06 69.84C87.76 69.886 88.465 69.86 89.16 69.76C89.97 69.12 91.1 69.65 92.03 69.23C92.84 69.17 94.03 69.98 94.71 69.31C94.87 69.16 96.88 69.31 96.97 69.24C96.85 67.39 95.51 64.76 94.85 62.94Z" fill="#E0E0E0"/>
<path d="M82.23 70.94H81.59C81.234 70.91 80.876 70.91 80.52 70.94H80.34C77.98 70.64 75.2 70.58 72.76 70.52H71.88C70.23 70.71 69.97 69.04 69.88 68.14C69.8439 67.8013 69.777 67.4665 69.68 67.14C69.1675 66.4148 68.7538 65.6245 68.45 64.79C68.34 64.52 68.23 64.24 68.09 63.93C68.069 63.8885 68.0522 63.8449 68.04 63.8C67.4226 61.4717 66.6166 59.1975 65.63 57C64.4279 54.3513 63.5224 51.5778 62.93 48.73C62.27 46.97 61.93 45.9 62.46 45.14C62.99 44.38 64.19 44.44 66.03 44.59C66.5442 44.5951 67.0584 44.5718 67.57 44.52C68.1481 44.4616 68.729 44.4349 69.31 44.44C73.05 44.58 76.48 44.56 80.11 44.54H83.01C83.884 44.63 84.766 44.63 85.64 44.54C87.41 44.43 89.08 44.33 90.11 45.1C90.2128 45.1728 90.2926 45.2734 90.34 45.39C91.2957 47.8066 92.0614 50.2942 92.63 52.83C92.89 53.83 93.15 54.83 93.4 55.76C93.4508 55.9443 93.4294 56.141 93.34 56.31C93.4262 56.712 93.5536 57.1041 93.72 57.48C93.79 57.66 93.85 57.82 93.89 57.96C94.5117 58.7804 94.8957 59.756 95 60.78C95.0852 61.4138 95.2568 62.0328 95.51 62.62V62.68C95.69 63.18 95.92 63.68 96.16 64.31C96.9034 65.8419 97.4124 67.4768 97.67 69.16C97.6741 69.2626 97.6577 69.365 97.6216 69.4612C97.5855 69.5574 97.5306 69.6454 97.46 69.72C97.23 70 97 70 96 70H95C94.6615 70.1924 94.2829 70.3033 93.8941 70.3242C93.5054 70.345 93.1171 70.2751 92.76 70.12C92.5509 70.0559 92.3368 70.0091 92.12 69.98C91.6455 70.131 91.1469 70.192 90.65 70.16C90.2822 70.1075 89.9072 70.1741 89.58 70.35C89.28 70.58 88.9 70.62 87.33 70.6H87.02C86.9401 70.6055 86.8599 70.6055 86.78 70.6C85.58 70.22 85.38 70.3 85.09 70.4C84.6917 70.5564 84.2679 70.6378 83.84 70.64C83.3352 70.8678 82.783 70.9707 82.23 70.94ZM81 69.38H81.71C82.2659 69.4875 82.8419 69.3992 83.34 69.13C83.4576 69.0597 83.5931 69.025 83.73 69.03C84.0442 69.0532 84.3594 69.0018 84.65 68.88C85.4863 68.5967 86.3997 68.6468 87.2 69.02H88.85C89.4167 68.6852 90.0747 68.5382 90.73 68.6C91.0681 68.6321 91.4091 68.5912 91.73 68.48C91.816 68.4449 91.9073 68.4246 92 68.42C92.4178 68.4138 92.8336 68.478 93.23 68.61C93.62 68.72 94.07 68.84 94.23 68.71C94.53 68.42 94.9 68.41 96.13 68.45C95.8073 67.2201 95.3825 66.0192 94.86 64.86C94.61 64.28 94.38 63.71 94.2 63.21C93.8693 62.5102 93.6436 61.7656 93.53 61C93.4655 60.1609 93.1521 59.3601 92.63 58.7C92.5447 58.5969 92.4893 58.4724 92.47 58.34C92.4274 58.204 92.3773 58.0705 92.32 57.94C91.9977 57.2996 91.8494 56.5858 91.89 55.87C91.66 55.03 91.42 54.09 91.17 53.12C90.6383 50.7395 89.9365 48.4001 89.07 46.12C87.9765 45.8525 86.8399 45.8117 85.73 46C84.7657 46.0955 83.7943 46.0955 82.83 46H80.12C76.47 46 73.03 46 69.28 45.9C68.49 45.9 68.11 45.9 67.7 45.97C67.1252 46.0285 66.5477 46.0552 65.97 46.05C65.2093 45.961 64.4407 45.961 63.68 46.05C63.827 46.809 64.055 47.55 64.36 48.26V48.4C64.9406 51.1538 65.8191 53.8363 66.98 56.4C67.9771 58.6469 68.7898 60.9713 69.41 63.35L69.76 64.18C70.0387 64.9366 70.4225 65.6503 70.9 66.3C70.9482 66.3559 70.9855 66.4203 71.01 66.49C71.155 66.94 71.255 67.401 71.31 67.87C71.3388 68.2609 71.437 68.6435 71.6 69H72.79C75.24 69.06 78.02 69.12 80.44 69.42L81 69.38Z" fill="#757575"/>
<path d="M65.45 55.27C64.45 52.27 63.45 48.27 62.34 45.66C61.76 44.91 60.67 45.3 58.98 45.3C56.44 45.24 54.72 45.23 52.19 45.3C47.56 45.3 43.28 45.1 38.65 45.3C35.13 45 35.13 45.3 36.34 48.49C36.87 50.19 36.69 50.19 37.23 51.88C37.57 54.61 39.63 55.88 39.49 58.44C41.438 61.8771 43.0168 65.5106 44.2 69.28C44.62 70.16 46.41 69.98 46.67 69.85C48.98 69.47 51.67 70.2 53.97 70.12C56.49 69.74 59.03 69.12 61.62 69.77C63.33 69.63 65.67 70.35 67.22 69.51C68.02 69.03 69.22 69.85 69.22 68.81C68.4 64.18 66.79 59.79 65.45 55.27Z" fill="#E0E0E0"/>
<path d="M53.59 70.87C52.6705 70.8582 51.7524 70.7948 50.84 70.68C49.5158 70.4825 48.1724 70.4489 46.84 70.58C46.1215 70.7889 45.3585 70.7889 44.64 70.58C44.3973 70.5122 44.1714 70.3944 43.9768 70.2343C43.7822 70.0742 43.6232 69.8751 43.51 69.65L43.3 69C42.1863 65.46 40.6944 62.0503 38.85 58.83C38.7696 58.7016 38.7312 58.5513 38.74 58.4C38.7123 57.3228 38.3641 56.2784 37.74 55.4C37.1001 54.3697 36.6655 53.2253 36.46 52.03C36.2823 51.4718 36.1354 50.9043 36.02 50.33C35.93 49.91 35.84 49.52 35.59 48.7C34.93 46.95 34.53 45.86 35.11 45.09C35.69 44.32 36.82 44.39 38.63 44.54C41.56 44.39 44.4 44.44 47.16 44.47H52.16C54.63 44.42 56.35 44.47 58.96 44.47C59.41 44.47 59.82 44.47 60.18 44.41C61.24 44.34 62.18 44.26 62.9 45.11C62.9409 45.1655 62.9745 45.226 63 45.29C63.67 46.9 64.29 48.97 64.88 50.97C65.29 52.33 65.7 53.74 66.12 54.97C66.46 56.08 66.81 57.19 67.12 58.29C68.2698 61.6587 69.182 65.1038 69.85 68.6C69.904 69 69.775 69.404 69.5 69.7C69.3188 69.8467 69.1073 69.9515 68.8809 70.0068C68.6544 70.0621 68.4184 70.0666 68.19 70.02C67.9768 69.9654 67.7532 69.9654 67.54 70.02C66.2506 70.5429 64.8391 70.6886 63.47 70.44C62.8558 70.3724 62.2373 70.3523 61.62 70.38C61.537 70.3905 61.453 70.3905 61.37 70.38C59.3305 70.0076 57.2358 70.0655 55.22 70.55L54.02 70.74L53.59 70.87ZM48.17 69C49.116 69.017 50.06 69.084 51 69.2C51.9942 69.3338 52.9969 69.394 54 69.38L55.1 69.2C57.2613 68.6939 59.502 68.6259 61.69 69C62.3577 68.9809 63.0259 69.0077 63.69 69.08C64.7624 69.2854 65.8701 69.2026 66.9 68.84C67.3611 68.6115 67.8805 68.5278 68.39 68.6C67.7367 65.2817 66.8614 62.011 65.77 58.81C65.42 57.71 65.08 56.6 64.77 55.48C64.46 54.36 63.92 52.83 63.52 51.48C62.95 49.56 62.36 47.59 61.74 46.07C61.56 45.92 61.17 45.93 60.36 45.99C59.96 45.99 59.51 46.05 59.02 46.05C56.41 45.99 54.7 45.98 52.25 46.05H47.2C44.33 46.05 41.62 45.97 38.73 46.12H38.62C37.8827 46.0307 37.1373 46.0307 36.4 46.12C36.527 46.845 36.728 47.556 37 48.24C37.192 48.83 37.349 49.431 37.47 50.04C37.56 50.46 37.65 50.85 37.9 51.67V51.8C38.0741 52.8291 38.4551 53.8123 39.02 54.69C39.7182 55.7515 40.1188 56.9809 40.18 58.25C42.0438 61.4991 43.5621 64.9345 44.71 68.5L44.9 69.03C45 69.22 46.04 69.26 46.39 69.16C46.44 69.15 46.49 69.15 46.54 69.16C47.0786 69.0665 47.6235 69.013 48.17 69Z" fill="#757575"/>
<path d="M36.9 51.88C36.16 50 35.62 47.08 34.9 45.66C34.32 44.91 30.06 45.28 28.57 45.28C25.43 45.19 22.79 45.28 19.64 45.23C16.16 45.55 11.1 44.58 8.14 45.61C8.35 48.33 9.79 52.36 10.47 55.34C10.9597 57.1619 11.7037 58.9057 12.68 60.52C12.8655 61.7845 13.3677 62.9816 14.14 64C14.89 66 15.14 68.38 16.37 70.2C16.68 70.58 17.75 69.84 18.1 70.2C18.68 70.74 18.95 70.27 19.54 70.34C20.54 70.34 21.82 71.08 22.75 70.6C23.1883 70.3634 23.6823 70.2494 24.18 70.27C25.84 70.72 27.09 69.7 28.66 69.51C29.66 69.94 33.23 70.44 34.48 69.73C36.05 69.97 38.34 70.36 39.73 69.55C40.53 69.07 41.84 69.71 41.58 68.7C40.12 62.94 38.7 57.54 36.9 51.88Z" fill="#E0E0E0"/>
<path d="M22 71.47C21.5117 71.4519 21.0278 71.3713 20.56 71.23C20.2346 71.132 19.8991 71.0716 19.56 71.05C19.442 71.0191 19.318 71.0191 19.2 71.05C18.9564 71.1351 18.6949 71.1558 18.4409 71.1103C18.1869 71.0647 17.9489 70.9544 17.75 70.79L17.46 70.87C17.01 70.99 16.27 71.2 15.8 70.63C14.9775 69.2975 14.3921 67.8325 14.07 66.3C13.89 65.61 13.71 64.95 13.49 64.3C12.6984 63.2481 12.1641 62.0255 11.93 60.73C10.9583 59.0921 10.2147 57.3291 9.72 55.49C9.47 54.42 9.15 53.29 8.81 52.1C8.13735 49.9793 7.64888 47.8046 7.35 45.6C7.33962 45.435 7.38264 45.271 7.47269 45.1323C7.56274 44.9937 7.69503 44.8877 7.85 44.83C9.79 44.16 12.47 44.28 15.06 44.39C16.5485 44.4846 18.0415 44.4846 19.53 44.39H29.78C33.22 44.26 34.86 44.33 35.45 45.08L35.52 45.19C36.0506 46.3429 36.466 47.5454 36.76 48.78C37.03 49.78 37.3 50.78 37.6 51.5C39.45 57.31 40.94 62.99 42.3 68.31C42.3607 68.4915 42.3778 68.6847 42.35 68.8741C42.3222 69.0634 42.2503 69.2436 42.14 69.4C41.9728 69.5782 41.7666 69.7151 41.5376 69.8002C41.3086 69.8852 41.0629 69.9159 40.82 69.89C40.5779 69.8686 40.3343 69.9064 40.11 70C38.54 70.9 36.26 70.57 34.58 70.31C33.01 70.96 29.82 70.51 28.58 70.08C28.1307 70.1673 27.6892 70.2911 27.26 70.45C26.2572 70.9016 25.1381 71.0275 24.06 70.81C23.7295 70.8269 23.406 70.9121 23.11 71.06C22.7825 71.292 22.3996 71.4334 22 71.47ZM19.64 69.55C20.074 69.5783 20.5033 69.6554 20.92 69.78C21.3835 69.9661 21.8924 70.0079 22.38 69.9C22.948 69.5875 23.5928 69.4419 24.24 69.48H24.36C25.1738 69.6238 26.0123 69.512 26.76 69.16C27.3378 68.9388 27.938 68.7812 28.55 68.69C28.68 68.68 28.81 68.7 28.93 68.75C29.93 69.16 33.15 69.55 34.09 69.01C34.2365 68.9301 34.4045 68.8985 34.57 68.92H34.75C36.13 69.13 38.22 69.44 39.34 68.8C39.7787 68.5761 40.2679 68.4693 40.76 68.49C39.42 63.25 37.96 57.72 36.17 52.07C35.84 51.24 35.56 50.22 35.28 49.24C35.0179 48.1485 34.6633 47.0813 34.22 46.05C32.7598 45.8696 31.284 45.8528 29.82 46H28.52C26.84 45.95 25.29 46 23.78 46H19.57C18.0481 46.0942 16.5219 46.0942 15 46C12.9698 45.8068 10.9232 45.874 8.91 46.2C9.2383 48.093 9.68586 49.9634 10.25 51.8C10.6 53.01 10.92 54.16 11.16 55.21C11.6307 56.9687 12.3478 58.6521 13.29 60.21C13.33 60.282 13.36 60.36 13.38 60.44C13.5545 61.5848 14.0192 62.6658 14.73 63.58C14.7826 63.6475 14.8263 63.7214 14.86 63.8C15.12 64.52 15.33 65.29 15.52 66.02C15.7878 67.2668 16.2322 68.4689 16.84 69.59H17.05C17.3018 69.4699 17.5812 69.4196 17.8591 69.4442C18.137 69.4688 18.4032 69.5675 18.63 69.73C18.6551 69.7591 18.6857 69.7829 18.72 69.8H18.82C19.082 69.72 19.357 69.69 19.63 69.71L19.64 69.55Z" fill="#757575"/>
<g opacity="0.25">
<path d="M96.43 71C95.58 69.94 87.82 69.5 61.85 69C56.85 68.91 52.04 68.83 51.33 68.74C51.2316 68.715 51.1284 68.715 51.03 68.74L22.83 71C22.6346 71.0154 22.4529 71.1067 22.3239 71.2543C22.195 71.402 22.1289 71.5943 22.14 71.79C22.2458 73.3396 22.5516 74.8689 23.05 76.34C23.1113 76.5103 23.2321 76.6527 23.3902 76.7409C23.5482 76.8292 23.7329 76.8572 23.91 76.82C25.1286 76.6143 26.3672 76.5539 27.6 76.64H27.93C28.0829 76.6512 28.235 76.6087 28.36 76.52C28.58 76.38 28.74 76.41 29.28 76.61C29.648 76.7788 30.0455 76.874 30.45 76.89C30.6816 76.8866 30.9112 76.846 31.13 76.77C32.0806 76.6329 33.0445 76.6127 34 76.71C35.27 76.84 36.553 76.79 37.81 76.56H37.97C38.675 76.83 39.47 76.717 40.07 76.26C40.1696 76.1975 40.2439 76.1019 40.28 75.99C40.504 76.095 40.698 76.257 40.84 76.46C40.98 76.66 41.207 76.779 41.45 76.78C46.05 76.78 50.54 76.69 54.87 76.57C58.53 76.48 62.32 76.38 66.12 76.37C66.3039 76.3676 66.4809 76.3003 66.62 76.18C66.7073 76.1272 66.8016 76.0868 66.9 76.06C67.0744 75.9936 67.2448 75.9168 67.41 75.83C67.4755 75.7911 67.5332 75.7402 67.58 75.68C68.0168 76.0258 68.5532 76.2221 69.11 76.24C69.8011 76.3084 70.4959 76.3318 71.19 76.31C72.0745 76.2589 72.9619 76.3227 73.83 76.5C73.9406 76.5373 74.0586 76.5468 74.1738 76.5276C74.2889 76.5084 74.3975 76.4612 74.49 76.39C74.88 76.11 75.63 76.39 76.32 76.67C76.4354 76.7238 76.5635 76.7445 76.69 76.73C77.6414 76.6446 78.5986 76.6446 79.55 76.73C80.4278 76.7503 81.3055 76.6833 82.17 76.53C82.8306 76.4112 83.4991 76.3411 84.17 76.32C84.2363 76.3297 84.3037 76.3297 84.37 76.32C84.7081 76.2885 85.049 76.3294 85.37 76.44C85.7769 76.5538 86.1975 76.611 86.62 76.61H86.75C88.1158 76.3899 89.5051 76.3562 90.88 76.51C91.878 76.59 92.88 76.613 93.88 76.58C94.0519 76.5689 94.2146 76.4982 94.34 76.38L94.65 76.13C95.1029 75.7981 95.4697 75.3626 95.72 74.86C95.7599 74.765 95.7803 74.663 95.78 74.56C95.8449 73.9663 96.0106 73.388 96.27 72.85C96.426 72.478 96.56 72.098 96.67 71.71C96.6851 71.4512 96.599 71.1966 96.43 71ZM22.54 52C24.1009 52.1004 25.6679 52.0536 27.22 51.86C29.2088 51.5824 31.2245 51.5556 33.22 51.78C33.4978 51.9328 33.8061 52.0219 34.1226 52.0409C34.4391 52.0599 34.7559 52.0084 35.05 51.89C35.2358 51.8209 35.4319 51.7837 35.63 51.78C36.5992 52.1034 37.6414 52.1382 38.63 51.88L38.83 51.93C39.535 52.2 40.33 52.087 40.93 51.63C41.0264 51.5641 41.0999 51.4697 41.14 51.36C41.364 51.465 41.558 51.627 41.7 51.83C41.84 52.03 42.067 52.149 42.31 52.15C46.91 52.15 51.39 52.05 55.73 51.94C59.39 51.85 63.17 51.75 66.98 51.74C67.1609 51.7378 67.3349 51.6704 67.47 51.55C67.5561 51.4949 67.6507 51.4543 67.75 51.43C67.9285 51.3655 68.1022 51.2886 68.27 51.2C68.3335 51.1583 68.3907 51.1078 68.44 51.05C68.874 51.393 69.407 51.59 69.96 51.61C70.6548 51.6733 71.3526 51.6966 72.05 51.68C72.9312 51.6288 73.8153 51.6927 74.68 51.87C74.7922 51.9073 74.9119 51.9168 75.0286 51.8976C75.1453 51.8785 75.2556 51.8312 75.35 51.76C75.74 51.48 76.49 51.76 77.18 52.04C77.2966 52.0898 77.4236 52.1104 77.55 52.1C78.4981 52.0144 79.4519 52.0144 80.4 52.1C81.268 52.156 82.14 52.123 83 52C83.6615 51.889 84.3296 51.8222 85 51.8H85.2C85.5373 51.7677 85.8777 51.8051 86.2 51.91C86.6089 52.0313 87.0335 52.092 87.46 52.09H87.66C88.315 51.9363 88.9914 51.8957 89.66 51.97C90.3079 52.0445 90.9621 52.0445 91.61 51.97C91.7152 51.9519 91.8153 51.9113 91.9033 51.8508C91.9914 51.7904 92.0653 51.7117 92.12 51.62C92.1796 51.5314 92.2179 51.4303 92.2318 51.3244C92.2456 51.2186 92.2348 51.1109 92.2 51.01C92.14 50.8 90.65 45.92 90.13 44.4C90.0798 44.2514 89.9843 44.1223 89.857 44.0309C89.7296 43.9394 89.5768 43.8901 89.42 43.89L17.62 44.55H12.03C11.9201 44.5475 11.811 44.5696 11.7107 44.6146C11.6103 44.6595 11.5213 44.7263 11.45 44.81C11.3806 44.894 11.3304 44.992 11.3028 45.0974C11.2751 45.2027 11.2708 45.3128 11.29 45.42C11.456 46.298 11.694 47.16 12 48C12.283 48.783 12.51 49.585 12.68 50.4V50.51C13.16 51.89 14.36 52.26 15.77 52.26C16.7018 52.2427 17.6311 52.1557 18.55 52C19.96 51.78 21.55 51.54 22.26 52C22.3525 52.0173 22.4475 52.0173 22.54 52Z" fill="#757575"/>
</g>
<path d="M96.49 41.69C95.81 41.69 95.79 41.62 95.73 41.42C94.9 38.98 94.37 37.28 93.64 34.63C92.72 32.12 92.01 29.85 91.24 27.45C90.94 26.45 90.63 25.51 90.32 24.55C89.48 20.93 89.1 20.44 85.32 20.77C80.7 20.7 76.55 20.72 71.79 20.77C69.5223 20.625 67.2477 20.625 64.98 20.77C64.51 20.77 64.09 20.77 63.73 20.72C63.1514 20.6349 62.5613 20.6759 62 20.84C60.6092 20.6043 59.1927 20.5606 57.79 20.71C56.7586 20.8005 55.7213 20.8005 54.69 20.71H51.85C48.22 20.71 44.85 20.76 41.03 20.62C39.79 20.62 38.77 20.62 37.95 20.67C36.9678 20.6027 35.9811 20.6768 35.02 20.89C33.22 19.99 30.78 20.06 27.5 20.58C25.29 20.52 23.11 20.53 21 20.58C18.31 20.58 15.52 20.58 12.65 20.48C12.1697 20.4525 11.697 20.3478 11.25 20.17C10.8002 19.9686 10.3129 19.8645 9.82 19.8645C9.32714 19.8645 8.83984 19.9686 8.39 20.17L8.16 20.29L8 20.46C7.74824 20.9763 7.52785 21.5072 7.34 22.05C6.1 24.77 7 27 7.94 29.13C8.50008 30.3178 8.89701 31.5759 9.12 32.87L9.17 33.04C11.03 37.87 12.59 42.55 13.82 47.04C14.29 48.42 15.5 48.8 16.91 48.8C17.8326 48.7712 18.7517 48.6742 19.66 48.51C21.07 48.3 22.66 48.05 23.37 48.51L23.5 48.59H23.65C25.231 48.685 26.8174 48.6382 28.39 48.45C30.4066 48.184 32.4478 48.1605 34.47 48.38C34.7478 48.5328 35.0561 48.6219 35.3726 48.6409C35.6891 48.6599 36.0059 48.6084 36.3 48.49C36.4858 48.4209 36.6819 48.3838 36.88 48.38C37.8492 48.7034 38.8914 48.7382 39.88 48.48L40.08 48.53C40.785 48.8 41.58 48.687 42.18 48.23L42.33 48.15L42.39 47.96C42.613 48.072 42.805 48.237 42.95 48.44L43.17 48.76H44.53C48.79 48.76 52.96 48.66 57 48.55C60.65 48.46 64.43 48.36 68.23 48.35H68.51L68.72 48.16C68.8063 48.0952 68.9003 48.0414 69 48C69.1785 47.9355 69.3522 47.8586 69.52 47.77L69.74 47.64C70.16 47.979 70.68 48.169 71.22 48.18C71.9111 48.2485 72.6059 48.2718 73.3 48.25C74.1812 48.1988 75.0653 48.2627 75.93 48.44L76.3 48.56L76.6 48.33C76.99 48.05 77.74 48.33 78.43 48.61L78.61 48.69H78.8C79.7481 48.6044 80.7019 48.6044 81.65 48.69H82.08C82.8173 48.6715 83.5525 48.6014 84.28 48.48C84.94 48.36 85.61 48.29 86.28 48.27H86.48C86.8173 48.2388 87.1575 48.2762 87.48 48.38C87.9174 48.4947 88.3678 48.5518 88.82 48.55C90.5368 48.3175 92.2742 48.2773 94 48.43H96.18L96.49 48.18C97.0075 47.8242 97.4298 47.3469 97.72 46.79L97.79 46.63V46.45C97.808 45.7944 98.0722 45.1696 98.53 44.7L97.73 44.05V43.76C97.81 41.32 97.24 41.71 96.49 41.69Z" fill="#757575"/>
<path d="M95.66 38.29C94.82 36.53 95.35 35.21 94.02 33.61C93.96 33.23 93.21 31.82 93.49 31.27C92.62 28.21 91.72 23.76 90.49 21.01C89.17 20.01 85.71 20.92 83.72 20.59C79.1 20.59 74.82 20.69 70.14 20.51C68.45 20.51 68.5 20.66 66.8 20.66C63.29 20.36 63.29 20.66 64.49 23.85C65.39 29.16 68.38 33.78 69.56 38.94C69.9505 40.0561 70.4814 41.1179 71.14 42.1C71.6 43.32 71.27 45.26 72.68 45.1C75.39 45.17 78.56 45.2 81.27 45.54C82.51 45.4 83.37 45.86 84.53 45.18C86.17 45.18 85.53 44.45 87.89 45.18C88.59 45.226 89.295 45.2 89.99 45.1C90.79 44.46 91.92 44.99 92.85 44.57C93.67 44.51 94.85 45.32 95.53 44.65C95.69 44.5 97.71 44.65 97.8 44.58C97.66 42.73 96.33 40.11 95.66 38.29Z" fill="#E0E0E0"/>
<path d="M83 46.29H82.36C82.0042 46.255 81.6458 46.255 81.29 46.29H81.11C78.5918 46.0264 76.0619 45.8895 73.53 45.88H72.65C71.02 46.07 70.74 44.4 70.65 43.5C70.609 43.162 70.5421 42.8277 70.45 42.5C69.9341 41.7768 69.5202 40.9861 69.22 40.15L68.86 39.29C68.8559 39.2468 68.8559 39.2032 68.86 39.16C68.2594 36.8317 67.4667 34.5572 66.49 32.36C65.2675 29.6834 64.3452 26.8797 63.74 24C63.09 22.25 62.74 21.18 63.28 20.42C63.82 19.66 65.01 19.72 66.85 19.87C67.6 19.87 67.98 19.87 68.39 19.8C68.9648 19.7415 69.5423 19.7148 70.12 19.72C73.86 19.86 77.27 19.84 80.89 19.82H83.83C84.705 19.9 85.585 19.9 86.46 19.82C88.23 19.71 89.9 19.61 90.92 20.38C91.0281 20.4495 91.112 20.5508 91.16 20.67C92.1158 23.0866 92.8814 25.5742 93.45 28.11C93.71 29.11 93.96 30.11 94.21 31.04C94.275 31.2176 94.275 31.4124 94.21 31.59C94.294 31.991 94.418 32.383 94.58 32.76C94.65 32.913 94.71 33.07 94.76 33.23C95.3826 34.0697 95.7693 35.0606 95.88 36.1C95.9309 36.7538 96.0862 37.3953 96.34 38V38.07C96.52 38.56 96.75 39.07 96.99 39.7C97.7325 41.2315 98.2383 42.8668 98.49 44.55C98.4985 44.6531 98.4841 44.7567 98.4478 44.8536C98.4115 44.9504 98.3542 45.038 98.28 45.11C98.02 45.39 97.77 45.38 96.83 45.36H95.83C95.4915 45.5524 95.1129 45.6633 94.7242 45.6842C94.3354 45.705 93.9471 45.6351 93.59 45.48C93.3822 45.4109 93.1677 45.364 92.95 45.34C92.4752 45.4896 91.9769 45.5506 91.48 45.52C91.1122 45.4646 90.7363 45.5313 90.41 45.71C90.1 45.94 89.72 45.98 88.15 45.96H87.84C87.7641 45.9754 87.6859 45.9754 87.61 45.96C86.41 45.58 86.2 45.66 85.92 45.76C85.52 45.91 85.097 45.989 84.67 45.99C84.1466 46.2263 83.5729 46.3293 83 46.29ZM81.74 44.73H82.46C83.0127 44.8335 83.5842 44.7453 84.08 44.48C84.2013 44.4088 84.3393 44.3709 84.48 44.37C84.794 44.4 85.11 44.352 85.4 44.23C85.8233 44.086 86.2708 44.0269 86.7169 44.0561C87.1631 44.0852 87.5991 44.2021 88 44.4H89.65C90.2123 44.0737 90.8633 43.9337 91.51 44C91.848 44.0264 92.1878 43.9856 92.51 43.88C92.5925 43.8448 92.6805 43.8245 92.77 43.82C93.1873 43.809 93.6034 43.8699 94 44C94.4 44.11 94.85 44.23 95 44.1C95.3 43.81 95.69 43.81 96.9 43.84C96.5737 42.6099 96.1456 41.4091 95.62 40.25C95.38 39.66 95.15 39.1 94.96 38.6C94.6523 37.9025 94.4436 37.1653 94.34 36.41C94.2725 35.5716 93.9595 34.7716 93.44 34.11C93.3519 34.0075 93.2932 33.8831 93.27 33.75C93.27 33.67 93.19 33.52 93.13 33.35C92.8036 32.7111 92.6551 31.9961 92.7 31.28C92.46 30.44 92.23 29.5 91.98 28.53C91.4437 26.1495 90.7386 23.8103 89.87 21.53C88.7834 21.247 87.6508 21.1858 86.54 21.35C85.5757 21.4452 84.6043 21.4452 83.64 21.35H80.89C77.26 21.35 73.82 21.35 70.09 21.25C69.5624 21.244 69.035 21.2674 68.51 21.32C67.9319 21.3784 67.351 21.4051 66.77 21.4C66.009 21.3164 65.241 21.3164 64.48 21.4C64.625 22.163 64.853 22.907 65.16 23.62C65.1643 23.6632 65.1643 23.7068 65.16 23.75C65.733 26.5058 66.6118 29.1891 67.78 31.75C68.7776 34.0139 69.5903 36.3549 70.21 38.75L70.56 39.58C70.8253 40.3368 71.1992 41.0509 71.67 41.7C71.7151 41.7564 71.749 41.8209 71.77 41.89C71.923 42.337 72.027 42.8 72.08 43.27C72.103 43.655 72.201 44.033 72.37 44.38C72.4131 44.3869 72.4569 44.3869 72.5 44.38H73.56C76.01 44.44 78.79 44.49 81.2 44.8L81.74 44.73Z" fill="#757575"/>
<path d="M66.26 30.62C65.26 27.62 64.26 23.67 63.16 21.01C62.57 20.26 61.49 20.64 59.79 20.64C57.26 20.59 55.54 20.58 53.01 20.64C48.38 20.64 44.1 20.44 39.46 20.64C35.95 20.34 35.95 20.64 37.15 23.83C37.68 25.52 37.51 25.52 38.04 27.22C38.39 29.95 40.44 31.27 40.31 33.78C42.2557 37.2191 43.828 40.8565 45 44.63C45.43 45.51 47.22 45.33 47.47 45.2C49.79 44.82 52.47 45.55 54.78 45.47C57.3 45.09 59.84 44.47 62.43 45.12C64.13 44.97 66.43 45.7 68.03 44.86C68.83 44.38 70.03 45.2 69.98 44.16C69.22 39.53 67.61 35.14 66.26 30.62Z" fill="#E0E0E0"/>
<path d="M54.41 46.22C53.4902 46.1936 52.5723 46.1201 51.66 46C50.3358 45.8026 48.9924 45.769 47.66 45.9C46.9374 46.1038 46.1726 46.1038 45.45 45.9C45.2138 45.8326 44.9937 45.7182 44.803 45.5635C44.6122 45.4088 44.4547 45.2171 44.34 45L44.12 44.4C43.0001 40.8655 41.5085 37.4598 39.67 34.24C39.5896 34.1116 39.5511 33.9613 39.56 33.81C39.5287 32.7335 39.1809 31.69 38.56 30.81C37.9177 29.7845 37.4828 28.6429 37.28 27.45C37.0967 26.8927 36.9465 26.325 36.83 25.75C36.7178 25.1999 36.5776 24.6558 36.41 24.12C35.75 22.36 35.34 21.28 35.93 20.51C36.52 19.74 37.64 19.81 39.45 19.96C42.37 19.81 45.21 19.86 47.96 19.89C49.6 19.89 51.27 19.94 52.96 19.89C55.44 19.84 57.16 19.89 59.77 19.89C60.21 19.89 60.62 19.89 60.99 19.84C61.99 19.77 62.99 19.69 63.71 20.54C63.7494 20.5964 63.783 20.6567 63.81 20.72C64.5322 22.5804 65.1596 24.4761 65.69 26.4C66.09 27.76 66.51 29.17 66.93 30.4C67.26 31.51 67.61 32.61 67.93 33.72C69.1022 37.0771 70.0379 40.5122 70.73 44C70.793 44.4 70.667 44.805 70.39 45.1C70.2074 45.2443 69.9959 45.3476 69.7699 45.4028C69.5438 45.458 69.3085 45.4639 69.08 45.42C68.8634 45.3654 68.6366 45.3654 68.42 45.42C67.134 45.9426 65.7258 46.0883 64.36 45.84C63.7428 45.7672 63.1206 45.7471 62.5 45.78C62.4203 45.7896 62.3397 45.7896 62.26 45.78C60.2206 45.4073 58.1257 45.4652 56.11 45.95L54.9 46.14L54.41 46.22ZM49 44.34C49.9429 44.3565 50.8842 44.4233 51.82 44.54C52.7977 44.6711 53.7836 44.7312 54.77 44.72L55.87 44.54C58.0487 44.0341 60.3071 43.9729 62.51 44.36C63.1777 44.3363 63.8463 44.3631 64.51 44.44C65.5796 44.6348 66.6814 44.5522 67.71 44.2C68.1664 43.9911 68.6743 43.9215 69.17 44C68.506 40.6875 67.6309 37.4208 66.55 34.22C66.2 33.11 65.85 32.01 65.55 30.89C65.25 29.77 64.7 28.24 64.29 26.89C63.72 24.97 63.14 22.99 62.52 21.48C62.33 21.33 61.95 21.34 61.13 21.39C60.74 21.39 60.29 21.45 59.79 21.45C57.19 21.4 55.48 21.39 53.02 21.45H47.97C45.1 21.45 42.4 21.37 39.5 21.52H39.4C38.659 21.4361 37.911 21.4361 37.17 21.52C37.315 22.283 37.543 23.027 37.85 23.74C38.044 24.33 38.204 24.931 38.33 25.54C38.448 26.034 38.591 26.521 38.76 27V27.13C38.9441 28.1533 39.3318 29.1292 39.9 30C40.6028 31.0593 41.0038 32.29 41.06 33.56C42.8987 36.8138 44.3966 40.2486 45.53 43.81L45.72 44.33C45.81 44.53 46.85 44.58 47.2 44.47C47.2529 44.46 47.3071 44.46 47.36 44.47C47.9027 44.3858 48.4509 44.3423 49 44.34Z" fill="#757575"/>
<path d="M37.71 27.23C36.98 25.34 36.43 22.43 35.71 21.01C35.13 20.26 34.04 20.64 32.35 20.64C28.77 20.55 23.35 20.48 20.18 20.41C16.7 20.73 11.64 19.76 8.68 20.79C8.89 23.51 10.33 27.54 11.01 30.52C11.4997 32.3451 12.2436 34.0922 13.22 35.71C13.4239 36.9721 13.9433 38.1622 14.73 39.17C15.47 41.17 15.73 43.55 16.96 45.37C17.27 45.76 18.34 45.01 18.69 45.37C19.27 45.91 19.54 45.45 20.13 45.51C21.13 45.51 22.41 46.25 23.33 45.78C23.7715 45.5414 24.2684 45.4241 24.77 45.44C26.43 45.89 27.68 44.87 29.25 44.68C30.25 45.12 34.09 45.78 35.33 45.07C36.9 45.31 39.2 45.69 40.59 44.89C41.39 44.41 42.46 45.07 42.44 44.04C40.94 38.29 39.51 32.89 37.71 27.23Z" fill="#E0E0E0"/>
<path d="M22.57 46.65C22.0816 46.6328 21.5975 46.5522 21.13 46.41C20.8026 46.321 20.4679 46.2607 20.13 46.23C20.0153 46.1995 19.8947 46.1995 19.78 46.23C19.5334 46.3266 19.2657 46.3562 19.004 46.3158C18.7423 46.2754 18.496 46.1664 18.29 46L17.99 46.08C17.55 46.2 16.81 46.41 16.34 45.84C15.5134 44.5095 14.9278 43.0438 14.61 41.51C14.43 40.82 14.25 40.16 14.03 39.51C13.243 38.4779 12.7088 37.2758 12.47 36C11.4989 34.3605 10.7523 32.5981 10.25 30.76C10.01 29.69 9.69 28.57 9.35 27.37C8.66685 25.2522 8.17816 23.0765 7.89 20.87C7.87798 20.7047 7.92032 20.54 8.01059 20.401C8.10086 20.262 8.2341 20.1563 8.39 20.1C10.34 19.43 13.01 19.55 15.6 19.66C17.0885 19.7546 18.5815 19.7546 20.07 19.66L24.87 19.75C27.44 19.75 30.21 19.84 32.33 19.89C32.76 19.89 33.17 19.89 33.54 19.84C34.6 19.77 35.59 19.69 36.26 20.54L36.33 20.65C36.862 21.8058 37.2774 23.0118 37.57 24.25C37.83 25.2 38.11 26.19 38.41 26.96V27.01C40.26 32.84 41.75 38.51 43.11 43.82C43.1143 43.8766 43.1143 43.9334 43.11 43.99C43.11 45.36 41.93 45.39 41.53 45.4C41.3141 45.3836 41.0976 45.4214 40.9 45.51C39.33 46.41 37.05 46.07 35.37 45.82C33.74 46.48 30.3 45.82 29.08 45.42C28.6343 45.5087 28.1963 45.6324 27.77 45.79C26.7672 46.2416 25.6481 46.3675 24.57 46.15C24.2213 46.151 23.8781 46.2368 23.57 46.4C23.2609 46.5606 22.9183 46.6463 22.57 46.65ZM20.21 44.73C20.644 44.7583 21.0733 44.8354 21.49 44.96C21.955 45.14 22.462 45.182 22.95 45.08C23.5166 44.7733 24.1565 44.6281 24.8 44.66H24.93C25.7406 44.8017 26.5752 44.69 27.32 44.34C27.9006 44.1188 28.5045 43.9645 29.12 43.88C29.2489 43.862 29.3802 43.8793 29.5 43.93C30.56 44.37 34.03 44.87 34.92 44.36C35.0703 44.2805 35.2413 44.2491 35.41 44.27H35.59C36.98 44.48 39.06 44.79 40.17 44.15C40.589 43.9311 41.0575 43.8243 41.53 43.84H41.6C40.27 38.64 38.81 33.1 37 27.42C36.68 26.59 36.4 25.57 36.12 24.59C35.85 23.4898 35.4922 22.413 35.05 21.37C34.87 21.21 34.48 21.22 33.65 21.27C33.25 21.27 32.8 21.33 32.31 21.33L24.85 21.19L20.12 21.1C18.5916 21.1996 17.0584 21.1996 15.53 21.1C13.5031 20.9069 11.4598 20.9741 9.45 21.3C9.7783 23.193 10.2259 25.0634 10.79 26.9C11.14 28.12 11.46 29.26 11.7 30.31C12.1717 32.0668 12.8852 33.7496 13.82 35.31C13.8688 35.3779 13.8997 35.457 13.91 35.54C14.0874 36.6857 14.5557 37.7668 15.27 38.68C15.3226 38.7475 15.3663 38.8214 15.4 38.9C15.66 39.62 15.87 40.39 16.06 41.12C16.3278 42.3668 16.7722 43.5689 17.38 44.69L17.59 44.64C17.84 44.5197 18.1179 44.4693 18.3943 44.4939C18.6706 44.5186 18.9352 44.6174 19.16 44.78C19.1851 44.8091 19.2157 44.8329 19.25 44.85H19.35C19.6157 44.771 19.8935 44.7406 20.17 44.76L20.21 44.73Z" fill="#757575"/>
<g opacity="0.25">
<path d="M43.44 36.27C41.92 35.59 40.44 35.06 38.95 34.51C38.59 34.33 38.2 34.2 37.83 34.05C37.4549 33.8905 37.0668 33.7634 36.67 33.67C35.8776 33.4805 35.0647 33.3898 34.25 33.4H29.39C27.7515 33.3717 26.1172 33.2246 24.5 32.96C24.5 32.96 24.45 32.96 24.5 32.9C26.1126 32.5678 27.7536 32.3937 29.4 32.38C31.0554 32.3784 32.7058 32.5629 34.32 32.93L35.52 33.2L36.73 33.42C37.55 33.54 38.38 33.6 39.2 33.78C40.8403 34.1746 42.3327 35.0319 43.5 36.25C43.5098 36.261 43.5153 36.2752 43.5153 36.29C43.5153 36.3048 43.5098 36.319 43.5 36.33L43.44 36.27ZM79 36.53C79.3369 35.9062 79.794 35.3552 80.345 34.909C80.8959 34.4627 81.5298 34.13 82.21 33.93C82.88 33.74 83.58 33.66 84.21 33.52C84.8885 33.366 85.5565 33.1689 86.21 32.93C87.4905 32.4946 88.7962 32.1372 90.12 31.86C91.4181 31.6894 92.6748 31.2863 93.83 30.67H93.9C93.5133 31.2791 92.9667 31.7703 92.32 32.09C91.683 32.4103 91.0121 32.6585 90.32 32.83C89.66 32.99 88.98 33.09 88.32 33.19C87.657 33.29 86.99 33.357 86.32 33.39C85.6407 33.4312 84.969 33.5554 84.32 33.76C83.6926 33.9971 83.087 34.2882 82.51 34.63C81.3068 35.1577 80.1524 35.7901 79.06 36.52L79 36.53ZM36.74 36.61C35.97 36.82 35.24 36.99 34.53 37.2C33.82 37.41 33.14 37.68 32.41 37.89C31.6646 38.1027 30.9464 38.4014 30.27 38.78C29.5918 39.1989 28.887 39.573 28.16 39.9C27.3873 40.1501 26.582 40.2849 25.77 40.3C24.9786 40.3421 24.185 40.3086 23.4 40.2C22.6161 40.1056 21.8406 39.9518 21.08 39.74C20.2993 39.5399 19.5609 39.2012 18.9 38.74V38.67C18.9094 38.6656 18.9196 38.6632 18.93 38.6632C18.9404 38.6632 18.9506 38.6656 18.96 38.67C19.702 38.8438 20.4586 38.9476 21.22 38.98L23.5 39.15C24.9826 39.3051 26.4774 39.3051 27.96 39.15C28.7154 39.0481 29.4486 38.8217 30.13 38.48C30.8206 38.0956 31.4884 37.6716 32.13 37.21C32.8173 36.7889 33.5813 36.5084 34.3778 36.3848C35.1743 36.2612 35.9874 36.297 36.77 36.49V36.55C36.77 36.61 36.76 36.6 36.74 36.61ZM89.92 38.09C88.37 38.15 86.8 37.74 85.45 37.79C83.9866 37.9545 82.5387 38.2354 81.12 38.63C80.3766 38.7918 79.6619 39.0649 79 39.44C78.34 39.83 77.72 40.28 77.06 40.67C76.3814 41.042 75.668 41.3468 74.93 41.58C74.5537 41.7077 74.1648 41.7949 73.77 41.84C73.5644 41.87 73.3556 41.87 73.15 41.84C72.9274 41.8264 72.7191 41.7258 72.57 41.56V41.49H72.63C72.97 41.568 73.325 41.519 73.63 41.35C73.96 41.21 74.3 41.05 74.63 40.89C75.3 40.56 75.96 40.2 76.63 39.89C77.3 39.58 78.08 39.38 78.8 39.11C79.52 38.84 80.22 38.52 80.9 38.17C81.58 37.784 82.29 37.45 83.02 37.17C83.7723 36.8797 84.565 36.7077 85.37 36.66C86.1763 36.6681 86.975 36.817 87.73 37.1C88.46 37.35 89.17 37.61 89.89 37.93C89.91 37.95 89.91 37.98 89.89 38C89.9005 38 89.9107 38.0033 89.9192 38.0094C89.9277 38.0156 89.9341 38.0242 89.9374 38.0342C89.9407 38.0441 89.9409 38.0549 89.9377 38.0649C89.9346 38.0749 89.9284 38.0837 89.92 38.09ZM68.39 32.24C67.6379 32.3967 66.862 32.4013 66.1081 32.2536C65.3542 32.1059 64.6374 31.8089 64 31.38C63.38 30.96 62.84 30.44 62.22 30.08C61.615 29.72 60.924 29.5299 60.22 29.53C58.8103 29.7112 57.4186 30.0123 56.06 30.43C55.3377 30.5954 54.6065 30.7189 53.87 30.8C53.49 30.83 53.11 30.83 52.73 30.8C52.3291 30.8044 51.9371 30.6819 51.61 30.45H51.66C51.9936 30.5065 52.3356 30.4859 52.66 30.39C53.01 30.31 53.35 30.2 53.66 30.09C54.35 29.88 55.04 29.67 55.75 29.47C56.4896 29.2673 57.2411 29.1103 58 29C58.7589 28.8454 59.5411 28.8454 60.3 29C61.0273 29.1987 61.7338 29.4665 62.41 29.8C63.09 30.1 63.79 30.38 64.41 30.66C65.03 30.94 65.68 31.27 66.33 31.52C66.98 31.77 67.66 31.95 68.39 32.15V32.24ZM60 38.09C59.1911 38.2872 58.3933 38.5275 57.61 38.81C56.81 39.06 56 39.3 55.16 39.49C54.3303 39.7392 53.466 39.854 52.6 39.83C51.7086 39.8092 50.8443 39.5199 50.12 39C50.937 39.023 51.755 39 52.57 38.93C53.37 38.86 54.18 38.93 55 38.8C55.82 38.67 56.64 38.58 57.46 38.43C58.2981 38.2399 59.146 38.0964 60 38V38.09Z" fill="#757575"/>
</g>
<g opacity="0.25">
<path d="M66.65 62.94C65.9588 63.7947 64.9888 64.3788 63.91 64.59C62.8662 64.7745 61.8 64.7948 60.75 64.65C59.75 64.56 58.75 64.45 57.75 64.42C56.7366 64.328 55.715 64.4472 54.75 64.77C55.6878 64.3149 56.7087 64.0563 57.75 64.01C58.75 63.94 59.82 64.01 60.84 63.94C61.86 63.87 62.84 63.79 63.84 63.7C64.8224 63.5952 65.7833 63.3424 66.69 62.95C66.6993 62.9408 66.7119 62.9357 66.725 62.9357C66.7381 62.9357 66.7507 62.9408 66.76 62.95C66.7424 62.9582 66.723 62.9616 66.7036 62.9598C66.6843 62.9581 66.6658 62.9512 66.65 62.94ZM86.09 62.74C84.812 62.8703 83.5431 63.0774 82.29 63.36C81.6359 63.4355 80.9877 63.5558 80.35 63.72C79.714 63.92 79.093 64.165 78.49 64.45C77.2549 64.9986 75.9367 65.3366 74.59 65.45C73.2387 65.5296 71.8841 65.367 70.59 64.97V64.91C71.93 64.67 73.22 64.6 74.49 64.42C75.13 64.34 75.77 64.31 76.41 64.2L78.34 63.92C78.9912 63.8256 79.629 63.6544 80.24 63.41C80.85 63.16 81.43 62.8 82.07 62.55C83.3681 62.0816 84.7942 62.1137 86.07 62.64C86.0773 62.6502 86.0813 62.6624 86.0813 62.675C86.0813 62.6876 86.0773 62.6998 86.07 62.71C86.0802 62.7172 86.0873 62.7279 86.09 62.74ZM24.83 59.1C25.2459 58.4266 25.825 57.8692 26.5138 57.4793C27.2026 57.0895 27.9786 56.8799 28.77 56.87C29.55 56.87 30.31 56.94 31.06 56.95C31.8075 56.9522 32.5537 56.8886 33.29 56.76C34.723 56.5672 36.1333 56.2323 37.5 55.76C38.8498 55.2621 40.0676 54.4616 41.06 53.42C40.7692 54.1558 40.3321 54.825 39.7752 55.3871C39.2183 55.9491 38.5531 56.3924 37.82 56.69C37.0869 56.9785 36.3153 57.157 35.53 57.22C34.7687 57.2997 34.0013 57.2997 33.24 57.22C32.4912 57.1601 31.7388 57.1601 30.99 57.22C30.6199 57.2514 30.2523 57.3082 29.89 57.39C29.52 57.46 29.16 57.55 28.81 57.64C27.382 57.8184 26.0137 58.3212 24.81 59.11L24.83 59.1ZM60.71 58.39C60.0547 58.7167 59.3474 58.9266 58.62 59.01C57.8874 59.1032 57.1434 59.0349 56.44 58.81C56.09 58.71 55.74 58.63 55.38 58.56C55.052 58.4859 54.7137 58.469 54.38 58.51C54.0952 58.6017 53.8398 58.7673 53.64 58.99C53.348 59.213 53.044 59.42 52.73 59.61C51.5118 60.3876 50.2061 61.0186 48.84 61.49C48.1561 61.7327 47.4539 61.9199 46.74 62.05C46.0159 62.2617 45.2419 62.2265 44.54 61.95C44.5494 61.9456 44.5596 61.9432 44.57 61.9432C44.5804 61.9432 44.5906 61.9456 44.6 61.95C44.938 62.0027 45.284 61.9612 45.6 61.83C45.9399 61.7369 46.2738 61.6234 46.6 61.49C47.24 61.22 47.88 60.95 48.52 60.66C49.78 60.07 51.07 59.52 52.31 58.89C52.62 58.73 52.92 58.56 53.21 58.39C53.5689 58.1665 53.9877 58.0584 54.41 58.08C54.82 58.08 55.14 58.29 55.49 58.34C55.834 58.42 56.19 58.44 56.54 58.4C57.9351 58.1847 59.3549 58.1847 60.75 58.4C60.7578 58.4192 60.7578 58.4408 60.75 58.46C60.75 58.46 60.73 58.39 60.71 58.39ZM33 62.87C31.7986 62.9136 30.6053 63.0846 29.44 63.38C28.8112 63.5786 28.1589 63.6929 27.5 63.72C26.8341 63.6497 26.1849 63.4671 25.58 63.18C24.41 62.73 23.15 63.24 21.96 63.45C21.3415 63.5544 20.7168 63.6178 20.09 63.64C19.7574 63.6703 19.4226 63.6703 19.09 63.64C18.738 63.6097 18.41 63.4492 18.17 63.19C18.1608 63.1807 18.1557 63.1681 18.1557 63.155C18.1557 63.1419 18.1608 63.1293 18.17 63.12C18.45 63.205 18.75 63.205 19.03 63.12L19.92 62.94C20.52 62.81 21.13 62.67 21.76 62.59C22.3981 62.5201 23.0419 62.5201 23.68 62.59C24.3251 62.6441 24.9663 62.7376 25.6 62.87C26.1849 62.98 26.7851 62.98 27.37 62.87C27.95 62.744 28.519 62.57 29.07 62.35C30.3663 61.991 31.7509 62.1412 32.94 62.77C32.96 62.79 32.96 62.82 32.94 62.84L33 62.87ZM93.89 55.12C92.14 55.46 90.43 55.7 88.69 55.9C87.82 55.98 86.93 55.99 86.05 56.04C85.171 56.1115 84.2986 56.2485 83.44 56.45C82.57 56.63 81.75 56.88 80.81 56.99C79.8555 57.0391 78.9007 56.8998 78 56.58C76.2988 55.982 74.7396 55.0389 73.42 53.81C73.4102 53.799 73.4047 53.7848 73.4047 53.77C73.4047 53.7552 73.4102 53.741 73.42 53.73C75.1 54.36 76.7 55.03 78.3 55.58C79.0626 55.8919 79.8687 56.0842 80.69 56.15C81.5 56.15 82.43 56.15 83.29 56.06C84.1688 55.9919 85.0412 55.8582 85.9 55.66C86.76 55.44 87.61 55.19 88.48 55.04C90.2419 54.755 92.0381 54.755 93.8 55.04V55.1L93.89 55.12Z" fill="#757575"/>
</g>
<g opacity="0.25">
<path d="M38.86 82.54C38.4861 83.1624 37.9458 83.668 37.3 84C36.6106 84.2984 35.8464 84.3787 35.11 84.23C34.45 84.1068 33.7812 84.0365 33.11 84.02C32.4496 84.0225 31.7941 84.134 31.17 84.35C31.7693 84.001 32.421 83.7511 33.1 83.61C33.7837 83.5314 34.4721 83.5014 35.16 83.52C35.7637 83.4814 36.3592 83.3603 36.93 83.16C37.52 82.99 38.1 82.72 38.81 82.53H38.87C38.88 82.53 38.86 82.53 38.86 82.54ZM53.92 83.46C52.5876 83.6027 51.2738 83.8842 50 84.3C49.3234 84.4491 48.6557 84.6361 48 84.86C47.3577 85.1227 46.7331 85.4267 46.13 85.77C44.8909 86.4658 43.5355 86.93 42.13 87.14C40.7127 87.2983 39.2781 87.1725 37.91 86.77C37.9027 86.7598 37.8987 86.7476 37.8987 86.735C37.8987 86.7225 37.9027 86.7102 37.91 86.7C39.31 86.47 40.65 86.34 41.97 86.11C42.62 85.98 43.29 85.91 43.97 85.75L45.97 85.29C46.6432 85.1379 47.2948 84.9028 47.91 84.59C48.53 84.28 49.1 83.87 49.75 83.59C50.4044 83.2791 51.1155 83.1054 51.8395 83.0797C52.5635 83.0539 53.2851 83.1765 53.96 83.44C53.9553 83.4462 53.9493 83.4513 53.9424 83.4547C53.9354 83.4582 53.9278 83.46 53.92 83.46ZM80.35 84.68C79.058 85.4403 77.5651 85.7891 76.07 85.68C75.33 85.61 74.61 85.41 73.89 85.3C73.1714 85.1912 72.4466 85.1277 71.72 85.11C70.9952 85.1135 70.2707 85.0768 69.55 85C68.84 84.92 68.12 84.85 67.41 84.74C65.9801 84.4974 64.5672 84.1634 63.18 83.74C63.1735 83.7314 63.17 83.7208 63.17 83.71C63.17 83.6992 63.1735 83.6887 63.18 83.68C64.6314 83.505 66.0986 83.505 67.55 83.68C68.988 83.88 70.408 84.188 71.8 84.6C72.49 84.811 73.2 84.949 73.92 85.01C74.6355 85.0172 75.3506 84.9737 76.06 84.88C77.47 84.8 78.83 84.71 80.31 84.6C80.3239 84.6078 80.3351 84.6196 80.3422 84.6339C80.3494 84.6481 80.3521 84.6642 80.35 84.68ZM80.35 78.89C79.4393 79.2719 78.4669 79.4854 77.48 79.52C76.5067 79.4308 75.543 79.2568 74.6 79C73.7026 78.9115 72.7972 78.9485 71.91 79.11C70.99 79.21 70.08 79.44 69.08 79.52C69.0709 79.5253 69.0605 79.528 69.05 79.528C69.0395 79.528 69.0291 79.5253 69.02 79.52C69.8215 78.9208 70.7317 78.4827 71.7 78.23C72.6911 78.0018 73.7243 78.0328 74.7 78.32C75.5958 78.6461 76.5151 78.9035 77.45 79.09C78.3923 79.1804 79.3432 79.106 80.26 78.87H80.32L80.35 78.89ZM92.26 80.05C93.0944 78.8038 94.3347 77.8851 95.77 77.45C96.4953 77.3097 97.2314 77.2327 97.97 77.22L100.13 77.06C101.554 77.0008 102.98 77.0275 104.4 77.14C105.777 77.2721 107.166 77.1535 108.5 76.79C108.51 76.7827 108.522 76.7787 108.535 76.7787C108.548 76.7787 108.56 76.7827 108.57 76.79C108.574 76.7994 108.577 76.8096 108.577 76.82C108.577 76.8304 108.574 76.8406 108.57 76.85C107.389 77.7936 105.899 78.2641 104.39 78.17C103.666 78.1478 102.944 78.0743 102.23 77.95C101.52 77.85 100.83 77.71 100.13 77.58C99.427 77.448 98.7065 77.4379 98 77.55C97.3036 77.6826 96.63 77.915 96 78.24C94.7286 78.8026 93.487 79.4301 92.28 80.12C92.2694 80.1262 92.2573 80.1294 92.245 80.1294C92.2327 80.1294 92.2206 80.1262 92.21 80.12L92.26 80.05ZM102.8 86.24C101.595 86.2829 100.399 86.4539 99.23 86.75C98.6012 86.9486 97.9489 87.0629 97.29 87.09C96.6241 87.0197 95.9749 86.8371 95.37 86.55C94.21 86.1 92.95 86.61 91.76 86.82C91.1382 86.9244 90.5101 86.9878 89.88 87.01C89.5458 87.0243 89.2111 87.0075 88.88 86.96C88.5292 86.9333 88.201 86.7763 87.96 86.52H88.01C88.287 86.605 88.583 86.605 88.86 86.52C89.16 86.52 89.45 86.41 89.75 86.34C90.35 86.21 90.96 86.07 91.59 85.99C92.2281 85.9201 92.8719 85.9201 93.51 85.99C94.1552 86.0434 94.7964 86.1369 95.43 86.27C96.0144 86.3848 96.6156 86.3848 97.2 86.27C97.8148 86.1393 98.4171 85.9552 99 85.72C100.297 85.3671 101.679 85.5171 102.87 86.14C102.877 86.1502 102.881 86.1625 102.881 86.175C102.881 86.1876 102.877 86.1998 102.87 86.21C102.868 86.2169 102.864 86.2233 102.859 86.2287C102.855 86.2341 102.849 86.2383 102.842 86.2412C102.835 86.244 102.828 86.2454 102.821 86.2452C102.814 86.245 102.806 86.2432 102.8 86.24ZM56.94 77.49C55.19 77.83 53.48 78.07 51.74 78.28C50.86 78.35 49.98 78.36 49.1 78.41C48.221 78.4815 47.3486 78.6185 46.49 78.82C45.61 79 44.8 79.25 43.85 79.36C42.913 79.4016 41.9766 79.2659 41.09 78.96C39.3901 78.3546 37.8316 77.4087 36.51 76.18H36.56C38.23 76.81 39.83 77.48 41.44 78.04C42.2045 78.3441 43.01 78.5328 43.83 78.6C44.64 78.6 45.57 78.6 46.43 78.51C47.2981 78.4038 48.1571 78.2333 49 78C49.86 77.79 50.71 77.54 51.58 77.38C53.3423 77.1008 55.1377 77.1008 56.9 77.38C56.9053 77.3891 56.908 77.3995 56.908 77.41C56.908 77.4205 56.9053 77.4309 56.9 77.44L56.94 77.49Z" fill="#757575"/>
</g>
</svg>
