<svg width="120" height="120" xmlns="http://www.w3.org/2000/svg"><g fill-rule="nonzero" fill="none"><path d="M111.58 89.65c-.68 0-.69-.07-.76-.26-.83-2.45-1.35-4.15-2.08-6.8-.92-2.51-1.64-4.78-2.4-7.18-.31-1-.62-1.94-.93-2.89-.84-3.62-1.22-4.12-5-3.78-5-.07-9.46 0-13.54 0a55.08 55.08 0 00-6.8 0h-1.26a4 4 0 00-1.72.12 15.42 15.42 0 00-4.21-.14 17.94 17.94 0 01-3.11 0h-2.81c-3.63 0-7.07 0-10.85-.1-1.24 0-2.25.05-3.08.05h-1.47c-1.06-.51-2.81-.37-6 .07-2.63-.07-5.88 0-9 0-3.74.06-7.59.12-10.37 0a5.75 5.75 0 01-1.36-.21 4 4 0 00-2.91.13l-.22.11-.11.23a15 15 0 00-.66 1.58c-1.2 2.71-.27 4.83.62 6.87a13.77 13.77 0 011.2 3.69v.17c1.86 4.83 3.42 9.51 4.64 14C27.83 96.58 29.2 97 31 97a35.47 35.47 0 004.41-.41c2.11-.28 4.5-.59 5.36-.15l.26.07a18 18 0 004.08-.15 13.53 13.53 0 014.44 0 2.15 2.15 0 001.84.1 2 2 0 01.58-.1 5.18 5.18 0 003 .09h.2c.7.275 1.495.16 2.09-.3l.15-.08.07-.18c.218.111.406.272.55.47l.23.32h1.38c4.25 0 8.41-.11 12.44-.21 3.65-.1 7.43-.19 11.23-.21h.29l.21-.18a1.24 1.24 0 01.28-.13 2.34 2.34 0 00.51-.23l.22-.13a2.5 2.5 0 001.48.55 16 16 0 002.08.06 10.23 10.23 0 012.64.2l.23.07.24-.08a5.58 5.58 0 012.65.07c.66.13 1.328.206 2 .23h.62a14.08 14.08 0 002.55-.21 15.39 15.39 0 012-.2c1.13 0 2.28-.09 3.44-.15 2.25-.12 4.57-.23 6.82-.15h.4l.23-.33c.19-.26.37-.52.55-.8l.12-.19v-.24a2.55 2.55 0 01.75-1.74l.19-.21v-.29c.09-2.45-1.48-2.5-2.23-2.53z" fill="#979796"/><path d="M110.76 86.25c-.85-1.76-.32-3.08-1.64-4.68-.06-.37-.82-1.78-.53-2.33-.87-3.07-1.78-7.51-3-10.27-1.33-1-4.79-.09-6.77-.42-4.63 0-8.9.11-13.58-.07-1.69 0-1.65.14-3.34.14-3.52-.29-3.52 0-2.32 3.19.9 5.32 3.89 9.93 5.08 15.09a13.35 13.35 0 001.58 3.16c.45 1.23.12 3.17 1.53 3a85.05 85.05 0 018.59.44c1.25-.15 2.11.32 3.26-.36 1.64 0 1-.74 3.36 0 .701.036 1.404.01 2.1-.08.81-.65 1.94-.12 2.87-.54.81 0 2 .75 2.68.09.16-.16 2.17 0 2.26-.07-.13-1.84-1.47-4.46-2.13-6.29z" fill="#DCDCDC"/><path d="M98.14 94.25a6.4 6.4 0 01-.64 0 6.37 6.37 0 00-1.07 0 .54.54 0 01-.18 0 75.48 75.48 0 00-7.57-.41h-.89c-1.64.18-1.91-1.48-2.05-2.38a5.41 5.41 0 00-.2-1 10.45 10.45 0 01-1.23-2.35c-.11-.27-.22-.56-.36-.86a.57.57 0 010-.14 45.51 45.51 0 00-2.37-6.79A39.45 39.45 0 0178.84 72c-.66-1.76-1-2.82-.47-3.59s1.73-.7 3.57-.54c.75 0 1.13 0 1.54-.08a16.32 16.32 0 011.72-.07c3.74.14 7.17.12 10.8.09h2.9c.874.09 1.756.09 2.63 0 1.77-.1 3.44-.21 4.47.56a.8.8 0 01.23.29 50.08 50.08 0 012.29 7.45c.26 1 .52 2 .77 2.92a.75.75 0 01-.06.55 6 6 0 00.38 1.17c.07.19.13.34.17.48a5.61 5.61 0 011.12 2.87 6.9 6.9 0 00.51 1.83V86c.18.49.41 1 .65 1.62a17 17 0 011.51 4.85.79.79 0 01-.21.57c-.27.27-.53.27-1.45.24h-1a2.51 2.51 0 01-2.24.11 4 4 0 00-.64-.14 4.05 4.05 0 01-1.47.19 1.66 1.66 0 00-1.07.18c-.3.24-.68.27-2.25.25H103a.59.59 0 01-.23 0c-1.21-.37-1.41-.3-1.7-.19-.4.152-.823.23-1.25.23a3.45 3.45 0 01-1.68.34zm-1.26-1.55h.71a2.45 2.45 0 001.63-.26.78.78 0 01.39-.1 1.77 1.77 0 00.92-.15 3.4 3.4 0 012.55.15h.22c.476.025.954.025 1.43 0a3 3 0 011.88-.41 2.62 2.62 0 001-.12.77.77 0 01.26-.07 4 4 0 011.23.2c.39.1.84.23 1 .09.3-.29.7-.29 1.91-.26a23.89 23.89 0 00-1.28-3.58c-.25-.59-.48-1.15-.66-1.66a7.65 7.65 0 01-.62-2.19 4.32 4.32 0 00-.91-2.3.66.66 0 01-.16-.36 3.92 3.92 0 00-.15-.39 4.09 4.09 0 01-.43-2.07c-.23-.85-.47-1.78-.71-2.75a52.57 52.57 0 00-2.11-7 8.43 8.43 0 00-3.34-.17 14.72 14.72 0 01-2.9 0h-2.71c-3.65 0-7.09.05-10.84-.1-.79 0-1.17 0-1.58.08-.41.08-.85.07-1.73.07a11.09 11.09 0 00-2.29 0c.144.76.372 1.5.68 2.21a.7.7 0 010 .14 38.82 38.82 0 002.63 8 46.13 46.13 0 012.42 7c.13.29.24.57.35.83a8.71 8.71 0 001.11 2.11.72.72 0 01.11.19c.147.45.25.911.31 1.38.025.387.12.767.28 1.12a.37.37 0 00.14 0h1.06c2.45 0 5.23.11 7.64.41a4.78 4.78 0 01.56-.04z" fill="#979796"/><path d="M81.36 78.59c-1-3-2-7-3.11-9.62-.58-.74-1.67-.36-3.36-.36-2.54-.06-4.26-.06-6.79 0-4.63 0-8.91-.2-13.54 0-3.52-.29-3.52 0-2.31 3.19.53 1.7.35 1.7.89 3.4.34 2.73 2.4 4 2.26 6.56a55.35 55.35 0 014.71 10.82c.42.88 2.21.71 2.47.58 2.31-.39 5 .35 7.3.27 2.52-.38 5.07-1 7.65-.36 1.71-.14 4 .58 5.6-.25.8-.48 2 .34 2-.7-.82-4.62-2.42-9.02-3.77-13.53z" fill="#DCDCDC"/><path d="M69.5 94.19a27.18 27.18 0 01-2.75-.19 15.83 15.83 0 00-4-.1 4.14 4.14 0 01-2.2-.05 1.87 1.87 0 01-1.13-.93l-.22-.6a51.82 51.82 0 00-4.45-10.16.74.74 0 01-.11-.44 5.37 5.37 0 00-1-3 9.43 9.43 0 01-1.28-3.36 16.7 16.7 0 01-.44-1.7 14.1 14.1 0 00-.39-1.66c-.66-1.76-1.06-2.84-.48-3.62.58-.78 1.71-.7 3.52-.55 2.93-.14 5.77-.1 8.52-.06H74.9c.44 0 .85 0 1.21-.06 1.06-.07 2.06-.14 2.72.71a.59.59 0 01.1.17 56.68 56.68 0 011.88 5.69c.41 1.36.83 2.76 1.25 4 .33 1.12.68 2.22 1 3.32A76.16 76.16 0 0185.83 92a1.37 1.37 0 01-.35 1.11 1.61 1.61 0 01-1.31.31 1.44 1.44 0 00-.65 0 7.35 7.35 0 01-4.07.43 10.94 10.94 0 00-1.85-.07.69.69 0 01-.25 0 15 15 0 00-6.15.22l-1.2.2-.5-.01zm-5.42-1.88c.94 0 1.89.1 2.83.19a19.1 19.1 0 003 .19L71 92.5a16.62 16.62 0 016.64-.17 14.64 14.64 0 012 .07 6.29 6.29 0 003.21-.23 2.4 2.4 0 011.49-.24 75.87 75.87 0 00-2.62-9.78c-.35-1.11-.69-2.22-1-3.33-.31-1.11-.85-2.65-1.25-4-.57-1.91-1.16-3.89-1.78-5.41-.19-.15-.57-.14-1.38-.08-.4 0-.85.06-1.34.06-2.61-.06-4.32-.06-6.77 0h-5.05c-2.87 0-5.58-.08-8.47.06h-.1a9.87 9.87 0 00-2.23 0 10.4 10.4 0 00.65 2.1c.19.595.35 1.199.48 1.81a14 14 0 00.37 1.64.61.61 0 010 .13c.189 1.024.58 2 1.15 2.87a7 7 0 011.16 3.56 54.31 54.31 0 014.47 10.25l.18.52c.1.19 1.14.24 1.49.13.05-.01.1-.01.15 0a9.86 9.86 0 011.63-.15z" fill="#979796"/><path d="M52.81 75.2c-.74-1.89-1.28-4.8-2.05-6.23-.58-.74-1.66-.36-3.36-.36-3.58-.1-6.6 0-10.18 0-4 .31-12.06-.5-15 .52.21 2.72 1.64 6.76 2.33 9.73a20.15 20.15 0 002.2 5.14 7.63 7.63 0 001.51 3.47c.74 2 1 4.37 2.23 6.2.31.38 1.37-.37 1.73 0 .57.54 4.08-.24 4.75-.17 1.14 0 2.6.73 3.65.26a3.45 3.45 0 011.64-.33c1.89.45 3.32-.57 5.11-.76 1.18.43 1.77 1.09 3 .38 1.57.23 3.86.62 5.25-.18.8-.48 1.88.18 1.86-.85-1.48-5.76-2.87-11.16-4.67-16.82z" fill="#DCDCDC"/><path d="M39.79 94.62a6.93 6.93 0 01-1.59-.23 9.88 9.88 0 00-1.2-.18 10 10 0 00-1.3.12c-1.89.26-3.14.39-3.8 0l-.31.08a1.47 1.47 0 01-1.65-.24 13.24 13.24 0 01-1.73-4.33c-.18-.69-.36-1.35-.58-2A8.27 8.27 0 0126 84.28 21.16 21.16 0 0123.82 79c-.25-1.06-.57-2.19-.9-3.39a36.62 36.62 0 01-1.46-6.5.74.74 0 01.5-.76c2-.69 5.82-.61 9.54-.54 2.16 0 4.2.08 5.66 0h10.26c.44 0 .85 0 1.21-.06 1.06-.07 2.06-.14 2.72.71a.41.41 0 01.07.11 19 19 0 011.24 3.59c.27 1 .55 1.94.85 2.72 1.86 5.83 3.34 11.51 4.7 16.82a.86.86 0 010 .17c0 1.36-1.18 1.39-1.58 1.41a1.35 1.35 0 00-.64.1c-1.56.9-3.83.57-5.51.32a2.88 2.88 0 01-2.73-.16c-.16-.08-.33-.16-.51-.23a10 10 0 00-1.57.38 6.63 6.63 0 01-3.56.35 3.06 3.06 0 00-1.21.27 2.87 2.87 0 01-1.11.31zm-2.72-1.91a7.2 7.2 0 011.45.22 3.33 3.33 0 001.79.11 4.17 4.17 0 012-.4h.12a5.17 5.17 0 002.84-.32 11 11 0 012-.45.78.78 0 01.34 0c.29.11.55.22.79.33.71.33 1 .45 1.6.1a.68.68 0 01.48-.09h.18c1.38.21 3.48.53 4.59-.11a2.61 2.61 0 011.36-.31h.06c-1.33-5.19-2.78-10.73-4.59-16.41-.32-.84-.61-1.85-.88-2.83a19.39 19.39 0 00-1.08-3.22c-.18-.17-.56-.16-1.4-.1-.4 0-.84.06-1.34.06h-10.2c-1.46.11-3.53.07-5.73 0a44.46 44.46 0 00-8.45.3 46.06 46.06 0 001.34 5.6c.34 1.21.67 2.35.91 3.4a19.29 19.29 0 002.12 5c.04.072.07.15.09.23A6.78 6.78 0 0028.83 87a.65.65 0 01.13.23c.27.72.47 1.48.67 2.22A13.31 13.31 0 0031 93l.21-.06a1.6 1.6 0 011.51.09 12.56 12.56 0 002.8-.18 8.45 8.45 0 011.48-.14h.07z" fill="#979796"/><path d="M95.67 66.34c-.68 0-.69-.07-.76-.27-.83-2.45-1.35-4.15-2.08-6.79-.92-2.51-1.64-4.78-2.41-7.19-.3-1-.61-1.93-.92-2.89-.84-3.62-1.22-4.11-5-3.78-5-.07-9.46-.05-13.54 0a51.57 51.57 0 00-6.81 0c-.47 0-.89 0-1.25-.06a4 4 0 00-1.72.12 15.44 15.44 0 00-4.21-.13 17.85 17.85 0 01-3.11 0H51c-3.63 0-7.07 0-10.85-.09-1.24 0-2.25 0-3.08.05a9.91 9.91 0 00-2.95.23c-1.76-.8-4.11-.64-7.22-.15-2.21-.06-4.4 0-6.52 0-2.69 0-5.47 0-8.34-.1a4.48 4.48 0 01-1.4-.31 3.49 3.49 0 00-2.86 0l-.22.12-.11.22a16.5 16.5 0 00-.67 1.59c-1.2 2.71-.26 4.93.64 7.08a14.59 14.59 0 011.19 3.74v.17a146.07 146.07 0 014.65 14c.48 1.38 1.68 1.76 3.09 1.76a18.75 18.75 0 002.75-.29c1.41-.21 3-.46 3.71 0l.13.08h.16a13.69 13.69 0 003.62-.16 10.09 10.09 0 013.83 0c.69.38 1.94.25 3.84 0a13.48 13.48 0 011.68-.29 5.36 5.36 0 003 .09h.19c.705.27 1.5.157 2.1-.3l.15-.08.07-.19c.224.105.418.267.56.47l.22.32h1.39c4.26 0 8.42-.1 12.45-.21 3.65-.09 7.43-.19 11.22-.2h.28l.22-.19c.088-.05.182-.09.28-.12a4 4 0 00.51-.23l.22-.13a2.48 2.48 0 001.48.54 16 16 0 002.08.07 10.24 10.24 0 012.64.19l.36.12.3-.23c.44-.32 1.42.1 1.83.28l.18.08h.2a15.88 15.88 0 012.85 0h.42a15.63 15.63 0 002.2-.21 13.74 13.74 0 012-.21h.2a2.36 2.36 0 011 .11 5.39 5.39 0 001.25.17h.13a15.29 15.29 0 014.13-.1c.998.08 2 .103 3 .07h.26l.2-.18.3-.25A3.45 3.45 0 0097 71.41l.07-.16v-.17a2.58 2.58 0 01.75-1.75l.19-.21v-.29c-.01-2.42-1.59-2.47-2.34-2.49z" fill="#979796"/><path d="M94.85 62.94c-.85-1.76-.32-3.08-1.64-4.68-.06-.38-.82-1.79-.54-2.34-.86-3.06-1.77-7.51-3-10.26-1.33-1-4.79-.09-6.77-.42-4.63 0-8.9.1-13.58-.08-1.7 0-1.65.15-3.34.15-3.52-.3-3.52 0-2.32 3.19.9 5.31 3.89 9.93 5.08 15.09a13.54 13.54 0 001.58 3.16c.45 1.22.12 3.16 1.53 3 2.71.07 5.89.1 8.59.44 1.25-.14 2.1.32 3.26-.35 1.64 0 1-.74 3.36 0 .7.046 1.405.02 2.1-.08.81-.64 1.94-.11 2.87-.53.81-.06 2 .75 2.68.08.16-.15 2.17 0 2.26-.07-.12-1.85-1.46-4.48-2.12-6.3z" fill="#DCDCDC"/><path d="M82.23 70.94h-.64a6.37 6.37 0 00-1.07 0h-.18c-2.36-.3-5.14-.36-7.58-.42h-.88c-1.65.19-1.91-1.48-2-2.38a5.59 5.59 0 00-.2-1 10 10 0 01-1.23-2.35c-.11-.27-.22-.55-.36-.86a.69.69 0 01-.05-.13 44.36 44.36 0 00-2.41-6.8 39.45 39.45 0 01-2.7-8.27c-.66-1.76-1-2.83-.47-3.59.53-.76 1.73-.7 3.57-.55a13.92 13.92 0 001.54-.07 15.93 15.93 0 011.74-.08c3.74.14 7.17.12 10.8.1h2.9c.874.09 1.756.09 2.63 0 1.77-.11 3.44-.21 4.47.56a.66.66 0 01.23.29 49.94 49.94 0 012.29 7.44c.26 1 .52 2 .77 2.93a.75.75 0 01-.06.55 6 6 0 00.38 1.17c.07.18.13.34.17.48A5.61 5.61 0 0195 60.78a7 7 0 00.51 1.84v.06c.18.5.41 1 .65 1.63a17 17 0 011.51 4.85.77.77 0 01-.21.56C97.23 70 97 70 96 70h-1a2.51 2.51 0 01-2.24.12 4 4 0 00-.64-.14 4 4 0 01-1.47.18 1.74 1.74 0 00-1.07.19c-.3.23-.68.27-2.25.25h-.31a1.75 1.75 0 01-.24 0c-1.2-.38-1.4-.3-1.69-.2a3.47 3.47 0 01-1.25.24 3.45 3.45 0 01-1.61.3zM81 69.38h.71a2.45 2.45 0 001.63-.25.71.71 0 01.39-.1 2 2 0 00.92-.15 3.43 3.43 0 012.55.14h1.65a3.12 3.12 0 011.88-.42 2.37 2.37 0 001-.12.82.82 0 01.27-.06 3.72 3.72 0 011.23.19c.39.11.84.23 1 .1.3-.29.67-.3 1.9-.26a22.84 22.84 0 00-1.27-3.59c-.25-.58-.48-1.15-.66-1.65a7.88 7.88 0 01-.67-2.21 4.23 4.23 0 00-.9-2.3.73.73 0 01-.16-.36 3.87 3.87 0 00-.15-.4 4.09 4.09 0 01-.43-2.07c-.23-.84-.47-1.78-.72-2.75a51 51 0 00-2.1-7 8.25 8.25 0 00-3.34-.12 14.72 14.72 0 01-2.9 0h-2.71c-3.65 0-7.09 0-10.84-.1-.79 0-1.17 0-1.58.07a15.71 15.71 0 01-1.73.08 9.85 9.85 0 00-2.29 0c.147.759.375 1.5.68 2.21v.14a38.8 38.8 0 002.62 8 45.33 45.33 0 012.43 6.95l.35.83a8.6 8.6 0 001.14 2.12.59.59 0 01.11.19c.145.45.245.911.3 1.38A3.3 3.3 0 0071.6 69h1.19c2.45.06 5.23.12 7.65.42l.56-.04z" fill="#979796"/><path d="M65.45 55.27c-1-3-2-7-3.11-9.61-.58-.75-1.67-.36-3.36-.36-2.54-.06-4.26-.07-6.79 0-4.63 0-8.91-.2-13.54 0-3.52-.3-3.52 0-2.31 3.19.53 1.7.35 1.7.89 3.39.34 2.73 2.4 4 2.26 6.56a56 56 0 014.71 10.84c.42.88 2.21.7 2.47.57 2.31-.38 5 .35 7.3.27 2.52-.38 5.06-1 7.65-.35 1.71-.14 4.05.58 5.6-.26.8-.48 2 .34 2-.7-.82-4.63-2.43-9.02-3.77-13.54z" fill="#DCDCDC"/><path d="M53.59 70.87a24.56 24.56 0 01-2.75-.19 16.3 16.3 0 00-4-.1 3.94 3.94 0 01-2.2 0 1.81 1.81 0 01-1.13-.93L43.3 69a51.65 51.65 0 00-4.45-10.17.73.73 0 01-.11-.43 5.42 5.42 0 00-1-3 9.41 9.41 0 01-1.28-3.37 16 16 0 01-.44-1.7c-.09-.42-.18-.81-.43-1.63-.66-1.75-1.06-2.84-.48-3.61.58-.77 1.71-.7 3.52-.55 2.93-.15 5.77-.1 8.53-.07h5c2.47-.05 4.19 0 6.8 0 .45 0 .86 0 1.22-.06 1.06-.07 2-.15 2.72.7a.81.81 0 01.1.18c.67 1.61 1.29 3.68 1.88 5.68.41 1.36.82 2.77 1.24 4 .34 1.11.69 2.22 1 3.32a76.16 76.16 0 012.73 10.31c.054.4-.075.804-.35 1.1a1.58 1.58 0 01-1.31.32 1.31 1.31 0 00-.65 0 7.34 7.34 0 01-4.07.42 12 12 0 00-1.85-.06 1 1 0 01-.25 0 14.88 14.88 0 00-6.15.17l-1.2.19-.43.13zM48.17 69c.946.017 1.89.084 2.83.2a20.37 20.37 0 003 .18l1.1-.18a16.62 16.62 0 016.59-.2 14.62 14.62 0 012 .08 6.17 6.17 0 003.21-.24 2.55 2.55 0 011.49-.24 75.58 75.58 0 00-2.62-9.79c-.35-1.1-.69-2.21-1-3.33-.31-1.12-.85-2.65-1.25-4-.57-1.92-1.16-3.89-1.78-5.41-.18-.15-.57-.14-1.38-.08-.4 0-.85.06-1.34.06-2.61-.06-4.32-.07-6.77 0H47.2c-2.87 0-5.58-.08-8.47.07h-.11a9.23 9.23 0 00-2.22 0c.127.725.328 1.436.6 2.12.192.59.349 1.191.47 1.8.09.42.18.81.43 1.63v.13a7.72 7.72 0 001.12 2.89 7.1 7.1 0 011.16 3.56 53.63 53.63 0 014.53 10.25l.19.53c.1.19 1.14.23 1.49.13.05-.01.1-.01.15 0a11.07 11.07 0 011.63-.16z" fill="#979796"/><path d="M36.9 51.88c-.74-1.88-1.28-4.8-2-6.22-.58-.75-4.84-.38-6.33-.38-3.14-.09-5.78 0-8.93-.05-3.48.32-8.54-.65-11.5.38.21 2.72 1.65 6.75 2.33 9.73a20.08 20.08 0 002.21 5.18A7.58 7.58 0 0014.14 64c.75 2 1 4.38 2.23 6.2.31.38 1.38-.36 1.73 0 .58.54.85.07 1.44.14 1 0 2.28.74 3.21.26a2.77 2.77 0 011.43-.33c1.66.45 2.91-.57 4.48-.76 1 .43 4.57.93 5.82.22 1.57.24 3.86.63 5.25-.18.8-.48 2.11.16 1.85-.85-1.46-5.76-2.88-11.16-4.68-16.82z" fill="#DCDCDC"/><path d="M22 71.47a5.71 5.71 0 01-1.44-.24 4.45 4.45 0 00-1-.18.71.71 0 00-.36 0 1.5 1.5 0 01-1.45-.26l-.29.08c-.45.12-1.19.33-1.66-.24a13.55 13.55 0 01-1.73-4.33c-.18-.69-.36-1.35-.58-2a8.43 8.43 0 01-1.56-3.57 20.92 20.92 0 01-2.21-5.24c-.25-1.07-.57-2.2-.91-3.39a38.69 38.69 0 01-1.46-6.5.77.77 0 01.5-.77c1.94-.67 4.62-.55 7.21-.44a35.25 35.25 0 004.47 0h10.25c3.44-.13 5.08-.06 5.67.69l.07.11a19.26 19.26 0 011.24 3.59c.27 1 .54 2 .84 2.72 1.85 5.81 3.34 11.49 4.7 16.81a1.22 1.22 0 01-.16 1.09 1.58 1.58 0 01-1.32.49 1.5 1.5 0 00-.71.11c-1.57.9-3.85.57-5.53.31-1.57.65-4.76.2-6-.23a8.44 8.44 0 00-1.32.37 5.26 5.26 0 01-3.2.36 2.4 2.4 0 00-.95.25 2.28 2.28 0 01-1.11.41zm-2.36-1.92a5.78 5.78 0 011.28.23 2.48 2.48 0 001.46.12 3.44 3.44 0 011.86-.42h.12a4 4 0 002.4-.32 8.52 8.52 0 011.79-.47c.13-.01.26.01.38.06 1 .41 4.22.8 5.16.26a.79.79 0 01.48-.09h.18c1.38.21 3.47.52 4.59-.12a2.86 2.86 0 011.42-.31c-1.34-5.24-2.8-10.77-4.59-16.42-.33-.83-.61-1.85-.89-2.83a19.76 19.76 0 00-1.06-3.19 19.76 19.76 0 00-4.4-.05h-1.3c-1.68-.05-3.23 0-4.74 0h-4.21A37 37 0 0115 46a23.92 23.92 0 00-6.09.2 45.62 45.62 0 001.34 5.6c.35 1.21.67 2.36.91 3.41a19.31 19.31 0 002.13 5c.04.072.07.15.09.23a6.78 6.78 0 001.35 3.14 1 1 0 01.13.22c.26.72.47 1.49.66 2.22a13.39 13.39 0 001.32 3.57h.21a1.56 1.56 0 011.58.14.29.29 0 00.09.07h.1c.262-.08.537-.11.81-.09l.01-.16z" fill="#979796"/><g opacity=".25" fill="#979796"><path d="M96.43 71c-.85-1.06-8.61-1.5-34.58-2-5-.09-9.81-.17-10.52-.26a.61.61 0 00-.3 0L22.83 71a.75.75 0 00-.69.79 18 18 0 00.91 4.55.75.75 0 00.86.48 15.63 15.63 0 013.69-.18h.33a.66.66 0 00.43-.12c.22-.14.38-.11.92.09a3.1 3.1 0 001.17.28 2.17 2.17 0 00.68-.12 11.76 11.76 0 012.87-.06c1.27.13 2.553.08 3.81-.15h.16c.705.27 1.5.157 2.1-.3a.5.5 0 00.21-.27c.224.105.418.267.56.47.14.2.367.319.61.32 4.6 0 9.09-.09 13.42-.21 3.66-.09 7.45-.19 11.25-.2a.78.78 0 00.5-.19 1.1 1.1 0 01.28-.12 4.67 4.67 0 00.51-.23.61.61 0 00.17-.15 2.6 2.6 0 001.53.56 16 16 0 002.08.07 10.24 10.24 0 012.64.19.71.71 0 00.66-.11c.39-.28 1.14 0 1.83.28a.69.69 0 00.37.06 16 16 0 012.86 0 13.25 13.25 0 002.62-.2 13.74 13.74 0 012-.21.69.69 0 00.2 0 2.39 2.39 0 011 .12 4.6 4.6 0 001.25.17h.13a15.28 15.28 0 014.13-.1c.998.08 2 .103 3 .07a.74.74 0 00.46-.2l.31-.25a3.52 3.52 0 001.07-1.27.77.77 0 00.06-.3 5.25 5.25 0 01.49-1.71c.156-.372.29-.752.4-1.14a1 1 0 00-.24-.71zM22.54 52a24.9 24.9 0 004.68-.14 24 24 0 016-.08 2.14 2.14 0 001.83.11 1.76 1.76 0 01.58-.11 5.27 5.27 0 003 .1l.2.05c.705.27 1.5.157 2.1-.3a.56.56 0 00.21-.27c.224.105.418.267.56.47.14.2.367.319.61.32 4.6 0 9.08-.1 13.42-.21 3.66-.09 7.44-.19 11.25-.2a.75.75 0 00.49-.19.93.93 0 01.28-.12 4.09 4.09 0 00.52-.23.8.8 0 00.17-.15c.434.343.967.54 1.52.56a18.25 18.25 0 002.09.07 10.16 10.16 0 012.63.19.73.73 0 00.67-.11c.39-.28 1.14 0 1.83.28a.78.78 0 00.37.06 15.84 15.84 0 012.85 0c.868.056 1.74.023 2.6-.1a15.1 15.1 0 012-.2h.2a2.47 2.47 0 011 .11 4.36 4.36 0 001.26.18h.2a5.9 5.9 0 012-.12 8.53 8.53 0 001.95 0 .74.74 0 00.51-.35.69.69 0 00.08-.61c-.06-.21-1.55-5.09-2.07-6.61a.75.75 0 00-.71-.51l-71.8.66h-5.59a.74.74 0 00-.58.26.75.75 0 00-.16.61c.166.878.404 1.74.71 2.58.283.783.51 1.585.68 2.4v.11c.48 1.38 1.68 1.75 3.09 1.75a18.72 18.72 0 002.78-.26c1.41-.22 3-.46 3.71 0a.76.76 0 00.28 0z"/></g><path d="M96.49 41.69c-.68 0-.7-.07-.76-.27-.83-2.44-1.36-4.14-2.09-6.79-.92-2.51-1.63-4.78-2.4-7.18-.3-1-.61-1.94-.92-2.9-.84-3.62-1.22-4.11-5-3.78-4.62-.07-8.77-.05-13.53 0a53.34 53.34 0 00-6.81 0c-.47 0-.89 0-1.25-.05a4.06 4.06 0 00-1.73.12 15.42 15.42 0 00-4.21-.13 17.73 17.73 0 01-3.1 0h-2.84c-3.63 0-7 .05-10.82-.09-1.24 0-2.26 0-3.08.05a10.28 10.28 0 00-2.93.22c-1.8-.9-4.24-.83-7.52-.31-2.21-.06-4.39-.05-6.5 0-2.69 0-5.48 0-8.35-.1a4.48 4.48 0 01-1.4-.31 3.5 3.5 0 00-2.86 0l-.23.12-.16.17a14.29 14.29 0 00-.66 1.59C6.1 24.77 7 27 7.94 29.13a14.57 14.57 0 011.18 3.74l.05.17c1.86 4.83 3.42 9.51 4.65 14 .47 1.38 1.68 1.76 3.09 1.76a18.75 18.75 0 002.75-.29c1.41-.21 3-.46 3.71 0l.13.08h.15a26.51 26.51 0 004.74-.14 25.47 25.47 0 016.08-.07 2.14 2.14 0 001.83.11 1.76 1.76 0 01.58-.11 5.27 5.27 0 003 .1l.2.05c.705.27 1.5.157 2.1-.3l.15-.08.06-.19c.223.112.415.277.56.48l.22.32h1.36c4.26 0 8.43-.1 12.47-.21 3.65-.09 7.43-.19 11.23-.2h.28l.21-.19A1.29 1.29 0 0169 48a4.09 4.09 0 00.52-.23l.22-.13c.42.339.94.529 1.48.54a16 16 0 002.08.07 10.16 10.16 0 012.63.19l.37.12.3-.23c.39-.28 1.14 0 1.83.28l.18.08h.19a15.84 15.84 0 012.85 0h.43a15.77 15.77 0 002.2-.21c.66-.12 1.33-.19 2-.21h.2a2.51 2.51 0 011 .11 5.2 5.2 0 001.34.17 23.3 23.3 0 015.18-.12H96.18l.31-.25a3.84 3.84 0 001.23-1.39l.07-.16v-.18a2.61 2.61 0 01.74-1.75l-.8-.65v-.29c.08-2.44-.49-2.05-1.24-2.07z" fill="#979796"/><path d="M95.66 38.29c-.84-1.76-.31-3.08-1.64-4.68-.06-.38-.81-1.79-.53-2.34-.87-3.06-1.77-7.51-3-10.26-1.32-1-4.78-.09-6.77-.42-4.62 0-8.9.1-13.58-.08-1.69 0-1.64.15-3.34.15-3.51-.3-3.51 0-2.31 3.19.9 5.31 3.89 9.93 5.07 15.09a13.94 13.94 0 001.58 3.16c.46 1.22.13 3.16 1.54 3 2.71.07 5.88.1 8.59.44 1.24-.14 2.1.32 3.26-.36 1.64 0 1-.73 3.36 0 .7.046 1.405.02 2.1-.08.8-.64 1.93-.11 2.86-.53.82-.06 2 .75 2.68.08.16-.15 2.18 0 2.27-.07-.14-1.85-1.47-4.47-2.14-6.29z" fill="#DCDCDC"/><path d="M83 46.29h-.64a5.46 5.46 0 00-1.07 0h-.18a75.52 75.52 0 00-7.58-.41h-.88c-1.63.19-1.91-1.48-2-2.38a6.66 6.66 0 00-.2-1 9.68 9.68 0 01-1.23-2.35l-.36-.86a.69.69 0 010-.13 43.47 43.47 0 00-2.37-6.8A39.85 39.85 0 0163.74 24c-.65-1.75-1-2.82-.46-3.58.54-.76 1.73-.7 3.57-.55.75 0 1.13 0 1.54-.07a15.71 15.71 0 011.73-.08c3.74.14 7.15.12 10.77.1h2.94c.875.08 1.755.08 2.63 0 1.77-.11 3.44-.21 4.46.56a.62.62 0 01.24.29 49.94 49.94 0 012.29 7.44c.26 1 .51 2 .76 2.93a.8.8 0 010 .55c.084.401.208.793.37 1.17.07.153.13.31.18.47a5.86 5.86 0 011.12 2.87 6.14 6.14 0 00.46 1.9v.07c.18.49.41 1 .65 1.63a16.82 16.82 0 011.5 4.85.7.7 0 01-.21.56c-.26.28-.51.27-1.45.25h-1a2.51 2.51 0 01-2.24.12 3.11 3.11 0 00-.64-.14 4.06 4.06 0 01-1.47.18 1.7 1.7 0 00-1.07.19c-.31.23-.69.27-2.26.25h-.31a.58.58 0 01-.23 0c-1.2-.38-1.41-.3-1.69-.2-.4.15-.823.229-1.25.23a3.48 3.48 0 01-1.67.3zm-1.26-1.56h.72a2.47 2.47 0 001.62-.25.8.8 0 01.4-.11c.314.03.63-.018.92-.14a3.4 3.4 0 012.6.17h1.65a3.08 3.08 0 011.86-.4 2.57 2.57 0 001-.12.76.76 0 01.26-.06A3.64 3.64 0 0194 44c.4.11.85.23 1 .1.3-.29.69-.29 1.9-.26a22.92 22.92 0 00-1.28-3.59c-.24-.59-.47-1.15-.66-1.65a8.18 8.18 0 01-.62-2.19 4.28 4.28 0 00-.9-2.3.75.75 0 01-.17-.36c0-.08-.08-.23-.14-.4a4 4 0 01-.43-2.07c-.24-.84-.47-1.78-.72-2.75a51.4 51.4 0 00-2.11-7 8.36 8.36 0 00-3.33-.18 14.76 14.76 0 01-2.9 0h-2.75c-3.63 0-7.07 0-10.8-.1a14.22 14.22 0 00-1.58.07 15.93 15.93 0 01-1.74.08 10.49 10.49 0 00-2.29 0c.145.763.373 1.507.68 2.22a.65.65 0 010 .13 37.83 37.83 0 002.62 8 45.83 45.83 0 012.43 7l.35.83a8.27 8.27 0 001.11 2.12.57.57 0 01.1.19c.153.447.257.91.31 1.38.023.385.121.763.29 1.11a.41.41 0 00.13 0h1.06c2.45.06 5.23.11 7.64.42l.54-.07z" fill="#979796"/><path d="M66.26 30.62c-1-3-2-6.95-3.1-9.61-.59-.75-1.67-.37-3.37-.37-2.53-.05-4.25-.06-6.78 0-4.63 0-8.91-.2-13.55 0-3.51-.3-3.51 0-2.31 3.19.53 1.69.36 1.69.89 3.39.35 2.73 2.4 4.05 2.27 6.56A55.41 55.41 0 0145 44.63c.43.88 2.22.7 2.47.57 2.32-.38 5 .35 7.31.27 2.52-.38 5.06-1 7.65-.35 1.7-.15 4 .58 5.6-.26.8-.48 2 .34 1.95-.7-.76-4.63-2.37-9.02-3.72-13.54z" fill="#DCDCDC"/><path d="M54.41 46.22a27 27 0 01-2.75-.22 16.31 16.31 0 00-4-.1 4.07 4.07 0 01-2.21 0 1.82 1.82 0 01-1.11-.9l-.22-.6a52.42 52.42 0 00-4.45-10.16.73.73 0 01-.11-.43 5.48 5.48 0 00-1-3 9.25 9.25 0 01-1.28-3.36 14.93 14.93 0 01-.45-1.7 16.52 16.52 0 00-.42-1.63c-.66-1.76-1.07-2.84-.48-3.61.59-.77 1.71-.7 3.52-.55 2.92-.15 5.76-.1 8.51-.07 1.64 0 3.31.05 5 0 2.48-.05 4.2 0 6.81 0 .44 0 .85 0 1.22-.05 1-.07 2-.15 2.72.7a1 1 0 01.1.18 59.1 59.1 0 011.88 5.68c.4 1.36.82 2.77 1.24 4 .33 1.11.68 2.21 1 3.32A76.14 76.14 0 0170.73 44c.063.4-.063.805-.34 1.1a1.62 1.62 0 01-1.31.32 1.35 1.35 0 00-.66 0 7.31 7.31 0 01-4.06.42 10.93 10.93 0 00-1.86-.06 1 1 0 01-.24 0 14.87 14.87 0 00-6.15.17l-1.21.19-.49.08zM49 44.34a26.54 26.54 0 012.82.2 20.45 20.45 0 002.95.18l1.1-.18a16.63 16.63 0 016.64-.18 13.28 13.28 0 012 .08 6.36 6.36 0 003.2-.24 2.55 2.55 0 011.46-.2 79.26 79.26 0 00-2.62-9.78c-.35-1.11-.7-2.21-1-3.33-.3-1.12-.85-2.65-1.26-4-.57-1.92-1.15-3.9-1.77-5.41-.19-.15-.57-.14-1.39-.09-.39 0-.84.06-1.34.06-2.6-.05-4.31-.06-6.77 0h-5.05c-2.87 0-5.57-.08-8.47.07h-.1a9.91 9.91 0 00-2.23 0c.145.763.373 1.507.68 2.22.194.59.354 1.191.48 1.8.118.494.261.981.43 1.46v.13A7.77 7.77 0 0039.9 30a7 7 0 011.16 3.56 54.31 54.31 0 014.47 10.25l.19.52c.09.2 1.13.25 1.48.14a.43.43 0 01.16 0 11 11 0 011.64-.13z" fill="#979796"/><path d="M37.71 27.23c-.73-1.89-1.28-4.8-2-6.22-.58-.75-1.67-.37-3.36-.37-3.58-.09-9-.16-12.17-.23-3.48.32-8.54-.65-11.5.38.21 2.72 1.65 6.75 2.33 9.73a20.15 20.15 0 002.21 5.19 7.59 7.59 0 001.51 3.46c.74 2 1 4.38 2.23 6.2.31.39 1.38-.36 1.73 0 .58.54.85.08 1.44.14 1 0 2.28.74 3.2.27a2.84 2.84 0 011.44-.34c1.66.45 2.91-.57 4.48-.76 1 .44 4.84 1.1 6.08.39 1.57.24 3.87.62 5.26-.18.8-.48 1.87.18 1.85-.85-1.5-5.75-2.93-11.15-4.73-16.81z" fill="#DCDCDC"/><path d="M22.57 46.65a5.63 5.63 0 01-1.44-.24 5.82 5.82 0 00-1-.18.68.68 0 00-.35 0 1.5 1.5 0 01-1.49-.23l-.3.08c-.44.12-1.18.33-1.65-.24a13.33 13.33 0 01-1.73-4.33c-.18-.69-.36-1.35-.58-2A8.31 8.31 0 0112.47 36a21.3 21.3 0 01-2.22-5.24c-.24-1.07-.56-2.19-.9-3.39a36.62 36.62 0 01-1.46-6.5.76.76 0 01.5-.77c1.95-.67 4.62-.55 7.21-.44a35.25 35.25 0 004.47 0l4.8.09c2.57 0 5.34.09 7.46.14.43 0 .84 0 1.21-.05 1.06-.07 2.05-.15 2.72.7l.07.11a19.13 19.13 0 011.24 3.6c.26.95.54 1.94.84 2.71v.05c1.85 5.83 3.34 11.5 4.7 16.81a1.11 1.11 0 010 .17c0 1.37-1.18 1.4-1.58 1.41a1.3 1.3 0 00-.63.11c-1.57.9-3.85.56-5.53.31-1.63.66-5.07 0-6.29-.4a8.64 8.64 0 00-1.31.37 5.26 5.26 0 01-3.2.36 2.15 2.15 0 00-1 .25 2.22 2.22 0 01-1 .25zm-2.36-1.92a5.78 5.78 0 011.28.23c.465.18.972.222 1.46.12a3.52 3.52 0 011.85-.42h.13a4 4 0 002.39-.32 8.18 8.18 0 011.8-.46.72.72 0 01.38.05c1.06.44 4.53.94 5.42.43a.83.83 0 01.49-.09h.18c1.39.21 3.47.52 4.58-.12a2.74 2.74 0 011.36-.31h.07c-1.33-5.2-2.79-10.74-4.6-16.42-.32-.83-.6-1.85-.88-2.83a21.19 21.19 0 00-1.07-3.22c-.18-.16-.57-.15-1.4-.1-.4 0-.85.06-1.34.06l-7.46-.14-4.73-.09a35.3 35.3 0 01-4.59 0 23.85 23.85 0 00-6.08.2 45.62 45.62 0 001.34 5.6c.35 1.22.67 2.36.91 3.41a19.64 19.64 0 002.12 5 .5.5 0 01.09.23 6.78 6.78 0 001.36 3.14 1 1 0 01.13.22c.26.72.47 1.49.66 2.22a13.39 13.39 0 001.32 3.57l.21-.05a1.54 1.54 0 011.57.14.29.29 0 00.09.07h.1a2.31 2.31 0 01.82-.09l.04-.03z" fill="#979796"/><g opacity=".25" fill="#979796"><path d="M43.44 36.27c-1.52-.68-3-1.21-4.49-1.76-.36-.18-.75-.31-1.12-.46a7.15 7.15 0 00-1.16-.38 9.87 9.87 0 00-2.42-.27h-4.86a33.91 33.91 0 01-4.89-.44s-.05 0 0-.06a25.33 25.33 0 014.9-.52 22.09 22.09 0 014.92.55l1.2.27 1.21.22c.82.12 1.65.18 2.47.36a8.81 8.81 0 014.3 2.47.06.06 0 010 .08l-.06-.06zM79 36.53a5.37 5.37 0 013.21-2.6c.67-.19 1.37-.27 2-.41a16.4 16.4 0 002-.59 33.43 33.43 0 013.91-1.07 10.9 10.9 0 003.71-1.19h.07a3.94 3.94 0 01-1.58 1.42 9.58 9.58 0 01-2 .74c-.66.16-1.34.26-2 .36-.663.1-1.33.167-2 .2a8.33 8.33 0 00-2 .37 11.6 11.6 0 00-1.81.87 22.41 22.41 0 00-3.45 1.89l-.06.01zM36.74 36.61c-.77.21-1.5.38-2.21.59-.71.21-1.39.48-2.12.69a10 10 0 00-2.14.89 18.3 18.3 0 01-2.11 1.12 8.26 8.26 0 01-2.39.4 12.47 12.47 0 01-2.37-.1 15.61 15.61 0 01-2.32-.46 6.73 6.73 0 01-2.18-1v-.07a.07.07 0 01.06 0 12.18 12.18 0 002.26.31l2.28.17a21.43 21.43 0 004.46 0 6.9 6.9 0 002.17-.67 20.48 20.48 0 002-1.27 6.09 6.09 0 014.64-.72v.06c0 .06-.01.05-.03.06zM89.92 38.09c-1.55.06-3.12-.35-4.47-.3a27.7 27.7 0 00-4.33.84 7.56 7.56 0 00-2.12.81c-.66.39-1.28.84-1.94 1.23a11.87 11.87 0 01-2.13.91 5.58 5.58 0 01-1.16.26 2.15 2.15 0 01-.62 0 .85.85 0 01-.58-.28v-.07h.06c.34.078.695.029 1-.14.33-.14.67-.3 1-.46.67-.33 1.33-.69 2-1 .67-.31 1.45-.51 2.17-.78s1.42-.59 2.1-.94c.68-.386 1.39-.72 2.12-1a7.81 7.81 0 012.35-.51 6.92 6.92 0 012.36.44c.73.25 1.44.51 2.16.83.02.02.02.05 0 .07a.05.05 0 01.03.09zM68.39 32.24a5.76 5.76 0 01-4.39-.86c-.62-.42-1.16-.94-1.78-1.3a3.91 3.91 0 00-2-.55 25 25 0 00-4.16.9 19.24 19.24 0 01-2.19.37c-.38.03-.76.03-1.14 0a1.9 1.9 0 01-1.12-.35h.05a2.22 2.22 0 001-.06c.35-.08.69-.19 1-.3.69-.21 1.38-.42 2.09-.62A18.68 18.68 0 0158 29a5.76 5.76 0 012.3 0 11.8 11.8 0 012.11.8c.68.3 1.38.58 2 .86.62.28 1.27.61 1.92.86.65.25 1.33.43 2.06.63v.09zM60 38.09a23.34 23.34 0 00-2.39.72c-.8.25-1.61.49-2.45.68a8.12 8.12 0 01-2.56.34 4.43 4.43 0 01-2.48-.83c.817.023 1.635 0 2.45-.07.8-.07 1.61 0 2.43-.13.82-.13 1.64-.22 2.46-.37A23.3 23.3 0 0160 38v.09z"/></g><g opacity=".25" fill="#979796"><path d="M66.65 62.94a4.68 4.68 0 01-2.74 1.65 10.17 10.17 0 01-3.16.06c-1-.09-2-.2-3-.23a7.36 7.36 0 00-3 .35 7.65 7.65 0 013-.76c1-.07 2.07 0 3.09-.07s2-.15 3-.24a9.79 9.79 0 002.85-.75.05.05 0 01.07 0 .11.11 0 01-.11-.01zM86.09 62.74a32.05 32.05 0 00-3.8.62 14.39 14.39 0 00-1.94.36c-.636.2-1.257.445-1.86.73a12.11 12.11 0 01-3.9 1 11.36 11.36 0 01-4-.48v-.06c0-.06 0 0 0 0 1.34-.24 2.63-.31 3.9-.49.64-.08 1.28-.11 1.92-.22l1.93-.28a8.34 8.34 0 001.9-.51c.61-.25 1.19-.61 1.83-.86a5.55 5.55 0 014 .09.06.06 0 010 .07.05.05 0 01.02.03zM24.83 59.1a4.7 4.7 0 013.94-2.23c.78 0 1.54.07 2.29.08a12.75 12.75 0 002.23-.19 21.78 21.78 0 004.21-1 9.42 9.42 0 003.56-2.34 5.85 5.85 0 01-3.24 3.27 8 8 0 01-2.29.53 11 11 0 01-2.29 0 14.11 14.11 0 00-2.25 0 8.12 8.12 0 00-1.1.17c-.37.07-.73.16-1.08.25a9.43 9.43 0 00-4 1.47l.02-.01zM60.71 58.39a6.29 6.29 0 01-2.09.62 5.06 5.06 0 01-2.18-.2c-.35-.1-.7-.18-1.06-.25a2.92 2.92 0 00-1-.05 1.69 1.69 0 00-.74.48c-.292.223-.596.43-.91.62a18.36 18.36 0 01-3.89 1.88 13.53 13.53 0 01-2.1.56 3.4 3.4 0 01-2.2-.1.07.07 0 01.06 0 1.86 1.86 0 001-.12 8.74 8.74 0 001-.34c.64-.27 1.28-.54 1.92-.83 1.26-.59 2.55-1.14 3.79-1.77.31-.16.61-.33.9-.5a2.07 2.07 0 011.2-.31c.41 0 .73.21 1.08.26.344.08.7.1 1.05.06a13.8 13.8 0 014.21 0 .08.08 0 010 .06s-.02-.07-.04-.07zM33 62.87a17 17 0 00-3.56.51 7.46 7.46 0 01-1.94.34 5.93 5.93 0 01-1.92-.54c-1.17-.45-2.43.06-3.62.27a14.27 14.27 0 01-1.87.19 5.52 5.52 0 01-1 0 1.42 1.42 0 01-.92-.45.05.05 0 010-.07c.28.085.58.085.86 0l.89-.18c.6-.13 1.21-.27 1.84-.35a8.81 8.81 0 011.92 0 15.87 15.87 0 011.92.28 4.79 4.79 0 001.77 0c.58-.126 1.149-.3 1.7-.52a5.27 5.27 0 013.87.42c.02.02.02.05 0 .07l.06.03zM93.89 55.12c-1.75.34-3.46.58-5.2.78-.87.08-1.76.09-2.64.14a17.71 17.71 0 00-2.61.41c-.87.18-1.69.43-2.63.54a7.28 7.28 0 01-2.81-.41 13.09 13.09 0 01-4.58-2.77.06.06 0 010-.08c1.68.63 3.28 1.3 4.88 1.85a8 8 0 002.39.57c.81 0 1.74 0 2.6-.09a17.69 17.69 0 002.61-.4c.86-.22 1.71-.47 2.58-.62a16.66 16.66 0 015.32 0v.06l.09.02z"/></g><g opacity=".25" fill="#979796"><path d="M38.86 82.54A3.9 3.9 0 0137.3 84a3.68 3.68 0 01-2.19.23 12.58 12.58 0 00-2-.21 6 6 0 00-1.94.33 6.44 6.44 0 011.93-.74 14.58 14.58 0 012.06-.09 6.62 6.62 0 001.77-.36c.59-.17 1.17-.44 1.88-.63h.06c.01 0-.01 0-.01.01zM53.92 83.46a19.23 19.23 0 00-3.92.84 18.51 18.51 0 00-2 .56 16.09 16.09 0 00-1.87.91 11.7 11.7 0 01-4 1.37 10.73 10.73 0 01-4.22-.37.06.06 0 010-.07c1.4-.23 2.74-.36 4.06-.59.65-.13 1.32-.2 2-.36l2-.46a8.33 8.33 0 001.94-.7c.62-.31 1.19-.72 1.84-1a5.31 5.31 0 014.21-.15.05.05 0 01-.04.02zM80.35 84.68a7.38 7.38 0 01-4.28 1c-.74-.07-1.46-.27-2.18-.38a17.32 17.32 0 00-2.17-.19 19.6 19.6 0 01-2.17-.11c-.71-.08-1.43-.15-2.14-.26a33.93 33.93 0 01-4.23-1 .05.05 0 010-.06 18.25 18.25 0 014.37 0c1.438.2 2.858.508 4.25.92.69.211 1.4.349 2.12.41a15.18 15.18 0 002.14-.13c1.41-.08 2.77-.17 4.25-.28a.08.08 0 01.04.08zM80.35 78.89a8.16 8.16 0 01-2.87.63A16.79 16.79 0 0174.6 79a9.7 9.7 0 00-2.69.11c-.92.1-1.83.33-2.83.41a.06.06 0 01-.06 0 7.74 7.74 0 012.68-1.29 5.92 5.92 0 013 .09 18.78 18.78 0 002.75.77 8.15 8.15 0 002.81-.22h.06l.03.02zM92.26 80.05a6.49 6.49 0 013.51-2.6 12.74 12.74 0 012.2-.23l2.16-.16a35.44 35.44 0 014.27.08 11.44 11.44 0 004.1-.35.06.06 0 01.07 0 .07.07 0 010 .06 6.09 6.09 0 01-4.18 1.32 15.34 15.34 0 01-2.16-.22c-.71-.1-1.4-.24-2.1-.37a6.24 6.24 0 00-2.13-.03 7.37 7.37 0 00-2 .69 40.62 40.62 0 00-3.72 1.88.07.07 0 01-.07 0l.05-.07zM102.8 86.24a17 17 0 00-3.57.51 7.46 7.46 0 01-1.94.34 5.93 5.93 0 01-1.92-.54c-1.16-.45-2.42.06-3.61.27a14.42 14.42 0 01-1.88.19 5.41 5.41 0 01-1-.05 1.41 1.41 0 01-.92-.44h.05c.277.085.573.085.85 0 .3 0 .59-.11.89-.18.6-.13 1.21-.27 1.84-.35a8.81 8.81 0 011.92 0 15.58 15.58 0 011.92.28 4.59 4.59 0 001.77 0 10.83 10.83 0 001.8-.55 5.33 5.33 0 013.87.42.06.06 0 010 .07.05.05 0 01-.07.03zM56.94 77.49c-1.75.34-3.46.58-5.2.79-.88.07-1.76.08-2.64.13a17.71 17.71 0 00-2.61.41c-.88.18-1.69.43-2.64.54a7.45 7.45 0 01-2.76-.4 13.26 13.26 0 01-4.58-2.78h.05c1.67.63 3.27 1.3 4.88 1.86a8.3 8.3 0 002.39.56c.81 0 1.74 0 2.6-.09A17.69 17.69 0 0049 78c.86-.21 1.71-.46 2.58-.62a17 17 0 015.32 0 .06.06 0 010 .06l.04.05z"/></g></g></svg>
