<svg height="120" width="120" xmlns="http://www.w3.org/2000/svg"><g fill="none"><g stroke="#9b907c" stroke-linecap="round" stroke-linejoin="round" stroke-width="1.5"><path d="m59.92 97.55h-22.92l-11.91-30.48h22.92z" fill="#cec3af"/><path d="m82.84 97.55h-22.92l-11.91-30.48h22.91z" fill="#e6e1d7"/><path d="m105.75 97.55h-22.91l-11.92-30.48h22.92z" fill="#cec3af"/><g fill="#9b907c"><path d="m104.65 99.54h-22.92l-11.91-30.48h22.91l13.02 28.49z"/><path d="m81.73 99.54h-22.92l-11.91-30.48h22.92l13.02 28.49z"/><path d="m58.81 99.54h-22.92l-11.91-30.48 1.11-1.99 21.81 1.99 13.02 28.49z"/></g><path d="m59.92 97.55h-22.92l-11.91-30.48h22.92z" fill="#cec3af"/><path d="m82.84 97.55h-22.92l-11.91-30.48h22.91z" fill="#cec3af"/><path d="m105.75 97.55h-22.91l-11.92-30.48h22.92z" fill="#e6e1d7"/></g><g fill="#9b907c" opacity=".5"><path d="m34.3 71.13c-.49-1.38-1.06-2.73-1.68-4.06h-1.1c3.48 7.22 5.29 15.61 2.69 23.33l.53 1.36a24.25 24.25 0 0 0 1.58-6.46 32.93 32.93 0 0 0 -2.02-14.17zm7.88 12.74a37.61 37.61 0 0 0 -1.08-7.68 44.11 44.11 0 0 0 -3.52-9.12h-1.13a40.09 40.09 0 0 1 4.71 16.46c.22 4.65-.19 9.29.76 13.89v.13h1a35.14 35.14 0 0 1 -.75-6.86c.02-2.27.1-4.55.01-6.82zm10.61 3.98c1.55 1.34 3.17 2.59 4.82 3.8l-.68-1.74a46.55 46.55 0 0 1 -7.37-6.65 28.65 28.65 0 0 1 -5.56-10.4 54.79 54.79 0 0 1 -1.39-5.79h-1a41.39 41.39 0 0 0 3.49 11.35 31.83 31.83 0 0 0 7.69 9.43zm-2.32 2.57c-.61-.54-1.42-1.23-2.31-1a2 2 0 0 0 -1.23 1.44c-.65 2.08-.16 4.62.33 6.69h1a16.59 16.59 0 0 1 -.59-5.28 3.2 3.2 0 0 1 .48-1.72.37.37 0 0 1 .37-.17c.246.045.476.152.67.31a14 14 0 0 1 4.67 6.76v.1h1.14a16.24 16.24 0 0 0 -4.53-7.13zm2.58-10.42-.75-1.91a19.19 19.19 0 0 1 -2.47-2.89c-1.63-2.35-2.71-5.3-1.8-8.05v-.06h-1.03c-1.46 4.83 2.32 9.91 6.05 12.91zm-24.57-12.93h-1.08a10.05 10.05 0 0 1 .73 4.46 17.9 17.9 0 0 1 -.27 2.64l.67 1.7a19.4 19.4 0 0 0 .6-5c0-1.294-.22-2.58-.65-3.8zm36.11 11.18c.93 5.81 1.23 11.77 3.1 17.39.22.65.48 1.28.74 1.91h1.12a43 43 0 0 1 -2.75-10.44c-.86-5.79-1.21-11.75-3.25-17.3a26.73 26.73 0 0 0 -1.2-2.74h-1.11a24.81 24.81 0 0 1 1.22 2.67 42.93 42.93 0 0 1 2.13 8.51zm12.72 15.81a19.33 19.33 0 0 0 5.48 3.38l-.52-1.34a20.58 20.58 0 0 1 -8.73-8.27 41.55 41.55 0 0 1 -4.92-15.78c-.22-1.66-.36-3.32-.45-5h-1a58.49 58.49 0 0 0 2 12.75c1.47 5.31 3.95 10.58 8.14 14.26zm-18.41.94.68 1.73c.57-3 1.1-6 1.44-9 .65-5.77.73-11.88-1.35-17.39a21.22 21.22 0 0 0 -1.56-3.26h-1.23a24.41 24.41 0 0 1 3.42 10.92c.45 5.71-.37 11.39-1.4 17zm-4.36-15.08a10.4 10.4 0 0 1 -.64 2.24l.49 1.25a12.33 12.33 0 0 0 1.3-6.69 24.68 24.68 0 0 0 -2-8.79 22.7 22.7 0 0 0 -.41-.86h-1.1a21.4 21.4 0 0 1 1.76 4.64 20 20 0 0 1 .6 8.21z"/><path d="m77 83.93a15.21 15.21 0 0 1 -2.66-3.21 9.54 9.54 0 0 1 -1.48-4.08 6 6 0 0 1 .56-3.11l-.42-1.21c-2.71 4.33.21 9.6 3.69 12.64a8.81 8.81 0 0 0 1.71 1.24l-.63-1.61c-.26-.22-.51-.44-.77-.66zm4.08-4.68a27.5 27.5 0 0 1 3.07 7.67 21.71 21.71 0 0 1 -.42 8.38 52.902 52.902 0 0 1 -.57 2.25h1a26.88 26.88 0 0 0 1.12-9.39 21.34 21.34 0 0 0 -2.52-7.75c-1.31-2.58-2.63-5.16-3.88-7.77a236.31 236.31 0 0 0 -2.06-4.41c-.18-.39-.35-.77-.51-1.16h-1.08c.6 1.51 1.37 3 2 4.42 1.26 2.613 2.543 5.2 3.85 7.76zm7.92-1a28.14 28.14 0 0 1 -.62 16c-.35 1.11-.74 2.21-1.15 3.3h1.07a40.63 40.63 0 0 0 2.48-9.71 26.31 26.31 0 0 0 -.32-7.72 50.8 50.8 0 0 0 -2.36-7.39 12.52 12.52 0 0 1 -.85-5.66h-1c-.46 3.74 1.75 7.64 2.75 11.18zm3.39 15.95a34.37 34.37 0 0 1 -.89 3.35h1a43.47 43.47 0 0 0 1.68-8.55c.49-4.85.28-9.83 1.71-14.53.12-.39.25-.78.39-1.16l-.52-1.31a26.45 26.45 0 0 0 -1.85 7.35c-.58 4.95-.48 9.95-1.52 14.85zm4.46-7.82a39.39 39.39 0 0 0 2.21 11l.06.17h1.08a38.07 38.07 0 0 1 -2-7.87 37.49 37.49 0 0 1 -.36-6.86 18.93 18.93 0 0 1 .57-4.11l-.57-1.45a22.32 22.32 0 0 0 -.99 9.12z"/></g><g stroke="#9b907c" stroke-linecap="round" stroke-linejoin="round" stroke-width="1.5"><path d="m64.87 76.05h-22.92l-11.91-30.49h22.91z" fill="#cec3af"/><path d="m87.78 76.05h-22.91l-11.92-30.49h22.92z" fill="#e6e1d7"/><path d="m110.7 76.05h-22.92l-11.91-30.49h22.92z" fill="#cec3af"/><path d="m109.59 77.83h-22.91l-11.91-30.48h22.91l13.02 28.5z" fill="#9b907c"/><path d="m86.68 77.83h-22.92l-11.91-30.48h22.92l13.01 28.5z" fill="#9b907c"/><path d="m63.76 77.83h-22.92l-11.91-30.48 1.11-1.99 21.81 1.99 13.02 28.5z" fill="#9b907c"/><path d="m64.87 76.05h-22.92l-11.91-30.49h22.91z" fill="#e6e1d7"/><path d="m87.78 76.05h-22.91l-11.92-30.49h22.92z" fill="#cec3af"/><path d="m110.7 76.05h-22.92l-11.91-30.49h22.92z" fill="#e6e1d7"/></g><g fill="#9b907c" opacity=".5"><path d="m39.46 59.49a52 52 0 0 1 -1.46-8.12c-.21-1.93-.34-3.87-.44-5.81h-1a74.24 74.24 0 0 0 1.54 12.53 44.26 44.26 0 0 0 2.54 7.51 57.72 57.72 0 0 1 2.94 7.52c.255.961.435 1.94.54 2.93h1a30.78 30.78 0 0 0 -2.71-8.85 57.4 57.4 0 0 1 -2.95-7.71zm-5.65-13.93h-1c-.2 1.81-.41 3.62-.66 5.42l.74 1.88c0-.22.07-.45.1-.68.32-2.18.58-4.41.82-6.62zm15.19 23.52c-2.8-5.15-5.42-10.47-6.67-16.23a30.26 30.26 0 0 1 -.7-7.29h-1c-.26 10.55 5.37 20.12 10.37 29.14l.75 1.35h1.11c-.53-1.09-1.15-2.14-1.73-3.19-.71-1.25-1.41-2.51-2.13-3.78zm2.74-6.88a39.79 39.79 0 0 0 5.7 4.49 16.52 16.52 0 0 0 4.53 2l-.45-1.16c-3.24-1-6-3.29-8.57-5.54a24.75 24.75 0 0 1 -4.58-5 19.45 19.45 0 0 1 -2.37-5.83 42.22 42.22 0 0 1 -.94-5.6h-1.06c.42 3.95 1.13 7.94 3.16 11.39a22.9 22.9 0 0 0 4.58 5.25zm-.27-10.09a10.91 10.91 0 0 0 3.35 2.89 3.33 3.33 0 0 0 2 .39l-.35-.9c-1.1.07-2.7-1.44-3.24-2a11.86 11.86 0 0 1 -2.64-3.85 9.29 9.29 0 0 1 -.83-3.14h-1a9.79 9.79 0 0 0 .54 2.59 13.11 13.11 0 0 0 2.17 4.02zm5.91-3.85c.64 1.9 1.38 3.76 2.08 5.63 1.31 3.54 2.46 7.23 2.26 11a13.77 13.77 0 0 1 -.32 2.23l.12.31.48 1.21.06.15c2.13-6.24-.9-13.13-3.07-19.05a26.11 26.11 0 0 1 -1.33-4.18h-1c.17.917.41 1.82.72 2.7z"/><path d="m66.74 56.67c-.92-2-2.44-3.73-3.45-5.72a13.92 13.92 0 0 1 -1.29-5.39h-1a17 17 0 0 0 .73 4.26c.7 2.1 2.08 3.81 3.23 5.67 2.49 4 2.47 8.89 1.35 13.38a53.18 53.18 0 0 1 -1.94 5.92l.49 1.26h.14c1.62-4.18 3.16-8.5 3.1-13a16.12 16.12 0 0 0 -1.36-6.38z"/><path d="m73.84 65a19.17 19.17 0 0 0 -2.24-7.18c-1.32-2.33-3.43-4-4.83-6.3a12.29 12.29 0 0 1 -1.69-5.91h-1a14 14 0 0 0 1 4.7c1 2.51 3 4.25 4.61 6.37 3.31 4.32 3.76 10.12 3.01 15.39-.19 1.34-.47 2.66-.77 4h1a32.45 32.45 0 0 0 .91-11.07zm1.16-12.84a4.16 4.16 0 0 0 3.07-1l-.4-1a2.92 2.92 0 0 1 -2 1 4.48 4.48 0 0 1 -3.91-1.91 7.93 7.93 0 0 1 -1.54-3.69h-1a8.85 8.85 0 0 0 1.39 3.81 5.83 5.83 0 0 0 4.39 2.79zm4.39 11.41a41.64 41.64 0 0 1 .15-5.91c.08-.64.19-1.26.32-1.89l-.61-1.57a26.84 26.84 0 0 0 -.89 7.89 81.93 81.93 0 0 0 1 13.09l.15.87h1c-.32-2-.66-3.91-.82-5.9-.13-2.15-.22-4.39-.3-6.58zm5.46 4.97-.57-1.46a25.14 25.14 0 0 0 -1.43 9h1a24.15 24.15 0 0 1 1-7.54zm14.59 7.51h1c-.27-9.18-1.57-18.34-5.18-26.85-.52-1.24-1.11-2.45-1.73-3.64h-1.13c4.73 8.84 6.58 19 7 29 .01.44.03.98.04 1.49zm5 0h1a108.83 108.83 0 0 0 -.2-14l-1.32-3.37a107.09 107.09 0 0 1 .52 17.37zm-16.39 0h1a45.11 45.11 0 0 1 .95-7.48 56.88 56.88 0 0 0 1.23-8.9 23.64 23.64 0 0 0 -1.34-8.34 40.63 40.63 0 0 0 -2.55-5.77h-1.17c2.29 4.31 4.1 8.9 4 13.87-.07 5.57-2.04 11.01-2.12 16.62zm-5.61-13.69.37 1a.48.48 0 0 0 .48-.34c1.94-5.6 2.4-12-.14-17.41h-1.15c2.66 5.12 2.26 11.28.44 16.75z"/></g><path d="m100.18 81.23-1-3.4a.74.74 0 0 0 -.72-.54h-56.76l-4.16-10.5a.74.74 0 0 0 -.69-.47h-3.17a.74.74 0 0 0 -.7 1.01l5.47 14.38a.76.76 0 0 0 .71.48h60.3a.75.75 0 0 0 .72-1zm-65.55-23.23h53.92a.76.76 0 0 0 .69-.45l1.41-3.21a.76.76 0 0 0 -.65-1.05l-56.64-.4a.75.75 0 0 0 -.7 1.01l1.3 3.6a.76.76 0 0 0 .67.5z" fill="#9b907c" opacity=".25"/><path d="m45.23 52.05h-22.91l-11.92-30.48h22.92z" fill="#cec3af" stroke="#9b907c" stroke-linecap="round" stroke-linejoin="round" stroke-width="1.5"/><path d="m68.15 52.05h-22.92l-11.91-30.48h22.92z" fill="#e6e1d7" stroke="#9b907c" stroke-linecap="round" stroke-linejoin="round" stroke-width="1.5"/><path d="m91.07 52.05h-22.92l-11.91-30.48h22.92z" fill="#cec3af" stroke="#9b907c" stroke-linecap="round" stroke-linejoin="round" stroke-width="1.5"/><path d="m89.96 54.04h-22.91l-11.92-30.48h22.92l13.02 28.49z" fill="#9b907c" stroke="#9b907c" stroke-linecap="round" stroke-linejoin="round" stroke-width="1.5"/><path d="m67.05 54.04h-22.92l-11.91-30.48h22.91l13.02 28.49z" fill="#9b907c" stroke="#9b907c" stroke-linecap="round" stroke-linejoin="round" stroke-width="1.5"/><path d="m44.13 54.04h-22.92l-11.91-30.48 1.1-1.99 21.82 1.99 13.01 28.49z" fill="#9b907c" stroke="#9b907c" stroke-linecap="round" stroke-linejoin="round" stroke-width="1.5"/><path d="m45.23 52.05h-22.91l-11.92-30.48h22.92z" fill="#cec3af" stroke="#9b907c" stroke-linecap="round" stroke-linejoin="round" stroke-width="1.5"/><path d="m68.15 52.05h-22.92l-11.91-30.48h22.92z" fill="#e6e1d7" stroke="#9b907c" stroke-linecap="round" stroke-linejoin="round" stroke-width="1.5"/><path d="m91.07 52.05h-22.92l-11.91-30.48h22.92z" fill="#cec3af" stroke="#9b907c" stroke-linecap="round" stroke-linejoin="round" stroke-width="1.5"/><g fill="#9b907c" opacity=".5"><path d="m17.59 24.64a11.56 11.56 0 0 0 -1.13-3.07h-1.12a11.86 11.86 0 0 1 1.26 3.21 10.34 10.34 0 0 1 -.19 4.88 35.55 35.55 0 0 1 -1.35 3.83l.54 1.38c.1-.27.2-.54.31-.81 1.17-3.06 2.37-6.06 1.68-9.42zm-4.7-3.07h-1a7.62 7.62 0 0 1 .11 2.24 7.22 7.22 0 0 1 -.25 1.19l.55 1.4a8.87 8.87 0 0 0 .7-2.46 8.19 8.19 0 0 0 -.11-2.37zm8.01 5.77a29.35 29.35 0 0 0 -.44-5.77h-1c.85 4.26.39 8.72-.14 13-.3 2.45-.68 4.92-.92 7.4l.84 2.15c0-.45.06-.9.1-1.35.44-5.15 1.47-10.25 1.56-15.43zm4.57 7.25c-.16 5-.73 10 .08 15 .135.815.312 1.623.53 2.42h1.07a33.05 33.05 0 0 1 -1-9.8c.12-5 .75-9.93 0-14.86a20.26 20.26 0 0 0 -1.73-5.82h-1.1c2.01 4.05 2.3 8.59 2.15 13.06zm6.34 7.75c-2.75 1-2.46 4.59-2 6.89.199.956.46 1.898.78 2.82h1c-.17-.52-.32-1-.47-1.55a14.43 14.43 0 0 1 -.66-4.18 3.3 3.3 0 0 1 1.21-2.83c1.51-1 2.59.8 3.19 2.07a27.15 27.15 0 0 1 1.89 6.49h1a28.89 28.89 0 0 0 -2-6.95c-.66-1.5-2.01-3.48-3.94-2.76zm-.02-10.53c2.69 4.92 6.21 9.51 8 14.87a16.34 16.34 0 0 1 .95 5.37h1c.01-4.05-1.74-8.05-3.74-11.61-1.38-2.49-2.92-4.88-4.36-7.34a32.54 32.54 0 0 1 -3.35-7 11.44 11.44 0 0 1 -.51-4.48h-1c-.27 3.49 1.29 7.06 3.01 10.19zm6.9-10.24h-1a20.29 20.29 0 0 1 -.52 9.76l.56 1.45a21.2 21.2 0 0 0 .96-11.21zm5.24 21.15c-1.45-5-1.19-10.18-.89-15.28a30.3 30.3 0 0 0 -.04-5.87h-1a27.25 27.25 0 0 1 .11 5.64c-.15 2.65-.31 5.3-.22 8 .16 4.73 1.1 9.54 3.76 13.54a16.46 16.46 0 0 0 2.94 3.34h1.59a17.56 17.56 0 0 1 -6.25-9.37zm11.79 6.28a34.38 34.38 0 0 1 -3.53-6 31.63 31.63 0 0 1 -3-14.88c.11-2.2.41-4.39.72-6.58h-1c-.26 1.83-.5 3.66-.65 5.5a31.25 31.25 0 0 0 .42 8.25 34.86 34.86 0 0 0 5.81 13.71 36.21 36.21 0 0 0 2.45 3.07h1.35l-.38-.4c-.77-.87-1.5-1.76-2.19-2.67z"/><path d="m52.07 28.14a36.75 36.75 0 0 0 1.31 7.21 19.26 19.26 0 0 0 8.24 10.73 41.51 41.51 0 0 0 3.77 2c.5.25 1 .5 1.52.74l-.54-1.37-.28-.13c-1-.52-2.08-1-3.09-1.63a19.18 19.18 0 0 1 -5.28-4.33c-3-3.62-4.12-8.22-4.61-12.81-.24-2.32-.49-4.68-.5-7h-1c.02 2.21.24 4.45.46 6.59z"/><path d="m61.06 35c-1.88-1.8-4-4.5-3.76-7.27a3.35 3.35 0 0 1 .7-1.73l-.42-1.08a4.52 4.52 0 0 0 -1.12 2 6.51 6.51 0 0 0 .54 4.14 15.44 15.44 0 0 0 5.5 6.42l-.7-1.8c-.29-.21-.52-.43-.74-.68z"/><path d="m61.33 34.31a.5.5 0 1 0 1 0c.08-4.28.1-8.72-1.45-12.74h-1.07c1.66 3.99 1.6 8.43 1.52 12.74zm3.2-2.23c-.17 2.18-.38 4.35-.67 6.52-.08.58-.18 1.16-.28 1.74l.7 1.8c.22-1.36.47-2.72.65-4.08.26-2.07.46-4.15.62-6.22a42.56 42.56 0 0 0 .21-6 19.43 19.43 0 0 0 -.8-4.3h-1a18.44 18.44 0 0 1 .83 4.18 43.17 43.17 0 0 1 -.26 6.36zm10.47-1.39a16.27 16.27 0 0 0 3.82 6.78 6.18 6.18 0 0 0 4.54 2.12 3.45 3.45 0 0 0 2.36-1.19l-.41-1.07a3.89 3.89 0 0 1 -.28.39 2.37 2.37 0 0 1 -1.46.84 3.46 3.46 0 0 1 -1.76-.22 6.4 6.4 0 0 1 -2-1.31 14.27 14.27 0 0 1 -3.61-5.94 28.41 28.41 0 0 1 -1.42-9.52h-1a30.2 30.2 0 0 0 1.22 9.12z"/><path d="m78.12 28.66c.61 1 1.63 2.51 3 2a2.3 2.3 0 0 0 1.1-1.14l-.48-1.24a9 9 0 0 1 -.43.81c-.16.27-.33.64-.69.67a1.19 1.19 0 0 1 -.94-.53 7.94 7.94 0 0 1 -1.84-4.06 10.61 10.61 0 0 1 .31-3.59h-1a12.24 12.24 0 0 0 -.33 3 8.44 8.44 0 0 0 1.3 4.08zm12.56 22.39-.4-1a3.65 3.65 0 0 1 -1.28 1.12 6.64 6.64 0 0 1 -3 .06 29.54 29.54 0 0 1 -3.1-.54 18.69 18.69 0 0 1 -5.71-2.1 14 14 0 0 1 -4.41-5.29 29.61 29.61 0 0 1 -3.26-9.72 47.32 47.32 0 0 1 -.13-12h-1c-.75 7.46-.24 15.15 3.33 21.87a15.92 15.92 0 0 0 4.69 5.84 18.67 18.67 0 0 0 6 2.32c.78.19 1.58.33 2.38.45h4.68a3.93 3.93 0 0 0 1.21-1.01z"/></g></g></svg>