<svg width="120" height="120" viewBox="0 0 120 120" fill="none" xmlns="http://www.w3.org/2000/svg">
<path d="M59.92 97.55H37L25.09 67.07H48.01L59.92 97.55Z" fill="#C2AE9B" stroke="#8F7964" stroke-width="1.5" stroke-linecap="round" stroke-linejoin="round"/>
<path d="M82.84 97.55H59.92L48.01 67.07H70.92L82.84 97.55Z" fill="#D9CCBF" stroke="#8F7964" stroke-width="1.5" stroke-linecap="round" stroke-linejoin="round"/>
<path d="M105.75 97.55H82.84L70.92 67.07H93.84L105.75 97.55Z" fill="#C2AE9B" stroke="#8F7964" stroke-width="1.5" stroke-linecap="round" stroke-linejoin="round"/>
<path d="M104.65 99.54H81.73L69.82 69.06H92.73L105.75 97.55L104.65 99.54Z" fill="#8F7964" stroke="#8F7964" stroke-width="1.5" stroke-linecap="round" stroke-linejoin="round"/>
<path d="M81.73 99.54H58.81L46.9 69.06H69.82L82.84 97.55L81.73 99.54Z" fill="#8F7964" stroke="#8F7964" stroke-width="1.5" stroke-linecap="round" stroke-linejoin="round"/>
<path d="M58.81 99.54H35.89L23.98 69.06L25.09 67.07L46.9 69.06L59.92 97.55L58.81 99.54Z" fill="#8F7964" stroke="#8F7964" stroke-width="1.5" stroke-linecap="round" stroke-linejoin="round"/>
<path d="M59.92 97.55H37L25.09 67.07H48.01L59.92 97.55Z" fill="#C2AE9B" stroke="#8F7964" stroke-width="1.5" stroke-linecap="round" stroke-linejoin="round"/>
<path d="M82.84 97.55H59.92L48.01 67.07H70.92L82.84 97.55Z" fill="#C2AE9B" stroke="#8F7964" stroke-width="1.5" stroke-linecap="round" stroke-linejoin="round"/>
<path d="M105.75 97.55H82.84L70.92 67.07H93.84L105.75 97.55Z" fill="#D9CCBF" stroke="#8F7964" stroke-width="1.5" stroke-linecap="round" stroke-linejoin="round"/>
<g opacity="0.5">
<path d="M34.3 71.13C33.81 69.75 33.24 68.4 32.62 67.07H31.52C35 74.29 36.81 82.68 34.21 90.4L34.74 91.76C35.5608 89.6894 36.0925 87.5157 36.32 85.3C36.6937 80.4857 36.0041 75.6481 34.3 71.13ZM42.18 83.87C42.0856 81.2796 41.7237 78.7059 41.1 76.19C40.2682 73.029 39.0876 69.9702 37.58 67.07H36.45C39.1869 72.1535 40.7935 77.7682 41.16 83.53C41.38 88.18 40.97 92.82 41.92 97.42V97.55H42.92C42.4455 95.2935 42.1943 92.9957 42.17 90.69C42.19 88.42 42.27 86.14 42.18 83.87ZM52.79 87.85C54.34 89.19 55.96 90.44 57.61 91.65L56.93 89.91C54.2433 87.9624 51.7726 85.733 49.56 83.26C47.0055 80.2164 45.1121 76.6747 44 72.86C43.4321 70.9566 42.968 69.0238 42.61 67.07H41.61C42.2218 71.0014 43.3972 74.8241 45.1 78.42C47.0331 82.0286 49.6441 85.2304 52.79 87.85ZM50.47 90.42C49.86 89.88 49.05 89.19 48.16 89.42C47.852 89.5397 47.5784 89.7339 47.3638 89.9852C47.1491 90.2365 47.0001 90.537 46.93 90.86C46.28 92.94 46.77 95.48 47.26 97.55H48.26C47.781 95.8331 47.5817 94.0503 47.67 92.27C47.6635 91.6627 47.83 91.0662 48.15 90.55C48.1883 90.4886 48.2437 90.4397 48.3095 90.4095C48.3753 90.3793 48.4485 90.369 48.52 90.38C48.766 90.425 48.996 90.532 49.19 90.69C51.3877 92.4256 53.0145 94.7803 53.86 97.45V97.55H55C54.1454 94.8154 52.5825 92.3555 50.47 90.42ZM53.05 80L52.3 78.09C51.383 77.2108 50.5556 76.2427 49.83 75.2C48.2 72.85 47.12 69.9 48.03 67.15V67.09H47C45.54 71.92 49.32 77 53.05 80ZM28.48 67.07H27.4C27.9788 68.482 28.2284 70.0072 28.13 71.53C28.1054 72.4155 28.0152 73.2979 27.86 74.17L28.53 75.87C28.9464 74.2365 29.1481 72.5557 29.13 70.87C29.13 69.576 28.91 68.29 28.48 67.07ZM64.59 78.25C65.52 84.06 65.82 90.02 67.69 95.64C67.91 96.29 68.17 96.92 68.43 97.55H69.55C68.1984 94.1994 67.2744 90.6917 66.8 87.11C65.94 81.32 65.59 75.36 63.55 69.81C63.2015 68.875 62.8008 67.9602 62.35 67.07H61.24C61.699 67.9351 62.1064 68.8267 62.46 69.74C63.4587 72.4965 64.1724 75.348 64.59 78.25ZM77.31 94.06C78.9349 95.4851 80.7872 96.6276 82.79 97.44L82.27 96.1C78.6015 94.2739 75.5618 91.3943 73.54 87.83C70.8597 82.9526 69.1866 77.5864 68.62 72.05C68.4 70.39 68.26 68.73 68.17 67.05H67.17C67.3643 71.3608 68.035 75.6368 69.17 79.8C70.64 85.11 73.12 90.38 77.31 94.06ZM58.9 95L59.58 96.73C60.15 93.73 60.68 90.73 61.02 87.73C61.67 81.96 61.75 75.85 59.67 70.34C59.2436 69.2109 58.7218 68.1203 58.11 67.08H56.88C58.8691 70.3976 60.0413 74.1404 60.3 78C60.75 83.71 59.93 89.39 58.9 95ZM54.54 79.92C54.4112 80.6883 54.1965 81.4397 53.9 82.16L54.39 83.41C55.4433 81.3464 55.8938 79.0278 55.69 76.72C55.5686 73.6921 54.8907 70.7124 53.69 67.93C53.5594 67.6405 53.4227 67.3538 53.28 67.07H52.18C52.9446 68.5432 53.5353 70.1003 53.94 71.71C54.7071 74.3755 54.9115 77.1713 54.54 79.92Z" fill="#8F7964"/>
<path d="M77 83.93C75.9702 82.9872 75.0751 81.907 74.34 80.72C73.5397 79.4918 73.0333 78.0957 72.86 76.64C72.7654 75.5719 72.9588 74.498 73.42 73.53L73 72.32C70.29 76.65 73.21 81.92 76.69 84.96C77.2082 85.4404 77.7823 85.8567 78.4 86.2L77.77 84.59C77.51 84.37 77.26 84.15 77 83.93ZM81.08 79.25C82.4837 81.6375 83.5187 84.2233 84.15 86.92C84.5562 89.7141 84.4136 92.5606 83.73 95.3C83.5565 96.0541 83.3664 96.8043 83.16 97.55H84.16C85.0853 94.5108 85.4645 91.3316 85.28 88.16C84.9456 85.4388 84.09 82.8075 82.76 80.41C81.45 77.83 80.13 75.25 78.88 72.64C78.2085 71.163 77.5218 69.6929 76.82 68.23C76.64 67.84 76.47 67.46 76.31 67.07H75.23C75.83 68.58 76.6 70.07 77.23 71.49C78.49 74.103 79.773 76.69 81.08 79.25ZM89 78.25C90.3471 83.5309 90.1317 89.0892 88.38 94.25C88.03 95.36 87.64 96.46 87.23 97.55H88.3C89.5242 94.4281 90.3572 91.1666 90.78 87.84C91.0538 85.2649 90.946 82.6636 90.46 80.12C89.8628 77.6001 89.0739 75.1296 88.1 72.73C87.3834 70.9343 87.0925 68.997 87.25 67.07H86.25C85.79 70.81 88 74.71 89 78.25ZM92.39 94.2C92.1498 95.3309 91.8528 96.449 91.5 97.55H92.5C93.3449 94.7635 93.9078 91.8991 94.18 89C94.67 84.15 94.46 79.17 95.89 74.47C96.01 74.08 96.14 73.69 96.28 73.31L95.76 72C94.7937 74.3485 94.1706 76.8239 93.91 79.35C93.33 84.3 93.43 89.3 92.39 94.2ZM96.85 86.38C97.058 90.1333 97.8022 93.8376 99.06 97.38L99.12 97.55H100.2C99.2546 95.0055 98.5842 92.3671 98.2 89.68C97.8703 87.4092 97.7498 85.1129 97.84 82.82C97.8788 81.4333 98.07 80.055 98.41 78.71L97.84 77.26C96.8821 80.1987 96.545 83.3042 96.85 86.38Z" fill="#8F7964"/>
</g>
<path d="M64.87 76.05H41.95L30.04 45.56H52.95L64.87 76.05Z" fill="#C2AE9B" stroke="#8F7964" stroke-width="1.5" stroke-linecap="round" stroke-linejoin="round"/>
<path d="M87.78 76.05H64.87L52.95 45.56H75.87L87.78 76.05Z" fill="#D9CCBF" stroke="#8F7964" stroke-width="1.5" stroke-linecap="round" stroke-linejoin="round"/>
<path d="M110.7 76.05H87.78L75.87 45.56H98.79L110.7 76.05Z" fill="#C2AE9B" stroke="#8F7964" stroke-width="1.5" stroke-linecap="round" stroke-linejoin="round"/>
<path d="M109.59 77.83H86.68L74.77 47.35H97.68L110.7 75.85L109.59 77.83Z" fill="#8F7964" stroke="#8F7964" stroke-width="1.5" stroke-linecap="round" stroke-linejoin="round"/>
<path d="M86.68 77.83H63.76L51.85 47.35H74.77L87.78 75.85L86.68 77.83Z" fill="#8F7964" stroke="#8F7964" stroke-width="1.5" stroke-linecap="round" stroke-linejoin="round"/>
<path d="M63.76 77.83H40.84L28.93 47.35L30.04 45.36L51.85 47.35L64.87 75.85L63.76 77.83Z" fill="#8F7964" stroke="#8F7964" stroke-width="1.5" stroke-linecap="round" stroke-linejoin="round"/>
<path d="M64.87 76.05H41.95L30.04 45.56H52.95L64.87 76.05Z" fill="#D9CCBF" stroke="#8F7964" stroke-width="1.5" stroke-linecap="round" stroke-linejoin="round"/>
<path d="M87.78 76.05H64.87L52.95 45.56H75.87L87.78 76.05Z" fill="#C2AE9B" stroke="#8F7964" stroke-width="1.5" stroke-linecap="round" stroke-linejoin="round"/>
<path d="M110.7 76.05H87.78L75.87 45.56H98.79L110.7 76.05Z" fill="#D9CCBF" stroke="#8F7964" stroke-width="1.5" stroke-linecap="round" stroke-linejoin="round"/>
<g opacity="0.5">
<path d="M39.46 59.49C38.7591 56.8263 38.2709 54.1111 38 51.37C37.79 49.44 37.66 47.5 37.56 45.56H36.56C36.7167 49.7728 37.2318 53.9646 38.1 58.09C38.7203 60.6643 39.5704 63.1777 40.64 65.6C41.7943 68.035 42.7768 70.5478 43.58 73.12C43.835 74.081 44.015 75.06 44.12 76.05H45.12C44.6679 72.9803 43.7542 69.9965 42.41 67.2C41.2429 64.7041 40.257 62.1275 39.46 59.49ZM33.81 45.56H32.81C32.61 47.37 32.4 49.18 32.15 50.98L32.89 52.86C32.89 52.64 32.96 52.41 32.99 52.18C33.31 50 33.57 47.77 33.81 45.56ZM49 69.08C46.2 63.93 43.58 58.61 42.33 52.85C41.8024 50.4573 41.5673 48.0094 41.63 45.56H40.63C40.37 56.11 46 65.68 51 74.7L51.75 76.05H52.86C52.33 74.96 51.71 73.91 51.13 72.86C50.42 71.61 49.72 70.35 49 69.08ZM51.74 62.2C53.4993 63.8671 55.4072 65.3701 57.44 66.69C58.8409 67.5805 60.3681 68.2547 61.97 68.69L61.52 67.53C58.28 66.53 55.52 64.24 52.95 61.99C51.2012 60.5413 49.6601 58.8589 48.37 56.99C47.2688 55.1882 46.4683 53.2191 46 51.16C45.5614 49.3165 45.2473 47.4456 45.06 45.56H44C44.42 49.51 45.13 53.5 47.16 56.95C48.41 58.9234 49.9545 60.6938 51.74 62.2ZM51.47 52.11C52.3776 53.292 53.5177 54.2756 54.82 55C55.4295 55.3358 56.129 55.4722 56.82 55.39L56.47 54.49C55.37 54.56 53.77 53.05 53.23 52.49C52.1036 51.3942 51.2063 50.0856 50.59 48.64C50.1311 47.6502 49.8501 46.5873 49.76 45.5H48.76C48.822 46.3838 49.0036 47.2551 49.3 48.09C49.7825 49.5467 50.517 50.9073 51.47 52.11ZM57.38 48.26C58.02 50.16 58.76 52.02 59.46 53.89C60.77 57.43 61.92 61.12 61.72 64.89C61.6744 65.6408 61.5674 66.3867 61.4 67.12L61.52 67.43L62 68.64L62.06 68.79C64.19 62.55 61.16 55.66 58.99 49.74C58.4302 48.3864 57.9853 46.9882 57.66 45.56H56.66C56.83 46.477 57.07 47.38 57.38 48.26Z" fill="#8F7964"/>
<path d="M66.74 56.67C65.82 54.67 64.3 52.94 63.29 50.95C62.5031 49.258 62.0644 47.425 62 45.56H61C61.0611 47.0053 61.3064 48.4368 61.73 49.82C62.43 51.92 63.81 53.63 64.96 55.49C67.45 59.49 67.43 64.38 66.31 68.87C65.7796 70.8795 65.1318 72.8563 64.37 74.79L64.86 76.05H65C66.62 71.87 68.16 67.55 68.1 63.05C68.0862 60.8529 67.6234 58.6818 66.74 56.67Z" fill="#8F7964"/>
<path d="M73.84 65C73.5748 62.4822 72.8135 60.0419 71.6 57.82C70.28 55.49 68.17 53.82 66.77 51.52C65.7152 49.7249 65.1337 47.6913 65.08 45.61H64.08C64.14 47.2226 64.4783 48.8127 65.08 50.31C66.08 52.82 68.08 54.56 69.69 56.68C73 61 73.45 66.8 72.7 72.07C72.51 73.41 72.23 74.73 71.93 76.07H72.93C73.8673 72.4597 74.1752 68.7149 73.84 65ZM75 52.16C75.5526 52.2063 76.1088 52.1417 76.636 51.97C77.1632 51.7983 77.6508 51.5229 78.07 51.16L77.67 50.16C77.4187 50.4499 77.1127 50.6874 76.7695 50.859C76.4264 51.0306 76.0527 51.1329 75.67 51.16C74.9097 51.2001 74.1517 51.0458 73.4675 50.7116C72.7834 50.3774 72.1957 49.8744 71.76 49.25C70.9399 48.1717 70.4097 46.9013 70.22 45.56H69.22C69.3822 46.9205 69.858 48.2247 70.61 49.37C71.0758 50.1431 71.7148 50.7976 72.4766 51.2817C73.2384 51.7659 74.1022 52.0665 75 52.16ZM79.39 63.57C79.2999 61.5989 79.3501 59.624 79.54 57.66C79.62 57.02 79.73 56.4 79.86 55.77L79.25 54.2C78.5638 56.7713 78.2639 59.4304 78.36 62.09C78.3427 66.4731 78.6771 70.8504 79.36 75.18L79.51 76.05H80.51C80.19 74.05 79.85 72.14 79.69 70.15C79.56 68 79.47 65.76 79.39 63.57ZM84.85 68.54L84.28 67.08C83.2591 69.9678 82.7744 73.0179 82.85 76.08H83.85C83.783 73.5296 84.1205 70.9847 84.85 68.54ZM99.44 76.05H100.44C100.17 66.87 98.87 57.71 95.26 49.2C94.74 47.96 94.15 46.75 93.53 45.56H92.4C97.13 54.4 98.98 64.56 99.4 74.56C99.41 75 99.43 75.54 99.44 76.05ZM104.44 76.05H105.44C105.674 71.3839 105.607 66.7075 105.24 62.05L103.92 58.68C104.564 64.4464 104.738 70.2555 104.44 76.05ZM88.05 76.05H89.05C89.1574 73.5345 89.4752 71.0324 90 68.57C90.644 65.6404 91.0553 62.6645 91.23 59.67C91.2877 56.8321 90.8338 54.007 89.89 51.33C89.1908 49.3435 88.3383 47.4143 87.34 45.56H86.17C88.46 49.87 90.27 54.46 90.17 59.43C90.1 65 88.13 70.44 88.05 76.05ZM82.44 62.36L82.81 63.36C82.9164 63.3646 83.0213 63.3337 83.1082 63.2721C83.1951 63.2106 83.2591 63.1219 83.29 63.02C85.23 57.42 85.69 51.02 83.15 45.61H82C84.66 50.73 84.26 56.89 82.44 62.36Z" fill="#8F7964"/>
</g>
<path opacity="0.25" d="M100.18 81.23L99.18 77.83C99.136 77.6734 99.0417 77.5356 98.9115 77.438C98.7814 77.3404 98.6227 77.2883 98.46 77.29H41.7L37.54 66.79C37.4857 66.6513 37.3907 66.5323 37.2676 66.4484C37.1445 66.3645 36.999 66.3198 36.85 66.32H33.68C33.5586 66.3182 33.4386 66.3463 33.3306 66.4018C33.2226 66.4573 33.1299 66.5386 33.0608 66.6384C32.9916 66.7382 32.948 66.8535 32.934 66.9741C32.9199 67.0947 32.9357 67.2169 32.98 67.33L38.45 81.71C38.5063 81.8521 38.6042 81.974 38.7309 82.0596C38.8576 82.1453 39.0071 82.1907 39.16 82.19H99.46C99.5811 82.1921 99.7009 82.1648 99.8091 82.1106C99.9173 82.0563 100.011 81.9766 100.082 81.8783C100.152 81.7801 100.198 81.6661 100.215 81.5463C100.233 81.4264 100.22 81.3042 100.18 81.19V81.23ZM34.63 58H88.55C88.6961 57.9992 88.8389 57.9564 88.9613 57.8766C89.0836 57.7968 89.1804 57.6834 89.24 57.55L90.65 54.34C90.6963 54.2286 90.7155 54.1077 90.7058 53.9874C90.6961 53.8671 90.658 53.7508 90.5944 53.6482C90.5309 53.5456 90.4439 53.4596 90.3405 53.3973C90.2371 53.335 90.1204 53.2982 90 53.29L33.36 52.89C33.2394 52.8906 33.1207 52.9202 33.014 52.9764C32.9073 53.0326 32.8158 53.1137 32.7471 53.2128C32.6784 53.3119 32.6346 53.4261 32.6194 53.5457C32.6043 53.6654 32.6182 53.7869 32.66 53.9L33.96 57.5C34.0106 57.6397 34.101 57.7615 34.2201 57.8504C34.3392 57.9393 34.4817 57.9913 34.63 58Z" fill="#8F7964"/>
<path d="M45.23 52.05H22.32L10.4 21.57H33.32L45.23 52.05Z" fill="#C2AE9B" stroke="#8F7964" stroke-width="1.5" stroke-linecap="round" stroke-linejoin="round"/>
<path d="M68.15 52.05H45.23L33.32 21.57H56.24L68.15 52.05Z" fill="#D9CCBF" stroke="#8F7964" stroke-width="1.5" stroke-linecap="round" stroke-linejoin="round"/>
<path d="M91.07 52.05H68.15L56.24 21.57H79.16L91.07 52.05Z" fill="#C2AE9B" stroke="#8F7964" stroke-width="1.5" stroke-linecap="round" stroke-linejoin="round"/>
<path d="M89.96 54.04H67.05L55.13 23.56H78.05L91.07 52.05L89.96 54.04Z" fill="#8F7964" stroke="#8F7964" stroke-width="1.5" stroke-linecap="round" stroke-linejoin="round"/>
<path d="M67.05 54.04H44.13L32.22 23.56H55.13L68.15 52.05L67.05 54.04Z" fill="#8F7964" stroke="#8F7964" stroke-width="1.5" stroke-linecap="round" stroke-linejoin="round"/>
<path d="M44.13 54.04H21.21L9.3 23.56L10.4 21.57L32.22 23.56L45.23 52.05L44.13 54.04Z" fill="#8F7964" stroke="#8F7964" stroke-width="1.5" stroke-linecap="round" stroke-linejoin="round"/>
<path d="M45.23 52.05H22.32L10.4 21.57H33.32L45.23 52.05Z" fill="#C2AE9B" stroke="#8F7964" stroke-width="1.5" stroke-linecap="round" stroke-linejoin="round"/>
<path d="M68.15 52.05H45.23L33.32 21.57H56.24L68.15 52.05Z" fill="#D9CCBF" stroke="#8F7964" stroke-width="1.5" stroke-linecap="round" stroke-linejoin="round"/>
<path d="M91.07 52.05H68.15L56.24 21.57H79.16L91.07 52.05Z" fill="#C2AE9B" stroke="#8F7964" stroke-width="1.5" stroke-linecap="round" stroke-linejoin="round"/>
<g opacity="0.5">
<path d="M17.59 24.64C17.3608 23.5683 16.9803 22.5346 16.46 21.57H15.34C15.9141 22.5729 16.3386 23.6543 16.6 24.78C16.9272 26.3985 16.8621 28.0718 16.41 29.66C16.0333 30.9613 15.5826 32.2401 15.06 33.49L15.6 34.87C15.7 34.6 15.8 34.33 15.91 34.06C17.08 31 18.28 28 17.59 24.64ZM12.89 21.57H11.89C12.0369 22.3072 12.074 23.062 12 23.81C11.9503 24.213 11.8666 24.6111 11.75 25L12.3 26.4C12.651 25.6181 12.8867 24.7895 13 23.94C13.0786 23.1488 13.0415 22.3505 12.89 21.57ZM20.9 27.34C20.9438 25.4069 20.7964 23.4741 20.46 21.57H19.46C20.31 25.83 19.85 30.29 19.32 34.57C19.02 37.02 18.64 39.49 18.4 41.97L19.24 44.12C19.24 43.67 19.3 43.22 19.34 42.77C19.78 37.62 20.81 32.52 20.9 27.34ZM25.47 34.59C25.31 39.59 24.74 44.59 25.55 49.59C25.685 50.405 25.862 51.213 26.08 52.01H27.15C26.329 48.8116 25.9919 45.5083 26.15 42.21C26.27 37.21 26.9 32.28 26.15 27.35C25.869 25.3341 25.2857 23.3721 24.42 21.53H23.32C25.33 25.58 25.62 30.12 25.47 34.59ZM31.81 42.34C29.06 43.34 29.35 46.93 29.81 49.23C30.009 50.186 30.27 51.128 30.59 52.05H31.59C31.42 51.53 31.27 51.05 31.12 50.5C30.6958 49.1467 30.4734 47.7382 30.46 46.32C30.4165 45.7855 30.504 45.2484 30.7149 44.7553C30.9257 44.2622 31.2535 43.8279 31.67 43.49C33.18 42.49 34.26 44.29 34.86 45.56C35.7579 47.6362 36.3928 49.8164 36.75 52.05H37.75C37.3771 49.6587 36.7051 47.3237 35.75 45.1C35.09 43.6 33.74 41.62 31.81 42.34ZM31.79 31.81C34.48 36.73 38 41.32 39.79 46.68C40.4052 48.4041 40.7264 50.2194 40.74 52.05H41.74C41.75 48 40 44 38 40.44C36.62 37.95 35.08 35.56 33.64 33.1C32.2481 30.9086 31.1234 28.5586 30.29 26.1C29.8245 24.6553 29.6511 23.1324 29.78 21.62H28.78C28.51 25.11 30.07 28.68 31.79 31.81ZM38.69 21.57H37.69C38.3145 24.8171 38.136 28.1676 37.17 31.33L37.73 32.78C39.0538 29.198 39.3855 25.3249 38.69 21.57ZM43.93 42.72C42.48 37.72 42.74 32.54 43.04 27.44C43.2167 25.4866 43.2033 23.5208 43 21.57H42C42.2317 23.4411 42.2685 25.3313 42.11 27.21C41.96 29.86 41.8 32.51 41.89 35.21C42.05 39.94 42.99 44.75 45.65 48.75C46.4743 49.9913 47.4633 51.1149 48.59 52.09H50.18C47.1243 49.7377 44.928 46.4449 43.93 42.72ZM55.72 49C54.3434 47.1246 53.1606 45.1143 52.19 43C49.997 38.357 48.9674 33.25 49.19 28.12C49.3 25.92 49.6 23.73 49.91 21.54H48.91C48.65 23.37 48.41 25.2 48.26 27.04C48.0343 29.7965 48.1755 32.5707 48.68 35.29C49.6066 40.2251 51.5885 44.9018 54.49 49C55.2505 50.0669 56.0684 51.0917 56.94 52.07H58.29L57.91 51.67C57.14 50.8 56.41 49.91 55.72 49Z" fill="#8F7964"/>
<path d="M52.07 28.14C52.2654 30.581 52.7042 32.9963 53.38 35.35C54.7388 39.8054 57.6662 43.6174 61.62 46.08C62.8415 46.8109 64.0999 47.4784 65.39 48.08C65.89 48.33 66.39 48.58 66.91 48.82L66.37 47.45L66.09 47.32C65.09 46.8 64.01 46.32 63 45.69C60.9952 44.5741 59.2068 43.1075 57.72 41.36C54.72 37.74 53.6 33.14 53.11 28.55C52.87 26.23 52.62 23.87 52.61 21.55H51.61C51.63 23.76 51.85 26 52.07 28.14Z" fill="#8F7964"/>
<path d="M61.06 35C59.18 33.2 57.06 30.5 57.3 27.73C57.3647 27.0987 57.6075 26.4987 58 26L57.58 24.92C57.041 25.4794 56.6553 26.1682 56.46 26.92C56.1806 28.3219 56.3704 29.7767 57 31.06C58.2004 33.67 60.1051 35.8933 62.5 37.48L61.8 35.68C61.51 35.47 61.28 35.25 61.06 35Z" fill="#8F7964"/>
<path d="M61.33 34.31C61.33 34.4426 61.3827 34.5698 61.4764 34.6635C61.5702 34.7573 61.6974 34.81 61.83 34.81C61.9626 34.81 62.0898 34.7573 62.1835 34.6635C62.2773 34.5698 62.33 34.4426 62.33 34.31C62.41 30.03 62.43 25.59 60.88 21.57H59.81C61.47 25.56 61.41 30 61.33 34.31ZM64.53 32.08C64.36 34.26 64.15 36.43 63.86 38.6C63.78 39.18 63.68 39.76 63.58 40.34L64.28 42.14C64.5 40.78 64.75 39.42 64.93 38.06C65.19 35.99 65.39 33.91 65.55 31.84C65.7612 29.8474 65.8313 27.8424 65.76 25.84C65.656 24.3811 65.3877 22.9386 64.96 21.54H63.96C64.3973 22.8966 64.6758 24.2993 64.79 25.72C64.86 27.8435 64.7731 29.9693 64.53 32.08ZM75 30.69C75.7061 33.2257 77.017 35.5523 78.82 37.47C79.3868 38.1208 80.0836 38.6456 80.8655 39.0107C81.6474 39.3759 82.4972 39.5732 83.36 39.59C83.8123 39.5565 84.2535 39.4341 84.6585 39.23C85.0634 39.0258 85.4241 38.7437 85.72 38.4L85.31 37.33C85.2248 37.4656 85.1313 37.5959 85.03 37.72C84.6626 38.1693 84.1431 38.4682 83.57 38.56C82.9742 38.6408 82.3676 38.565 81.81 38.34C81.067 38.0328 80.3885 37.5884 79.81 37.03C78.1355 35.3778 76.8953 33.3373 76.2 31.09C75.1886 28.0205 74.7084 24.801 74.78 21.57H73.78C73.7184 24.6545 74.1299 27.7302 75 30.69Z" fill="#8F7964"/>
<path d="M78.12 28.66C78.73 29.66 79.75 31.17 81.12 30.66C81.6101 30.4222 81.9999 30.0183 82.22 29.52L81.74 28.28C81.6105 28.5571 81.467 28.8275 81.31 29.09C81.15 29.36 80.98 29.73 80.62 29.76C80.4326 29.752 80.2498 29.6998 80.0865 29.6077C79.9231 29.5156 79.7838 29.3862 79.68 29.23C78.6916 28.0801 78.0531 26.6713 77.84 25.17C77.7379 23.9644 77.8427 22.7502 78.15 21.58H77.15C76.9167 22.5626 76.8058 23.5702 76.82 24.58C76.8954 26.0291 77.3431 27.4344 78.12 28.66ZM90.68 51.05L90.28 50.05C89.9475 50.5189 89.5089 50.9027 89 51.17C88.0177 51.4186 86.9915 51.4392 86 51.23C84.9578 51.1052 83.923 50.9249 82.9 50.69C80.8948 50.3066 78.9659 49.5972 77.19 48.59C75.3025 47.2214 73.7866 45.403 72.78 43.3C71.1364 40.2742 70.0332 36.9849 69.52 33.58C68.9676 29.6017 68.9239 25.5693 69.39 21.58H68.39C67.64 29.04 68.15 36.73 71.72 43.45C72.7966 45.742 74.4045 47.744 76.41 49.29C78.2607 50.4047 80.2908 51.1896 82.41 51.61C83.19 51.8 83.99 51.94 84.79 52.06H89.47C89.9374 51.8085 90.349 51.4649 90.68 51.05Z" fill="#8F7964"/>
</g>
</svg>
