<svg height="120" width="120" xmlns="http://www.w3.org/2000/svg"><g fill="none" fill-rule="evenodd"><g fill-rule="nonzero"><path d="m11.45 46.47v9.32l30.92 3.04v-9.44z" fill="#f2f2f2"/><path d="m45.44 56.9-33.37-3.86-11.13 9.97.98 2.65 33.96 3.88 9.53-8.44zm57.06-12.82 12.99 10.84-2.72 3.01-8.07-7.19-19.82 18.39-33.12-3.97-1.48-3.58 18.87-20.12z" fill="#c5e2e6"/><path d="m93.44 37.27 6.34 5.37v2.54l-6.34-.91-10.5 7.15-21.49-2.4.02-4.8 11.54-5.88z" fill="#fff"/><g fill="#c5e2e6"><path d="m93.44 32.9 8.26 7.16-1.92 2.58-6.34-5.37-10.47 9.35-20.5-2.4-1.38-3.44 11.92-9.44z"/><path d="m35.76 21.93-27.39 18.33 1.57 3.52 34.13 3.49 28.8-21.84 8.29 7.83 1.31-1.04-9.6-9.63z"/></g></g><g stroke="#6eb7c2" stroke-linecap="round" stroke-linejoin="round" stroke-width="1.5"><path d="m72.87 21.59-28.95 22.03-35.55-3.36 27.39-19.33 37.11.66 9.6 9.63"/><path d="m73.01 31.34 20.43 1.56 8.26 7.16"/><path d="m93.44 32.9-11.96 10.18-20.39-2.3 11.92-9.44zm-9.98 19.59 9.98-8.22 11.26.79-22.17 20.37-32.25-3.85 12.47-11.44zm21.24-7.43 10.79 9.86"/></g><path d="m39.61 36.65 8.29.8-4.32-5.25z" fill="#fff" fill-rule="nonzero"/><path d="m57.63 27.9h-14.04l-7.46 8.51m7.45-8.51 6.98 9.07" stroke="#6eb7c2" stroke-linecap="round" stroke-linejoin="round" stroke-width="1.5"/><path d="m15.61 35.37 6.68-7.63h14.05l-7.07 9.06z" fill="#c5e2e6" fill-rule="nonzero"/><path d="m36.96 27.02h-14.05l-6.68 7.64m6.68-7.64 6.98 9.07" stroke="#6eb7c2" stroke-linecap="round" stroke-linejoin="round" stroke-width="1.5"/><path d="m18.94 35.77 8.29.79-4.32-5.25z" fill="#fff" fill-rule="nonzero"/><path d="m9.26 64.57 6.68-7.63h14.05l-7.07 9.06z" fill="#c5e2e6" fill-rule="nonzero"/><path d="m24.71 54.8-8.15.42-6.68 7.63m6.68-7.63 6.98 9.07" stroke="#6eb7c2" stroke-linecap="round" stroke-linejoin="round" stroke-width="1.5"/><path d="m10.75 67.84 11.78 1.13-6.14-8.46z" fill="#fff" fill-rule="nonzero"/><path d="m36.96 27.02-7.07 9.07m27.75-8.19-6.36 10.08" stroke="#6eb7c2" stroke-linecap="round" stroke-linejoin="round" stroke-width="1.5"/><path d="m3.86 69.54 9.84 1.19 2.94-3.4 3.37 4.16 15.89 1.91v25.47l-32.04-5.3zm48.55-.25v25.84l32.62 5.93v-27.3z" fill="#f2f2f2" fill-rule="nonzero"/><path d="m25.98 55.22-2.44 9.06 11.36 1.61 10.83-9.03-33.66-3.82-11.13 8.97 8.94.84" stroke="#6eb7c2" stroke-linecap="round" stroke-linejoin="round" stroke-width="1.5"/></g></svg>