<svg width="120" height="120" viewBox="0 0 120 120" fill="none" xmlns="http://www.w3.org/2000/svg">
<path d="M60.4899 58.78V47.52L94.9299 53.16V65.8L60.4899 58.78Z" fill="#EEEEEE"/>
<path d="M94.4299 60.35L60.4899 53.76L40.3199 59.23L12.6899 54.04L5.66992 63.35L7.56992 66.9L41.1699 74.06L59.9999 68.11L89.8099 74.48L94.9299 65.39L94.4299 60.35Z" fill="#BBCAE8"/>
<path d="M60.95 92.31V71.04L92.16 77.68V99.32L60.95 92.31Z" fill="#EEEEEE"/>
<path fill-rule="evenodd" clip-rule="evenodd" d="M58.6799 53.76L59.9999 65.38L88.1199 71.09L94.4299 60.35L58.6799 53.76Z" stroke="#1B4EB2" stroke-width="1.5" stroke-linecap="round" stroke-linejoin="round"/>
<path d="M14.12 53.02V47.38L24.74 36.79L37.73 52V58.16L14.12 53.02Z" fill="#EEEEEE"/>
<path d="M55.08 20.06L24.9 26.61L11.95 40.43L13.6 42.6L24.72 31.49L39.84 48.64L58.2 44.33L96.93 50.41L107 32.09L113.47 42.12L114.93 39.51L107 25.68L55.08 20.06Z" fill="#BBCAE8"/>
<path d="M58.2 40.94L41.8 44.77L24.9 26.14L55.08 19.59L107 25.21M58.2 40.94L95.18 46.47L107 25.21M58.2 40.94L55.07 20.06M107 25.21L115.73 39.34M24.58 26.32L11 39.91" stroke="#1B4EB2" stroke-width="1.5" stroke-linecap="round" stroke-linejoin="round"/>
<path d="M10.0699 92.68V70.13L39.7999 77.04V101.1L10.0699 92.68Z" fill="#EEEEEE"/>
<path fill-rule="evenodd" clip-rule="evenodd" d="M40.32 59.23L41.82 71.17L4.82996 63.15L12.41 53.53L40.32 59.23Z" stroke="#1B4EB2" stroke-width="1.5" stroke-linecap="round" stroke-linejoin="round"/>
<path fill-rule="evenodd" clip-rule="evenodd" d="M41.8199 71.17L59.9999 65.38L58.6799 53.76L40.3199 59.23L41.8199 71.17Z" stroke="#1B4EB2" stroke-width="1.5" stroke-linecap="round" stroke-linejoin="round"/>
</svg>
