<svg height="120" width="120" xmlns="http://www.w3.org/2000/svg"><g fill="none" fill-rule="evenodd"><g fill-rule="nonzero"><path d="m60.49 58.78v-11.26l34.44 5.64v12.64z" fill="#f2f2f2"/><path d="m94.43 60.35-33.94-6.59-20.17 5.47-27.63-5.19-7.02 9.31 1.9 3.55 33.6 7.16 18.83-5.95 29.81 6.37 5.12-9.09z" fill="#c5e2e6"/><path d="m60.95 92.31v-21.27l31.21 6.64v21.64z" fill="#f2f2f2"/></g><path d="m58.68 53.76 1.32 11.62 28.12 5.71 6.31-10.74z" stroke="#6eb7c2" stroke-linecap="round" stroke-linejoin="round" stroke-width="1.5"/><path d="m14.12 53.02v-5.64l10.62-10.59 12.99 15.21v6.16z" fill="#f2f2f2" fill-rule="nonzero"/><path d="m55.08 20.06-30.18 6.55-12.95 13.82 1.65 2.17 11.12-11.11 15.12 17.15 18.36-4.31 38.73 6.08 10.07-18.32 6.47 10.03 1.46-2.61-7.93-13.83z" fill="#c5e2e6" fill-rule="nonzero"/><path d="m55.08 19.59-30.18 6.55 16.9 18.63 16.4-3.83 36.98 5.53 11.82-21.26zm-30.5 6.73-13.58 13.59m44.07-19.85 3.13 20.88m48.8-15.73 8.73 14.13" stroke="#6eb7c2" stroke-linecap="round" stroke-linejoin="round" stroke-width="1.5"/><path d="m10.07 92.68v-22.55l29.73 6.91v24.06z" fill="#f2f2f2" fill-rule="nonzero"/><g stroke="#6eb7c2" stroke-linecap="round" stroke-linejoin="round" stroke-width="1.5"><path d="m40.32 59.23 1.5 11.94-36.99-8.02 7.58-9.62z"/><path d="m41.82 71.17 18.18-5.79-1.32-11.62-18.36 5.47z"/></g></g></svg>