<svg height="120" width="120" xmlns="http://www.w3.org/2000/svg"><g fill="none" fill-rule="evenodd"><g fill-rule="nonzero"><path d="m59.95 46.73-41.47 19.55v45.07h83.04v-45.02z" fill="#f6f6f6"/><path d="m50 76.76h20v34.6h-20z" fill="#dcdcdc"/><path d="m59.95 43.02-49.2 23.21 2.67 3.81 46.53-21.95 46.53 21.95 2.67-3.81z" fill="#fff"/><path d="m59.95 36.98-49.2 23.21 2.67 5.81 46.53-21.95 46.53 21.95 2.67-5.81z" fill="#c5e2e6"/></g><path d="m9.9 60.53 50.05-23.55 50.15 23.66" stroke="#6eb7c2" stroke-linecap="round" stroke-linejoin="round" stroke-width="1.5"/><path d="m10.85 111.35h98.3" stroke="#dcdcdc" stroke-linecap="round" stroke-width="2"/><path d="m77.81 77.42h16.76v19.37h-16.76z" fill="#dcdcdc" fill-rule="nonzero"/><path d="m86.19 77.42v19.37m8.38-9.69h-16.76" stroke="#f6f6f6" stroke-linecap="square" stroke-width="3"/><path d="m25.43 77.42h16.76v19.37h-16.76z" fill="#dcdcdc" fill-rule="nonzero"/><path d="m33.81 77.42v19.37m8.38-9.69h-16.76" stroke="#f6f6f6" stroke-linecap="square" stroke-width="3"/><path d="m46.1 70.48c0-7.677 6.223-13.9 13.9-13.9s13.9 6.223 13.9 13.9" fill="#dcdcdc" fill-rule="nonzero"/><path d="m51 56.62 9 13.86m9.1-13.86-9 13.86" stroke="#f6f6f6" stroke-linecap="square" stroke-width="3"/></g></svg>