<svg width="120" height="120" viewBox="0 0 120 120" fill="none" xmlns="http://www.w3.org/2000/svg">
<path d="M60 23.78L18.48 60.3V111.35H101.52V60.3L60 23.78Z" fill="#F5F5F5"/>
<path d="M60 70C65.523 70 70 74.477 70 80V111.31H50V80C50 74.477 54.477 70 60 70Z" fill="#E0E0E0"/>
<path d="M60 63.72C65.5228 63.72 70 59.2429 70 53.72C70 48.1972 65.5228 43.72 60 43.72C54.4771 43.72 50 48.1972 50 53.72C50 59.2429 54.4771 63.72 60 63.72Z" fill="#E0E0E0"/>
<path d="M60 43.75V63.72M69.99 53.74H50.01" stroke="#F5F5F5" stroke-width="3" stroke-linecap="square"/>
<path d="M10.85 67.85L59.95 23.75L109.15 67.95L105.16 72.33L59.95 32.12L14.74 72.33L10.85 67.85Z" fill="white"/>
<path d="M9.89999 62.71L59.95 17.75L110.1 62.81L106.03 67.27L59.95 26.28L13.86 67.27L9.89999 62.71Z" fill="#BBCAE8"/>
<path d="M9.89999 62.71L59.95 17.75L110.1 62.81" stroke="#1B4EB2" stroke-width="1.5" stroke-linecap="round" stroke-linejoin="round"/>
<path d="M10.85 111.35H109.15" stroke="#E0E0E0" stroke-width="2" stroke-linecap="round"/>
<path d="M77.81 77.42H94.57V96.79H77.81V77.42Z" fill="#E0E0E0"/>
<path d="M86.19 77.42V96.79M94.57 87.1H77.81" stroke="#F5F5F5" stroke-width="3" stroke-linecap="square"/>
<path d="M25.43 77.42H42.19V96.79H25.43V77.42Z" fill="#E0E0E0"/>
<path d="M33.81 77.42V96.79M42.19 87.1H25.43" stroke="#F5F5F5" stroke-width="3" stroke-linecap="square"/>
</svg>
