<svg height="120" width="120" xmlns="http://www.w3.org/2000/svg"><g fill="none" fill-rule="evenodd" transform="translate(9 17)"><g fill-rule="nonzero"><path d="m51 6.78-41.52 36.52v51.05h83.04v-51.05z" fill="#f6f6f6"/><g fill="#dcdcdc"><path d="m51 53c5.523 0 10 4.477 10 10v31.31h-20v-31.31c0-5.523 4.477-10 10-10z"/><circle cx="51" cy="36.72" r="10"/></g></g><path d="m51 26.75v19.97m9.99-9.98h-19.98" stroke="#f6f6f6" stroke-linecap="square" stroke-width="3"/><path d="m1.85 50.85 49.1-44.1 49.2 44.2-3.99 4.38-45.21-40.21-45.21 40.21z" fill="#fff" fill-rule="nonzero"/><path d="m.9 45.71 50.05-44.96 50.15 45.06-4.07 4.46-46.08-40.99-46.09 40.99z" fill="#c5e2e6" fill-rule="nonzero"/><path d="m.9 45.71 50.05-44.96 50.15 45.06" stroke="#6eb7c2" stroke-linecap="round" stroke-linejoin="round" stroke-width="1.5"/><path d="m1.85 94.35h98.3" stroke="#dcdcdc" stroke-linecap="round" stroke-width="2"/><path d="m68.81 60.42h16.76v19.37h-16.76z" fill="#dcdcdc" fill-rule="nonzero"/><path d="m77.19 60.42v19.37m8.38-9.69h-16.76" stroke="#f6f6f6" stroke-linecap="square" stroke-width="3"/><path d="m16.43 60.42h16.76v19.37h-16.76z" fill="#dcdcdc" fill-rule="nonzero"/><path d="m24.81 60.42v19.37m8.38-9.69h-16.76" stroke="#f6f6f6" stroke-linecap="square" stroke-width="3"/></g></svg>