<svg height="120" width="120" xmlns="http://www.w3.org/2000/svg"><g fill="none" fill-rule="evenodd"><g fill-rule="nonzero"><path d="m60 14.78-41.52 48.52v48.05h83.04v-48.05z" fill="#f6f6f6"/><path d="m10.85 70.53 49.1-56.1 49.2 56.2-3.99 4.38-45.21-52.21-45.21 52.21z" fill="#fff"/><path d="m9.9 65.71 50.05-56.96 50.15 57.06-4.54 3.57-45.61-52.1-45.61 52.1z" fill="#c5e2e6"/></g><path d="m9.9 65.71 50.05-56.96 50.15 57.06" stroke="#6eb7c2" stroke-linecap="round" stroke-linejoin="round" stroke-width="1.5"/><path d="m10.85 111.35h98.3" stroke="#dcdcdc" stroke-linecap="round" stroke-width="2"/><path d="m77.81 77.42h16.76v19.37h-16.76z" fill="#dcdcdc" fill-rule="nonzero"/><path d="m86.19 77.42v19.37m8.38-9.69h-16.76" stroke="#f6f6f6" stroke-linecap="square" stroke-width="3"/><path d="m59.28 38.6h1.47a8.38 8.38 0 0 1 8.38 8.4v13.22h-18.23v-13.22a8.38 8.38 0 0 1 8.38-8.4z" fill="#dcdcdc" fill-rule="nonzero"/><path d="m60.02 36.28v25.3m8.67-12.17h-18.23" stroke="#f6f6f6" stroke-linecap="square" stroke-width="3"/><path d="m25.43 77.42h16.76v19.37h-16.76z" fill="#dcdcdc" fill-rule="nonzero"/><path d="m33.81 77.42v19.37m8.38-9.69h-16.76" stroke="#f6f6f6" stroke-linecap="square" stroke-width="3"/><path d="m60 70c5.523 0 10 4.477 10 10v31.31h-20v-31.31c0-5.523 4.477-10 10-10z" fill="#dcdcdc" fill-rule="nonzero"/></g></svg>